<?xml version="1.0" encoding="utf-8"?>
<!-- Generator: Adobe Illustrator 19.0.0, SVG Export Plug-In . SVG Version: 6.00 Build 0)  -->
<svg version="1.1" id="Illustration" xmlns="http://www.w3.org/2000/svg" xmlns:xlink="http://www.w3.org/1999/xlink" x="0px"
	 y="0px" viewBox="0 0 1217.5 788.3" style="enable-background:new 0 0 1217.5 788.3;" xml:space="preserve">
<style type="text/css">
	.st0{fill:url(#SVGID_1_);}
	.st1{fill:#91B3FA;}
	.st2{fill:url(#SVGID_2_);}
	.st3{fill:#BDD0FB;}
	.st4{fill:url(#SVGID_3_);}
	.st5{fill:url(#SVGID_4_);}
	.st6{fill:#F0F0F0;}
	.st7{fill:url(#SVGID_5_);}
	.st8{fill:url(#SVGID_6_);}
	.st9{fill:url(#SVGID_7_);}
	.st10{fill:#7D97F4;}
	.st11{opacity:0.65;fill:#FFFFFF;}
	.st12{fill:#DCE5FE;}
	.st13{fill:url(#SVGID_8_);}
	.st14{fill:#FFFFFF;}
	.st15{fill:url(#SVGID_9_);}
	.st16{fill:url(#SVGID_10_);}
	.st17{opacity:0.5;fill:#FFFFFF;}
	.st18{opacity:0.42;}
	.st19{fill:url(#SVGID_11_);}
	.st20{fill:url(#SVGID_12_);}
	.st21{fill:url(#SVGID_13_);}
	.st22{fill:url(#SVGID_14_);}
	.st23{fill:url(#SVGID_15_);}
	.st24{opacity:0.85;}
	.st25{fill:url(#SVGID_16_);}
	.st26{fill:url(#SVGID_17_);}
	.st27{fill:url(#SVGID_18_);}
	.st28{opacity:0.62;fill:#FFFFFF;}
	.st29{fill:url(#SVGID_19_);}
	.st30{fill:url(#SVGID_20_);}
	.st31{fill:url(#SVGID_21_);}
	.st32{fill:url(#SVGID_22_);}
	.st33{fill:url(#SVGID_23_);}
	.st34{fill:url(#SVGID_24_);}
	.st35{fill:url(#SVGID_25_);}
	.st36{fill:url(#SVGID_26_);}
	.st37{fill:url(#SVGID_27_);}
	.st38{fill:url(#SVGID_28_);}
	.st39{fill:url(#SVGID_29_);}
	.st40{fill:url(#SVGID_30_);}
	.st41{fill:url(#SVGID_31_);}
	.st42{fill:url(#SVGID_32_);}
	.st43{fill:url(#SVGID_33_);}
	.st44{fill:url(#SVGID_34_);}
	.st45{fill:url(#SVGID_35_);}
	.st46{fill:url(#SVGID_36_);}
	.st47{fill:url(#SVGID_37_);}
	.st48{fill:url(#SVGID_38_);}
	.st49{fill:url(#SVGID_39_);}
	.st50{fill:url(#SVGID_40_);}
	.st51{fill:url(#SVGID_41_);}
	.st52{fill:url(#SVGID_42_);}
	.st53{fill:url(#SVGID_43_);}
	.st54{fill:url(#SVGID_44_);}
	.st55{fill:url(#SVGID_45_);}
	.st56{fill:url(#SVGID_46_);}
	.st57{fill:url(#SVGID_47_);}
	.st58{fill:url(#SVGID_48_);}
	.st59{fill:url(#SVGID_49_);}
	.st60{fill:url(#SVGID_50_);}
	.st61{fill:url(#SVGID_51_);}
	.st62{fill:url(#SVGID_52_);}
	.st63{fill:url(#SVGID_53_);}
	.st64{fill:url(#SVGID_54_);}
	.st65{fill:url(#SVGID_55_);}
	.st66{fill:url(#SVGID_56_);}
	.st67{fill:url(#SVGID_57_);}
	.st68{fill:url(#SVGID_58_);}
	.st69{fill:url(#SVGID_59_);}
	.st70{fill:url(#SVGID_60_);}
	.st71{fill:url(#SVGID_61_);}
	.st72{fill:url(#SVGID_62_);}
	.st73{fill:url(#SVGID_63_);}
	.st74{fill:url(#SVGID_64_);}
	.st75{fill:url(#SVGID_65_);}
	.st76{fill:url(#SVGID_66_);}
	.st77{fill:url(#SVGID_67_);}
	.st78{fill:url(#SVGID_68_);}
	.st79{fill:url(#SVGID_69_);}
</style>
<g>
	<linearGradient id="SVGID_1_" gradientUnits="userSpaceOnUse" x1="0" y1="380.8344" x2="1203.8444" y2="380.8344">
		<stop  offset="0" style="stop-color:#DAE3FE"/>
		<stop  offset="1" style="stop-color:#E9EFFD"/>
	</linearGradient>
	<path class="st0" d="M337.9,286.9c0,0-254.1,143.9-322.3,239.5c-46.7,65.5,21.3,63.1,68.7,55.1c11.9-2,19.7,11.9,11.8,21
		c-29.7,34.2-71.8,90.3-63.7,125c12.3,52.7,244,16.5,340.7-10.7c96.7-27.2,285.2,0.3,428.2,37.7s305.1-80.1,358.3-123.5
		c43.8-35.8,57.2-99.7,15.7-109.7c-15.6-3.8-23.8-21-17.5-35.8c28.3-66,76.3-198.3,19.5-224.8c-37.5-17.5-79.8-7-113.2,8.2
		c-12.5,5.7-24.6-8.8-16.7-20C1094.1,182.5,1134.5,68,1083,34C871.2-105.9,418.6,227.8,337.9,286.9z"/>
	<g>
		<path class="st1" d="M1025.3,610c37.2,7.4,84.8-33.2,100.1-77.5c15.8-45.6-13.1-64.8-12.9-128.1c0.3-71.9,37.7-82.8,62.4-179.8
			c5.6-21.9,37.9-148.5-2.2-172.2c-37-21.9-141.1,41-159.3,121.6c-13,57.5,27.2,81.6,11.8,148.5c-13.5,58.7-48.9,59.6-62.4,116.3
			C946.4,507.8,976.5,600.2,1025.3,610z"/>
		
			<linearGradient id="SVGID_2_" gradientUnits="userSpaceOnUse" x1="1282.4633" y1="174.4708" x2="1189.6606" y2="624.6904" gradientTransform="matrix(1 0 0 1 -174.8714 0)">
			<stop  offset="0" style="stop-color:#4042E2"/>
			<stop  offset="1" style="stop-color:#4F52FF"/>
		</linearGradient>
		<path class="st2" d="M1028.1,627.4c-10-77.5,9.5-197.1,27.7-283.8c19.7-93.8,42.1-170.4,42.3-171.1l3.1,0.9
			c-0.2,0.8-22.6,77.2-42.2,170.9c-18.1,86.4-37.7,205.6-27.7,282.7L1028.1,627.4z"/>
	</g>
	<g>
		<path class="st3" d="M1005.5,754.1c-49.1-25.6-65.9-113.5-38-142c18.9-19.3,45.9,1,72-19c33.3-25.5,8.8-73.6,35-136
			c22.3-53.1,75.8-103.3,107-93c32.7,10.8,49.9,90.8,22,139c-18.2,31.3-46,32.9-52,62c-7,33.8,26.8,49.2,27,82
			C1178.8,706,1070.4,788,1005.5,754.1z"/>
		
			<linearGradient id="SVGID_3_" gradientUnits="userSpaceOnUse" x1="1281.2163" y1="478.4749" x2="1219.2205" y2="779.2397" gradientTransform="matrix(1 0 0 1 -174.8714 0)">
			<stop  offset="0" style="stop-color:#4042E2"/>
			<stop  offset="1" style="stop-color:#4F52FF"/>
		</linearGradient>
		<path class="st4" d="M1032,776.6c-0.3,0-0.6-0.1-0.9-0.2c-1-0.5-1.4-1.7-0.9-2.7c65.1-134.2,84.2-289.8,84.4-291.4
			c0.1-1.1,1.1-1.9,2.2-1.7c1.1,0.1,1.9,1.1,1.8,2.2c-0.2,1.6-19.4,157.9-84.8,292.7C1033.4,776.2,1032.7,776.6,1032,776.6z"/>
		<linearGradient id="SVGID_4_" gradientUnits="userSpaceOnUse" x1="1164.5939" y1="450.8386" x2="1203.5216" y2="450.8386">
			<stop  offset="0" style="stop-color:#DAE3FE"/>
			<stop  offset="1" style="stop-color:#E9EFFD"/>
		</linearGradient>
		<path class="st5" d="M1165.5,522.7c-0.2,0-0.4-0.1-0.6-0.2c-0.4-0.3-0.5-0.9-0.2-1.3c20.6-26.4,43.3-66,35.1-105
			c-4.9-23.2-18.6-35.3-18.8-35.5c-0.4-0.3-0.4-0.9-0.1-1.3c0.3-0.4,1-0.4,1.3-0.1c0.6,0.5,14.4,12.7,19.4,36.5
			c4.6,21.9,2.2,58.2-35.5,106.6C1166.1,522.6,1165.8,522.7,1165.5,522.7z"/>
		<path class="st6" d="M1001,742.4c-0.3,0-0.6-0.1-0.8-0.4c-31.6-46.1-42.4-81.7-32-105.9c9.2-21.5,32.4-25.5,32.6-25.5
			c0.5-0.1,1,0.3,1.1,0.8c0.1,0.5-0.3,1-0.8,1.1c-0.2,0-22.4,3.9-31.2,24.4c-10.1,23.5,0.7,58.5,31.8,104c0.3,0.4,0.2,1-0.2,1.3
			C1001.4,742.4,1001.2,742.4,1001,742.4z"/>
	</g>
	<g>
		<linearGradient id="SVGID_5_" gradientUnits="userSpaceOnUse" x1="684.4036" y1="837.3573" x2="673.5882" y2="623.2145">
			<stop  offset="0" style="stop-color:#09005D"/>
			<stop  offset="1" style="stop-color:#1A0F91"/>
		</linearGradient>
		<polygon class="st7" points="594,594.2 576.1,755.4 784.5,755.4 757.3,594.2 		"/>
		<linearGradient id="SVGID_6_" gradientUnits="userSpaceOnUse" x1="608.4498" y1="115.4923" x2="701.4819" y2="665.9338">
			<stop  offset="0" style="stop-color:#09005D"/>
			<stop  offset="0.6582" style="stop-color:#140A7F"/>
			<stop  offset="1" style="stop-color:#1A0F91"/>
		</linearGradient>
		<path class="st8" d="M243.9,197.3v369c0,30.4,24.2,55.2,54.5,56c134.8,3.5,606.1,11.9,734.4,10c22-0.3,39.9-18,40.5-40
			c2.5-85.7,6.5-291.8-8.4-387.5c-3.1-20.2-20.1-35.2-40.5-35.9c-112.9-3.6-612.6-15.1-740.8-12.2
			C261.6,157.1,243.9,175.2,243.9,197.3z"/>
		<linearGradient id="SVGID_7_" gradientUnits="userSpaceOnUse" x1="333.597" y1="87.8106" x2="1212.428" y2="879.0831">
			<stop  offset="0" style="stop-color:#4042E2"/>
			<stop  offset="1" style="stop-color:#4F52FF"/>
		</linearGradient>
		<path class="st9" d="M267.1,195.5v350.5c0,17.7,14.2,32.2,31.9,32.4l715.4,8.8c17.6,0.3,32-13.9,32-31.4l1.2-347.4
			c0-12.6-10-22.9-22.5-23.2l-732.4-14.8C278.7,170.2,267.1,181.5,267.1,195.5z"/>
		<g>
			<path class="st10" d="M425,399.8l-76-1.9c-10.4-0.3-18.8,6.3-18.5,14.4l5.2,138.3c0.3,7.6,8.1,13.7,17.8,14l67.4,1.7
				c10,0.3,18.3-5.9,18.5-13.8l3.5-138.1C443,406.6,435.1,400,425,399.8z"/>
			<path class="st10" d="M608.2,404.4l-124.3-3.1c-10-0.3-18.3,5.9-18.5,13.8l-3.5,138.1c-0.2,7.8,7.8,14.4,17.8,14.7l124.3,3.1
				c10,0.3,18.3-5.9,18.5-13.8l3.5-138.1C626.2,411.2,618.2,404.7,608.2,404.4z"/>
		</g>
		<g>
			<circle class="st10" cx="720.4" cy="249.8" r="45.7"/>
			<circle class="st10" cx="833.8" cy="252.6" r="45.7"/>
			<circle class="st10" cx="947.2" cy="257" r="45.7"/>
			<g>
				<path class="st1" d="M747.7,240.8c1.3,3.5,2,7.3,1.9,11.2c-0.4,16.2-13.9,29-30.1,28.6c-16.2-0.4-29-13.9-28.6-30.1
					c0.4-16.2,13.9-29,30.1-28.6c0.5,0,1,0,1.5,0.1l0.2-7.4c-0.5,0-1-0.1-1.5-0.1c-20.3-0.5-37.2,15.5-37.7,35.8
					c-0.5,20.3,15.5,37.2,35.8,37.7c20.3,0.5,37.2-15.5,37.7-35.8c0.1-5-0.8-9.8-2.5-14.2L747.7,240.8z"/>
				<path class="st1" d="M848.3,279.3c-4.6,2.7-10,4.3-15.7,4.1c-16.2-0.4-29-13.9-28.6-30.1c0.4-16.2,13.9-29,30.1-28.6
					c0.5,0,1,0,1.5,0.1l0.2-7.4c-0.5,0-1-0.1-1.5-0.1c-20.3-0.5-37.2,15.5-37.7,35.8c-0.5,20.3,15.5,37.2,35.8,37.7
					c7.1,0.2,13.7-1.7,19.4-5L848.3,279.3z"/>
				<path class="st1" d="M971.2,274.1c-5.5,7.6-14.5,12.5-24.6,12.2c-16.2-0.4-29-13.9-28.6-30.1c0.4-16.2,13.9-29,30.1-28.6
					c0.5,0,1,0,1.5,0.1l0.2-7.4c-0.5,0-1-0.1-1.5-0.1c-20.3-0.5-37.2,15.5-37.7,35.8c-0.5,20.3,15.5,37.2,35.8,37.7
					c12.6,0.3,23.8-5.7,30.7-15.1L971.2,274.1z"/>
			</g>
			<g>
				<path class="st1" d="M755.9,315.7l-74.4-1.9c-4.7-0.1-8.5,3.6-8.7,8.2c-0.1,4.7,3.6,8.5,8.2,8.7l74.4,1.9
					c4.7,0.1,8.5-3.6,8.7-8.2C764.3,319.7,760.6,315.8,755.9,315.7z"/>
				<path class="st1" d="M869.3,318.6l-74.4-1.9c-4.7-0.1-8.5,3.6-8.7,8.2c-0.1,4.7,3.6,8.5,8.2,8.7l74.4,1.9
					c4.7,0.1,8.5-3.6,8.7-8.2C877.7,322.6,874,318.7,869.3,318.6z"/>
				<path class="st1" d="M908,336.5l74.4,1.9c4.7,0.1,8.5-3.6,8.7-8.2c0.1-4.7-3.6-8.5-8.2-8.7l-74.4-1.9c-4.7-0.1-8.5,3.6-8.7,8.2
					C899.6,332.5,903.3,336.3,908,336.5z"/>
				<path class="st1" d="M755.2,342l-74.4-1.9c-4.7-0.1-8.5,3.6-8.7,8.2l-1.3,49.8c-0.1,4.7,3.6,8.5,8.2,8.7l74.4,1.9
					c4.7,0.1,8.5-3.6,8.7-8.2l1.3-49.8C763.6,346,759.9,342.1,755.2,342z"/>
				<path class="st1" d="M868.7,344.9l-74.4-1.9c-4.7-0.1-8.5,3.6-8.7,8.2l-1.3,49.8c-0.1,4.7,3.6,8.5,8.2,8.7l74.4,1.9
					c4.7,0.1,8.5-3.6,8.7-8.2l1.3-49.8C877,348.9,873.4,345,868.7,344.9z"/>
				<path class="st1" d="M982.1,347.7l-74.4-1.9c-4.7-0.1-8.5,3.6-8.7,8.2l-1.3,49.8c-0.1,4.7,3.6,8.5,8.2,8.7l74.4,1.9
					c4.7,0.1,8.5-3.6,8.7-8.2l1.3-49.8C990.5,351.7,986.8,347.8,982.1,347.7z"/>
			</g>
		</g>
		<path class="st3" d="M478.5,468.4l-1.7,67.1c-0.3,10.5,8,19.2,18.5,19.5l91.9,2.3c10.8,0.3,19.7-8.2,20-19l2.5-101
			c0.2-8.5-10.2-12.8-16-6.6l-18.3,19.4c-7,7.5-18.6,8.2-26.6,1.8l-1.7-1.4c-6.1-5-14.9-5-21.1,0l-9.9,8c-7.6,6.2-18.1,7.5-27,3.3
			l0,0C484.3,459.5,478.7,463,478.5,468.4z"/>
		<g>
			
				<rect x="671.9" y="503.1" transform="matrix(0.9997 2.519465e-002 -2.519465e-002 0.9997 13.7699 -16.9525)" class="st1" width="15.4" height="69.7"/>
			
				<rect x="697.4" y="527.7" transform="matrix(0.9997 2.519456e-002 -2.519456e-002 0.9997 14.096 -17.5891)" class="st1" width="15.4" height="45.8"/>
			
				<rect x="723.8" y="469.2" transform="matrix(0.9997 2.519833e-002 -2.519833e-002 0.9997 13.3771 -18.268)" class="st1" width="15.4" height="105"/>
			
				<rect x="748.6" y="549.6" transform="matrix(0.9997 2.519465e-002 -2.519465e-002 0.9997 14.4036 -18.8754)" class="st1" width="15.4" height="25.2"/>
			
				<rect x="775.1" y="484.5" transform="matrix(0.9997 2.519465e-002 -2.519465e-002 0.9997 13.6008 -19.5548)" class="st1" width="15.4" height="90.9"/>
			
				<rect x="800.7" y="500.9" transform="matrix(0.9997 2.520183e-002 -2.520183e-002 0.9997 13.8275 -20.201)" class="st1" width="15.4" height="75.2"/>
			
				<rect x="826.2" y="518.6" transform="matrix(0.9997 2.519483e-002 -2.519483e-002 0.9997 14.0636 -20.8353)" class="st1" width="15.4" height="58.1"/>
			
				<rect x="852.8" y="451.2" transform="matrix(0.9997 2.519458e-002 -2.519458e-002 0.9997 13.2304 -21.5156)" class="st1" width="15.4" height="126.2"/>
			
				<rect x="878.3" y="465.2" transform="matrix(0.9997 2.519456e-002 -2.519456e-002 0.9997 13.4229 -22.1572)" class="st1" width="15.4" height="112.8"/>
			
				<rect x="903.8" y="486" transform="matrix(0.9997 2.519465e-002 -2.519465e-002 0.9997 13.7017 -22.7957)" class="st1" width="15.4" height="92.7"/>
			
				<rect x="928.6" y="556.4" transform="matrix(0.9997 2.519465e-002 -2.519465e-002 0.9997 14.6046 -23.4105)" class="st1" width="15.4" height="22.9"/>
			
				<rect x="954.9" y="512.6" transform="matrix(0.9997 2.519456e-002 -2.519456e-002 0.9997 14.0696 -24.0797)" class="st1" width="15.4" height="67.3"/>
		</g>
		<g>
			<path class="st10" d="M714.5,447.5l-67.8-1.7c-3-0.1-5.5,2.3-5.5,5.3c-0.1,3,2.3,5.5,5.3,5.5l67.8,1.7c3,0.1,5.5-2.3,5.5-5.3
				C719.9,450,717.5,447.6,714.5,447.5z"/>
			<path class="st10" d="M715,430.6l-67.8-1.7c-3-0.1-5.5,2.3-5.5,5.3c-0.1,3,2.3,5.5,5.3,5.5l67.8,1.7c3,0.1,5.5-2.3,5.5-5.3
				C720.3,433.2,717.9,430.7,715,430.6z"/>
			<path class="st10" d="M836.8,450.6l-67.8-1.7c-3-0.1-5.5,2.3-5.5,5.3c-0.1,3,2.3,5.5,5.3,5.5l67.8,1.7c3,0.1,5.5-2.3,5.5-5.3
				C842.1,453.1,839.7,450.6,836.8,450.6z"/>
			<path class="st10" d="M837.2,433.7l-67.8-1.7c-3-0.1-5.5,2.3-5.5,5.3c-0.1,3,2.3,5.5,5.3,5.5l67.8,1.7c3,0.1,5.5-2.3,5.5-5.3
				C842.5,436.3,840.2,433.8,837.2,433.7z"/>
		</g>
		<path class="st11" d="M1051.8,601.8C1051.8,601.8,1051.8,601.8,1051.8,601.8l-784.7-13.4c-0.6,0-1.1-0.5-1.1-1.1
			c0-0.6,0.5-1.1,1.1-1.1c0,0,0,0,0,0l784.7,13.4c0.6,0,1.1,0.5,1.1,1.1C1052.9,601.3,1052.4,601.8,1051.8,601.8z"/>
		<path class="st3" d="M556.3,776.8c-75.7-37.6-135.6-94.8-150.8-207.7c-2.1-15.6,14.1-27.2,28.2-20.3
			C491.1,576.4,603,648.8,556.3,776.8z"/>
		<g>
			<path class="st3" d="M769.3,778.4c13.9-79.1,48.8-149.5,141.5-196.3c20.7-10.4,44.2,7.7,39.4,30.4
				C936.3,678.7,894.3,786.3,769.3,778.4z"/>
			<path class="st12" d="M793.9,762c-0.3,0-0.7-0.1-0.9-0.4c-0.4-0.5-0.3-1.2,0.2-1.5c75.9-58.3,130-150.7,130.5-151.6
				c0.3-0.5,1-0.7,1.5-0.4c0.5,0.3,0.7,1,0.4,1.5c-0.5,0.9-54.8,93.7-131.1,152.2C794.3,761.9,794.1,762,793.9,762z"/>
		</g>
		<path class="st1" d="M548,773.4c-51.3,4.7-100.7-5.2-145.1-55.8c-8.8-10.1-2.3-25.9,11.1-26.8C456.2,687.8,531.6,694.1,548,773.4z
			"/>
		<linearGradient id="SVGID_8_" gradientUnits="userSpaceOnUse" x1="685.0767" y1="756.5526" x2="585.5757" y2="975.022">
			<stop  offset="0" style="stop-color:#09005D"/>
			<stop  offset="1" style="stop-color:#1A0F91"/>
		</linearGradient>
		<path class="st13" d="M829.4,788.3h-305c-8.3,0-14.5-5.9-12.9-12.2l3.9-15.5c1.2-4.7,6.3-8.1,12.4-8.3l294-9.2
			c6.4-0.2,12,3.2,13.4,8l7.1,24.7C844,782.2,837.8,788.3,829.4,788.3z"/>
		<path class="st14" d="M688.5,756.6c-0.6,0-1.1-0.5-1.1-1.1c0-0.6,0.5-1.1,1.1-1.1l12.6-0.2c0.6,0,1.1,0.5,1.1,1.1
			c0,0.6-0.5,1.1-1.1,1.1L688.5,756.6C688.5,756.6,688.5,756.6,688.5,756.6z"/>
		<path class="st14" d="M522.7,779.9c-0.1,0-0.1,0-0.2,0c-0.6-0.1-1-0.7-0.9-1.3l1.8-11.3c1-6.1,6.2-10.6,12.3-10.7l133.6-2
			c0.6,0,1.1,0.5,1.1,1.1c0,0.6-0.5,1.1-1.1,1.1l-133.6,2c-5.1,0.1-9.4,3.8-10.2,8.8l-1.8,11.3C523.7,779.5,523.3,779.9,522.7,779.9
			z"/>
		<path class="st12" d="M542.9,746.4c-0.5,0-0.9-0.3-1-0.7c-37.7-107.4-110.7-169.5-111.4-170.1c-0.5-0.4-0.5-1.1-0.1-1.5
			c0.4-0.5,1.1-0.5,1.5-0.1c0.7,0.6,74.2,63.1,112.1,171c0.2,0.6-0.1,1.2-0.7,1.4C543.2,746.4,543,746.4,542.9,746.4z"/>
		<path class="st12" d="M514.9,754.8c-0.3,0-0.6-0.1-0.8-0.4c-32.9-38.7-106.4-51.2-107.1-51.4c-0.6-0.1-1-0.7-0.9-1.3
			c0.1-0.6,0.7-1,1.3-0.9c0.7,0.1,75.1,12.8,108.5,52.1c0.4,0.5,0.3,1.2-0.1,1.5C515.4,754.7,515.2,754.8,514.9,754.8z"/>
	</g>
	<g>
		
			<linearGradient id="SVGID_9_" gradientUnits="userSpaceOnUse" x1="-7425.6675" y1="614.3905" x2="-7208.6006" y2="614.3905" gradientTransform="matrix(-1 0 0 1 -7135.3926 0)">
			<stop  offset="0" style="stop-color:#09005D"/>
			<stop  offset="1" style="stop-color:#1A0F91"/>
		</linearGradient>
		<path class="st15" d="M286.7,462.4c1.1,53.9,4.8,240,3.1,305.9c-0.2,7-5,12.6-10.9,12.8c-29.5,1.1-137.8,4-186.1,1.6
			c-10.1-0.5-18.1-10-18.3-21.8c-1-56.6-3.2-215.8,2-288.8c0.6-8.7,6.5-15.7,14-16.6c32.2-3.8,140.9-13,182.6-9.8
			C280.6,446.4,286.5,453.6,286.7,462.4z"/>
		
			<linearGradient id="SVGID_10_" gradientUnits="userSpaceOnUse" x1="-7257.334" y1="530.4396" x2="-7704.4087" y2="1102.3589" gradientTransform="matrix(-1 0 0 1 -7135.3926 0)">
			<stop  offset="0" style="stop-color:#FE7062"/>
			<stop  offset="1" style="stop-color:#FF928E"/>
		</linearGradient>
		<path class="st16" d="M269.8,481.3c1.6,43.5,6.6,188.3,5,241.9c-0.2,7.8-5.5,14.2-12.2,14.6c-27.5,1.9-121.4,6-161.8,2.3
			c-7.3-0.7-13-7.6-13.4-16.1c-2-44.4-7.9-179.3-6.4-232.2c0.2-8.4,5.8-15.3,13-16.1c29.8-3.1,129.5-10.6,163.8-8.4
			C264.4,467.7,269.5,473.7,269.8,481.3z"/>
		<path class="st17" d="M210,457.6L210,457.6c0,1.7-1.1,3-2.5,3.1c-7,0.4-26.6,1.6-35.4,2.2c-1.7,0.1-3.1-1.7-2.8-3.7l0.1-0.3
			c0.2-1.4,1.2-2.4,2.4-2.5c5.9-0.6,23.8-2.4,35.7-1.9C208.9,454.5,210,455.9,210,457.6z"/>
		<g class="st18">
			<polygon class="st14" points="203.8,612.3 149.5,614.4 153.3,568.9 203.8,567.5 			"/>
			<polygon class="st14" points="143.1,614.6 100.7,616.3 100.4,570.3 146.9,569 			"/>
			<path class="st14" d="M100.4,562.8l-0.3-48.2c0-5.8,3.8-10.7,8.8-11l129-9.4c5.2-0.4,9.7,4.3,10,10.5l2.1,54.2L100.4,562.8z"/>
			<polygon class="st14" points="210.2,567.4 250.2,566.3 251.8,610.4 210.2,612 			"/>
			<path class="st14" d="M252.1,617.9l3.5,90.9c0.2,6.1-3.9,11.3-9.1,11.5l-135.4,4c-5.2,0.2-9.6-4.7-9.6-10.9l-0.6-89.6
				L252.1,617.9z"/>
		</g>
	</g>
	<g>
		<linearGradient id="SVGID_11_" gradientUnits="userSpaceOnUse" x1="325.3666" y1="702.5204" x2="435.3999" y2="702.5204">
			<stop  offset="0" style="stop-color:#020039"/>
			<stop  offset="1" style="stop-color:#090056"/>
		</linearGradient>
		<path class="st19" d="M327.2,625.5c-0.6,27.3-2.5,121.6-1.6,155.1c0.1,3.5,2.5,6.4,5.5,6.5c15,0.6,69.8,2,94.3,0.8
			c5.1-0.3,9.2-5.1,9.3-11.1c0.5-28.7,1.6-109.4-1-146.4c-0.3-4.4-3.3-8-7.1-8.4c-16.3-1.9-71.4-6.6-92.6-5
			C330.2,617.3,327.3,621,327.2,625.5z"/>
		<path class="st1" d="M333.8,633.9c-0.8,22.1-3.3,95.5-2.5,122.6c0.1,4,2.8,7.2,6.2,7.4c13.9,1,61.5,3.1,82,1.1
			c3.7-0.3,6.6-3.8,6.8-8.1c1-22.5,4-90.9,3.2-117.7c-0.1-4.3-3-7.8-6.6-8.2c-15.1-1.6-65.7-5.4-83-4.2
			C336.6,627,334,630,333.8,633.9z"/>
		<path class="st17" d="M364.2,621.8L364.2,621.8c0,0.8,0.6,1.5,1.3,1.6c3.5,0.2,13.5,0.8,17.9,1.1c0.9,0.1,1.6-0.9,1.4-1.9l0-0.2
			c-0.1-0.7-0.6-1.2-1.2-1.3c-3-0.3-12.1-1.2-18.1-1C364.7,620.3,364.2,621,364.2,621.8z"/>
		<linearGradient id="SVGID_12_" gradientUnits="userSpaceOnUse" x1="358.4266" y1="700.0721" x2="402.3398" y2="700.0721">
			<stop  offset="0" style="stop-color:#DAE3FE"/>
			<stop  offset="1" style="stop-color:#E9EFFD"/>
		</linearGradient>
		<path class="st20" d="M402.2,696.2l-20.4-44.7c-0.5-1.2-2.3-1.2-2.8,0l-20.4,44.7c-0.5,1,0.3,2.2,1.4,2.2h6.6
			c0.9,0,1.5,0.7,1.5,1.5V748c0,0.9,0.7,1.5,1.5,1.5h21.4c0.9,0,1.5-0.7,1.5-1.5v-48.1c0-0.9,0.7-1.5,1.5-1.5h6.6
			C401.9,698.4,402.7,697.2,402.2,696.2z"/>
	</g>
	<g>
		<linearGradient id="SVGID_13_" gradientUnits="userSpaceOnUse" x1="602.4115" y1="54.1693" x2="218.0924" y2="346.7926">
			<stop  offset="0" style="stop-color:#09005D"/>
			<stop  offset="1" style="stop-color:#1A0F91"/>
		</linearGradient>
		<path class="st21" d="M188.5,53.7l434.4-7.3c17.5-0.3,31.5,14.7,30.5,32.6l-15,257.1c-0.8,14.1-12.1,25.1-25.9,25.2l-417.6,4.1
			c-10.3,0.1-18.8-8.2-19.2-18.8l-10-268.4C165.2,65,175.5,53.9,188.5,53.7z"/>
		<linearGradient id="SVGID_14_" gradientUnits="userSpaceOnUse" x1="213.879" y1="431.576" x2="651.9919" y2="-91.4433">
			<stop  offset="0" style="stop-color:#FE7062"/>
			<stop  offset="1" style="stop-color:#FF928E"/>
		</linearGradient>
		<path class="st22" d="M195.1,60.2l423.1-7c17-0.3,30.7,14,29.7,31l-14.6,244.6c-0.8,13.4-11.8,23.9-25.2,24l-406.7,3.9
			c-10,0.1-18.3-7.8-18.7-17.9L173,83.6C172.5,71,182.5,60.4,195.1,60.2z"/>
		<linearGradient id="SVGID_15_" gradientUnits="userSpaceOnUse" x1="407.5066" y1="328.7435" x2="405.2916" y2="508.1625">
			<stop  offset="0" style="stop-color:#FE7062"/>
			<stop  offset="1" style="stop-color:#FF928E"/>
		</linearGradient>
		<path class="st23" d="M619.2,53.1l-424.8,7c-12.7,0.2-22.7,10.8-22.3,23.5l0.7,18h475.2l1-17.4C650,67.1,636.3,52.8,619.2,53.1z"
			/>
		<g class="st24">
			<linearGradient id="SVGID_16_" gradientUnits="userSpaceOnUse" x1="200.0474" y1="68.7651" x2="207.6893" y2="68.7651">
				<stop  offset="0" style="stop-color:#DAE3FE"/>
				<stop  offset="1" style="stop-color:#E9EFFD"/>
			</linearGradient>
			<circle class="st25" cx="203.9" cy="68.8" r="3.8"/>
			<linearGradient id="SVGID_17_" gradientUnits="userSpaceOnUse" x1="200.0474" y1="79.9614" x2="207.6893" y2="79.9614">
				<stop  offset="0" style="stop-color:#DAE3FE"/>
				<stop  offset="1" style="stop-color:#E9EFFD"/>
			</linearGradient>
			<circle class="st26" cx="203.9" cy="80" r="3.8"/>
			<linearGradient id="SVGID_18_" gradientUnits="userSpaceOnUse" x1="200.0474" y1="91.1578" x2="207.6893" y2="91.1578">
				<stop  offset="0" style="stop-color:#DAE3FE"/>
				<stop  offset="1" style="stop-color:#E9EFFD"/>
			</linearGradient>
			<circle class="st27" cx="203.9" cy="91.2" r="3.8"/>
		</g>
		<circle class="st28" cx="275.3" cy="197.4" r="60.6"/>
		<linearGradient id="SVGID_19_" gradientUnits="userSpaceOnUse" x1="321.4229" y1="142.1123" x2="203.9347" y2="282.7423">
			<stop  offset="0" style="stop-color:#E1473D"/>
			<stop  offset="1" style="stop-color:#E9605A"/>
		</linearGradient>
		<circle class="st29" cx="275.3" cy="197.4" r="13.4"/>
		<path class="st14" d="M307.7,219.2c-7,10.3-18.8,17-32.2,17c-21.5,0-38.9-17.4-38.9-38.9c0-21.5,17.4-38.9,38.9-38.9
			c0.7,0,1.3,0,2,0v-9.9c-0.7,0-1.3,0-2,0c-26.9,0-48.8,21.8-48.8,48.8c0,26.9,21.8,48.8,48.8,48.8c16.7,0,31.4-8.4,40.2-21.1
			L307.7,219.2z"/>
		<g>
			<g>
				
					<linearGradient id="SVGID_20_" gradientUnits="userSpaceOnUse" x1="394.6446" y1="163.066" x2="367.5211" y2="189.4604" gradientTransform="matrix(1 6.600000e-003 -6.600000e-003 1 -5.8207 -28.3791)">
					<stop  offset="0" style="stop-color:#2B3582"/>
					<stop  offset="1" style="stop-color:#150E42"/>
				</linearGradient>
				<circle class="st30" cx="373.2" cy="151.2" r="8.9"/>
				
					<linearGradient id="SVGID_21_" gradientUnits="userSpaceOnUse" x1="386.6927" y1="167.3179" x2="351.4987" y2="220.486" gradientTransform="matrix(1 6.600000e-003 -6.600000e-003 1 -5.8207 -28.3791)">
					<stop  offset="0" style="stop-color:#09005D"/>
					<stop  offset="1" style="stop-color:#1A0F91"/>
				</linearGradient>
				<circle class="st31" cx="373.2" cy="151.2" r="8.6"/>
				<linearGradient id="SVGID_22_" gradientUnits="userSpaceOnUse" x1="365.3133" y1="150.2758" x2="365.4349" y2="150.2758">
					<stop  offset="0" style="stop-color:#2B3582"/>
					<stop  offset="1" style="stop-color:#150E42"/>
				</linearGradient>
				<path class="st32" d="M365.3,150.8c0-0.3,0.1-0.7,0.1-1L365.3,150.8z"/>
				<linearGradient id="SVGID_23_" gradientUnits="userSpaceOnUse" x1="366.1681" y1="145.4806" x2="374.698" y2="145.4806">
					<stop  offset="0" style="stop-color:#2B3582"/>
					<stop  offset="1" style="stop-color:#150E42"/>
				</linearGradient>
				<path class="st33" d="M366.2,147.6c1.3-2.6,4-4.3,7.1-4.3c0.5,0,1,0.1,1.4,0.1L366.2,147.6z"/>
			</g>
			<g>
				
					<linearGradient id="SVGID_24_" gradientUnits="userSpaceOnUse" x1="394.9995" y1="216.8553" x2="367.8761" y2="243.2496" gradientTransform="matrix(1 6.600000e-003 -6.600000e-003 1 -5.8207 -28.3791)">
					<stop  offset="0" style="stop-color:#2B3582"/>
					<stop  offset="1" style="stop-color:#150E42"/>
				</linearGradient>
				<circle class="st34" cx="373.2" cy="205" r="8.9"/>
				
					<linearGradient id="SVGID_25_" gradientUnits="userSpaceOnUse" x1="387.0477" y1="221.1072" x2="351.8536" y2="274.2754" gradientTransform="matrix(1 6.600000e-003 -6.600000e-003 1 -5.8207 -28.3791)">
					<stop  offset="0" style="stop-color:#09005D"/>
					<stop  offset="1" style="stop-color:#1A0F91"/>
				</linearGradient>
				<circle class="st35" cx="373.2" cy="205" r="8.6"/>
				<linearGradient id="SVGID_26_" gradientUnits="userSpaceOnUse" x1="365.3133" y1="204.0675" x2="365.4349" y2="204.0675">
					<stop  offset="0" style="stop-color:#2B3582"/>
					<stop  offset="1" style="stop-color:#150E42"/>
				</linearGradient>
				<path class="st36" d="M365.3,204.6c0-0.3,0.1-0.7,0.1-1L365.3,204.6z"/>
				<linearGradient id="SVGID_27_" gradientUnits="userSpaceOnUse" x1="366.1681" y1="199.2722" x2="374.698" y2="199.2722">
					<stop  offset="0" style="stop-color:#2B3582"/>
					<stop  offset="1" style="stop-color:#150E42"/>
				</linearGradient>
				<path class="st37" d="M366.2,201.4c1.3-2.6,4-4.3,7.1-4.3c0.5,0,1,0.1,1.4,0.1L366.2,201.4z"/>
			</g>
			<g>
				
					<linearGradient id="SVGID_28_" gradientUnits="userSpaceOnUse" x1="395.3546" y1="270.6447" x2="368.2312" y2="297.039" gradientTransform="matrix(1 6.600000e-003 -6.600000e-003 1 -5.8207 -28.3791)">
					<stop  offset="0" style="stop-color:#2B3582"/>
					<stop  offset="1" style="stop-color:#150E42"/>
				</linearGradient>
				<circle class="st38" cx="373.2" cy="258.8" r="8.9"/>
				
					<linearGradient id="SVGID_29_" gradientUnits="userSpaceOnUse" x1="387.4026" y1="274.8966" x2="352.2087" y2="328.0646" gradientTransform="matrix(1 6.600000e-003 -6.600000e-003 1 -5.8207 -28.3791)">
					<stop  offset="0" style="stop-color:#2B3582"/>
					<stop  offset="1" style="stop-color:#150E42"/>
				</linearGradient>
				<circle class="st39" cx="373.2" cy="258.8" r="8.6"/>
				<linearGradient id="SVGID_30_" gradientUnits="userSpaceOnUse" x1="365.3133" y1="257.8592" x2="365.4349" y2="257.8592">
					<stop  offset="0" style="stop-color:#2B3582"/>
					<stop  offset="1" style="stop-color:#150E42"/>
				</linearGradient>
				<path class="st40" d="M365.3,258.4c0-0.3,0.1-0.7,0.1-1L365.3,258.4z"/>
				<linearGradient id="SVGID_31_" gradientUnits="userSpaceOnUse" x1="366.1681" y1="253.064" x2="374.698" y2="253.064">
					<stop  offset="0" style="stop-color:#09005D"/>
					<stop  offset="1" style="stop-color:#1A0F91"/>
				</linearGradient>
				<path class="st41" d="M366.2,255.2c1.3-2.6,4-4.3,7.1-4.3c0.5,0,1,0.1,1.4,0.1L366.2,255.2z"/>
			</g>
			<path class="st28" d="M395.7,150.8l0,1.5c0.1,4.1,2.7,7.3,5.8,7.4l172.7,0.4c3.2,0,5.8-3.4,5.8-7.6l0,0c0-4.1-2.5-7.5-5.7-7.6
				l-172.7-1.9C398.3,142.9,395.6,146.5,395.7,150.8z"/>
			<path class="st28" d="M395.7,204.4l0,1.5c0.1,4.1,2.7,7.3,5.8,7.4l172.7,0.4c3.2,0,5.8-3.4,5.8-7.6l0,0c0-4.1-2.5-7.5-5.7-7.6
				l-172.7-1.9C398.3,196.4,395.6,200,395.7,204.4z"/>
			<path class="st28" d="M395.7,257.9l0,1.5c0.1,4.1,2.7,7.3,5.8,7.4l172.7,0.4c3.2,0,5.8-3.4,5.8-7.6l0,0c0-4.1-2.5-7.5-5.7-7.6
				L401.7,250C398.3,249.9,395.6,253.5,395.7,257.9z"/>
		</g>
		<linearGradient id="SVGID_32_" gradientUnits="userSpaceOnUse" x1="463.0396" y1="230.3149" x2="246.7541" y2="569.4297">
			<stop  offset="0" style="stop-color:#E1473D"/>
			<stop  offset="1" style="stop-color:#E9605A"/>
		</linearGradient>
		<path class="st42" d="M590.7,300.1L220,306.7c-6.5,0.1-11.4,6-10.4,12.4l1.6,10.2c0.8,5.2,5.3,9,10.6,9l367.4-1.4
			c5.5,0,10-4.1,10.6-9.6l1.6-15.4C602.2,305.5,597.1,300,590.7,300.1z"/>
	</g>
	<g>
		<g>
			
				<linearGradient id="SVGID_33_" gradientUnits="userSpaceOnUse" x1="11488.9219" y1="761.3317" x2="11506.959" y2="647.8748" gradientTransform="matrix(1 0 0 1 -10487.1201 0)">
				<stop  offset="0" style="stop-color:#4042E2"/>
				<stop  offset="1" style="stop-color:#4F52FF"/>
			</linearGradient>
			<rect x="1004.1" y="675.2" class="st43" width="8.3" height="90.2"/>
			
				<linearGradient id="SVGID_34_" gradientUnits="userSpaceOnUse" x1="11496.0059" y1="762.2321" x2="11514.4258" y2="646.3706" gradientTransform="matrix(1 0 0 1 -10487.1201 0)">
				<stop  offset="0" style="stop-color:#4042E2"/>
				<stop  offset="1" style="stop-color:#4F52FF"/>
			</linearGradient>
			<path class="st44" d="M1044.9,767.2h-73.1v-2.6c0-1.6,1.3-2.9,2.9-2.9h67.2c1.7,0,3.1,1.4,3.1,3.1V767.2z"/>
			
				<linearGradient id="SVGID_35_" gradientUnits="userSpaceOnUse" x1="11481.3896" y1="765.603" x2="11500.5586" y2="645.0256" gradientTransform="matrix(1 0 0 1 -10487.1201 0)">
				<stop  offset="0" style="stop-color:#FE7062"/>
				<stop  offset="1" style="stop-color:#FF928E"/>
			</linearGradient>
			<path class="st45" d="M1058.7,671.9c0,5.2-4.3,9.5-9.5,9.5h-78.6c-5.2,0-9.5-4.3-9.5-9.5v-8.6c0-5.2,4.3-9.5,9.5-9.5h78.6
				c5.2,0,9.5,4.3,9.5,9.5V671.9z"/>
		</g>
		<g>
			<linearGradient id="SVGID_36_" gradientUnits="userSpaceOnUse" x1="938.8023" y1="811.5449" x2="955.9691" y2="899.5934">
				<stop  offset="0" style="stop-color:#09005D"/>
				<stop  offset="1" style="stop-color:#1A0F91"/>
			</linearGradient>
			<path class="st46" d="M934.3,738.1c0,0-27,11.6-25.4,23.8c0,0,27.9-5.3,32.9-13.3c5-8,2.2-12.6,2.2-12.6L934.3,738.1z"/>
			
				<linearGradient id="SVGID_37_" gradientUnits="userSpaceOnUse" x1="-1529.7477" y1="545.252" x2="-1515.073" y2="545.252" gradientTransform="matrix(-0.9764 -0.2161 -0.2161 0.9764 -432.7063 -128.8742)">
				<stop  offset="0" style="stop-color:#FF928E"/>
				<stop  offset="1" style="stop-color:#FEB3B1"/>
			</linearGradient>
			<path class="st47" d="M940.9,724.8l1.4,11.8c0.2,1.8-0.8,3.5-2.5,4.2c-0.8,0.3-2,0.5-3.4,0.5c-2.1,0-3.9-1.3-4.4-3.3l-2.7-9.6
				L940.9,724.8z"/>
			
				<linearGradient id="SVGID_38_" gradientUnits="userSpaceOnUse" x1="-1550.0564" y1="506.4226" x2="-1487.6957" y2="419.0195" gradientTransform="matrix(-0.9764 -0.2161 -0.2161 0.9764 -432.7063 -128.8742)">
				<stop  offset="0" style="stop-color:#09005D"/>
				<stop  offset="1" style="stop-color:#1A0F91"/>
			</linearGradient>
			<path class="st48" d="M999.9,634c0,0-49.6-2.3-74.3,12.1c-24.7,14.4,1.3,83.5,1.3,83.5s6.5,1.4,15.7-3.6c0,0-13.3-50.6,9.8-59.4
				c25.9-9.9,52.7-7.5,52.7-7.5l-5-23.6L999.9,634z"/>
			<linearGradient id="SVGID_39_" gradientUnits="userSpaceOnUse" x1="948.0511" y1="676.1964" x2="925.3468" y2="756.4922">
				<stop  offset="0" style="stop-color:#09005D"/>
				<stop  offset="1" style="stop-color:#1A0F91"/>
			</linearGradient>
			<path class="st49" d="M914.3,756.5c5.6-1.2,22.4-8.2,24.9-8.1c2.5,0.1,6.1,3.9,6.1,3.9s0.6,2.1-1.2,5.1
				c-4.3,3.4-13.6,9.5-24.4,10.2c-7.9,0.5-12.7-2.7-15.5-5.7C906.7,759.6,910.6,757.3,914.3,756.5z"/>
			
				<linearGradient id="SVGID_40_" gradientUnits="userSpaceOnUse" x1="-1535.8407" y1="577.4775" x2="-1496.3801" y2="577.4775" gradientTransform="matrix(-0.9764 -0.2161 -0.2161 0.9764 -432.7063 -128.8742)">
				<stop  offset="0" style="stop-color:#4042E2"/>
				<stop  offset="1" style="stop-color:#4F52FF"/>
			</linearGradient>
			<path class="st50" d="M919.8,767.6c10.8-0.7,20.1-6.8,24.4-10.2c-1.2,2-3.6,4.5-8,6.9c-10.9,6.2-28.9,5.3-32.5,3.9
				c-2.9-1.1-2-3.8,0.6-6.3C907.1,765,911.9,768.1,919.8,767.6z"/>
			
				<linearGradient id="SVGID_41_" gradientUnits="userSpaceOnUse" x1="-1540.359" y1="558.7948" x2="-1526.5861" y2="558.7948" gradientTransform="matrix(-0.9764 -0.2161 -0.2161 0.9764 -432.7063 -128.8742)">
				<stop  offset="0" style="stop-color:#FF928E"/>
				<stop  offset="1" style="stop-color:#FEB3B1"/>
			</linearGradient>
			<path class="st51" d="M951.3,746.1c-0.4,1.4-4.3,5.6-6.6,7.9c-1.1,1.1-2.7,1.6-4.2,1.3c-1-0.2-2.1-0.5-3-1
				c-1.4-0.8-1.9-2.6-1.1-4l5.8-10.5L951.3,746.1z"/>
			
				<linearGradient id="SVGID_42_" gradientUnits="userSpaceOnUse" x1="-1572.5343" y1="549.9785" x2="-1569.0972" y2="433.1143" gradientTransform="matrix(-0.9764 -0.2161 -0.2161 0.9764 -432.7063 -128.8742)">
				<stop  offset="0" style="stop-color:#09005D"/>
				<stop  offset="1" style="stop-color:#1A0F91"/>
			</linearGradient>
			<path class="st52" d="M1049.1,629.8c0,0,4.3,30.7-8.2,37c-12.5,6.3-40,10.4-49.5,26.3c-9.5,15.9-26.5,47.2-41.9,56.2
				c0,0-8.8-2.9-11.4-7.2c0,0,18.4-48.3,26-60c6.6-10.2,16.3-24.8,30.1-31.1c3.9-1.8,4.3-6,3.6-10.3l-1.3-7.8L1049.1,629.8z"/>
			
				<linearGradient id="SVGID_43_" gradientUnits="userSpaceOnUse" x1="-1573.7468" y1="269.9753" x2="-1522.8005" y2="371.8677" gradientTransform="matrix(-0.9764 -0.2161 -0.2161 0.9764 -432.7063 -128.8742)">
				<stop  offset="0" style="stop-color:#FE7062"/>
				<stop  offset="1" style="stop-color:#FF928E"/>
			</linearGradient>
			<path class="st53" d="M933,595c17.6,5,25.4-44.4,25.3-45.6l26.9,31.5c0,0-16,28.2-40.3,31.2c-6.1,0.8-11.3-0.3-15.7-2.3
				C932.5,604.5,933.2,599.3,933,595z"/>
			
				<linearGradient id="SVGID_44_" gradientUnits="userSpaceOnUse" x1="-1490.7921" y1="413.8291" x2="-1442.7482" y2="413.8291" gradientTransform="matrix(-0.9764 -0.2161 -0.2161 0.9764 -432.7063 -128.8742)">
				<stop  offset="0" style="stop-color:#FF928E"/>
				<stop  offset="1" style="stop-color:#FEB3B1"/>
			</linearGradient>
			<path class="st54" d="M900.5,578.8c7.7-3.1,14.1,3.1,14.1,3.1c7.6,7.8,13.6,11.7,18.4,13c0.3,4.3-0.5,9.5-3.7,14.8
				c-9.5-4.3-15-13.1-17.2-17.5c-0.8-1.6-2.7-2.2-4.3-1.5c-1.6,0.8-3.3,2-3.4,3.6c-0.2,3.2-4,3.4-4,2.2c0-1.2,3-7.5,3-7.5
				s-8.8,5.6-12.2,7.8c-3.4,2.2-6.3-1.4-6.3-1.4S892.8,582,900.5,578.8z"/>
			<linearGradient id="SVGID_45_" gradientUnits="userSpaceOnUse" x1="1026.0748" y1="594.8651" x2="1077.0214" y2="696.7578">
				<stop  offset="0" style="stop-color:#FE7062"/>
				<stop  offset="1" style="stop-color:#FF928E"/>
			</linearGradient>
			<path class="st55" d="M1042.3,529.1c0,0-23.6-16.1-80.6,13c0,0-5.9,7.4-3.1,15.8c2.7,8.4,36.6,53.8,37.9,75.1
				c0,0,23.1,13.6,53.2,0.1C1049.6,633.1,1059.7,576.8,1042.3,529.1z"/>
			
				<linearGradient id="SVGID_46_" gradientUnits="userSpaceOnUse" x1="-1544.1246" y1="329.0699" x2="-1512.2487" y2="329.0699" gradientTransform="matrix(-0.9764 -0.2161 -0.2161 0.9764 -432.7063 -128.8742)">
				<stop  offset="0" style="stop-color:#FF928E"/>
				<stop  offset="1" style="stop-color:#FEB3B1"/>
			</linearGradient>
			<path class="st56" d="M993.2,508.5l9.3,18.3c0.9,1.8,0.7,4-0.5,5.6c-2.6,3.2-7.9,7.5-17.1,4.8c-2.7-0.8-4.8-3-5.5-5.8l-4.8-20.4
				L993.2,508.5z"/>
			<linearGradient id="SVGID_47_" gradientUnits="userSpaceOnUse" x1="1062.4869" y1="576.6591" x2="1113.4331" y2="678.5514">
				<stop  offset="0" style="stop-color:#FE7062"/>
				<stop  offset="1" style="stop-color:#FF928E"/>
			</linearGradient>
			<path class="st57" d="M1059.8,592.9c1.6-11.1-27.8-32.6-27.8-32.6l10.3-31.2c0,0,56,40,44.2,72.6c-1.7,4.7-4.2,8.1-7.3,10.5
				C1073.3,600,1065.3,595,1059.8,592.9z"/>
			<linearGradient id="SVGID_48_" gradientUnits="userSpaceOnUse" x1="1090.0084" y1="552.8647" x2="1025.7717" y2="623.1929">
				<stop  offset="0" style="stop-color:#FF928E"/>
				<stop  offset="1" style="stop-color:#FEB3B1"/>
			</linearGradient>
			<path class="st58" d="M1018.8,595.9c0,0,33.2,9.3,40.1-0.8c0.5-0.7,0.7-1.4,0.9-2.2c5.5,2.1,13.5,7.1,19.5,19.3
				c-15.8,12.4-46.2-1.5-54.4-5.7c-1.4-0.7-2.9-0.8-4.4-0.4c-2.9,0.9-8,2.3-10.9,2.2c-4.1-0.2-8.6,14.8-15.7,11
				C993.9,619.3,997.1,593.7,1018.8,595.9z"/>
			<g>
				
					<linearGradient id="SVGID_49_" gradientUnits="userSpaceOnUse" x1="-1448.7822" y1="-1926.8921" x2="-1488.6326" y2="-1874.1732" gradientTransform="matrix(-0.6545 -0.7561 -0.7561 0.6545 -1418.9933 650.4119)">
					<stop  offset="0" style="stop-color:#FF928E"/>
					<stop  offset="1" style="stop-color:#FEB3B1"/>
				</linearGradient>
				<path class="st59" d="M981.2,478.6c-0.4,0.3-17.4,30.6-17.4,30.6l17.5,9.4l20.4-26.3C1001.7,492.3,987.9,472.9,981.2,478.6z"/>
				
					<linearGradient id="SVGID_50_" gradientUnits="userSpaceOnUse" x1="-1479.217" y1="-1914.1749" x2="-1431.6156" y2="-1914.1749" gradientTransform="matrix(-0.6545 -0.7561 -0.7561 0.6545 -1418.9933 650.4119)">
					<stop  offset="0" style="stop-color:#09005D"/>
					<stop  offset="1" style="stop-color:#1A0F91"/>
				</linearGradient>
				<path class="st60" d="M993.5,495.1l-9.7,14.7c-0.1,0.2-0.3,0.4-0.4,0.5c-1,0.9-4.9,3.8-7.5-0.3c-2.4-3.7-4.7-7-7.3-8.2
					c-1.2-0.5-2.5-0.1-3.1,1c-1.5,2.8-4.9,9-7,14.9c-0.4,1.2,0.1,2.5,1.3,3c3.5,1.6,10.9,4.8,17.5,5.9c0.9,0.2,1.8-0.2,2.4-0.9
					c2.7-3.4,11.1-13.9,13.9-16.4c2.6-2.4,7.3-1.2,9.2-0.5c0.6,0.2,1.3,0.2,1.9-0.1c2.1-1.1,6.3-4.1,2.8-9.8
					c-0.7-1.2-0.3-2.7,0.9-3.4c2.4-1.4,5.3-4.1,3.1-9c-2.3-5-6.9-5.4-9.8-5.1c-1.2,0.1-2.3-0.6-2.6-1.8c-0.2-0.7-0.7-1.2-1.7-1.4
					c-1.4-0.2-2.3-1.7-1.9-3c0.7-2.6,0.6-6.2-3.7-8.8c-7.5-4.6-14.6,2.1-16.5,7.8c-2,5.8,6.5,10.2,11.9,11.1
					c4.1,0.7,6.1,5.4,6.8,7.6C994.1,493.7,993.9,494.4,993.5,495.1z"/>
				
					<linearGradient id="SVGID_51_" gradientUnits="userSpaceOnUse" x1="-1507.147" y1="-1885.1426" x2="-1475.1841" y2="-1917.9355" gradientTransform="matrix(-0.6545 -0.7561 -0.7561 0.6545 -1418.9933 650.4119)">
					<stop  offset="0" style="stop-color:#FF928E"/>
					<stop  offset="1" style="stop-color:#FEB3B1"/>
				</linearGradient>
				<path class="st61" d="M989.9,514.6c0,0,3.8-9.9,8.2-9.3c4.4,0.6,7.6,5.1,2,9.7C993.1,520.8,989.9,514.6,989.9,514.6z"/>
			</g>
		</g>
		<g>
			
				<linearGradient id="SVGID_52_" gradientUnits="userSpaceOnUse" x1="11381.6865" y1="1303.2817" x2="11319.1953" y2="1320.4088" gradientTransform="matrix(0.9988 -4.940000e-002 4.940000e-002 0.9988 -10442.8184 -142.9893)">
				<stop  offset="0" style="stop-color:#09005D"/>
				<stop  offset="1" style="stop-color:#1A0F91"/>
			</linearGradient>
			<path class="st62" d="M976.4,617.1c-0.1,0-0.1,0-0.2,0l-77.6-0.1c-1.9,0-3.5-1.6-3.5-3.5c0-1.9,1.6-3.5,3.5-3.5l77.6,0.1
				c1.9,0,3.5,1.6,3.5,3.5C979.7,615.5,978.3,617,976.4,617.1z"/>
			
				<linearGradient id="SVGID_53_" gradientUnits="userSpaceOnUse" x1="11392.1348" y1="556.1036" x2="11347.7949" y2="602.9683" gradientTransform="matrix(1 0 0 1 -10487.1201 0)">
				<stop  offset="0" style="stop-color:#09005D"/>
				<stop  offset="1" style="stop-color:#1A0F91"/>
			</linearGradient>
			<path class="st63" d="M829,546.7h64.6c4.8,0,9.1,2.7,11.1,7.1l29.9,63.3h-80.3c-3.1,0-5.8-1.9-7-4.7l-23.2-58.6
				C822.8,550.3,825.3,546.7,829,546.7z"/>
			
				<linearGradient id="SVGID_54_" gradientUnits="userSpaceOnUse" x1="11365.3291" y1="567.7726" x2="11345.21" y2="598.069" gradientTransform="matrix(1 0 0 1 -10487.1201 0)">
				<stop  offset="0" style="stop-color:#53D8FF"/>
				<stop  offset="1" style="stop-color:#3840F7"/>
			</linearGradient>
			<path class="st64" d="M874.5,579.1c1.4,4.3,0.4,8.6-2.3,9.4c-2.7,0.9-6-2-7.4-6.3c-1.4-4.3-0.4-8.6,2.3-9.4
				C869.8,572,873.1,574.8,874.5,579.1z"/>
		</g>
		<g>
			<g>
				<path class="st10" d="M839.4,783.4c-0.4,0-0.9-0.1-1.3-0.3c-1.7-0.7-2.4-2.5-1.7-4.1l68.4-153.8c0.7-1.6,2.6-2.3,4.3-1.7
					c1.7,0.7,2.4,2.5,1.7,4.1l-68.4,153.8C841.9,782.7,840.7,783.4,839.4,783.4z"/>
				<path class="st10" d="M916.4,783.4c-1.3,0-2.5-0.7-3-1.9l-68.4-153.8c-0.7-1.6,0.1-3.5,1.7-4.1c1.7-0.7,3.6,0.1,4.3,1.7
					L919.4,779c0.7,1.6-0.1,3.5-1.7,4.1C917.3,783.4,916.9,783.4,916.4,783.4z"/>
				<path class="st10" d="M1051,783.4c-0.4,0-0.9-0.1-1.3-0.3c-1.7-0.7-2.4-2.5-1.7-4.1l68.4-153.8c0.7-1.6,2.6-2.3,4.3-1.7
					c1.7,0.7,2.4,2.5,1.7,4.1L1054,781.5C1053.5,782.7,1052.3,783.4,1051,783.4z"/>
				<path class="st10" d="M1128,783.4c-1.3,0-2.5-0.7-3-1.9l-68.4-153.8c-0.7-1.6,0.1-3.5,1.7-4.1c1.7-0.7,3.6,0.1,4.3,1.7L1131,779
					c0.7,1.6-0.1,3.5-1.7,4.1C1128.9,783.4,1128.5,783.4,1128,783.4z"/>
			</g>
			<path class="st10" d="M1136.1,620.4c0.2-1-0.1-2.1-0.6-2.8c-0.6-0.8-1.5-1.3-2.4-1.3h-311c-1.2,0-2.3,0.7-3,1.8
				c-0.7,1.1-0.7,2.6-0.2,3.8l3.4,8.2c0.8,1.9,2.4,3.1,4.3,3.1h304.4c1.7,0,3.2-1.4,3.5-3.2L1136.1,620.4z"/>
		</g>
	</g>
	
		<linearGradient id="SVGID_55_" gradientUnits="userSpaceOnUse" x1="-5931.4707" y1="188.7967" x2="-5906.937" y2="250.3381" gradientTransform="matrix(-1 0 0 1 -5757.0381 0)">
		<stop  offset="0" style="stop-color:#020039"/>
		<stop  offset="1" style="stop-color:#090056"/>
	</linearGradient>
	<path class="st65" d="M159.9,221.9c0,0-8.3,4-9.8,8.6c-1.2,3.7-10.4,4.2-11.3,11.5c-0.5,3.8-3.3,6.8-7,7.4
		c-9.3,1.4-23.7,6.3-26,22.5c-1.8,12.4,4.6,17.1,11.2,18.7c4.9,1.2,8.1,5.9,7.1,10.8c-0.9,4.7,0.5,10.2,8.6,14.5
		c18.3,9.6,36.5-22.9,36.5-22.9l3.7-56.8L159.9,221.9z"/>
	
		<linearGradient id="SVGID_56_" gradientUnits="userSpaceOnUse" x1="-5952.4375" y1="219.2951" x2="-5940.2549" y2="55.381" gradientTransform="matrix(-1 0 0 1 -5757.0381 0)">
		<stop  offset="0" style="stop-color:#FF928E"/>
		<stop  offset="1" style="stop-color:#FEB3B1"/>
	</linearGradient>
	<path class="st66" d="M214.9,205.7c0,0-14.5,39.5-39.2,51.9c0,0,8.2,13.4,12.5,14.2c0,0,26.4-33.8,29.1-61.5L214.9,205.7z"/>
	
		<linearGradient id="SVGID_57_" gradientUnits="userSpaceOnUse" x1="-5872.5796" y1="446.5118" x2="-5859.7588" y2="446.5118" gradientTransform="matrix(-1 0 0 1 -5757.0381 0)">
		<stop  offset="0" style="stop-color:#4042E2"/>
		<stop  offset="1" style="stop-color:#4F52FF"/>
	</linearGradient>
	<path class="st67" d="M115.5,443.4l-0.7,6c-0.1,1.1-1,2-2.2,2.2c-1.9,0.2-5,0.4-8,0.1c-1.3-0.1-2.2-1.5-1.8-2.8
		c0.7-2.3,2.1-5.8,4-7.8h6.7C114.7,441.1,115.7,442.2,115.5,443.4z"/>
	
		<linearGradient id="SVGID_58_" gradientUnits="userSpaceOnUse" x1="-5926.7549" y1="497.0706" x2="-5908.3047" y2="281.433" gradientTransform="matrix(-1 0 0 1 -5757.0381 0)">
		<stop  offset="0" style="stop-color:#FF928E"/>
		<stop  offset="1" style="stop-color:#FEB3B1"/>
	</linearGradient>
	<path class="st68" d="M167.6,373.2l1.1,6.6c0,0-3.8,38.1-4.4,53.3c-0.1,2.4,0.5,4.7,1.8,6.8l6.5,10.6l-16.6-9.8l-0.3-2l2.7-3.7
		l-3.6-42.7c-0.2-2.5,0.3-5,1.5-7.2l3.4-6.5L167.6,373.2z"/>
	
		<linearGradient id="SVGID_59_" gradientUnits="userSpaceOnUse" x1="-5932.145" y1="444.171" x2="-5911.3994" y2="444.171" gradientTransform="matrix(-1 0 0 1 -5757.0381 0)">
		<stop  offset="0" style="stop-color:#4042E2"/>
		<stop  offset="1" style="stop-color:#4F52FF"/>
	</linearGradient>
	<path class="st69" d="M173.7,452.1h-5.3c-1,0-1.9-0.5-2.5-1.2c-1.7-2.1-5.1-6.3-6.7-6.4c-2.2-0.1-1.9,7.7-1.9,7.7H156l-1.6-9.7
		c-0.4-2.4,0.8-4.9,3-6l0,0c0,0,0.5,3.7,3.2,5.4c2.7,1.6,11.1,7.6,11.1,7.6s1-0.1,2.2,0.1C175.6,449.6,175.4,452.1,173.7,452.1z"/>
	
		<linearGradient id="SVGID_60_" gradientUnits="userSpaceOnUse" x1="-5889.6411" y1="500.2792" x2="-5871.186" y2="284.5848" gradientTransform="matrix(-1 0 0 1 -5757.0381 0)">
		<stop  offset="0" style="stop-color:#FF928E"/>
		<stop  offset="1" style="stop-color:#FEB3B1"/>
	</linearGradient>
	<path class="st70" d="M144.9,376.3c0,0-22,41.8-25.5,51.3c-3.5,9.5-4.7,17.5-4.8,18.2c-0.1,1.2-1.5,2.3-5.6,2.3
		c-2.1,0-3.1-0.8-3.6-1.6c-0.4-0.7-0.4-1.6-0.1-2.3c1.3-2.6,5.3-10.8,6.8-14.6c1.8-4.5,5.6-24.7,7.7-31.7c2.1-7,4.5-14.7,13.7-21.7
		C133.5,376.3,139.8,370.2,144.9,376.3z"/>
	
		<linearGradient id="SVGID_61_" gradientUnits="userSpaceOnUse" x1="-5926.2993" y1="279.6133" x2="-5917.0737" y2="365.2064" gradientTransform="matrix(-1 0 0 1 -5757.0381 0)">
		<stop  offset="0" style="stop-color:#4042E2"/>
		<stop  offset="1" style="stop-color:#4F52FF"/>
	</linearGradient>
	<path class="st71" d="M158.8,307.9c5.7-24.1-8.7-37.7-8.7-37.7c9.1-8.7,25.6-12.7,25.6-12.7s15.8,11.5,13.9,20.6
		c-1.1,5.3-11.1,31.7-11.1,31.7S169.3,314.2,158.8,307.9z"/>
	
		<linearGradient id="SVGID_62_" gradientUnits="userSpaceOnUse" x1="-5875.48" y1="283.8153" x2="-5921.6084" y2="357.6204" gradientTransform="matrix(-1 0 0 1 -5757.0381 0)">
		<stop  offset="0" style="stop-color:#4042E2"/>
		<stop  offset="1" style="stop-color:#4F52FF"/>
	</linearGradient>
	<path class="st72" d="M146.2,319.8c2.3-7,12.6-11.9,12.6-11.9c10.5,6.3,19.7,1.9,19.7,1.9s2.1,7.9,0.6,15.3
		c-1.4,7.4-10.4,54.7-10.4,54.7c-14.1,2.9-35.9-2.9-35.9-2.9C141.8,360.9,143.9,326.8,146.2,319.8z"/>
	<linearGradient id="SVGID_63_" gradientUnits="userSpaceOnUse" x1="175.2897" y1="226.5769" x2="160.8918" y2="279.1846">
		<stop  offset="0" style="stop-color:#FF928E"/>
		<stop  offset="1" style="stop-color:#FEB3B1"/>
	</linearGradient>
	<path class="st73" d="M165.4,241.6l-4.6,20.7c-0.4,1.8,1.2,1.5,3.1,1.2c3-0.6,6.9-1.7,8.2-4.1c0.1-0.2,0.2-0.5,0.2-0.8l2-14.4
		c0.2-1.1-0.5-2.2-1.5-2.7l-3.8-1.7C167.5,239.2,165.7,240.1,165.4,241.6z"/>
	
		<linearGradient id="SVGID_64_" gradientUnits="userSpaceOnUse" x1="-5914.4937" y1="296.8721" x2="-5891.4707" y2="296.8721" gradientTransform="matrix(-1 0 0 1 -5757.0381 0)">
		<stop  offset="0" style="stop-color:#FF928E"/>
		<stop  offset="1" style="stop-color:#FEB3B1"/>
	</linearGradient>
	<path class="st74" d="M150.1,270.2c0,0-32.2,23.1-4.1,47.3c0,0,1.1,1.2,3.2,1.8c1.1,0.3,4.2,2.7,5.8,3.9c0.5,0.4,1.3,0.3,1.6-0.3
		l0,0c0.3-0.4,0.3-1,0.1-1.4l-4-8.4c-1.1-1-2.8-1.1-4-0.2l0,0c-0.8,0.6-1.9,0.3-2.3-0.5c-2.2-4.4-6.3-17.4,10.5-32.2
		c0.6-0.6,0.8-1.5,0.4-2.2C156.1,275.8,153.4,271.3,150.1,270.2z"/>
	<g>
		
			<linearGradient id="SVGID_65_" gradientUnits="userSpaceOnUse" x1="-5684.4595" y1="77.181" x2="-5709.9326" y2="93.517" gradientTransform="matrix(-1 0 0 1 -5757.0381 0)">
			<stop  offset="0" style="stop-color:#FF928E"/>
			<stop  offset="1" style="stop-color:#FEB3B1"/>
		</linearGradient>
		<path class="st75" d="M170.8,221.9c0,0,5.5,2.3,9.2,10.2c3.7,7.9,0.9,11.6-2.5,12.1c-3.5,0.5-8.7,0.4-14.2-4.7
			C157.7,234.4,163.7,219.1,170.8,221.9z"/>
		
			<linearGradient id="SVGID_66_" gradientUnits="userSpaceOnUse" x1="-5931.0229" y1="204.9605" x2="-5915.9033" y2="242.8879" gradientTransform="matrix(-1 0 0 1 -5757.0381 0)">
			<stop  offset="0" style="stop-color:#020039"/>
			<stop  offset="1" style="stop-color:#090056"/>
		</linearGradient>
		<path class="st76" d="M166.9,235.2c0,0-4.1-11.6,6.1-11.7l2.4,1.7c0,0,3.8-6.4-2.4-9.5c-6.2-3.1-13.4-0.5-16,7.8
			c-2.6,8.3-3.1,13.9,1.3,17.9c4.4,4,6.2-0.5,6.2-0.5s-2.4-3.7-1.4-5.7c1-2,3.2,0.4,3.2,0.4L166.9,235.2z"/>
		
			<linearGradient id="SVGID_67_" gradientUnits="userSpaceOnUse" x1="-5681.2236" y1="82.2292" x2="-5706.6968" y2="98.5652" gradientTransform="matrix(-1 0 0 1 -5757.0381 0)">
			<stop  offset="0" style="stop-color:#FF928E"/>
			<stop  offset="1" style="stop-color:#FEB3B1"/>
		</linearGradient>
		<path class="st77" d="M165.8,236.5c0,0-2.1-6-4.9-3.6c-2.8,2.4,2.3,5.5,4.2,6.5L165.8,236.5z"/>
	</g>
	<g>
		
			<linearGradient id="SVGID_68_" gradientUnits="userSpaceOnUse" x1="-5977.4048" y1="217.4394" x2="-5965.2222" y2="53.5255" gradientTransform="matrix(-1 0 0 1 -5757.0381 0)">
			<stop  offset="0" style="stop-color:#FF928E"/>
			<stop  offset="1" style="stop-color:#FEB3B1"/>
		</linearGradient>
		<path class="st78" d="M216.3,212.8c0.2,0.7-2.3,1.8-3.8-1.1c-0.1-1.4-0.9-7.3-0.1-8.4c4.4-6,12.9-13.5,12.9-13.5
			c1.4,1.4,0.3,2.8,0.3,2.8l-4.1,4.3c0.9,1.6,1.9,2.9,2.4,4.8c0.4,1.4,0.1,3-0.6,4.3c-0.7,1.3-1.7,3-2.6,4.3
			C218.8,212.8,216.3,212.8,216.3,212.8z"/>
		<linearGradient id="SVGID_69_" gradientUnits="userSpaceOnUse" x1="223.6127" y1="148.2511" x2="218.3519" y2="196.1518">
			<stop  offset="0" style="stop-color:#FF928E"/>
			<stop  offset="1" style="stop-color:#FEB3B1"/>
		</linearGradient>
		<path class="st79" d="M218.5,209.9l-1.1-0.2c0.1-0.7,1.2-6.4,2-7.9c0.3-0.5,0.4-0.9,0.4-1.2c0,0,0-0.2-0.2-0.3l-3.3,2.8l-1.1,3
			l-1-0.4l1.2-3.3l4.1-3.5l0.3,0.2c0.6,0.3,0.9,0.7,1.1,1.2c0.2,0.6,0,1.2-0.5,2C219.8,203.5,218.8,208.2,218.5,209.9z"/>
	</g>
	<g>
		<path class="st14" d="M890.3,96.5l-3.2,0.9c-0.3,0.1-0.6-0.1-0.7-0.4c-0.1-0.3,0.1-0.6,0.4-0.7l0,0l3.2-0.8
			c0.3-0.1,0.6,0.1,0.7,0.4C890.8,96.1,890.6,96.4,890.3,96.5z"/>
		<path class="st14" d="M879.8,99.5l-3.2,0.9c-0.3,0.1-0.7-0.1-0.8-0.4c-0.1-0.3,0.1-0.7,0.4-0.8l0,0l3.2-0.9
			c0.3-0.1,0.6,0.1,0.7,0.4C880.3,99,880.1,99.4,879.8,99.5z"/>
		<path class="st14" d="M869.3,102.7l-3.1,1c-0.3,0.1-0.7-0.1-0.8-0.4c-0.1-0.3,0.1-0.7,0.4-0.8l0,0l3.1-1c0.3-0.1,0.7,0.1,0.8,0.4
			C869.8,102.2,869.6,102.6,869.3,102.7z"/>
		<path class="st14" d="M858.9,106.2l-3.1,1.1c-0.4,0.1-0.8-0.1-0.9-0.4c-0.1-0.4,0.1-0.8,0.4-0.9l0,0l3.1-1.1
			c0.4-0.1,0.7,0.1,0.9,0.4C859.4,105.6,859.2,106,858.9,106.2z"/>
		<path class="st14" d="M848.6,109.8l-3.1,1.2c-0.4,0.1-0.8,0-0.9-0.4c-0.1-0.4,0-0.8,0.4-0.9l0,0l3.1-1.1c0.4-0.1,0.8,0.1,0.9,0.4
			C849.1,109.3,848.9,109.7,848.6,109.8z"/>
		<path class="st14" d="M838.3,113.8l-3.1,1.2c-0.4,0.2-0.9,0-1-0.4c-0.2-0.4,0-0.9,0.4-1l0,0l3.1-1.2c0.4-0.2,0.8,0,1,0.4
			C838.9,113.2,838.7,113.6,838.3,113.8z"/>
		<path class="st14" d="M828.2,117.9l-3,1.3c-0.4,0.2-0.9,0-1.1-0.4c-0.2-0.4,0-0.9,0.4-1.1l0,0l3-1.3c0.4-0.2,0.9,0,1.1,0.4
			C828.8,117.3,828.6,117.7,828.2,117.9z"/>
		<path class="st14" d="M818.1,122.3l-3,1.4l0,0c-0.4,0.2-0.9,0-1.1-0.4c-0.2-0.4,0-0.9,0.4-1.1l0,0l3-1.3c0.4-0.2,0.9,0,1.1,0.4
			C818.7,121.6,818.5,122.1,818.1,122.3L818.1,122.3z"/>
		<path class="st14" d="M808.2,126.9l-3,1.4l0,0c-0.5,0.2-1,0-1.2-0.4c-0.2-0.5,0-1,0.4-1.2l0,0l3-1.4c0.4-0.2,1,0,1.2,0.4
			C808.8,126.1,808.6,126.7,808.2,126.9L808.2,126.9z"/>
		<path class="st14" d="M798.3,131.7l-2.9,1.5l0,0c-0.5,0.2-1,0-1.3-0.4c-0.2-0.5,0-1,0.4-1.3l0,0l3-1.5c0.5-0.2,1,0,1.3,0.4
			C799,130.9,798.8,131.4,798.3,131.7L798.3,131.7z"/>
		<path class="st14" d="M788.6,136.7l-2.9,1.5l0,0c-0.5,0.3-1.1,0.1-1.3-0.4c-0.3-0.5-0.1-1.1,0.4-1.3l0,0l2.9-1.5
			c0.5-0.3,1.1-0.1,1.3,0.4C789.2,135.9,789,136.4,788.6,136.7L788.6,136.7z"/>
		<path class="st14" d="M778.9,141.9l-2.9,1.6l0,0c-0.5,0.3-1.1,0.1-1.4-0.4c-0.3-0.5-0.1-1.1,0.4-1.4l0,0l2.9-1.6
			c0.5-0.3,1.1-0.1,1.4,0.4C779.6,141,779.4,141.7,778.9,141.9L778.9,141.9z"/>
		<path class="st14" d="M769.4,147.4l-2.8,1.7l0,0c-0.5,0.3-1.2,0.1-1.5-0.4c-0.3-0.5-0.1-1.2,0.4-1.5l0,0l2.9-1.7
			c0.5-0.3,1.2-0.1,1.5,0.4C770.1,146.4,769.9,147.1,769.4,147.4L769.4,147.4z"/>
		<path class="st14" d="M760,153l-2.8,1.7l0,0c-0.5,0.3-1.2,0.2-1.5-0.4c-0.3-0.5-0.2-1.2,0.4-1.5l0,0l2.8-1.7
			c0.5-0.3,1.2-0.2,1.5,0.4C760.7,152,760.5,152.7,760,153L760,153z"/>
		<path class="st14" d="M750.7,158.9l-2.8,1.8l0,0c-0.5,0.4-1.3,0.2-1.6-0.3c-0.4-0.5-0.2-1.3,0.3-1.6l0,0l2.8-1.8
			c0.5-0.3,1.2-0.2,1.6,0.4C751.4,157.8,751.3,158.5,750.7,158.9L750.7,158.9z"/>
		<path class="st14" d="M741.6,164.9l-2.7,1.9l0,0c-0.6,0.4-1.3,0.2-1.7-0.3c-0.4-0.6-0.2-1.3,0.3-1.7l0,0l2.7-1.8
			c0.5-0.4,1.3-0.2,1.7,0.3C742.3,163.8,742.1,164.5,741.6,164.9L741.6,164.9z"/>
		<path class="st14" d="M732.6,171.1l-2.7,1.9l0,0c-0.6,0.4-1.3,0.3-1.7-0.3c-0.4-0.6-0.3-1.3,0.3-1.7l0,0l2.7-1.9
			c0.6-0.4,1.3-0.3,1.7,0.3S733.1,170.8,732.6,171.1L732.6,171.1z"/>
		<path class="st14" d="M723.7,177.6l-2.6,2l0,0c-0.6,0.4-1.3,0.3-1.8-0.3c-0.4-0.6-0.3-1.3,0.3-1.8l0,0l2.7-2
			c0.6-0.4,1.3-0.3,1.8,0.3C724.4,176.4,724.3,177.2,723.7,177.6L723.7,177.6z"/>
		<path class="st14" d="M715,184.2l-2.6,2l0,0c-0.6,0.4-1.4,0.3-1.8-0.2c-0.4-0.6-0.3-1.4,0.2-1.8l0,0l2.6-2
			c0.6-0.4,1.4-0.3,1.8,0.2C715.6,182.9,715.5,183.7,715,184.2L715,184.2z"/>
		<path class="st14" d="M706.4,191l-2.5,2.1l0,0c-0.6,0.5-1.4,0.4-1.8-0.2c-0.5-0.6-0.4-1.4,0.2-1.8l0,0l2.6-2.1
			c0.6-0.5,1.4-0.4,1.8,0.2C707,189.7,706.9,190.5,706.4,191L706.4,191z"/>
		<path class="st14" d="M697.9,198l-2.5,2.1l0,0c-0.6,0.5-1.4,0.4-1.9-0.2s-0.4-1.4,0.2-1.9l0,0l2.5-2.1c0.6-0.5,1.4-0.4,1.9,0.2
			C698.5,196.7,698.5,197.5,697.9,198L697.9,198z"/>
		<path class="st14" d="M689.6,205.1l-2.5,2.2l0,0c-0.6,0.5-1.4,0.4-1.9-0.1c-0.5-0.6-0.4-1.4,0.1-1.9l0,0l2.5-2.2
			c0.6-0.5,1.4-0.4,1.9,0.1C690.2,203.8,690.2,204.6,689.6,205.1L689.6,205.1z"/>
		<path class="st14" d="M681.5,212.5l-2.4,2.2l0,0c-0.6,0.5-1.4,0.5-2-0.1c-0.5-0.6-0.5-1.4,0.1-2l0,0l2.4-2.2
			c0.6-0.5,1.4-0.5,1.9,0.1C682.1,211.1,682.1,212,681.5,212.5L681.5,212.5z"/>
		<path class="st14" d="M673.5,220l-2.4,2.3l0,0c-0.6,0.5-1.4,0.5-2,0c-0.5-0.6-0.5-1.4,0-2l0,0l2.4-2.3c0.6-0.5,1.4-0.5,2,0
			C674.1,218.6,674.1,219.5,673.5,220L673.5,220z"/>
		<path class="st14" d="M665.7,227.7l-2.3,2.3l0,0c-0.6,0.6-1.5,0.6-2,0c-0.6-0.6-0.6-1.5,0-2l0,0l2.3-2.3c0.6-0.6,1.5-0.6,2,0
			C666.3,226.2,666.3,227.1,665.7,227.7L665.7,227.7z"/>
		<path class="st14" d="M658.1,235.6l-2.3,2.4l0,0c-0.5,0.6-1.5,0.6-2.1,0.1c-0.6-0.5-0.6-1.5-0.1-2.1l0,0l2.3-2.4
			c0.5-0.6,1.5-0.6,2-0.1S658.7,235,658.1,235.6L658.1,235.6z"/>
		<path class="st14" d="M650.7,243.6l-2.2,2.4l0,0c-0.5,0.6-1.5,0.7-2.1,0.1c-0.6-0.5-0.7-1.5-0.1-2.1l0,0l2.2-2.4
			c0.5-0.6,1.5-0.6,2.1-0.1S651.2,243,650.7,243.6L650.7,243.6z"/>
		<path class="st14" d="M643.4,251.8l-2.1,2.5l0,0c-0.5,0.6-1.5,0.7-2.1,0.2s-0.7-1.5-0.2-2.1l0,0l2.2-2.5c0.5-0.6,1.5-0.7,2.1-0.1
			C643.9,250.2,644,251.2,643.4,251.8L643.4,251.8z"/>
		<path class="st14" d="M636.4,260.2l-2.1,2.5l0,0c-0.5,0.7-1.5,0.7-2.1,0.2c-0.7-0.5-0.7-1.5-0.2-2.1l0,0l2.1-2.5
			c0.5-0.6,1.5-0.7,2.1-0.2C636.8,258.5,636.9,259.5,636.4,260.2L636.4,260.2z"/>
		<path class="st14" d="M629.5,268.7l-2,2.6l0,0c-0.5,0.7-1.5,0.8-2.2,0.3c-0.7-0.5-0.8-1.5-0.3-2.2l0,0l2-2.6
			c0.5-0.7,1.5-0.8,2.2-0.3C629.9,267,630,268,629.5,268.7L629.5,268.7z"/>
		<path class="st14" d="M623,277.4l-1.9,2.7l0,0c-0.5,0.7-1.5,0.9-2.2,0.4c-0.7-0.5-0.9-1.5-0.4-2.2l0,0l1.9-2.7
			c0.5-0.7,1.5-0.9,2.2-0.4C623.3,275.7,623.5,276.7,623,277.4L623,277.4z"/>
		<path class="st14" d="M616.9,286.5l-1.7,2.8l0,0c-0.5,0.8-1.4,1-2.2,0.5c-0.8-0.5-1-1.4-0.5-2.2l0,0l1.7-2.8
			c0.5-0.7,1.4-1,2.2-0.5C617.2,284.7,617.4,285.7,616.9,286.5L616.9,286.5z"/>
		<path class="st14" d="M611.5,295.9l-1.5,2.9l0,0c-0.4,0.8-1.4,1.1-2.2,0.7c-0.8-0.4-1.1-1.4-0.7-2.2l0,0l1.5-3
			c0.4-0.8,1.4-1.1,2.2-0.7C611.6,294.1,611.9,295.1,611.5,295.9L611.5,295.9z"/>
		<path class="st14" d="M606.9,305.7l-1.2,3l0,0c-0.3,0.8-1.3,1.3-2.1,0.9c-0.8-0.3-1.3-1.3-0.9-2.1l0,0l1.3-3.1
			c0.3-0.8,1.3-1.2,2.1-0.9S607.2,304.8,606.9,305.7L606.9,305.7z"/>
		<path class="st14" d="M603.3,315.9l-0.8,3.1l0,0.1c-0.2,0.9-1.2,1.4-2,1.2c-0.9-0.2-1.4-1.2-1.2-2l0,0l0.9-3.2
			c0.2-0.9,1.2-1.4,2-1.2C603,314,603.5,314.9,603.3,315.9L603.3,315.9z"/>
		<path class="st14" d="M601,326.4l-0.4,3.2l0,0.1c-0.1,0.9-0.9,1.6-1.9,1.5c-0.9-0.1-1.6-0.9-1.5-1.9l0,0l0.4-3.4
			c0.1-0.9,0.9-1.6,1.9-1.5C600.4,324.5,601.1,325.4,601,326.4L601,326.4z"/>
		<path class="st14" d="M600.3,337l0.2,3.2l0,0.1c0,0.9-0.7,1.7-1.6,1.8c-0.9,0-1.7-0.7-1.8-1.6l0,0l-0.2-3.4c0-0.9,0.7-1.7,1.6-1.8
			C599.5,335.3,600.2,336,600.3,337L600.3,337z"/>
		<path class="st14" d="M601.5,347.6l0.7,3.1l0,0.1c0.2,0.9-0.3,1.8-1.2,2c-0.9,0.2-1.8-0.3-2-1.3l0,0l-0.8-3.3
			c-0.2-0.9,0.3-1.8,1.3-2C600.4,346.1,601.3,346.6,601.5,347.6L601.5,347.6z"/>
		<path class="st14" d="M604.7,357.8l1.3,2.9l0,0.1c0.4,0.9,0,1.9-0.8,2.3c-0.9,0.4-1.9,0-2.3-0.8l0,0l-1.4-3.1
			c-0.4-0.9,0-1.9,0.8-2.3C603.3,356.5,604.3,356.8,604.7,357.8L604.7,357.8z"/>
		<path class="st14" d="M609.8,367.1l1.9,2.6l0.1,0.1c0.6,0.8,0.4,1.8-0.4,2.4c-0.8,0.6-1.8,0.4-2.4-0.4l0,0l-2-2.8
			c-0.5-0.8-0.4-1.8,0.4-2.4C608.2,366.1,609.2,366.3,609.8,367.1L609.8,367.1z"/>
		<path class="st14" d="M616.6,375.4l2.3,2.2l0.1,0.1c0.7,0.7,0.7,1.8,0,2.4c-0.7,0.7-1.8,0.7-2.4,0l0,0l-2.4-2.4
			c-0.7-0.7-0.7-1.7,0-2.4S615.8,374.6,616.6,375.4L616.6,375.4z"/>
		<path class="st14" d="M624.6,382.4l2.6,1.9l0.1,0c0.8,0.6,1,1.6,0.4,2.4c-0.6,0.8-1.6,1-2.4,0.4l0,0l-2.7-2
			c-0.8-0.6-0.9-1.6-0.4-2.4C622.7,382,623.8,381.8,624.6,382.4L624.6,382.4z"/>
		<path class="st14" d="M633.6,388.2l2.9,1.5l0.1,0c0.8,0.4,1.2,1.5,0.7,2.3c-0.4,0.8-1.5,1.2-2.3,0.7l0,0l-3-1.6
			c-0.8-0.4-1.2-1.5-0.7-2.3C631.7,388.1,632.7,387.8,633.6,388.2L633.6,388.2z"/>
		<path class="st14" d="M643.4,392.8l3,1.1l0.1,0c0.9,0.3,1.4,1.3,1,2.2c-0.3,0.9-1.3,1.4-2.2,1l0,0l-3.1-1.2
			c-0.9-0.3-1.3-1.3-1-2.2C641.4,392.9,642.4,392.5,643.4,392.8L643.4,392.8z"/>
		<path class="st14" d="M653.6,396.2l3.1,0.8l0.1,0c0.9,0.2,1.5,1.2,1.3,2.1c-0.2,0.9-1.2,1.5-2.1,1.3l0,0l-3.3-0.8
			c-0.9-0.2-1.5-1.2-1.3-2.1C651.7,396.5,652.6,396,653.6,396.2L653.6,396.2z"/>
		<path class="st14" d="M664.2,398.4l3.2,0.4l0.1,0c1,0.1,1.6,1,1.5,2c-0.1,1-1,1.6-2,1.5l0,0l-3.3-0.4c-1-0.1-1.6-1-1.5-2
			C662.3,398.9,663.1,398.3,664.2,398.4L664.2,398.4z"/>
		<path class="st14" d="M674.9,399.3c1.1,0,2.2,0,3.2,0c1,0,1.8,0.8,1.8,1.7c0,1-0.8,1.8-1.7,1.8h0h0c-1.1,0-2.2,0-3.4,0
			c-1,0-1.8-0.8-1.7-1.8C673.1,400.1,673.9,399.3,674.9,399.3L674.9,399.3z"/>
		<path class="st14" d="M685.7,399l3.2-0.3l0,0c1-0.1,1.8,0.6,1.9,1.6c0.1,1-0.6,1.8-1.6,1.9h0l-3.3,0.3c-1,0.1-1.8-0.6-1.9-1.6
			C684,399.9,684.7,399.1,685.7,399L685.7,399z"/>
		<path class="st14" d="M696.4,397.7l3.2-0.6l0,0c1-0.2,1.9,0.5,2.1,1.5c0.2,1-0.5,1.9-1.5,2.1l0,0l-3.3,0.6c-1,0.2-1.9-0.5-2.1-1.5
			C694.8,398.8,695.4,397.9,696.4,397.7L696.4,397.7z"/>
		<path class="st14" d="M707.1,395.6l3.2-0.8l0,0c1-0.2,1.9,0.3,2.2,1.3c0.2,1-0.3,1.9-1.3,2.2l0,0l-3.2,0.8c-1,0.2-1.9-0.3-2.2-1.3
			C705.5,396.8,706.1,395.8,707.1,395.6L707.1,395.6z"/>
		<path class="st14" d="M717.6,392.7l3.1-1l0,0c0.9-0.3,2,0.2,2.3,1.2c0.3,0.9-0.2,2-1.2,2.3l0,0l-3.2,1c-0.9,0.3-2-0.2-2.2-1.2
			C716.1,394,716.6,393,717.6,392.7L717.6,392.7z"/>
		<path class="st14" d="M727.9,389.3l3.1-1.1l0,0c0.9-0.3,2,0.1,2.3,1.1c0.3,0.9-0.1,2-1.1,2.3l0,0l-3.1,1.1c-0.9,0.3-2-0.1-2.3-1.1
			C726.5,390.7,727,389.6,727.9,389.3L727.9,389.3z"/>
		<path class="st14" d="M738.1,385.4l3-1.2l0,0c0.9-0.4,2,0.1,2.4,1c0.4,0.9-0.1,2-1,2.4l0,0l-3.1,1.2c-0.9,0.4-2-0.1-2.4-1
			C736.7,386.8,737.2,385.8,738.1,385.4L738.1,385.4z"/>
		<path class="st14" d="M748.2,381.2l3-1.3l0,0c0.9-0.4,2,0,2.4,0.9c0.4,0.9,0,2-0.9,2.4l0,0l-3,1.3c-0.9,0.4-2,0-2.4-0.9
			C746.9,382.6,747.3,381.6,748.2,381.2L748.2,381.2z"/>
		<path class="st14" d="M758.2,376.7l3-1.4l0,0c0.9-0.4,2,0,2.4,0.9c0.4,0.9,0,2-0.9,2.4l0,0l-3,1.4c-0.9,0.4-2,0-2.4-0.9
			C756.9,378.2,757.3,377.1,758.2,376.7L758.2,376.7z"/>
		<path class="st14" d="M768.2,372.1l3-1.4l0,0c0.9-0.4,2,0,2.4,0.9c0.4,0.9,0,2-0.9,2.4l0,0l-3,1.4c-0.9,0.4-2,0-2.4-0.9
			C766.8,373.6,767.2,372.5,768.2,372.1z"/>
		<path class="st14" d="M778,367.3l2.8-1.6l0.1,0c0.9-0.5,2-0.2,2.5,0.7s0.2,2-0.7,2.5l0,0l-2.9,1.6c-0.9,0.5-2,0.2-2.5-0.7
			C776.7,369,777,367.8,778,367.3L778,367.3z"/>
		<path class="st14" d="M787,361.7l2.4-2l0.1-0.1c0.8-0.6,2-0.5,2.6,0.3c0.6,0.8,0.5,2-0.3,2.6l0,0l-2.7,2.2c-0.8,0.6-2,0.5-2.6-0.3
			c-0.6-0.8-0.5-2,0.3-2.6L787,361.7z"/>
		<path class="st14" d="M794.3,354.3l1.6-2.6l0.1-0.2c0.5-0.9,1.7-1.1,2.6-0.6c0.9,0.5,1.1,1.7,0.6,2.6l0,0l-1.9,3
			c-0.5,0.9-1.7,1.1-2.6,0.6c-0.9-0.5-1.1-1.7-0.6-2.6L794.3,354.3z"/>
		<path class="st14" d="M798.3,345l0.4-3l0-0.3c0.1-1,1.1-1.7,2.1-1.6c1,0.1,1.7,1.1,1.6,2.1l0,0l-0.5,3.5c-0.1,1-1.1,1.7-2.1,1.6
			c-1-0.1-1.7-1.1-1.6-2.1L798.3,345z"/>
		<path class="st14" d="M797.9,335.1c-0.3-0.9-0.7-1.8-1.2-2.7c-0.5-0.9-0.2-2,0.7-2.6c0.9-0.5,2-0.2,2.5,0.7
			c0.6,1.1,1.1,2.2,1.5,3.4c0.3,1-0.2,2-1.2,2.4C799.3,336.6,798.2,336.1,797.9,335.1z"/>
		<path class="st14" d="M792.1,327.5c-0.8-0.5-1.7-1-2.6-1.4c-1-0.4-1.4-1.5-1-2.4c0.4-1,1.5-1.4,2.4-1c1.1,0.5,2.2,1,3.2,1.7
			c0.9,0.6,1.1,1.7,0.5,2.6C794.2,327.8,793,328.1,792.1,327.5L792.1,327.5z"/>
		<path class="st14" d="M782.7,324.8l-3.1,0.1l-0.2,0c-1,0-1.9-0.8-1.9-1.8c0-1,0.8-1.9,1.8-1.9l3.5-0.1c1,0,1.9,0.8,1.9,1.8
			c0,1-0.8,1.9-1.8,1.9h0L782.7,324.8z"/>
		<path class="st14" d="M772.3,326.1l-3.1,0.9l-0.1,0c-1,0.3-2-0.3-2.3-1.2c-0.3-1,0.3-2,1.2-2.3l3.3-1c1-0.3,2,0.3,2.3,1.2
			c0.3,1-0.3,2-1.2,2.3l0,0L772.3,326.1z"/>
		<path class="st14" d="M762.3,329.7l-3,1.3l0,0c-0.9,0.4-2,0-2.4-0.9c-0.4-0.9,0-2,0.9-2.4l3-1.4c0.9-0.4,2,0,2.4,0.9
			S763.2,329.3,762.3,329.7L762.3,329.7L762.3,329.7z"/>
		<path class="st14" d="M752.5,334.4l-2.9,1.5l0,0c-0.9,0.5-2,0.1-2.4-0.7c-0.5-0.9-0.1-2,0.7-2.4l2.9-1.6c0.9-0.5,2-0.2,2.4,0.7
			C753.7,332.8,753.4,333.9,752.5,334.4L752.5,334.4L752.5,334.4z"/>
		<path class="st14" d="M743.1,339.8l-2.7,1.8l0,0c-0.8,0.5-1.9,0.3-2.5-0.5c-0.5-0.8-0.3-1.9,0.5-2.5l2.8-1.8
			c0.8-0.5,1.9-0.3,2.5,0.5C744.2,338.1,743.9,339.2,743.1,339.8L743.1,339.8L743.1,339.8z"/>
		<path class="st14" d="M734.1,345.9l-2.6,2l0,0c-0.8,0.6-1.9,0.4-2.5-0.3c-0.6-0.8-0.4-1.9,0.3-2.5l2.7-2c0.8-0.6,1.9-0.4,2.5,0.3
			C735.1,344.1,734.9,345.3,734.1,345.9L734.1,345.9L734.1,345.9z"/>
		<path class="st14" d="M725.6,352.7l-2.4,2.2l0,0c-0.7,0.6-1.8,0.6-2.5-0.1c-0.6-0.7-0.6-1.8,0.1-2.5l2.5-2.2
			c0.7-0.7,1.8-0.6,2.5,0.1C726.5,350.9,726.4,352,725.6,352.7L725.6,352.7L725.6,352.7z"/>
		<path class="st14" d="M717.8,360.1l-2.2,2.4l0,0c-0.7,0.7-1.8,0.7-2.5,0.1c-0.7-0.7-0.7-1.8-0.1-2.5l2.3-2.5
			c0.7-0.7,1.8-0.7,2.5-0.1C718.4,358.3,718.5,359.4,717.8,360.1L717.8,360.1L717.8,360.1z"/>
		<path class="st14" d="M710.7,368.3l-2,2.6l0,0c-0.6,0.8-1.7,0.9-2.4,0.3c-0.8-0.6-0.9-1.7-0.3-2.4l2-2.7c0.6-0.8,1.7-0.9,2.4-0.3
			C711.2,366.4,711.3,367.5,710.7,368.3L710.7,368.3L710.7,368.3z"/>
		<path class="st14" d="M704.5,377.1l-1.7,2.8l0,0.1c-0.5,0.8-1.5,1.1-2.3,0.6c-0.8-0.5-1.1-1.5-0.6-2.3l1.7-2.9
			c0.5-0.8,1.5-1.1,2.4-0.6C704.7,375.2,705,376.2,704.5,377.1L704.5,377.1L704.5,377.1z"/>
		<path class="st14" d="M699.3,386.6l-1.3,3l0,0.1c-0.4,0.9-1.4,1.2-2.2,0.9c-0.9-0.4-1.2-1.4-0.9-2.2l1.4-3.1
			c0.4-0.9,1.4-1.3,2.2-0.9S699.8,385.6,699.3,386.6L699.3,386.6L699.3,386.6z"/>
		<path class="st14" d="M695.4,396.6l-0.9,3.1l0,0.1c-0.3,0.9-1.2,1.4-2.1,1.1c-0.9-0.3-1.4-1.2-1.1-2.1l0.9-3.2
			c0.3-0.9,1.2-1.4,2.1-1.2C695.2,394.7,695.7,395.6,695.4,396.6L695.4,396.6L695.4,396.6z"/>
		<path class="st14" d="M692.9,407l-0.5,3.2l0,0.1c-0.1,0.9-1,1.5-1.9,1.4c-0.9-0.1-1.5-1-1.4-1.9l0.5-3.3c0.1-0.9,1-1.6,1.9-1.4
			C692.5,405.2,693.1,406.1,692.9,407L692.9,407L692.9,407z"/>
		<path class="st14" d="M691.9,417.7l0,3.2l0,0.1c0,0.9-0.7,1.6-1.6,1.6c-0.9,0-1.6-0.7-1.6-1.6l0-3.4c0-0.9,0.7-1.6,1.6-1.6
			C691.2,416,691.9,416.7,691.9,417.7L691.9,417.7L691.9,417.7z"/>
		<path class="st14" d="M692.5,428.5l0.4,3.2l0,0.1c0.1,0.9-0.5,1.7-1.3,1.8c-0.9,0.1-1.7-0.5-1.8-1.3l-0.5-3.3
			c-0.1-0.9,0.5-1.7,1.3-1.8C691.5,426.9,692.3,427.5,692.5,428.5L692.5,428.5L692.5,428.5z"/>
		<path class="st14" d="M694.4,439.1l0.9,3.1l0,0.1c0.2,0.8-0.3,1.7-1.1,1.9c-0.8,0.2-1.7-0.3-1.9-1.1l-0.9-3.2
			c-0.2-0.8,0.2-1.7,1.1-1.9C693.3,437.7,694.2,438.2,694.4,439.1L694.4,439.1L694.4,439.1z"/>
		<path class="st14" d="M697.7,449.3l1.2,3l0,0c0.3,0.8-0.1,1.6-0.8,1.9c-0.8,0.3-1.6-0.1-1.9-0.8l-1.3-3.1c-0.3-0.8,0-1.6,0.8-2
			C696.5,448.2,697.4,448.5,697.7,449.3L697.7,449.3L697.7,449.3z"/>
		<path class="st14" d="M702.1,459.2l1.5,2.9l0,0c0.4,0.7,0.1,1.6-0.6,2c-0.7,0.4-1.6,0.1-2-0.6l-1.6-2.9c-0.4-0.7-0.1-1.6,0.6-2
			C700.8,458.2,701.7,458.5,702.1,459.2L702.1,459.2L702.1,459.2z"/>
		<path class="st14" d="M707.6,468.6l1.8,2.7l0,0c0.4,0.6,0.3,1.5-0.4,1.9c-0.6,0.4-1.5,0.3-1.9-0.4l-1.9-2.8
			c-0.4-0.6-0.3-1.5,0.4-2S707.1,467.9,707.6,468.6L707.6,468.6L707.6,468.6z"/>
		<path class="st14" d="M713.9,477.4l2,2.5l0,0c0.5,0.6,0.4,1.4-0.2,1.9c-0.6,0.5-1.4,0.4-1.9-0.2l-2.1-2.6
			c-0.5-0.6-0.4-1.5,0.2-1.9C712.5,476.7,713.4,476.8,713.9,477.4L713.9,477.4L713.9,477.4z"/>
		<path class="st14" d="M720.9,485.7l2.3,2.4l0,0c0.5,0.5,0.5,1.4,0,1.9c-0.5,0.5-1.3,0.5-1.9,0l-2.3-2.4c-0.5-0.5-0.5-1.4,0-1.9
			C719.6,485.1,720.4,485.1,720.9,485.7L720.9,485.7L720.9,485.7z"/>
		<path class="st14" d="M728.7,493.3l2.5,2.2l0,0c0.5,0.5,0.6,1.3,0.1,1.8c-0.5,0.5-1.3,0.6-1.8,0.1l-2.5-2.2
			c-0.5-0.5-0.6-1.3-0.1-1.8C727.3,492.8,728.1,492.8,728.7,493.3L728.7,493.3L728.7,493.3z"/>
		<path class="st14" d="M737.1,500.2l2.6,2l0,0c0.5,0.4,0.7,1.2,0.2,1.7c-0.4,0.5-1.2,0.7-1.7,0.3l-2.7-2c-0.6-0.4-0.7-1.2-0.3-1.7
			C735.7,499.9,736.5,499.8,737.1,500.2L737.1,500.2L737.1,500.2z"/>
		<path class="st14" d="M746,506.6l2.7,1.8l0,0c0.5,0.4,0.7,1.1,0.3,1.6c-0.3,0.5-1.1,0.7-1.6,0.3l-2.8-1.8
			c-0.6-0.4-0.7-1.1-0.4-1.6C744.6,506.3,745.4,506.2,746,506.6C745.9,506.5,745.9,506.5,746,506.6L746,506.6z"/>
		<path class="st14" d="M755.2,512.3l2.8,1.6l0,0c0.5,0.3,0.7,1,0.4,1.5c-0.3,0.5-1,0.7-1.5,0.4l-2.9-1.6c-0.5-0.3-0.7-1-0.4-1.5
			C754,512.2,754.6,512,755.2,512.3C755.2,512.3,755.2,512.3,755.2,512.3L755.2,512.3z"/>
		<path class="st14" d="M764.8,517.6l2.9,1.5l0,0c0.5,0.3,0.7,0.9,0.4,1.4c-0.3,0.5-0.8,0.7-1.3,0.4l-3-1.5
			c-0.5-0.3-0.7-0.9-0.5-1.4C763.6,517.6,764.2,517.4,764.8,517.6C764.8,517.6,764.8,517.6,764.8,517.6L764.8,517.6z"/>
		<path class="st14" d="M774.6,522.4l3,1.4l0,0c0.5,0.2,0.7,0.8,0.5,1.2c-0.2,0.5-0.8,0.7-1.2,0.5l-3-1.3c-0.5-0.2-0.7-0.8-0.5-1.3
			C773.5,522.4,774.1,522.2,774.6,522.4C774.6,522.4,774.6,522.4,774.6,522.4L774.6,522.4z"/>
		<path class="st14" d="M784.6,526.9l3,1.3l0,0c0.4,0.2,0.6,0.7,0.5,1.1c-0.2,0.4-0.7,0.6-1.1,0.5l-3.1-1.2
			c-0.4-0.2-0.7-0.7-0.5-1.1C783.6,526.9,784.1,526.7,784.6,526.9C784.6,526.9,784.6,526.9,784.6,526.9L784.6,526.9z"/>
		<path class="st14" d="M794.8,531l3.1,1.2c0.4,0.2,0.6,0.6,0.4,1c-0.2,0.4-0.6,0.6-1,0.4l-3.1-1.2c-0.4-0.2-0.6-0.6-0.5-1
			C793.9,531.1,794.3,530.9,794.8,531C794.7,531,794.8,531,794.8,531z"/>
		<path class="st14" d="M805,534.9l3.1,1.1c0.4,0.1,0.5,0.5,0.4,0.9c-0.1,0.4-0.5,0.5-0.9,0.4l-3.1-1.1c-0.4-0.1-0.6-0.5-0.4-0.9
			C804.2,535,804.6,534.8,805,534.9C805,534.9,805,534.9,805,534.9z"/>
		<path class="st14" d="M815.3,538.6l3.1,1.1c0.3,0.1,0.5,0.5,0.4,0.8c-0.1,0.3-0.5,0.5-0.8,0.4l-3.1-1.1c-0.3-0.1-0.5-0.5-0.4-0.8
			C814.6,538.7,815,538.5,815.3,538.6C815.3,538.6,815.3,538.6,815.3,538.6z"/>
		<path class="st14" d="M825.7,542.3l1.4,0.5c0.3,0.1,0.4,0.4,0.3,0.7c-0.1,0.3-0.4,0.4-0.7,0.3l-1.4-0.5c-0.3-0.1-0.5-0.4-0.4-0.7
			C825.1,542.3,825.4,542.2,825.7,542.3C825.7,542.3,825.7,542.3,825.7,542.3z"/>
	</g>
	<g>
		<polygon class="st10" points="905,65.8 908.7,92.9 925.5,78.8 		"/>
		<path class="st1" d="M1025.1,33.5l-64.6,74.4c-1.2,1.4-3,2.3-4.9,2.4c-1.9,0.1-3.7-0.6-5.1-1.9l-72.2-67.7c-0.8-0.8-1.1-2-0.7-3
			c0.4-1.1,1.4-1.8,2.6-1.8L1025.1,33.5z"/>
		<polygon class="st10" points="905,65.8 1025.1,33.5 916.6,76.7 917.3,84.3 		"/>
		<polygon class="st10" points="923.5,83.2 908.7,92.9 916.6,76.7 		"/>
	</g>
</g>
</svg>
