<?xml version="1.0" encoding="utf-8"?>
<!-- Generator: Adobe Illustrator 19.0.0, SVG Export Plug-In . SVG Version: 6.00 Build 0)  -->
<svg version="1.1" id="Illustration" xmlns="http://www.w3.org/2000/svg" xmlns:xlink="http://www.w3.org/1999/xlink" x="0px"
	 y="0px" viewBox="0 0 1360.8 1361.7" style="enable-background:new 0 0 1360.8 1361.7;" xml:space="preserve">
<style type="text/css">
	.st0{fill:url(#SVGID_1_);}
	.st1{opacity:0.3;}
	.st2{fill:#91B3FA;}
	.st3{fill:#BDD0FB;}
	.st4{fill:#7D97F4;}
	.st5{fill:url(#SVGID_2_);}
	.st6{fill:url(#SVGID_3_);}
	.st7{fill:url(#SVGID_4_);}
	.st8{fill:url(#SVGID_5_);}
	.st9{fill:url(#SVGID_6_);}
	.st10{fill:url(#SVGID_7_);}
	.st11{fill:url(#SVGID_8_);}
	.st12{fill:url(#SVGID_9_);}
	.st13{fill:url(#SVGID_10_);}
	.st14{fill:url(#SVGID_11_);}
	.st15{fill:url(#SVGID_12_);}
	.st16{fill:url(#SVGID_13_);}
	.st17{fill:url(#SVGID_14_);}
	.st18{fill:url(#SVGID_15_);}
	.st19{fill:url(#SVGID_16_);}
	.st20{fill:url(#SVGID_17_);}
	.st21{fill:url(#SVGID_18_);}
	.st22{fill:url(#SVGID_19_);}
	.st23{fill:url(#SVGID_20_);}
	.st24{fill:url(#SVGID_21_);}
	.st25{fill:url(#SVGID_22_);}
	.st26{fill:url(#SVGID_23_);}
	.st27{fill:url(#SVGID_24_);}
	.st28{fill:url(#SVGID_25_);}
	.st29{fill:url(#SVGID_26_);}
	.st30{fill:url(#SVGID_27_);}
	.st31{fill:url(#SVGID_28_);}
	.st32{fill:url(#SVGID_29_);}
	.st33{fill:url(#SVGID_30_);}
	.st34{fill:url(#SVGID_31_);}
	.st35{fill:url(#SVGID_32_);}
	.st36{fill:url(#SVGID_33_);}
	.st37{fill:url(#SVGID_34_);}
	.st38{fill:url(#SVGID_35_);}
	.st39{fill:url(#SVGID_36_);}
	.st40{fill:url(#SVGID_37_);}
	.st41{fill:url(#SVGID_38_);}
	.st42{fill:url(#SVGID_39_);}
	.st43{fill:url(#SVGID_40_);}
	.st44{fill:url(#SVGID_41_);}
	.st45{fill:url(#SVGID_42_);}
	.st46{fill:url(#SVGID_43_);}
	.st47{fill:url(#SVGID_44_);}
	.st48{fill:url(#SVGID_45_);}
	.st49{fill:url(#SVGID_46_);}
	.st50{fill:url(#SVGID_47_);}
	.st51{fill:url(#SVGID_48_);}
	.st52{fill:url(#SVGID_49_);}
</style>
<g>
	<linearGradient id="SVGID_1_" gradientUnits="userSpaceOnUse" x1="1440.5273" y1="1485.4082" x2="474.5595" y2="442.7762">
		<stop  offset="0" style="stop-color:#DAE3FE"/>
		<stop  offset="1" style="stop-color:#E9EFFD"/>
	</linearGradient>
	<path class="st0" d="M1305.9,891.3c-132.7,310.2-483.1,443.5-757.6,420.8c-75-6.2-225.8-18.7-343.5-130
		C-21.4,968.1,13.5,521.1,229.9,258C257.8,224.1,450.8-3,751.5,0c220.2,2.2,374.7,126.6,393.5,142.1
		c23.7,19.6,76.1,66.1,123.3,139.9C1379.1,455.4,1388.9,697.4,1305.9,891.3z"/>
	<g>
		<g>
			<g class="st1">
				<path class="st2" d="M930.5,249.2c-2.6,0-4.8-2-5.1-4.6c-0.6-5.8-1-11.6-1.1-17.4c-0.1-2.8,2.2-5.2,5-5.2c0,0,0.1,0,0.1,0
					c2.8,0,5.1,2.2,5.1,5c0.1,5.5,0.4,11.1,1,16.6c0.3,2.8-1.7,5.3-4.6,5.6C930.9,249.2,930.7,249.2,930.5,249.2z M930.9,204.6
					c-0.2,0-0.4,0-0.6,0c-2.8-0.3-4.8-2.9-4.5-5.7c0.7-5.8,1.6-11.6,2.8-17.2c0.6-2.8,3.3-4.6,6-4c2.8,0.6,4.6,3.3,4,6
					c-1.1,5.4-2,10.9-2.6,16.4C935.6,202.7,933.4,204.6,930.9,204.6z M941,161.1c-0.6,0-1.2-0.1-1.7-0.3c-2.7-1-4.1-3.9-3.1-6.5
					c1.9-5.5,4.2-10.9,6.6-16.2c1.2-2.6,4.2-3.7,6.8-2.5c2.6,1.2,3.7,4.2,2.5,6.8c-2.3,5-4.4,10.2-6.2,15.4
					C945.1,159.8,943.1,161.1,941,161.1z M960.6,121c-0.9,0-1.9-0.3-2.7-0.8c-2.4-1.5-3.1-4.7-1.6-7.1c3.1-4.9,6.5-9.7,10-14.3
					c1.7-2.2,4.9-2.7,7.2-1c2.2,1.7,2.7,4.9,1,7.2c-3.3,4.4-6.5,8.9-9.5,13.6C964,120.2,962.3,121,960.6,121z M988.7,86.3
					c-1.3,0-2.6-0.5-3.6-1.5c-2-2-2-5.3,0-7.2c4.1-4.1,8.5-8,12.9-11.7c2.2-1.8,5.4-1.5,7.2,0.7c1.8,2.2,1.5,5.4-0.7,7.2
					c-4.2,3.5-8.4,7.3-12.3,11.2C991.3,85.8,990,86.3,988.7,86.3z M1023.7,58.7c-1.7,0-3.4-0.9-4.4-2.4c-1.5-2.4-0.8-5.6,1.6-7.1
					c4.9-3.1,10-6,15.2-8.6c2.5-1.3,5.6-0.3,6.9,2.2c1.3,2.5,0.3,5.6-2.2,6.9c-4.9,2.5-9.8,5.2-14.5,8.2
					C1025.6,58.4,1024.6,58.7,1023.7,58.7z M1211.4,46.5c-0.7,0-1.4-0.1-2.1-0.5c-5-2.3-10.2-4.4-15.4-6.2c-2.7-0.9-4.1-3.9-3.1-6.5
					c0.9-2.7,3.9-4.1,6.5-3.1c5.5,1.9,10.9,4.1,16.2,6.5c2.6,1.2,3.7,4.2,2.5,6.8C1215.3,45.4,1213.4,46.5,1211.4,46.5z M1064,39.5
					c-2.1,0-4.1-1.3-4.8-3.5c-0.9-2.7,0.5-5.6,3.2-6.5c5.5-1.9,11.1-3.6,16.7-5c2.7-0.7,5.5,1,6.2,3.7c0.7,2.7-1,5.5-3.7,6.2
					c-5.3,1.3-10.7,2.9-15.9,4.7C1065.1,39.4,1064.5,39.5,1064,39.5z M1169,32.7c-0.3,0-0.7,0-1-0.1c-5.4-1.1-10.9-2-16.4-2.6
					c-2.8-0.3-4.8-2.9-4.5-5.7c0.3-2.8,2.9-4.8,5.7-4.5c5.8,0.7,11.6,1.6,17.3,2.8c2.8,0.6,4.6,3.3,4,6
					C1173.5,31.1,1171.4,32.7,1169,32.7z M1107.5,29.8c-2.6,0-4.8-2-5.1-4.6c-0.3-2.8,1.7-5.3,4.6-5.6c5.8-0.6,11.6-1,17.4-1.1
					c0,0,0.1,0,0.1,0c2.8,0,5.1,2.2,5.1,5c0.1,2.8-2.2,5.2-5,5.2c-5.5,0.1-11.1,0.5-16.6,1.1C1107.9,29.8,1107.7,29.8,1107.5,29.8z"
					/>
				<path class="st2" d="M1242.7,64.3c-1,0-2-0.3-2.9-0.9c-2.2-1.5-4.4-3-6.6-4.4c-2.4-1.5-3.1-4.7-1.6-7.1c1.5-2.4,4.7-3.1,7.1-1.6
					c2.4,1.5,4.7,3.1,7,4.7c2.3,1.6,2.9,4.8,1.3,7.1C1245.9,63.5,1244.3,64.3,1242.7,64.3z"/>
			</g>
			<g class="st1">
				<path class="st2" d="M1325.9,196.4c-2.5,0-4.6-1.8-5.1-4.3c-0.4-2.6-0.9-5.3-1.4-7.9c-0.6-2.8,1.2-5.5,4-6c2.8-0.6,5.5,1.2,6,4
					c0.6,2.7,1.1,5.5,1.5,8.3c0.4,2.8-1.5,5.4-4.2,5.9C1326.5,196.4,1326.2,196.4,1325.9,196.4z"/>
				<path class="st2" d="M1129.2,427.7c-2.4,0-4.7,0-7.1-0.1c-2.8-0.1-5-2.5-4.9-5.3c0.1-2.8,2.5-5.1,5.3-4.9
					c5.5,0.2,11,0.1,16.3-0.1c2.8-0.1,5.2,2,5.4,4.9c0.1,2.8-2,5.2-4.9,5.4C1135.9,427.6,1132.5,427.7,1129.2,427.7z M1095.1,424.8
					c-0.3,0-0.6,0-0.9-0.1c-5.6-1-11.3-2.2-16.8-3.6c-2.7-0.7-4.4-3.5-3.7-6.2c0.7-2.7,3.5-4.4,6.2-3.7c5.2,1.4,10.6,2.5,16,3.4
					c2.8,0.5,4.7,3.1,4.2,5.9C1099.8,423.1,1097.6,424.8,1095.1,424.8z M1166,424.3c-2.4,0-4.6-1.7-5-4.2c-0.5-2.8,1.3-5.5,4.1-6
					c5.3-1,10.7-2.2,15.9-3.7c2.7-0.8,5.6,0.8,6.3,3.6c0.8,2.7-0.8,5.6-3.6,6.3c-5.5,1.5-11.1,2.8-16.7,3.9
					C1166.6,424.2,1166.3,424.3,1166,424.3z M1052.9,412.7c-0.7,0-1.3-0.1-1.9-0.4c-5.3-2.2-10.5-4.6-15.6-7.2
					c-2.5-1.3-3.5-4.4-2.2-6.9c1.3-2.5,4.4-3.5,6.9-2.2c4.8,2.5,9.8,4.8,14.8,6.8c2.6,1.1,3.9,4.1,2.8,6.7
					C1056.9,411.5,1054.9,412.7,1052.9,412.7z M1208,411.4c-2,0-3.9-1.2-4.7-3.1c-1.1-2.6,0.1-5.6,2.7-6.7c5-2.1,9.9-4.5,14.7-7.1
					c2.5-1.3,5.6-0.4,6.9,2.1c1.3,2.5,0.4,5.6-2.1,6.9c-5,2.7-10.2,5.2-15.5,7.5C1209.3,411.3,1208.7,411.4,1208,411.4z
					 M1246.1,389.7c-1.6,0-3.1-0.7-4.1-2.1c-1.7-2.3-1.2-5.5,1.1-7.2c4.4-3.2,8.7-6.6,12.8-10.1c2.1-1.9,5.4-1.6,7.2,0.5
					c1.8,2.1,1.6,5.4-0.5,7.2c-4.3,3.7-8.9,7.3-13.5,10.7C1248.2,389.3,1247.2,389.7,1246.1,389.7z M1278.6,360.1
					c-1.2,0-2.4-0.4-3.4-1.3c-2.1-1.9-2.3-5.1-0.5-7.2c3.6-4.1,7.1-8.3,10.3-12.7c1.7-2.3,4.9-2.7,7.2-1.1c2.3,1.7,2.7,4.9,1.1,7.2
					c-3.4,4.6-7,9.1-10.8,13.3C1281.4,359.5,1280,360.1,1278.6,360.1z M1303.9,324.2c-0.8,0-1.7-0.2-2.5-0.6c-2.5-1.4-3.4-4.5-2-7
					c2.6-4.8,5.1-9.7,7.3-14.6c1.1-2.6,4.2-3.8,6.8-2.6c2.6,1.1,3.8,4.2,2.6,6.8c-2.3,5.2-4.9,10.4-7.6,15.4
					C1307.4,323.2,1305.7,324.2,1303.9,324.2z M1320.6,283.6c-0.5,0-0.9-0.1-1.4-0.2c-2.7-0.8-4.3-3.6-3.5-6.3
					c1.5-5.2,2.8-10.5,3.9-15.9c0.6-2.8,3.3-4.6,6-4c2.8,0.6,4.6,3.2,4,6c-1.1,5.6-2.5,11.2-4.1,16.7
					C1324.9,282.1,1322.9,283.6,1320.6,283.6z M1328.1,240.3c-0.1,0-0.2,0-0.3,0c-2.8-0.2-5-2.6-4.8-5.4c0.2-4,0.4-8,0.4-12
					c0-1.4,0-2.9,0-4.3c-0.1-2.8,2.2-5.2,5-5.2c2.9-0.1,5.2,2.2,5.2,5c0,1.5,0.1,3,0.1,4.5c0,4.2-0.1,8.4-0.4,12.6
					C1333,238.2,1330.8,240.3,1328.1,240.3z"/>
				<path class="st2" d="M1014.3,391.5c-1,0-2-0.3-2.9-0.9c-2.3-1.6-4.5-3.3-6.8-5c-2.2-1.7-2.7-4.9-1-7.2c1.7-2.2,4.9-2.7,7.2-1
					c2.1,1.6,4.3,3.2,6.4,4.7c2.3,1.6,2.9,4.8,1.2,7.1C1017.5,390.7,1015.9,391.5,1014.3,391.5z"/>
			</g>
			<g>
				<path class="st2" d="M1021.2,332.1c0.6,0.8,1.7,1.1,2.7,0.7l27.4-10.1c10.8,8.3,23,14.9,36.2,19.5l6.7,28.3
					c0.2,1,1.1,1.7,2.1,1.8l34.8,3.5c1,0.1,2-0.5,2.4-1.4l12.2-26.4c13.9-1.8,27.2-5.9,39.4-11.8l24.8,15.3c0.9,0.5,2,0.5,2.8-0.2
					l27.1-22.1c0.8-0.6,1.1-1.7,0.7-2.7l-10.1-27.4c8.3-10.8,14.9-23,19.5-36.2l28.3-6.7c1-0.2,1.7-1.1,1.8-2.1l3.5-34.8
					c0.1-1-0.5-2-1.4-2.4l-26.4-12.2c-1.8-13.9-5.9-27.2-11.8-39.4l15.3-24.8c0.5-0.9,0.5-2-0.2-2.8l-22.1-27.1
					c-0.6-0.8-1.7-1.1-2.7-0.7l-27.4,10.1c-10.8-8.3-23-14.9-36.2-19.5l-6.7-28.3c-0.2-1-1.1-1.7-2.1-1.8l-34.8-3.5
					c-1-0.1-2,0.5-2.4,1.4l-12.2,26.4c-13.9,1.8-27.2,5.9-39.4,11.8l-24.8-15.3c-0.9-0.5-2-0.5-2.8,0.2l-27.1,22.1
					c-0.8,0.6-1.1,1.7-0.7,2.7l10.1,27.4c-8.3,10.8-14.9,23-19.5,36.2l-28.3,6.7c-1,0.2-1.7,1.1-1.8,2.1l-3.5,34.8
					c-0.1,1,0.4,2,1.4,2.4l26.4,12.2c1.8,13.9,5.9,27.2,11.8,39.4l-15.3,24.8c-0.5,0.9-0.5,2,0.2,2.8L1021.2,332.1z"/>
				<g>
					<path class="st3" d="M1129.1,256.6c-17.1,0-32.2-12.6-34.7-30c-2.8-19.2,10.5-37.1,29.6-39.9c9.3-1.4,18.5,1,26.1,6.6
						c7.5,5.6,12.4,13.8,13.8,23.1c2.8,19.2-10.5,37.1-29.6,39.9C1132.5,256.5,1130.8,256.6,1129.1,256.6z M1129.1,194.6
						c-1.3,0-2.7,0.1-4,0.3c-14.7,2.2-24.9,15.9-22.7,30.6c2.2,14.7,15.9,24.9,30.6,22.7c14.7-2.2,24.9-15.9,22.7-30.6
						c-1-7.1-4.8-13.4-10.6-17.7C1140.5,196.4,1134.9,194.6,1129.1,194.6z"/>
				</g>
				<path class="st3" d="M1129.8,307.4c-2.9,0-5.9-0.1-8.9-0.4l0,0c-0.9-0.1-1.9-0.2-2.8-0.3c-4.6-0.6-9.1-1.6-13.5-2.9
					c-0.1,0-0.1,0-0.2-0.1c-0.2-0.1-0.3-0.1-0.5-0.2c-0.3-0.1-0.7-0.2-1-0.3c-0.9-0.3-1.4-1.1-1.4-1.9c0-0.2,0-0.4,0.1-0.6
					c0.3-1.1,1.5-1.7,2.6-1.3c5.5,1.8,11.3,3,17.2,3.6c29,2.9,56.1-9.6,72.9-31c9.4-11.9,15.6-26.5,17.2-42.6
					c0.3-2.8,0.4-5.7,0.4-8.5c0-18.9-6.4-37-18.5-51.9c-13.9-17-33.6-27.6-55.5-29.8c-45.2-4.6-85.6,28.4-90.2,73.6
					c-0.3,2.8-0.4,5.6-0.4,8.4c0,12,2.6,24,7.8,34.9c0.1,0.3,0.2,0.6,0.2,0.9c0,0.8-0.4,1.5-1.2,1.9c-1,0.5-2.2,0-2.7-1
					c-5.4-11.5-8.2-24-8.2-36.6c0-2.9,0.1-5.8,0.4-8.8c4.8-47.4,47.3-82,94.7-77.3c23,2.3,43.6,13.5,58.2,31.3
					c12.7,15.6,19.5,34.6,19.5,54.4c0,2.9-0.1,5.9-0.4,8.9c-2.3,23-13.5,43.6-31.3,58.2C1168.7,300.6,1149.6,307.4,1129.8,307.4z"/>
			</g>
		</g>
		<g>
			<g class="st1">
				<path class="st2" d="M755.7,384.2c-1.4,0-2.6-0.9-3-2.3c-0.8-2.6-1.4-5.2-2-7.8c-0.4-1.7,0.7-3.4,2.4-3.8
					c1.7-0.4,3.4,0.7,3.8,2.4c0.6,2.5,1.2,5,2,7.5c0.5,1.7-0.5,3.4-2.1,3.9C756.3,384.2,756,384.2,755.7,384.2z"/>
				<path class="st2" d="M751,360.3c-1.6,0-3-1.2-3.1-2.8c-0.5-4.6-0.7-9.3-0.7-13.9c0-1,0-1.9,0-2.9c0-1.7,1.6-3.1,3.2-3.1
					c1.7,0,3.1,1.5,3.1,3.2c0,0.9,0,1.9,0,2.8c0,4.4,0.2,8.9,0.7,13.3c0.2,1.7-1.1,3.3-2.8,3.5C751.2,360.3,751.1,360.3,751,360.3z
					 M751.7,327.5c-0.1,0-0.3,0-0.5,0c-1.7-0.3-2.9-1.9-2.7-3.6c0.8-5.5,1.9-11.1,3.4-16.5c0.5-1.7,2.2-2.7,3.9-2.2
					c1.7,0.5,2.7,2.2,2.2,3.9c-1.4,5.1-2.5,10.4-3.3,15.7C754.6,326.4,753.3,327.5,751.7,327.5z M760.4,295.8
					c-0.4,0-0.8-0.1-1.2-0.2c-1.6-0.7-2.4-2.5-1.7-4.1c2.1-5.2,4.6-10.3,7.4-15.2c0.9-1.5,2.8-2.1,4.3-1.2c1.5,0.9,2.1,2.8,1.2,4.3
					c-2.6,4.7-5,9.5-7,14.5C762.8,295.1,761.6,295.8,760.4,295.8z M776.5,267.2c-0.7,0-1.3-0.2-1.9-0.6c-1.4-1-1.7-3-0.7-4.4
					c3.3-4.5,7-8.8,10.9-12.9c1.2-1.3,3.2-1.3,4.5-0.1c1.3,1.2,1.3,3.2,0.1,4.5c-3.7,3.9-7.2,8-10.3,12.3
					C778.4,266.8,777.5,267.2,776.5,267.2z M799.2,243.4c-0.9,0-1.8-0.4-2.4-1.2c-1.1-1.4-0.9-3.3,0.4-4.5c4.3-3.6,8.9-6.9,13.6-9.9
					c1.5-0.9,3.4-0.5,4.4,1c0.9,1.5,0.5,3.4-1,4.4c-4.5,2.9-8.9,6-13,9.4C800.6,243.2,799.9,243.4,799.2,243.4z M826.9,225.8
					c-1.2,0-2.3-0.7-2.9-1.8c-0.7-1.6-0.1-3.5,1.5-4.2c5.1-2.4,10.3-4.5,15.6-6.2c1.7-0.5,3.4,0.4,4,2c0.5,1.7-0.4,3.4-2,4
					c-5.1,1.7-10.1,3.7-14.9,5.9C827.8,225.7,827.4,225.8,826.9,225.8z M858.1,215.6c-1.5,0-2.8-1-3.1-2.6c-0.3-1.7,0.8-3.4,2.5-3.7
					c5.5-1.1,11.1-1.8,16.7-2.2c1.7-0.1,3.3,1.2,3.4,2.9c0.1,1.7-1.2,3.3-2.9,3.4c-5.3,0.4-10.7,1.1-15.9,2.1
					C858.5,215.6,858.3,215.6,858.1,215.6z M907.3,215.2c-0.2,0-0.4,0-0.6,0c-4.5-0.8-9.2-1.4-13.9-1.7c-0.7-0.1-1.4-0.1-2.1-0.1
					c-1.7-0.1-3.1-1.6-3-3.3c0.1-1.7,1.6-3.1,3.3-3c0.7,0,1.5,0.1,2.2,0.1c4.9,0.3,9.8,0.9,14.5,1.8c1.7,0.3,2.9,1.9,2.6,3.7
					C910.1,214.1,908.8,215.2,907.3,215.2z"/>
			</g>
			<g class="st1">
				<path class="st2" d="M885.7,480.1c-1.7,0-3.1-1.4-3.2-3.1c0-1.7,1.4-3.2,3.1-3.2c5.3-0.1,10.6-0.5,15.8-1.2
					c1.7-0.2,3.3,1,3.6,2.7c0.2,1.7-1,3.3-2.7,3.6C896.8,479.6,891.3,480,885.7,480.1C885.7,480.1,885.7,480.1,885.7,480.1z
					 M869.5,479.4c-0.1,0-0.2,0-0.3,0c-5.5-0.6-11-1.5-16.3-2.8c-1.7-0.4-2.8-2.1-2.4-3.8c0.4-1.7,2.1-2.8,3.8-2.4
					c5.1,1.2,10.4,2.1,15.6,2.6c1.7,0.2,3,1.7,2.8,3.5C872.5,478.2,871.1,479.4,869.5,479.4z M917.7,475.8c-1.4,0-2.7-0.9-3.1-2.4
					c-0.4-1.7,0.6-3.4,2.3-3.9c5.1-1.3,10.1-3,15-4.9c1.6-0.6,3.5,0.1,4.1,1.8c0.6,1.6-0.1,3.5-1.8,4.1c-5.1,2-10.4,3.8-15.7,5.2
					C918.2,475.8,918,475.8,917.7,475.8z M838,472.1c-0.4,0-0.7-0.1-1.1-0.2c-5.2-1.9-10.3-4.1-15.2-6.6c-1.6-0.8-2.2-2.7-1.4-4.3
					c0.8-1.6,2.7-2.2,4.3-1.4c4.7,2.4,9.6,4.5,14.5,6.3c1.6,0.6,2.5,2.4,1.9,4.1C840.5,471.3,839.3,472.1,838,472.1z M947.7,463.9
					c-1.1,0-2.2-0.6-2.8-1.6c-0.8-1.5-0.3-3.5,1.3-4.3c4.6-2.5,9.1-5.3,13.4-8.4c1.4-1,3.4-0.7,4.4,0.7c1,1.4,0.7,3.4-0.7,4.4
					c-4.5,3.2-9.2,6.2-14,8.8C948.8,463.7,948.2,463.9,947.7,463.9z M974,445.1c-0.9,0-1.7-0.3-2.3-1c-1.2-1.3-1.1-3.3,0.2-4.5
					c3.9-3.6,7.6-7.4,11-11.4c1.1-1.3,3.1-1.5,4.5-0.3c1.3,1.1,1.5,3.1,0.3,4.5c-3.6,4.2-7.5,8.2-11.5,11.9
					C975.5,444.8,974.8,445.1,974,445.1z M995,420.5c-0.6,0-1.2-0.2-1.8-0.5c-1.5-1-1.8-2.9-0.9-4.4c2.9-4.4,5.6-9,7.9-13.7
					c0.8-1.6,2.7-2.2,4.2-1.4c1.6,0.8,2.2,2.7,1.4,4.2c-2.5,4.9-5.3,9.7-8.3,14.3C997.1,420,996.1,420.5,995,420.5z"/>
				<path class="st2" d="M809.1,457.3c-0.6,0-1.2-0.2-1.8-0.5c-2.2-1.5-4.5-3.1-6.6-4.7c-1.4-1.1-1.7-3-0.6-4.4
					c1.1-1.4,3-1.6,4.4-0.6c2,1.5,4.1,3.1,6.3,4.5c1.4,1,1.8,2.9,0.8,4.4C811.1,456.8,810.1,457.3,809.1,457.3z"/>
			</g>
			<g>
				<path class="st2" d="M811.7,416.4c0.4,0.5,1.2,0.7,1.8,0.5l18.3-6.7c7.2,5.6,15.4,10,24.2,13l4.5,19c0.2,0.7,0.7,1.2,1.4,1.2
					l23.3,2.4c0.7,0.1,1.3-0.3,1.6-0.9l8.2-17.7c9.3-1.2,18.2-3.9,26.4-7.9l16.6,10.3c0.6,0.4,1.3,0.3,1.9-0.1l18.1-14.8
					c0.5-0.4,0.7-1.2,0.5-1.8l-6.7-18.3c5.6-7.2,10-15.4,13-24.2l19-4.5c0.7-0.2,1.2-0.7,1.2-1.4l2.4-23.3c0.1-0.7-0.3-1.3-0.9-1.6
					l-17.7-8.2c-1.2-9.3-3.9-18.2-7.9-26.4l10.3-16.6c0.4-0.6,0.3-1.3-0.1-1.9l-14.8-18.1c-0.4-0.5-1.2-0.7-1.8-0.5l-18.3,6.7
					c-7.2-5.6-15.4-10-24.2-13l-4.5-19c-0.2-0.7-0.7-1.2-1.4-1.2l-23.3-2.4c-0.7-0.1-1.3,0.3-1.6,0.9l-8.2,17.7
					c-9.3,1.2-18.2,3.9-26.4,7.9l-16.6-10.3c-0.6-0.4-1.3-0.3-1.9,0.1l-18.1,14.8c-0.5,0.4-0.7,1.2-0.5,1.8l6.7,18.3
					c-5.6,7.2-10,15.4-13,24.2l-19,4.5c-0.7,0.2-1.2,0.7-1.2,1.4l-2.4,23.3c-0.1,0.7,0.3,1.3,0.9,1.6l17.7,8.2
					c1.2,9.3,3.9,18.2,7.9,26.4l-10.3,16.6c-0.4,0.6-0.3,1.3,0.1,1.9L811.7,416.4z"/>
				<g>
					<path class="st3" d="M883.9,366.4c-5.1,0-10.1-1.6-14.2-4.7c-5.1-3.8-8.5-9.4-9.4-15.7c-1.9-13.1,7.1-25.2,20.2-27.2
						c13.1-1.9,25.2,7.1,27.2,20.2c0.9,6.3-0.7,12.6-4.5,17.8c-3.8,5.1-9.4,8.5-15.7,9.4C886.2,366.3,885,366.4,883.9,366.4z
						 M883.9,324.8c-0.9,0-1.7,0.1-2.6,0.2c-9.6,1.4-16.3,10.4-14.8,20c0.7,4.7,3.1,8.8,6.9,11.6c3.8,2.8,8.4,4,13.1,3.3l0,0
						c4.7-0.7,8.8-3.1,11.6-6.9c2.8-3.8,4-8.4,3.3-13.1C900.1,331.1,892.5,324.8,883.9,324.8z"/>
				</g>
				<path class="st3" d="M884.3,401.7c-2,0-4-0.1-6.1-0.3c-4-0.4-8-1.2-11.9-2.4c-0.2-0.1-0.3-0.1-0.5-0.2c-1.3-0.4-2.2-1.7-2.2-3
					c0-0.3,0.1-0.7,0.2-1c0.5-1.7,2.3-2.6,4-2c3.6,1.2,7.3,1.9,11.1,2.3h0c0.2,0,0.4,0,0.6,0.1c8.9,0.8,17.7-0.6,25.8-4.1
					c4.4-1.9,8.5-4.4,12.3-7.4c0,0,0.1,0,0.1-0.1c0.1-0.1,0.2-0.2,0.3-0.2c11-9,17.9-21.8,19.3-35.9c0.2-1.8,0.3-3.7,0.3-5.5
					c0-12.2-4.2-24-12-33.6c-9-11-21.8-17.9-35.9-19.3c-14.1-1.4-28,2.7-39.1,11.7c-11,9-17.9,21.8-19.3,35.9
					c-0.2,1.8-0.3,3.6-0.3,5.4c0,7.8,1.7,15.5,5,22.6c0.2,0.4,0.3,0.9,0.3,1.3c0,1.2-0.7,2.3-1.8,2.9c-1.6,0.7-3.5,0.1-4.2-1.5
					c-3.7-7.9-5.6-16.5-5.6-25.3c0-2,0.1-4,0.3-6c1.6-15.8,9.3-30.1,21.6-40.2c12.3-10.1,27.8-14.7,43.7-13.1
					c15.8,1.6,30.1,9.3,40.2,21.6c8.8,10.7,13.4,23.9,13.4,37.6c0,2-0.1,4.1-0.3,6.1C940.5,378.7,914.5,401.7,884.3,401.7z"/>
			</g>
		</g>
	</g>
	<g>
		<path class="st4" d="M588.1,1317.6H86.5v-698c0-36.7,29.7-66.4,66.4-66.4h427.5c36.7,0,66.4,29.7,66.4,66.4v639.3
			C646.8,1291.3,620.5,1317.6,588.1,1317.6z"/>
		<path class="st2" d="M562.9,1317.6H2.6v-724c0-22.3,18.1-40.4,40.4-40.4h479.4c22.3,0,40.4,18.1,40.4,40.4V1317.6z"/>
	</g>
	<g>
		<g>
			<linearGradient id="SVGID_2_" gradientUnits="userSpaceOnUse" x1="1072.7834" y1="914.7727" x2="939.2241" y2="1155.873">
				<stop  offset="0" style="stop-color:#FF928E"/>
				<stop  offset="1" style="stop-color:#FE7062"/>
			</linearGradient>
			<path class="st5" d="M1156.7,1031.1c0,0-71.9-12-75.8-12H880.9c-13.4,0-24.3,10.9-24.3,24.3v22c0,13.4,10.9,24.3,24.3,24.3H1081
				c1.9,0,3.7-0.2,5.5-0.7C1109.9,1085,1133.3,1065.8,1156.7,1031.1z"/>
			<linearGradient id="SVGID_3_" gradientUnits="userSpaceOnUse" x1="690.7982" y1="505.9276" x2="1106.2681" y2="791.4038">
				<stop  offset="0" style="stop-color:#E1473D"/>
				<stop  offset="1" style="stop-color:#E9605A"/>
			</linearGradient>
			<path class="st6" d="M1156,1034.1c272.7-648-232.5-648.5-169.6-35.3L1156,1034.1z"/>
			<linearGradient id="SVGID_4_" gradientUnits="userSpaceOnUse" x1="1039.6311" y1="1049.6115" x2="1120.9205" y2="556.9492">
				<stop  offset="0" style="stop-color:#FF928E"/>
				<stop  offset="1" style="stop-color:#FE7062"/>
			</linearGradient>
			<path class="st7" d="M1137.2,1027.9c272.7-660.3-247.1-642.7-184.2-17.8L1137.2,1027.9z"/>
			<g>
				
					<linearGradient id="SVGID_5_" gradientUnits="userSpaceOnUse" x1="11464.3369" y1="1290.7388" x2="11510.252" y2="1001.9216" gradientTransform="matrix(1 0 0 1 -10487.1201 0)">
					<stop  offset="0" style="stop-color:#FF928E"/>
					<stop  offset="1" style="stop-color:#FE7062"/>
				</linearGradient>
				<rect x="983.2" y="1071.6" class="st8" width="21.2" height="229.7"/>
				
					<linearGradient id="SVGID_6_" gradientUnits="userSpaceOnUse" x1="11482.126" y1="1292.5358" x2="11529.7861" y2="992.7428" gradientTransform="matrix(1 0 0 1 -10487.1201 0)">
					<stop  offset="0" style="stop-color:#FF928E"/>
					<stop  offset="1" style="stop-color:#FE7062"/>
				</linearGradient>
				<path class="st9" d="M1086.8,1305.7H900.8v-11c0-1.6,1.3-2.9,2.9-2.9h180.1c1.7,0,3.1,1.4,3.1,3.1V1305.7z"/>
			</g>
		</g>
		<g>
			
				<linearGradient id="SVGID_7_" gradientUnits="userSpaceOnUse" x1="-1449.6097" y1="1225.6504" x2="-1487.1104" y2="1299.4015" gradientTransform="matrix(-1 0 0 1 -620.1501 0)">
				<stop  offset="0" style="stop-color:#09005D"/>
				<stop  offset="1" style="stop-color:#1A0F91"/>
			</linearGradient>
			<path class="st10" d="M881.2,1269.7c0,0-60.7,43.7-50.1,73.1c0,0,66.4-28.6,74.4-51.2c8-22.6-1.4-32.5-1.4-32.5L881.2,1269.7z"/>
			
				<linearGradient id="SVGID_8_" gradientUnits="userSpaceOnUse" x1="-1520.9199" y1="1255" x2="-1483.5625" y2="1255" gradientTransform="matrix(-1 0 0 1 -620.1501 0)">
				<stop  offset="0" style="stop-color:#FEBBBA"/>
				<stop  offset="1" style="stop-color:#FF928E"/>
			</linearGradient>
			<path class="st11" d="M890.3,1233.1l9.9,28.7c1.5,4.3,0,9.3-3.9,11.7c-1.9,1.2-4.6,2.4-8.2,3.2c-5.1,1.2-10.4-1.2-12.8-5.8
				l-11.9-22.3L890.3,1233.1z"/>
			
				<linearGradient id="SVGID_9_" gradientUnits="userSpaceOnUse" x1="-1572.616" y1="1156.1543" x2="-1413.8639" y2="933.6513" gradientTransform="matrix(-1 0 0 1 -620.1501 0)">
				<stop  offset="0" style="stop-color:#09005D"/>
				<stop  offset="1" style="stop-color:#1A0F91"/>
			</linearGradient>
			<path class="st12" d="M986.8,975c0,0-124.6,21.6-178,71c-53.4,49.4,49.1,206.9,49.1,206.9s16.8-0.1,37.1-17.5
				c0,0-60.8-118.4-8.4-153c58.9-38.8,126.8-47.6,126.8-47.6L988,978.8L986.8,975z"/>
			
				<linearGradient id="SVGID_10_" gradientUnits="userSpaceOnUse" x1="-1471.3727" y1="1300.2178" x2="-1601.375" y2="1470.2206" gradientTransform="matrix(-1 0 0 1 -620.1501 0)">
				<stop  offset="0" style="stop-color:#09005D"/>
				<stop  offset="1" style="stop-color:#1A0F91"/>
			</linearGradient>
			<path class="st13" d="M841.6,1326.6c13.3-6.2,51.1-32.6,57.5-33.8c6.4-1.2,17.4,6.3,17.4,6.3s2.7,4.8-0.2,13.3
				c-8.9,10.7-28.6,31.2-55,38.8c-19.5,5.6-33.1,0.4-41.6-5.7C824.4,1338.3,832.7,1330.7,841.6,1326.6z"/>
			
				<linearGradient id="SVGID_11_" gradientUnits="userSpaceOnUse" x1="-1536.4329" y1="1337.0367" x2="-1435.9802" y2="1337.0367" gradientTransform="matrix(-1 0 0 1 -620.1501 0)">
				<stop  offset="0" style="stop-color:#4042E2"/>
				<stop  offset="1" style="stop-color:#4F52FF"/>
			</linearGradient>
			<path class="st14" d="M861.3,1351.2c26.5-7.6,46.1-28.1,55-38.8c-1.9,5.7-6.4,13-16,21.6c-23.7,21.3-69,29-78.7,27.5
				c-7.7-1.2-7-8.3-1.9-16.1C828.2,1351.5,841.8,1356.8,861.3,1351.2z"/>
			
				<linearGradient id="SVGID_12_" gradientUnits="userSpaceOnUse" x1="-1547.9338" y1="1289.4752" x2="-1512.8729" y2="1289.4752" gradientTransform="matrix(-1 0 0 1 -620.1501 0)">
				<stop  offset="0" style="stop-color:#FEBBBA"/>
				<stop  offset="1" style="stop-color:#FF928E"/>
			</linearGradient>
			<path class="st15" d="M927.8,1280.4c-0.1,3.7-7.7,16.3-12.1,23.4c-2.1,3.4-5.7,5.4-9.7,5.4c-2.5,0-5.4-0.2-8-1
				c-3.9-1.1-6.1-5.3-5-9.2l8.6-29.3L927.8,1280.4z"/>
			
				<linearGradient id="SVGID_13_" gradientUnits="userSpaceOnUse" x1="-1629.8365" y1="1267.0305" x2="-1621.0863" y2="969.5256" gradientTransform="matrix(-1 0 0 1 -620.1501 0)">
				<stop  offset="0" style="stop-color:#09005D"/>
				<stop  offset="1" style="stop-color:#1A0F91"/>
			</linearGradient>
			<path class="st16" d="M1106.7,937.6c0,0,27.7,74,0,96.5c-27.7,22.5-93.7,47.8-108.4,92.6s-39.8,131.9-73.3,162.8
				c0,0-23.5-2.3-32.3-11.7c0,0,19.1-130,31.7-163.4c10.9-28.9,26.9-70.6,57.7-93.9c8.8-6.7,7.3-17.2,3.2-27.5l-7.4-18.7
				L1106.7,937.6z"/>
			<linearGradient id="SVGID_14_" gradientUnits="userSpaceOnUse" x1="792.5363" y1="958.8313" x2="614.0746" y2="1198.6051">
				<stop  offset="0" style="stop-color:#4042E2"/>
				<stop  offset="1" style="stop-color:#4F52FF"/>
			</linearGradient>
			<path class="st17" d="M818.2,879.6c46.4,2.8,31.9-71.3,31.1-74.3l70.4,49.7c0,0-3.7,39.6-62.3,60.4c-14.8,5.3-28.4,5.5-40.3,2.9
				C822.2,903.5,821.1,890.2,818.2,879.6z"/>
			
				<linearGradient id="SVGID_15_" gradientUnits="userSpaceOnUse" x1="-1440.8025" y1="885.1669" x2="-1318.4983" y2="885.1669" gradientTransform="matrix(-1 0 0 1 -620.1501 0)">
				<stop  offset="0" style="stop-color:#FEBBBA"/>
				<stop  offset="1" style="stop-color:#FF928E"/>
			</linearGradient>
			<path class="st18" d="M728.4,857.3c17.3-12,36.9,0,36.9,0c23.1,15.1,40.2,21.5,52.8,22.3c3,10.6,4,23.9-1.1,38.8
				c-25.9-5.6-44.4-24.3-52.5-33.9c-2.9-3.5-8-4.1-11.6-1.3c-3.6,2.8-7.1,6.7-6.5,10.8c1.3,8.1-8.1,10.6-8.8,7.7
				c-0.7-2.9,3.2-20.3,3.2-20.3s-18.8,18.9-26.1,26.1c-7.3,7.2-16.5,0-16.5,0S711.2,869.3,728.4,857.3z"/>
			
				<linearGradient id="SVGID_16_" gradientUnits="userSpaceOnUse" x1="-1497.2115" y1="738.6973" x2="-1772.2157" y2="938.7005" gradientTransform="matrix(-1 0 0 1 -620.1501 0)">
				<stop  offset="0" style="stop-color:#4042E2"/>
				<stop  offset="1" style="stop-color:#4F52FF"/>
			</linearGradient>
			<path class="st19" d="M1034.5,690.8c0,0-67.5-27-193.1,76.7c0,0-10.5,21.7,1,41c11.4,19.3,120.5,113.5,135.5,165.8
				c0,0,65,21.1,132.2-29C1110,945.4,1104.1,800,1034.5,690.8z"/>
			
				<linearGradient id="SVGID_17_" gradientUnits="userSpaceOnUse" x1="-1557.4985" y1="704.6689" x2="-1476.3511" y2="704.6689" gradientTransform="matrix(-1 0 0 1 -620.1501 0)">
				<stop  offset="0" style="stop-color:#FEBBBA"/>
				<stop  offset="1" style="stop-color:#FF928E"/>
			</linearGradient>
			<path class="st20" d="M901.1,666.7l33.2,40.3c3.3,4,4,9.6,1.7,14.2c-4.6,9.4-15.6,23.1-39.8,21.2c-7.2-0.6-13.6-4.9-16.8-11.4
				l-23.2-48L901.1,666.7z"/>
			
				<linearGradient id="SVGID_18_" gradientUnits="userSpaceOnUse" x1="-1536.6493" y1="684.4703" x2="-1811.6538" y2="884.4738" gradientTransform="matrix(-1 0 0 1 -620.1501 0)">
				<stop  offset="0" style="stop-color:#4042E2"/>
				<stop  offset="1" style="stop-color:#4F52FF"/>
			</linearGradient>
			<path class="st21" d="M1086.7,863.4c7.8-31.9-71.5-103.1-71.5-103.1l19.3-69.5c0,0,171.4,114.1,127.7,205.8
				c-6.3,13.2-14.6,22.4-24.2,28.5C1124.2,888.1,1102.2,871,1086.7,863.4z"/>
			<linearGradient id="SVGID_19_" gradientUnits="userSpaceOnUse" x1="1164.6497" y1="513.7006" x2="1098.9583" y2="682.3086">
				<stop  offset="0" style="stop-color:#09005D"/>
				<stop  offset="1" style="stop-color:#1A0F91"/>
			</linearGradient>
			<path class="st22" d="M1086.8,858.7c0.8,0,1.6-0.6,1.8-1.4c8-32.6-68.8-102-72.1-104.9c-0.8-0.7-2-0.6-2.6,0.1
				c-0.7,0.8-0.6,2,0.1,2.6c0.8,0.7,78.4,70.8,71,101.2c-0.2,1,0.4,2,1.4,2.3C1086.5,858.7,1086.7,858.7,1086.8,858.7z"/>
			
				<linearGradient id="SVGID_20_" gradientUnits="userSpaceOnUse" x1="-1612.8351" y1="886.639" x2="-1923.5104" y2="1426.5011" gradientTransform="matrix(-1 0 0 1 -620.1501 0)">
				<stop  offset="0" style="stop-color:#FEBBBA"/>
				<stop  offset="1" style="stop-color:#FF928E"/>
			</linearGradient>
			<path class="st23" d="M966.5,860.6c0,0,94.1,36.5,117.1,9.1c1.6-1.9,2.6-4,3.1-6.3c15.4,7.7,37.4,24.7,51.2,61.8
				c-49.5,31.6-134.1-17.6-157-32.1c-3.8-2.4-8.3-3.2-12.6-2.3c-8.8,1.8-24.1,4.5-32.3,3.3c-12-1.9-29.3,40.6-48.8,27.5
				C887.3,921.5,904,847.8,966.5,860.6z"/>
			<g>
				
					<linearGradient id="SVGID_21_" gradientUnits="userSpaceOnUse" x1="-1293.8925" y1="-1027.089" x2="-1395.3361" y2="-892.8873" gradientTransform="matrix(-0.9683 -0.2499 -0.2499 0.9683 -661.6642 1284.2886)">
					<stop  offset="0" style="stop-color:#FEBBBA"/>
					<stop  offset="1" style="stop-color:#FF928E"/>
				</linearGradient>
				<path class="st24" d="M828.8,607.6c-0.3,1.3,7.8,89.3,7.8,89.3l50.2-5.7l4.7-84.6C891.4,606.6,834.3,585.9,828.8,607.6z"/>
				
					<linearGradient id="SVGID_22_" gradientUnits="userSpaceOnUse" x1="-1371.3677" y1="-994.716" x2="-1250.1926" y2="-994.716" gradientTransform="matrix(-0.9683 -0.2499 -0.2499 0.9683 -661.6642 1284.2886)">
					<stop  offset="0" style="stop-color:#09005D"/>
					<stop  offset="1" style="stop-color:#1A0F91"/>
				</linearGradient>
				<path class="st25" d="M878.4,624.1l1,44.7c0,0.6,0,1.1-0.2,1.7c-0.9,3.4-4.7,14.9-16.2,10.2c-10.4-4.2-20-7.9-27.1-6.6
					c-3.2,0.6-5.4,3.5-5.1,6.7c0.7,8,2.7,26,6.9,41.4c0.8,3.1,3.9,5,7.1,4.5c9.6-1.7,29.7-5.8,45.1-12.9c2.1-1,3.5-3,3.6-5.3
					c0.8-11.2,3.2-45.2,5.3-54.5c2-8.8,13.5-12.9,18.5-14.3c1.6-0.5,3-1.5,3.8-3c2.8-5.3,7.2-17.7-8.3-24.7
					c-3.2-1.5-4.6-5.3-3.1-8.5c3.1-6.4,5.2-16.4-6.6-23.3c-12-7-22.2-1.3-27.9,3.6c-2.3,2-5.6,2-8,0.1c-1.4-1.1-3.2-1.6-5.6-0.4
					c-3.3,1.6-7.2-0.2-8.4-3.6c-2.3-6.5-7.8-13.9-20.4-13.1c-22.4,1.3-27.5,25.4-23.3,40.3c4.2,14.9,28.4,12,41,6.2
					c9.6-4.5,20.6,2.5,25.3,6.1C877.4,620.5,878.3,622.2,878.4,624.1z"/>
				
					<linearGradient id="SVGID_23_" gradientUnits="userSpaceOnUse" x1="-1442.4664" y1="-920.811" x2="-1361.1014" y2="-1004.2892" gradientTransform="matrix(-0.9683 -0.2499 -0.2499 0.9683 -661.6642 1284.2886)">
					<stop  offset="0" style="stop-color:#FEBBBA"/>
					<stop  offset="1" style="stop-color:#FF928E"/>
				</linearGradient>
				<path class="st26" d="M899,670.3c0,0-6.2-26.2,3.7-31.4c9.9-5.2,23.3-0.5,18.3,17.5C914.7,678.8,899,670.3,899,670.3z"/>
			</g>
		</g>
		<g>
			
				<linearGradient id="SVGID_24_" gradientUnits="userSpaceOnUse" x1="11324.0674" y1="1592.901" x2="11164.9902" y2="1636.4998" gradientTransform="matrix(0.9988 -4.940000e-002 4.940000e-002 0.9988 -10437.3457 -151.3786)">
				<stop  offset="0" style="stop-color:#09005D"/>
				<stop  offset="1" style="stop-color:#1A0F91"/>
			</linearGradient>
			<path class="st27" d="M918.3,932.7c-0.2,0-0.3,0-0.5,0l-197.4-0.2c-4.9,0-8.8-4-8.8-8.8c0-4.9,4-8.9,8.8-8.8l197.4,0.2
				c4.9,0,8.8,4,8.8,8.8C926.7,928.6,923,932.4,918.3,932.7z"/>
			
				<linearGradient id="SVGID_25_" gradientUnits="userSpaceOnUse" x1="11223.6387" y1="777.4368" x2="11110.7666" y2="896.736" gradientTransform="matrix(1 0 0 1 -10487.1201 0)">
				<stop  offset="0" style="stop-color:#09005D"/>
				<stop  offset="1" style="stop-color:#1A0F91"/>
			</linearGradient>
			<path class="st28" d="M542.9,753.4h164.4c12.1,0,23.2,7,28.3,18l76,161.2H607.4c-7.8,0-14.8-4.8-17.7-12l-58.9-149.2
				C527.3,762.7,533.7,753.4,542.9,753.4z"/>
			
				<ellipse transform="matrix(0.9519 -0.3064 0.3064 0.9519 -226.282 238.4676)" class="st4" cx="646.5" cy="840" rx="13" ry="21.1"/>
		</g>
		<g>
			<g>
				<linearGradient id="SVGID_26_" gradientUnits="userSpaceOnUse" x1="561.3054" y1="1152.2875" x2="751.9094" y2="1152.2875">
					<stop  offset="0" style="stop-color:#4042E2"/>
					<stop  offset="1" style="stop-color:#4F52FF"/>
				</linearGradient>
				<path class="st29" d="M569.6,1356.1c-1.1,0-2.2-0.2-3.3-0.7c-4.2-1.8-6.2-6.5-4.3-10.6l174-391.6c1.8-4.1,6.7-6,10.9-4.2
					c4.2,1.8,6.2,6.5,4.3,10.6l-174,391.6C575.9,1354.3,572.8,1356.1,569.6,1356.1z"/>
				<linearGradient id="SVGID_27_" gradientUnits="userSpaceOnUse" x1="583.3166" y1="1152.2867" x2="773.9205" y2="1152.2867">
					<stop  offset="0" style="stop-color:#4042E2"/>
					<stop  offset="1" style="stop-color:#4F52FF"/>
				</linearGradient>
				<path class="st30" d="M765.6,1356.1c-3.2,0-6.3-1.8-7.6-4.9L584,959.7c-1.8-4.1,0.1-8.8,4.3-10.6c4.2-1.8,9.1,0.1,10.9,4.2
					l174,391.6c1.8,4.1-0.1,8.8-4.3,10.6C767.8,1355.9,766.7,1356.1,765.6,1356.1z"/>
				<linearGradient id="SVGID_28_" gradientUnits="userSpaceOnUse" x1="1099.9288" y1="1152.2875" x2="1290.5326" y2="1152.2875">
					<stop  offset="0" style="stop-color:#4042E2"/>
					<stop  offset="1" style="stop-color:#4F52FF"/>
				</linearGradient>
				<path class="st31" d="M1108.2,1356.1c-1.1,0-2.2-0.2-3.3-0.7c-4.2-1.8-6.2-6.5-4.3-10.6l174-391.6c1.8-4.1,6.7-6,10.9-4.2
					c4.2,1.8,6.2,6.5,4.3,10.6l-174,391.6C1114.5,1354.3,1111.4,1356.1,1108.2,1356.1z"/>
				<linearGradient id="SVGID_29_" gradientUnits="userSpaceOnUse" x1="1121.9386" y1="1152.2867" x2="1312.5425" y2="1152.2867">
					<stop  offset="0" style="stop-color:#4042E2"/>
					<stop  offset="1" style="stop-color:#4F52FF"/>
				</linearGradient>
				<path class="st32" d="M1304.2,1356.1c-3.2,0-6.3-1.8-7.6-4.9l-174-391.6c-1.8-4.1,0.1-8.8,4.3-10.6c4.2-1.8,9.1,0.1,10.9,4.2
					l174,391.6c1.8,4.1-0.1,8.8-4.3,10.6C1306.5,1355.9,1305.3,1356.1,1304.2,1356.1z"/>
			</g>
			<path class="st3" d="M1324.7,941.2c0.4-2.6-0.2-5.2-1.6-7.2c-1.5-2-3.7-3.2-6-3.2H525.4c-3.1,0-5.9,1.8-7.6,4.7
				c-1.7,2.9-1.9,6.5-0.6,9.7l8.6,20.8c2,4.8,6.2,7.8,10.9,7.8h774.9c4.4,0,8.1-3.5,8.9-8.2L1324.7,941.2z"/>
		</g>
	</g>
	<g>
		<path class="st4" d="M294.7,905.8c0,0,83.9-147.2,57.9-169.2c-26-21.9-26.5,41.8-37,32.7c-10.5-9,6.6-62.2,2-99.2
			c-4.7-37-14.8-86.4-28-36.7c-13.1,49.7-11.5,98.7-17.2,73.4c-5.7-25.3-25.3-157.3-50.5-117.9c-25.2,39.4-30.5,90.6-5.1,120.5
			c25.4,29.9,59.6,63.2,17.6,41.2c-42-22-70.6-12.2-25.7,27.7c0,0,67.5,55.9,38.2,53.2c-29.3-2.6-75.9,28.3-27.9,50.7
			C219,882.2,287.3,892.2,294.7,905.8z"/>
		<linearGradient id="SVGID_30_" gradientUnits="userSpaceOnUse" x1="97.791" y1="930.8038" x2="290.4978" y2="930.8038">
			<stop  offset="0" style="stop-color:#4042E2"/>
			<stop  offset="1" style="stop-color:#4F52FF"/>
		</linearGradient>
		<path class="st33" d="M259.8,1040.1c0,0-163.6-7.8-156.3-45.6c7.2-37.9,60.6-12.5,84.4-10.1c23.8,2.4,9.8-13.8-38.6-47.9
			c-48.4-34.1-75-83.9-23.8-60.7c51.2,23.3,71.7,66.9,68.2,36.1c-3.5-30.8-69.3-117.5-13.6-82c55.7,35.5,51.9,68.4,53.6,94.3
			c1.7,25.9,9.1-50.2,26.5-38.8c17.4,11.3,7.5,23,1.3,53.1c-6.2,30.1,11.2,5.8,17-4c5.8-9.9,19.9,13.8,6.1,46.6
			C270.7,1013.7,259.8,1040.1,259.8,1040.1z"/>
		<path class="st4" d="M292.4,1212.5c-0.1,0.1-0.2,0.2-0.2,0.3c0,0,0,0.2,0,0.1l0-0.5l0.1-1.9l0.2-3.8l0.3-7.7l0.4-15.4l0.5-30.9
			c0.3-20.6,0.4-41.2,0.3-61.8c-0.1-41.2-0.9-82.4-2.4-123.6c-0.8-20.6-1.9-41.1-3.2-61.7c-1.4-20.5-3-41-5.1-61.5
			c-2.1-20.4-4.8-40.8-8.3-61c-3.6-20.1-8-40.2-15.2-59.1l0-0.1c-0.7-1.9,0.2-3.9,2.1-4.6c1.8-0.7,3.9,0.2,4.6,2
			c7.8,19.6,12.5,40,16.5,60.4c3.9,20.4,6.8,40.9,9.2,61.5c2.4,20.6,4.3,41.2,6,61.8c1.6,20.6,2.9,41.3,4,61.9
			c2.1,41.3,3.5,82.6,4.1,123.9c0.3,20.7,0.5,41.3,0.6,62l-0.1,31l-0.2,15.5l-0.2,7.8l-0.1,3.9l-0.1,2l0,0.5c0,0.2,0,0.7-0.1,1
			c-0.1,0.8-0.2,1.5-0.4,2.3c-1.2,3.7-5.2,5.6-8.8,4.4C293.1,1220.1,291.2,1216.2,292.4,1212.5z"/>
		<linearGradient id="SVGID_31_" gradientUnits="userSpaceOnUse" x1="214.2624" y1="1069.3344" x2="305.3727" y2="1069.3344">
			<stop  offset="0" style="stop-color:#4042E2"/>
			<stop  offset="1" style="stop-color:#4F52FF"/>
		</linearGradient>
		<path class="st34" d="M291.5,1220.5c-0.1,0.2-0.1,0.4-0.1,0.6c0,0.1,0,0.3,0,0.2l0-0.3l-0.2-1.2l-0.4-2.4l-0.8-4.9l-1.6-9.8
			l-3.4-19.6c-2.3-13-4.7-26-7.2-39c-5-26-10.3-51.9-16.1-77.8c-5.8-25.8-12.1-51.5-19.4-76.9c-3.6-12.7-7.6-25.3-12-37.7
			c-4.4-12.3-9.3-24.6-15.6-35.8l-0.1-0.1c-1-1.7-0.4-3.9,1.4-4.9c1.7-1,3.9-0.4,4.9,1.3c7,11.8,12.2,24.2,17,36.7
			c4.8,12.5,9,25.2,12.9,37.9c7.9,25.5,14.7,51.2,21.1,77c6.4,25.8,12.3,51.8,17.8,77.8c2.8,13,5.5,26,8.1,39.1l3.8,19.6l1.8,9.8
			l0.9,4.9l0.4,2.5l0.2,1.3l0.1,0.3l0.1,0.8c0.1,0.6,0.1,1.2,0.1,1.8c-0.4,3.8-3.8,6.6-7.6,6.3
			C293.9,1227.7,291.1,1224.3,291.5,1220.5z"/>
		<linearGradient id="SVGID_32_" gradientUnits="userSpaceOnUse" x1="283.8989" y1="823.3635" x2="477.6049" y2="823.3635">
			<stop  offset="0" style="stop-color:#4042E2"/>
			<stop  offset="1" style="stop-color:#4F52FF"/>
		</linearGradient>
		<path class="st35" d="M326.5,935.5c0,0,165.8-26.4,150-61.6c-15.8-35.2-61.9,1.9-84.4,9.7c-22.5,7.8-25.8,3.9,13.4-40.4
			c39.2-44.3,42.8-90.4-1.6-55.9c-44.4,34.5-29.1,66.5-32.8,35.7c-3.8-30.8,55.6-148.3,9.7-100.8c-46,47.5-51.6,87.9-47.2,113.5
			c4.4,25.6-20.5-46.7-34.8-31.6c-14.3,15.1-2,24.1,11.1,52c13.1,27.9-9.6,8.3-17.5,0c-7.9-8.3-16.2,18.1,4.9,46.7
			C318.4,931.5,326.5,935.5,326.5,935.5z"/>
		<linearGradient id="SVGID_33_" gradientUnits="userSpaceOnUse" x1="313.2506" y1="1032.489" x2="351.2127" y2="1032.489">
			<stop  offset="0" style="stop-color:#4042E2"/>
			<stop  offset="1" style="stop-color:#4F52FF"/>
		</linearGradient>
		<path class="st36" d="M314.1,1216.9c-0.2-0.7-0.3-1.3-0.4-2c0-0.3-0.1-0.8-0.1-0.9l0-0.4l-0.1-1.5l-0.1-3l-0.1-5.8l-0.1-11.6
			l0-23.2c0.1-15.5,0.2-30.9,0.5-46.4c0.6-30.9,1.6-61.8,3.3-92.7c1.7-30.9,4-61.8,7.7-92.5c1.8-15.4,4.1-30.8,7-46
			c3-15.3,6.5-30.5,12.5-45.3c0.7-1.8,2.8-2.7,4.7-2c1.8,0.7,2.7,2.8,2,4.6l0,0.1c-5.3,14-8.6,29-11.2,44
			c-2.6,15.1-4.6,30.3-6.1,45.6c-3.1,30.6-4.8,61.3-6,92c-1.1,30.8-1.6,61.6-1.6,92.3c0,15.4,0.1,30.8,0.3,46.2l0.5,23.1l0.3,11.5
			l0.2,5.7l0.1,2.8l0.1,1.4l0,0.3c0,0.1,0-0.1,0-0.2c0-0.2-0.1-0.4-0.2-0.6c1.2,3.7-0.8,7.6-4.4,8.8
			C319.2,1222.6,315.3,1220.6,314.1,1216.9z"/>
		<g>
			<linearGradient id="SVGID_34_" gradientUnits="userSpaceOnUse" x1="422.0525" y1="944.8615" x2="144.5268" y2="1565.8245">
				<stop  offset="0" style="stop-color:#4042E2"/>
				<stop  offset="1" style="stop-color:#4F52FF"/>
			</linearGradient>
			<path class="st37" d="M234.7,1185H372c9,0,15.7,8.4,13.6,17.1c-8.8,38.1-19.3,76.7-40.9,115.9c-4,7.2-11.6,11.8-19.8,11.8h-44.8
				c-8.1,0-15.6-4.5-19.5-11.6c-17.3-32.1-33.9-70.3-42.1-113.7C216.7,1194.3,224.4,1185,234.7,1185z"/>
		</g>
	</g>
	<g>
		<g>
			<linearGradient id="SVGID_35_" gradientUnits="userSpaceOnUse" x1="334.085" y1="196.9368" x2="126.0592" y2="586.5115">
				<stop  offset="0" style="stop-color:#4042E2"/>
				<stop  offset="1" style="stop-color:#4F52FF"/>
			</linearGradient>
			<path class="st38" d="M58.8,140.4c0,0-53.3,29.5-57.7,79.5c-4.4,50-0.4,257.4,106.5,308.5c106.9,51.1,248.4,39.3,302.6,33.7
				c54.2-5.6,84.2-42.4,90.9-67.7c6.7-25.3,17.5-119.8-39.4-150.2c-57-30.5-116.8-77.1-176.6-122.5
				C225.3,176.2,122.8,102.1,58.8,140.4z"/>
			<linearGradient id="SVGID_36_" gradientUnits="userSpaceOnUse" x1="459.4245" y1="389.5687" x2="511.5878" y2="444.0505">
				<stop  offset="0" style="stop-color:#09005D"/>
				<stop  offset="1" style="stop-color:#1A0F91"/>
			</linearGradient>
			<path class="st39" d="M444.9,361.4c0,0-14.4,0.8-16.2,30.4c0,0,33.4,29.9,78.4,37c3.4,0.5-4.7-23.1-6-26.3
				C495.4,387.3,477.1,377.5,444.9,361.4z"/>
			<linearGradient id="SVGID_37_" gradientUnits="userSpaceOnUse" x1="548.9804" y1="-111.5852" x2="482.4712" y2="63.3094">
				<stop  offset="0" style="stop-color:#09005D"/>
				<stop  offset="1" style="stop-color:#1A0F91"/>
			</linearGradient>
			<path class="st40" d="M282.8,326.6h30.4c0,0,93.2-102.9,154.3-113.3c0,0,42.5,54.3-2.3,155.8c-3.6,8.2-13.7,11.8-21.2,7
				c-2.2-1.4-3.9-3.4-4.8-5.8l3.6-86.6c0,0-79.5,69.5-93.3,82.9C335.7,380,265.4,371.9,282.8,326.6z"/>
			<linearGradient id="SVGID_38_" gradientUnits="userSpaceOnUse" x1="528.6222" y1="526.3182" x2="627.2911" y2="598.7357">
				<stop  offset="0" style="stop-color:#09005D"/>
				<stop  offset="1" style="stop-color:#1A0F91"/>
			</linearGradient>
			<path class="st41" d="M576.4,542.7c-12.7-11.1-33-23.7-62.3-27.2l-9.9,6.1c0,0,6.3,9.3,17.8,19.1c10.6,6.2,27,14.5,40.5,16.3
				C575.8,558.7,577.7,550.8,576.4,542.7z"/>
			<path class="st4" d="M501.2,402.5c-7.8,2.5-11.3,13.6-31.2,6.3c-19.2-7.1-33.6-16.3-40.9-21.6c-0.2,1.4-0.3,2.9-0.4,4.5
				c0,0,35.2,33.5,80.3,40.6c3.4,0.5,6.1-2.8,4.8-6C511.6,420.6,507.7,411.9,501.2,402.5z"/>
			<path class="st2" d="M586,552.2c-2.5-2.9-5.7-6.1-9.6-9.5c1.3,8-0.6,16-13.8,14.2c-13.6-1.8-29.9-10.1-40.5-16.3
				c13.3,11.3,33.5,23.4,59,22.6C586.7,563.2,589.7,556.5,586,552.2z"/>
			<linearGradient id="SVGID_39_" gradientUnits="userSpaceOnUse" x1="580.6201" y1="-99.5539" x2="514.1107" y2="75.3411">
				<stop  offset="0" style="stop-color:#09005D"/>
				<stop  offset="1" style="stop-color:#1A0F91"/>
			</linearGradient>
			<path class="st42" d="M283.9,348.6l142.2,1.5c0,0,81.2,67.2,95.9,169.6c0,0,2.4,7.5-12.2,8.8c0,0-49.1-32.1-81.1-88.8
				c-39.3-69.5-117-38.2-117-38.2c-25.6-18.4-61.7-22.2-88.9-28.3L283.9,348.6z"/>
			<linearGradient id="SVGID_40_" gradientUnits="userSpaceOnUse" x1="369.2115" y1="258.6779" x2="302.2253" y2="338.3372">
				<stop  offset="0" style="stop-color:#FEBBBA"/>
				<stop  offset="1" style="stop-color:#FF928E"/>
			</linearGradient>
			<path class="st43" d="M287.3,234c0,0,15.3,76.7,90.3,107.1l26.7-3.1l6.3,10l-62.6,2c0,0-53.5-21.2-81.8-78.9
				C265.2,269.2,249.6,236.9,287.3,234z"/>
			<linearGradient id="SVGID_41_" gradientUnits="userSpaceOnUse" x1="116.1772" y1="-115.7513" x2="223.5025" y2="260.7827">
				<stop  offset="0" style="stop-color:#FF928E"/>
				<stop  offset="1" style="stop-color:#FE7062"/>
			</linearGradient>
			<path class="st44" d="M295.5,347.3c0,0-17.4-47.3-21.1-93.3c0,0,12.7-10.9,20.7-15.7c2.6-1.5,3.6-4.8,2.2-7.5
				c-5.9-12.1-41.2-59.7-43.9-60.4c-14.4-3.6-73.5-31.7-115.1,25.2c-17.9,24.4,3.5,99.6,84.6,177.5l16.7,3.2L295.5,347.3z"/>
			<linearGradient id="SVGID_42_" gradientUnits="userSpaceOnUse" x1="291.1028" y1="331.1585" x2="424.9975" y2="147.9834">
				<stop  offset="0" style="stop-color:#FEBBBA"/>
				<stop  offset="1" style="stop-color:#FF928E"/>
			</linearGradient>
			<path class="st45" d="M228.4,264.4c0,0,48.4,57.3,110.2,65.6c0,0,16-14.6,27.9-9.4c11.9,5.2,28.2,28.2,28.2,28.2h-79.4
				c0,0-75.1-2.6-112.6-48.2C205.7,284.7,214.8,275.2,228.4,264.4z"/>
			<linearGradient id="SVGID_43_" gradientUnits="userSpaceOnUse" x1="209.1956" y1="179.3614" x2="214.1275" y2="134.9739">
				<stop  offset="0" style="stop-color:#FEBBBA"/>
				<stop  offset="1" style="stop-color:#FF928E"/>
			</linearGradient>
			<path class="st46" d="M200.2,130.4l-10.6,35.3c-0.5,1.6,0.1,3.4,1.5,4.3c5.1,3.5,18.4,10.4,36.7,3.7c2.1-0.8,3.5-2.7,3.7-4.9
				L234,138L200.2,130.4z"/>
			<g>
				<linearGradient id="SVGID_44_" gradientUnits="userSpaceOnUse" x1="235.5009" y1="140.6424" x2="213.7626" y2="68.9442">
					<stop  offset="0" style="stop-color:#FEBBBA"/>
					<stop  offset="1" style="stop-color:#FF928E"/>
				</linearGradient>
				<path class="st47" d="M262.2,101.8c0,0-5.2,36.6-19.3,47.8c-14.1,11.3-41.4,2.8-50.7-24.8l18.4-47.2L262.2,101.8z"/>
				<linearGradient id="SVGID_45_" gradientUnits="userSpaceOnUse" x1="215.9282" y1="9.2424" x2="236.0938" y2="124.261">
					<stop  offset="0" style="stop-color:#09005D"/>
					<stop  offset="1" style="stop-color:#1A0F91"/>
				</linearGradient>
				<path class="st48" d="M208.6,108.2c1.1,0.3,2.2-0.3,2.4-1.5c0.5-3.4,1.8-10.1,4.3-14.6c0,0-1.3-4.8,12.1,2.5
					c13.5,7.3,33.7,17.9,45.6,11.6c11.6-6.2,23.4-37.3-7.3-31.5c-1.2,0.2-2.2-0.7-2.2-1.9c0.4-5.1-0.1-16.9-12-20.7
					c-11.2-3.5-5.2,2.2-7.7,5.2c-0.7,0.9,0.9-3-14.9-0.7c-5.4,0.8-12.4-13.6-25.8-7.8c-11,4.8-12.7,11.6-12.5,15.8
					c0.1,1.4-1.3,2.3-2.6,1.7c-3.4-1.6-8.8-2.4-14,4.1c-7.2,9,3.1,16.8,6.2,18.8c0.5,0.3,0.8,0.9,0.8,1.5c0,4.7,0.8,25.1,11,36.6
					c0.9,1,2.5,0.7,3-0.5l7.9-18.8c0.4-0.9,1.3-1.3,2.2-1L208.6,108.2z"/>
				<linearGradient id="SVGID_46_" gradientUnits="userSpaceOnUse" x1="212.9846" y1="147.4692" x2="191.2462" y2="75.7708">
					<stop  offset="0" style="stop-color:#FEBBBA"/>
					<stop  offset="1" style="stop-color:#FF928E"/>
				</linearGradient>
				<path class="st49" d="M208.8,112c0,0-4.8-19.6-12.1-13.2c-7.3,6.4,1.9,20.3,10.3,23L208.8,112z"/>
			</g>
			<path class="st4" d="M390.7,353.3l35.6-118.9c1.5-4.8,5.8-8.3,10.8-8.6l48.1-3.3c4.9-0.3,8.5,4.4,6.9,9.1l-39.8,113.5
				c-1.3,3.7-4.6,6.2-8.4,6.6l-47.4,5.3L390.7,353.3z"/>
			
				<ellipse transform="matrix(0.8961 0.4439 -0.4439 0.8961 167.6094 -171.9175)" class="st2" cx="451" cy="272" rx="6.1" ry="10.9"/>
			<path class="st4" d="M396.5,357c-0.1,0-0.2,0-0.2,0l-101-5.1c-2.5-0.1-4.4-2.3-4.3-4.7c0.1-2.5,2.3-4.5,4.7-4.3l101,5.1
				c2.5,0.1,4.4,2.3,4.3,4.7C400.9,355.1,398.9,357,396.5,357z"/>
			<linearGradient id="SVGID_47_" gradientUnits="userSpaceOnUse" x1="265.3687" y1="229.2381" x2="275.1602" y2="229.2381">
				<stop  offset="0" style="stop-color:#E1473D"/>
				<stop  offset="1" style="stop-color:#E9605A"/>
			</linearGradient>
			<path class="st50" d="M274.4,254.8c-0.4,0-0.8-0.4-0.8-0.8c0.1-21.1-8.1-49.1-8.2-49.4c-0.1-0.4,0.1-0.9,0.5-1
				c0.4-0.1,0.9,0.1,1,0.5c0.1,0.3,8.3,28.5,8.2,49.8C275.2,254.5,274.8,254.8,274.4,254.8z"/>
			<linearGradient id="SVGID_48_" gradientUnits="userSpaceOnUse" x1="197.8441" y1="240.7139" x2="229.2349" y2="240.7139">
				<stop  offset="0" style="stop-color:#E1473D"/>
				<stop  offset="1" style="stop-color:#E9605A"/>
			</linearGradient>
			<path class="st51" d="M228.4,265.2c-0.2,0-0.5-0.1-0.6-0.3c-0.2-0.3-22.3-28.4-29.9-47.6c-0.2-0.4,0-0.9,0.4-1
				c0.4-0.2,0.9,0,1,0.4c7.5,19,29.4,46.9,29.7,47.2c0.3,0.3,0.2,0.9-0.1,1.1C228.8,265.2,228.6,265.2,228.4,265.2z"/>
			<linearGradient id="SVGID_49_" gradientUnits="userSpaceOnUse" x1="144.7819" y1="281.3254" x2="201.5417" y2="281.3254">
				<stop  offset="0" style="stop-color:#E1473D"/>
				<stop  offset="1" style="stop-color:#E9605A"/>
			</linearGradient>
			<path class="st52" d="M197.4,308.1l-0.6-0.3c-32-13.7-51.7-51.8-51.9-52.2c-0.2-0.4,0-0.9,0.4-1.1c0.4-0.2,0.9,0,1.1,0.3
				c0.2,0.4,19.4,37.5,50.5,51.2l3.3-4.7c0.3-0.4,0.8-0.4,1.1-0.2c0.4,0.3,0.4,0.8,0.2,1.1L197.4,308.1z"/>
		</g>
	</g>
</g>
</svg>
