<?xml version="1.0" encoding="utf-8"?>
<!-- Generator: Adobe Illustrator 19.0.0, SVG Export Plug-In . SVG Version: 6.00 Build 0)  -->
<svg version="1.1" id="Illustration" xmlns="http://www.w3.org/2000/svg" xmlns:xlink="http://www.w3.org/1999/xlink" x="0px"
	 y="0px" viewBox="0 0 1412.6 1410.5" style="enable-background:new 0 0 1412.6 1410.5;" xml:space="preserve">
<style type="text/css">
	.st0{fill:url(#SVGID_1_);}
	.st1{fill:url(#SVGID_2_);}
	.st2{fill:#7D97F4;}
	.st3{fill:url(#SVGID_3_);}
	.st4{fill:#91B3FA;}
	.st5{fill:url(#SVGID_4_);}
	.st6{fill:#FFFFFF;}
	.st7{opacity:0.7;fill:url(#SVGID_5_);}
	.st8{opacity:0.7;fill:url(#SVGID_6_);}
	.st9{opacity:0.7;fill:url(#SVGID_7_);}
	.st10{opacity:0.7;fill:url(#SVGID_8_);}
	.st11{opacity:0.64;}
	.st12{fill:url(#SVGID_9_);}
	.st13{fill:url(#SVGID_10_);}
	.st14{fill:url(#SVGID_11_);}
	.st15{fill:url(#SVGID_12_);}
	.st16{fill:url(#SVGID_13_);}
	.st17{fill:url(#SVGID_14_);}
	.st18{fill:url(#SVGID_15_);}
	.st19{fill:url(#SVGID_16_);}
	.st20{fill:url(#SVGID_17_);}
	.st21{fill:url(#SVGID_18_);}
	.st22{fill:url(#SVGID_19_);}
	.st23{fill:url(#SVGID_20_);}
	.st24{fill:url(#SVGID_21_);}
	.st25{fill:url(#SVGID_22_);}
	.st26{fill:url(#SVGID_23_);}
	.st27{fill:url(#SVGID_24_);}
	.st28{fill:url(#SVGID_25_);}
	.st29{fill:url(#SVGID_26_);}
	.st30{fill:url(#SVGID_27_);}
	.st31{fill:url(#SVGID_28_);}
	.st32{fill:url(#SVGID_29_);}
	.st33{fill:url(#SVGID_30_);}
	.st34{fill:url(#SVGID_31_);}
	.st35{fill:url(#SVGID_32_);}
	.st36{fill:url(#SVGID_33_);}
	.st37{fill:url(#SVGID_34_);}
	.st38{fill:url(#SVGID_35_);}
	.st39{fill:url(#SVGID_36_);}
	.st40{fill:url(#SVGID_37_);}
	.st41{fill:url(#SVGID_38_);}
	.st42{fill:url(#SVGID_39_);}
	.st43{fill:url(#SVGID_40_);}
	.st44{fill:url(#SVGID_41_);}
	.st45{fill:url(#SVGID_42_);}
	.st46{fill:url(#SVGID_43_);}
	.st47{fill:url(#SVGID_44_);}
	.st48{fill:url(#SVGID_45_);}
	.st49{fill:url(#SVGID_46_);}
	.st50{fill:url(#SVGID_47_);}
	.st51{fill:url(#SVGID_48_);}
	.st52{fill:url(#SVGID_49_);}
	.st53{fill:url(#SVGID_50_);}
	.st54{fill:url(#SVGID_51_);}
	.st55{fill:url(#SVGID_52_);}
	.st56{fill:url(#SVGID_53_);}
	.st57{fill:url(#SVGID_54_);}
	.st58{fill:url(#SVGID_55_);}
	.st59{fill:url(#SVGID_56_);}
	.st60{fill:url(#SVGID_57_);}
	.st61{fill:url(#SVGID_58_);}
	.st62{fill:url(#SVGID_59_);}
	.st63{fill:url(#SVGID_60_);}
	.st64{fill:url(#SVGID_61_);}
	.st65{fill:url(#SVGID_62_);}
	.st66{fill:url(#SVGID_63_);}
	.st67{fill:url(#SVGID_64_);}
	.st68{fill:url(#SVGID_65_);}
	.st69{fill:url(#SVGID_66_);}
	.st70{fill:url(#SVGID_67_);}
	.st71{fill:url(#SVGID_68_);}
	.st72{fill:url(#SVGID_69_);}
	.st73{fill:url(#SVGID_70_);}
	.st74{fill:url(#SVGID_71_);}
	.st75{fill:url(#SVGID_72_);}
	.st76{fill:url(#SVGID_73_);}
	.st77{fill:url(#SVGID_74_);}
	.st78{fill:url(#SVGID_75_);}
	.st79{fill:url(#SVGID_76_);}
	.st80{fill:#BDD0FB;}
	.st81{fill:url(#SVGID_77_);}
	.st82{opacity:0.3;}
	.st83{fill:url(#SVGID_78_);}
	.st84{fill:url(#SVGID_79_);}
	.st85{fill:url(#SVGID_80_);}
	.st86{fill:url(#SVGID_81_);}
</style>
<g>
	<linearGradient id="SVGID_1_" gradientUnits="userSpaceOnUse" x1="1522.9481" y1="1431.047" x2="477.9434" y2="516.6685">
		<stop  offset="0" style="stop-color:#DAE3FE"/>
		<stop  offset="1" style="stop-color:#E9EFFD"/>
	</linearGradient>
	<path class="st0" d="M1345.4,956.2c-135.1,318-494.8,496.2-806.8,448.1c-50.8-7.8-189.9-31.1-313.2-141
		c-237.2-211.5-287.9-630.4-96.6-925.6C268.1,122.8,517.7,1,754.9,7.1c51.1,1.3,246.9,9.4,419,151.3c25.3,20.8,81,70.4,131.3,148.9
		C1423.2,491.9,1433.4,748.9,1345.4,956.2z"/>
	<g>
		<linearGradient id="SVGID_2_" gradientUnits="userSpaceOnUse" x1="122.8042" y1="670.1217" x2="382.917" y2="725.2045">
			<stop  offset="0" style="stop-color:#4F52FF"/>
			<stop  offset="1" style="stop-color:#4042E2"/>
		</linearGradient>
		<path class="st1" d="M97.7,458.3l94.8,103.7C133.2,606.8,96,694.6,195.2,799L61.8,863.7C-31.8,699.9-18.5,570.4,97.7,458.3z"/>
		<path class="st2" d="M41.9,826l91.9,1.5l16.5-90.6C200.8,840.7,320.2,884,456.7,839.8l69,128.2
			C328.6,1057.8,129.1,1011.7,41.9,826z"/>
		<linearGradient id="SVGID_3_" gradientUnits="userSpaceOnUse" x1="1053.0814" y1="285.2951" x2="1034.8048" y2="609.707">
			<stop  offset="0" style="stop-color:#4F52FF"/>
			<stop  offset="1" style="stop-color:#4042E2"/>
		</linearGradient>
		<path class="st3" d="M813,689c74.5-147.3,271.2-201.7,412.7-121l143.4-47.5c-167.5-223.4-471.8-181-660.8,42.2L813,689z"/>
		<path class="st4" d="M1143.7,844.9l60.8,142.1c222-92.5,289.1-405.5,88.7-543.5l1.5,92.1l-94.3,19.6
			C1339.4,621.2,1277.5,807.9,1143.7,844.9z"/>
		<path class="st2" d="M747.5,885.1c210.3,151.2,394.3,171,541,50.8l-103.3-36.7l28.7-92c-128.8,89.4-248.4,60.3-363.3-31.2
			L747.5,885.1z"/>
		<path class="st2" d="M97.7,458.3l0,99.6l94.8,4.1c61.5-39.9,150.4-36.6,262.5-0.8L520,417C349.8,344.1,210.3,361.5,97.7,458.3z"/>
		<linearGradient id="SVGID_4_" gradientUnits="userSpaceOnUse" x1="534.3697" y1="416.8301" x2="996.4518" y2="1227.7682">
			<stop  offset="0" style="stop-color:#4F52FF"/>
			<stop  offset="1" style="stop-color:#4042E2"/>
		</linearGradient>
		<path class="st5" d="M454.9,561.3l-53.2-110.9L520,417c76.9,40.1,138.8,89.2,188.2,145.8c54.4,119.9,129.1,222.1,222.5,265.8
			l-122.6,1.3L827,936.8c-48-28.8-94.4-61-135.2-96.2l-92.1-163.7C567.7,628.1,522.9,588.4,454.9,561.3z"/>
		<path class="st4" d="M708.2,562.8c-36,38.5-59.6,95.3-93.4,135.6c-54,64.3-121.3,147.4-242.7,158.3l99.1,51.3l-59,96.8
			C610.3,965.4,748.9,836.2,813,689V547.4L708.2,562.8z"/>
	</g>
	<g>
		<path class="st2" d="M741.9,150.8l482.1-2.1c4.6,0,8.4,3.7,8.3,8.3l-1,168.7c0,4.6-3.9,8.4-8.5,8.2c-42.5-1.3-478.2-6.9-486.5-6.5
			c-8.2,0.3-3.8-132.9-2.5-168.7C733.8,154.4,737.4,150.9,741.9,150.8z"/>
		<path class="st6" d="M1223,327.4L1223,327.4c-27.2-0.8-287.6-4.1-412.7-5.6c-36.6-0.5-62.6-0.8-69.5-0.9l-0.6,0l-0.1-0.6
			c-3-16.7-2.9-72.5,0.1-161.3c0-0.9,0.8-1.7,1.7-1.7l482.1-2.1c0.5,0,0.9,0.2,1.2,0.5c0.3,0.3,0.5,0.8,0.5,1.2l-1,168.7
			C1224.7,326.7,1223.9,327.4,1223,327.4z M741.5,319.4c7.8,0.1,33.3,0.4,68.8,0.9c125.1,1.6,385.5,4.8,412.7,5.6l0,0
			c0,0,0.1-0.1,0.1-0.2l1-168.7l-0.2-0.9l0,0.8l-482.1,2.1c-0.1,0-0.2,0.1-0.2,0.2C738.7,246.7,738.7,302.1,741.5,319.4z"/>
		<linearGradient id="SVGID_5_" gradientUnits="userSpaceOnUse" x1="762.48" y1="194.3928" x2="953.9404" y2="194.3928">
			<stop  offset="0" style="stop-color:#DAE3FE"/>
			<stop  offset="1" style="stop-color:#E9EFFD"/>
		</linearGradient>
		<path class="st7" d="M762.5,194.4L762.5,194.4c0,4.6,1.5,8.3,3.4,8.3h184.7c1.9,0,3.4-3.7,3.4-8.3l0,0c0-4.6-1.5-8.3-3.4-8.3
			H765.9C764,186.1,762.5,189.8,762.5,194.4z"/>
		<linearGradient id="SVGID_6_" gradientUnits="userSpaceOnUse" x1="762.48" y1="222.5591" x2="953.9404" y2="222.5591">
			<stop  offset="0" style="stop-color:#DAE3FE"/>
			<stop  offset="1" style="stop-color:#E9EFFD"/>
		</linearGradient>
		<path class="st8" d="M762.5,222.6L762.5,222.6c0,4.6,1.5,8.3,3.4,8.3h184.7c1.9,0,3.4-3.7,3.4-8.3l0,0c0-4.6-1.5-8.3-3.4-8.3
			H765.9C764,214.3,762.5,218,762.5,222.6z"/>
		<linearGradient id="SVGID_7_" gradientUnits="userSpaceOnUse" x1="762.48" y1="250.7254" x2="953.9404" y2="250.7254">
			<stop  offset="0" style="stop-color:#DAE3FE"/>
			<stop  offset="1" style="stop-color:#E9EFFD"/>
		</linearGradient>
		<path class="st9" d="M762.5,250.7L762.5,250.7c0,4.6,1.5,8.3,3.4,8.3h184.7c1.9,0,3.4-3.7,3.4-8.3l0,0c0-4.6-1.5-8.3-3.4-8.3
			H765.9C764,242.5,762.5,246.2,762.5,250.7z"/>
		<linearGradient id="SVGID_8_" gradientUnits="userSpaceOnUse" x1="762.48" y1="278.8916" x2="953.9404" y2="278.8916">
			<stop  offset="0" style="stop-color:#DAE3FE"/>
			<stop  offset="1" style="stop-color:#E9EFFD"/>
		</linearGradient>
		<path class="st10" d="M762.5,278.9L762.5,278.9c0,4.6,1.5,8.3,3.4,8.3h184.7c1.9,0,3.4-3.7,3.4-8.3l0,0c0-4.6-1.5-8.3-3.4-8.3
			H765.9C764,270.6,762.5,274.3,762.5,278.9z"/>
		<g>
			<circle class="st6" cx="1000.7" cy="200.2" r="32.1"/>
			<circle class="st6" cx="1080.6" cy="200.2" r="32.1"/>
			<circle class="st6" cx="1160.4" cy="201.3" r="32.1"/>
			<g>
				<path class="st2" d="M1019.8,193.4c1,2.4,1.5,5.1,1.5,7.8c0,11.4-9.2,20.6-20.6,20.6c-11.4,0-20.6-9.2-20.6-20.6
					s9.2-20.6,20.6-20.6c0.3,0,0.7,0,1,0v-5.2c-0.3,0-0.7,0-1,0c-14.3,0-25.9,11.6-25.9,25.9c0,14.3,11.6,25.9,25.9,25.9
					c14.3,0,25.9-11.6,25.9-25.9c0-3.5-0.7-6.9-2-9.9L1019.8,193.4z"/>
				<path class="st2" d="M1091.2,218.7c-3.2,2-7,3.2-11,3.2c-11.4,0-20.6-9.2-20.6-20.6s9.2-20.6,20.6-20.6c0.3,0,0.7,0,1,0v-5.2
					c-0.3,0-0.7,0-1,0c-14.3,0-25.9,11.6-25.9,25.9c0,14.3,11.6,25.9,25.9,25.9c5,0,9.6-1.4,13.6-3.9L1091.2,218.7z"/>
				<path class="st2" d="M1177.6,212.9c-3.7,5.5-10,9-17.1,9c-11.4,0-20.6-9.2-20.6-20.6s9.2-20.6,20.6-20.6c0.3,0,0.7,0,1,0v-5.2
					c-0.3,0-0.7,0-1,0c-14.3,0-25.9,11.6-25.9,25.9c0,14.3,11.6,25.9,25.9,25.9c8.8,0,16.6-4.4,21.3-11.2L1177.6,212.9z"/>
			</g>
			<g class="st11">
				<linearGradient id="SVGID_9_" gradientUnits="userSpaceOnUse" x1="968.6037" y1="251.8911" x2="1032.8474" y2="251.8911">
					<stop  offset="0" style="stop-color:#DAE3FE"/>
					<stop  offset="1" style="stop-color:#E9EFFD"/>
				</linearGradient>
				<path class="st12" d="M1026.9,245.9h-52.3c-3.3,0-5.9,2.7-5.9,5.9c0,3.3,2.7,5.9,5.9,5.9h52.3c3.3,0,5.9-2.7,5.9-5.9
					C1032.8,248.6,1030.2,245.9,1026.9,245.9z"/>
				<linearGradient id="SVGID_10_" gradientUnits="userSpaceOnUse" x1="1048.4358" y1="251.8911" x2="1112.6791" y2="251.8911">
					<stop  offset="0" style="stop-color:#DAE3FE"/>
					<stop  offset="1" style="stop-color:#E9EFFD"/>
				</linearGradient>
				<path class="st13" d="M1106.7,245.9h-52.3c-3.3,0-5.9,2.7-5.9,5.9c0,3.3,2.7,5.9,5.9,5.9h52.3c3.3,0,5.9-2.7,5.9-5.9
					C1112.7,248.6,1110,245.9,1106.7,245.9z"/>
				<linearGradient id="SVGID_11_" gradientUnits="userSpaceOnUse" x1="1128.2676" y1="251.8911" x2="1192.511" y2="251.8911">
					<stop  offset="0" style="stop-color:#DAE3FE"/>
					<stop  offset="1" style="stop-color:#E9EFFD"/>
				</linearGradient>
				<path class="st14" d="M1134.2,257.8h52.3c3.3,0,5.9-2.7,5.9-5.9c0-3.3-2.7-5.9-5.9-5.9h-52.3c-3.3,0-5.9,2.7-5.9,5.9
					C1128.3,255.2,1130.9,257.8,1134.2,257.8z"/>
				<linearGradient id="SVGID_12_" gradientUnits="userSpaceOnUse" x1="968.6037" y1="287.916" x2="1032.8474" y2="287.916">
					<stop  offset="0" style="stop-color:#DAE3FE"/>
					<stop  offset="1" style="stop-color:#E9EFFD"/>
				</linearGradient>
				<path class="st15" d="M1026.9,264.5h-52.3c-3.3,0-5.9,2.7-5.9,5.9v35c0,3.3,2.7,5.9,5.9,5.9h52.3c3.3,0,5.9-2.7,5.9-5.9v-35
					C1032.8,267.1,1030.2,264.5,1026.9,264.5z"/>
				<linearGradient id="SVGID_13_" gradientUnits="userSpaceOnUse" x1="1048.4358" y1="287.916" x2="1112.6791" y2="287.916">
					<stop  offset="0" style="stop-color:#DAE3FE"/>
					<stop  offset="1" style="stop-color:#E9EFFD"/>
				</linearGradient>
				<path class="st16" d="M1106.7,264.5h-52.3c-3.3,0-5.9,2.7-5.9,5.9v35c0,3.3,2.7,5.9,5.9,5.9h52.3c3.3,0,5.9-2.7,5.9-5.9v-35
					C1112.7,267.1,1110,264.5,1106.7,264.5z"/>
				<linearGradient id="SVGID_14_" gradientUnits="userSpaceOnUse" x1="1128.2676" y1="287.916" x2="1192.511" y2="287.916">
					<stop  offset="0" style="stop-color:#DAE3FE"/>
					<stop  offset="1" style="stop-color:#E9EFFD"/>
				</linearGradient>
				<path class="st17" d="M1186.6,264.5h-52.3c-3.3,0-5.9,2.7-5.9,5.9v35c0,3.3,2.7,5.9,5.9,5.9h52.3c3.3,0,5.9-2.7,5.9-5.9v-35
					C1192.5,267.1,1189.8,264.5,1186.6,264.5z"/>
			</g>
		</g>
	</g>
	<g>
		<g>
			
				<linearGradient id="SVGID_15_" gradientUnits="userSpaceOnUse" x1="5613.563" y1="1314.168" x2="5372.8809" y2="1575.9628" gradientTransform="matrix(1 9.500000e-003 -9.500000e-003 1 -4991.2354 -46.1127)">
				<stop  offset="0" style="stop-color:#09005D"/>
				<stop  offset="1" style="stop-color:#1A0F91"/>
			</linearGradient>
			<path class="st18" d="M533.6,1340.2c0,0-2.6,14.1-4,28c-0.5,5.5,3.6,10.2,9.1,10.5c18.6,1,58.4,2.8,72.7,2.3
				c2.1-0.1,3.6-2.3,2.8-4.3l0,0c-0.6-1.7-1.9-3-3.5-3.8l-65.4-30.8L533.6,1340.2z"/>
			
				<linearGradient id="SVGID_16_" gradientUnits="userSpaceOnUse" x1="5535.4409" y1="1333.6094" x2="5556.8198" y2="1333.6094" gradientTransform="matrix(1 9.500000e-003 -9.500000e-003 1 -4991.2354 -46.1127)">
				<stop  offset="0" style="stop-color:#FEBBBA"/>
				<stop  offset="1" style="stop-color:#FF928E"/>
			</linearGradient>
			<path class="st19" d="M531.6,1331.8l1.8,16.9c0,0,11.5,5.5,19.4-0.5l-4.6-18.9L531.6,1331.8z"/>
			
				<linearGradient id="SVGID_17_" gradientUnits="userSpaceOnUse" x1="5632.5273" y1="1018.0864" x2="5427.7158" y2="1295.6815" gradientTransform="matrix(1 9.500000e-003 -9.500000e-003 1 -4991.2354 -46.1127)">
				<stop  offset="0" style="stop-color:#09005D"/>
				<stop  offset="1" style="stop-color:#1A0F91"/>
			</linearGradient>
			<path class="st20" d="M536.1,1014.5c-0.9,4.4-6.7,219.9,15.4,316.7c0.4,1.6-0.5,3.2-2,3.8c-3.5,1.4-10.5,3.4-18.8,3.6
				c-2.6,0.1-4.9-1.6-5.6-4.1c-6.4-22.5-36.9-135.1-40-242.4c-3.5-119.9,0-4.1,0-4.1l3.4-74.1L536.1,1014.5z"/>
			
				<linearGradient id="SVGID_18_" gradientUnits="userSpaceOnUse" x1="5559.5698" y1="1264.5206" x2="5318.8779" y2="1526.3262" gradientTransform="matrix(1 9.500000e-003 -9.500000e-003 1 -4991.2354 -46.1127)">
				<stop  offset="0" style="stop-color:#09005D"/>
				<stop  offset="1" style="stop-color:#1A0F91"/>
			</linearGradient>
			<path class="st21" d="M457.9,1346.8c0,0-4,7.1-8.1,26c-0.7,3.4,1.6,6.7,5.1,7.1c6.1,0.7,15.6,1.5,23.2,1.5c3.5,0,6.2-3,5.9-6.5
				c-0.8-6.9-3.3-18.3-11.3-27.2L457.9,1346.8z"/>
			
				<linearGradient id="SVGID_19_" gradientUnits="userSpaceOnUse" x1="5458.3901" y1="1332.51" x2="5476.8481" y2="1332.51" gradientTransform="matrix(1 9.500000e-003 -9.500000e-003 1 -4991.2354 -46.1127)">
				<stop  offset="0" style="stop-color:#FEBBBA"/>
				<stop  offset="1" style="stop-color:#FF928E"/>
			</linearGradient>
			<path class="st22" d="M454.6,1325.1l4.4,25.6c0,0,4.6,3.5,13.8,1.1l-2-27.5L454.6,1325.1z"/>
			
				<linearGradient id="SVGID_20_" gradientUnits="userSpaceOnUse" x1="5596.0244" y1="991.1548" x2="5391.2153" y2="1268.7471" gradientTransform="matrix(1 9.500000e-003 -9.500000e-003 1 -4991.2354 -46.1127)">
				<stop  offset="0" style="stop-color:#09005D"/>
				<stop  offset="1" style="stop-color:#1A0F91"/>
			</linearGradient>
			<path class="st23" d="M444.9,1020.3c-19.9,113.5,1.4,281.1,8.8,314c0.5,2,2.1,3.6,4.1,3.9c3.4,0.6,9.1,1.1,14.7-0.4
				c1.9-0.5,3.3-2.3,3.4-4.3c1.3-26.5,1-189.1,19.1-253.2c0.9-3.2,2.9-6.1,5.7-8l34.3-23.9l3-39.1L444.9,1020.3z"/>
			<g>
				
					<linearGradient id="SVGID_21_" gradientUnits="userSpaceOnUse" x1="3207.3911" y1="1717.3164" x2="3244.8987" y2="1536.5977" gradientTransform="matrix(-1 0 0 1 3914.5042 0)">
					<stop  offset="0" style="stop-color:#FF928E"/>
					<stop  offset="1" style="stop-color:#FE7062"/>
				</linearGradient>
				<path class="st24" d="M567,805.9c-56.5-1.5-118.9,13.7-118.9,13.7c-17.8,98.1-5,211.5-5,211.5c43.6,11.9,93.1-6.1,93.1-6.1
					c7.7-41,42.7-156.2,42.7-156.2c27.6-3.2,50.4-10.9,69.3-21.3c-14.1-16.7-20.7-37.8-23.5-50.3C604.7,803.3,584.4,806.4,567,805.9
					z"/>
				
					<linearGradient id="SVGID_22_" gradientUnits="userSpaceOnUse" x1="5623.439" y1="775.853" x2="5732.665" y2="775.853" gradientTransform="matrix(1 9.500000e-003 -9.500000e-003 1 -4991.2354 -46.1127)">
					<stop  offset="0" style="stop-color:#FEBBBA"/>
					<stop  offset="1" style="stop-color:#FF928E"/>
				</linearGradient>
				<path class="st25" d="M734.6,724.3c-5.5-6.8-12.5-3.7-12.5-3.7c-8.6,35-52.5,63.1-97.4,76.6c2.8,12.5,9.3,33.6,23.5,50.3
					C722.8,806.5,734.6,724.3,734.6,724.3z"/>
			</g>
			<g>
				<linearGradient id="SVGID_23_" gradientUnits="userSpaceOnUse" x1="729.5577" y1="761.7014" x2="742.0602" y2="678.73">
					<stop  offset="0" style="stop-color:#FEBBBA"/>
					<stop  offset="1" style="stop-color:#FF928E"/>
				</linearGradient>
				<path class="st26" d="M733.3,726c0.6,1.9-6.2,4.6-10.1-3c-0.1-3.6-2.2-19.1,0-22.1c11.7-15.6,34.2-35,34.2-35
					c3.7,3.8,0.6,7.4,0.6,7.4l-10.9,11.2c2.2,4.1,5,7.6,6.2,12.6c0.9,3.8,0.3,7.8-1.6,11.2c-1.9,3.4-4.6,7.8-7.1,11.3
					C739.9,726,733.3,726,733.3,726z"/>
				
					<linearGradient id="SVGID_24_" gradientUnits="userSpaceOnUse" x1="5732.1416" y1="702.0112" x2="5762.7236" y2="654.9911" gradientTransform="matrix(1 9.500000e-003 -9.500000e-003 1 -4991.2354 -46.1127)">
					<stop  offset="0" style="stop-color:#FEBBBA"/>
					<stop  offset="1" style="stop-color:#FF928E"/>
				</linearGradient>
				<path class="st27" d="M742.2,691.8l-9.9,8.3l-3.2,8.3l8.7,9.8c0,0,3.1-16.5,5.3-20.1C745.4,694.6,744.3,692.8,742.2,691.8z"/>
			</g>
			
				<linearGradient id="SVGID_25_" gradientUnits="userSpaceOnUse" x1="3310.2673" y1="1738.667" x2="3347.7751" y2="1557.9484" gradientTransform="matrix(-1 0 0 1 3914.5042 0)">
				<stop  offset="0" style="stop-color:#FF928E"/>
				<stop  offset="1" style="stop-color:#FE7062"/>
			</linearGradient>
			<path class="st28" d="M469.2,874.5l-21.1-54.9c0,0-53.1,35.3-62.2,80.7c10,0.8,28.1,3.6,45.7,12.7
				C435.7,891.6,469.2,874.5,469.2,874.5z"/>
			
				<linearGradient id="SVGID_26_" gradientUnits="userSpaceOnUse" x1="5384.4302" y1="930.5541" x2="5522.6528" y2="930.5541" gradientTransform="matrix(1 9.500000e-003 -9.500000e-003 1 -4991.2354 -46.1127)">
				<stop  offset="0" style="stop-color:#FEBBBA"/>
				<stop  offset="1" style="stop-color:#FF928E"/>
			</linearGradient>
			<path class="st29" d="M514.8,926.4c0,0-59.5,32.9-79.3,4.1c-4.1-6-5-11.9-4-17.5c-17.7-9.1-35.8-11.9-45.7-12.7
				c-2.7,13.7-1.5,28.3,6.4,43.1c34.4,64.4,130.2-2.3,130.2-2.3L514.8,926.4z"/>
			
				<linearGradient id="SVGID_27_" gradientUnits="userSpaceOnUse" x1="5490.5708" y1="782.7887" x2="5545.2217" y2="782.7887" gradientTransform="matrix(1 9.500000e-003 -9.500000e-003 1 -4991.2354 -46.1127)">
				<stop  offset="0" style="stop-color:#FEBBBA"/>
				<stop  offset="1" style="stop-color:#FF928E"/>
			</linearGradient>
			<path class="st30" d="M510.3,759.5l-18.5,51.8c-0.3,0.9,0,1.8,0.8,2.3c4.9,2.8,22.4,10.8,43.8-2.5c2.2-1.4,3.8-3.7,4.1-6.3
				l6.2-44.9L510.3,759.5z"/>
			<g>
				
					<linearGradient id="SVGID_28_" gradientUnits="userSpaceOnUse" x1="-2386.3191" y1="2200.5151" x2="-2406.7412" y2="2133.158" gradientTransform="matrix(0.7523 -0.6588 0.6588 0.7523 905.4067 -2472.8416)">
					<stop  offset="0" style="stop-color:#FEBBBA"/>
					<stop  offset="1" style="stop-color:#FF928E"/>
				</linearGradient>
				<path class="st31" d="M549.8,711.8c0,0,19.4,37.3,16.7,52.3c-2.7,15-27.1,13.7-48.4,1.3l-14.5-40.2L549.8,711.8z"/>
				
					<linearGradient id="SVGID_29_" gradientUnits="userSpaceOnUse" x1="-2404.7424" y1="2083.155" x2="-2387.6597" y2="2180.5903" gradientTransform="matrix(0.7523 -0.6588 0.6588 0.7523 905.4067 -2472.8416)">
					<stop  offset="0" style="stop-color:#09005D"/>
					<stop  offset="1" style="stop-color:#1A0F91"/>
				</linearGradient>
				<path class="st32" d="M519.3,745.7c0.9-0.4,1.2-1.4,0.7-2.2c-1.6-2.4-4.5-7.4-5.4-11.7c0,0-3.5-2.3,9.1-5.2
					c12.6-2.9,31.4-7.4,35.4-18c3.9-10.4-5.9-36.7-22.2-16c-0.6,0.8-1.8,0.8-2.4,0c-2.6-3.5-9.5-10.7-19.2-6.4
					c-9.1,4-10.1,10.6-10,13.9c0,1-0.9,1.7-1.8,1.5c-4.6-0.9-15.5-1.8-20.7,9.4c-4.3,9.2-1.6,14.5,0.9,17.1c0.8,0.8,0.4,2.2-0.7,2.5
					c-3,0.9-6.9,3.4-6.6,10.4c0.4,9.7,11.3,9,14.4,8.5c0.5-0.1,1,0.1,1.4,0.5c2.6,3,14.4,15.5,27.3,17.1c1.1,0.1,2-1,1.6-2
					l-5.4-16.3c-0.3-0.8,0.1-1.6,0.8-1.9L519.3,745.7z"/>
				
					<linearGradient id="SVGID_30_" gradientUnits="userSpaceOnUse" x1="-2407.1951" y1="2200.2007" x2="-2425.5693" y2="2139.5981" gradientTransform="matrix(0.7523 -0.6588 0.6588 0.7523 905.4067 -2472.8416)">
					<stop  offset="0" style="stop-color:#FEBBBA"/>
					<stop  offset="1" style="stop-color:#FF928E"/>
				</linearGradient>
				<path class="st33" d="M521.5,748c0,0-14-9.8-15.1-1.7c-1.1,8.1,12.5,11.9,19.3,8.9L521.5,748z"/>
			</g>
			<g>
				<g>
					
						<linearGradient id="SVGID_31_" gradientUnits="userSpaceOnUse" x1="5265.3022" y1="847.7667" x2="5341.5732" y2="1165.5626" gradientTransform="matrix(1 0 0 1 -4705.6621 0)">
						<stop  offset="0" style="stop-color:#09005D"/>
						<stop  offset="1" style="stop-color:#1A0F91"/>
					</linearGradient>
					<path class="st34" d="M502.7,978.4l32.4-113.3c0.4-1.3,1.5-2.2,2.8-2.4c5.9-0.7,22.9-2.6,42.6-4.3c23.7-2,51.2-3.6,67.6-2.2
						c2.3,0.2,3.7,2.7,2.7,4.8c-9.3,18.9-47.8,95.8-67,121c-0.6,0.8-1.6,1.3-2.7,1.3l-75.3-0.7C503.6,982.6,502.1,980.5,502.7,978.4
						z"/>
					
						<linearGradient id="SVGID_32_" gradientUnits="userSpaceOnUse" x1="5213.0396" y1="931.8406" x2="5256.2529" y2="931.8406" gradientTransform="matrix(1 0 0 1 -4705.6621 0)">
						<stop  offset="0" style="stop-color:#FEBBBA"/>
						<stop  offset="1" style="stop-color:#FF928E"/>
					</linearGradient>
					<path class="st35" d="M510.5,951c0,0-4.5-18.6-2.7-25.2c1.8-6.6,5.4-15.1,17.1-13.2c11.8,1.9,25.7,6.8,25.7,6.8
						s-0.7,8.6-9.6,5.8l5.5,4.3c0,0-0.8,6.9-8.3,3.2l5.2,5.7c0,0-3.2,5.6-8.8,2C528.9,936.9,526.3,953.3,510.5,951z"/>
				</g>
				<circle class="st4" cx="587.8" cy="892.3" r="9.5"/>
				<linearGradient id="SVGID_33_" gradientUnits="userSpaceOnUse" x1="536.3484" y1="880.794" x2="629.0751" y2="880.794">
					<stop  offset="0" style="stop-color:#DAE3FE"/>
					<stop  offset="1" style="stop-color:#E9EFFD"/>
				</linearGradient>
				<path class="st36" d="M538.8,898.6l-2.4-0.7l6.6-22.4c1.1-3.6,4-6.4,7.7-7.2c20.9-4.4,76.1-5.3,78.4-5.3l0,2.5
					c-0.6,0-57.2,0.9-77.9,5.2c-2.7,0.6-5,2.6-5.8,5.4L538.8,898.6z"/>
			</g>
		</g>
		<g>
			<path class="st2" d="M154.9,1215.6c-3.5,5.1-17.2,121-19.4,163.7c-0.1,2.9,2.2,5.3,5.1,5.3l0,0c2.5,0,4.6-1.8,5-4.3l25.1-161.1
				L154.9,1215.6z"/>
			<path class="st2" d="M265.4,1215.6c3.5,5.1,17.2,121,19.4,163.7c0.1,2.9-2.2,5.3-5.1,5.3l0,0c-2.5,0-4.6-1.8-5-4.3l-25.1-161.1
				L265.4,1215.6z"/>
			<path class="st2" d="M134.1,1206.5l0,1.3c-0.1,9.1,7.7,16.5,17.5,16.7l116.2,2c9.7,0.2,17.7-6.8,18.2-15.8l0.1-1.2
				c0.5-9.3-7.4-17.2-17.5-17.4l-116.2-2.1C142.4,1189.9,134.2,1197.3,134.1,1206.5z"/>
		</g>
		<g>
			<g>
				<path class="st2" d="M378.8,1375.1c-20.7,0-29.8-1.8-33.9-3.4c0.8,3.4,3.8,6.1,7.6,6.1h73.1c2.5,0,4-2.4,3.4-4.5
					C420.8,1374,403.1,1375.1,378.8,1375.1z"/>
				<linearGradient id="SVGID_34_" gradientUnits="userSpaceOnUse" x1="409.8804" y1="1212.7704" x2="386.8628" y2="1371.8018">
					<stop  offset="0" style="stop-color:#4F52FF"/>
					<stop  offset="1" style="stop-color:#4042E2"/>
				</linearGradient>
				<path class="st37" d="M429.1,1373.3c-0.1-0.4-0.3-0.9-0.6-1.2c-5.6-7.1-16.7-18.3-32-18.1c-22.3,0.3-30,2.7-47.4,0.1l-4.1,13.5
					c-0.4,1.4-0.4,2.8-0.1,4c4.1,1.6,13.2,3.4,33.9,3.4C403.1,1375.1,420.8,1374,429.1,1373.3z"/>
			</g>
			<linearGradient id="SVGID_35_" gradientUnits="userSpaceOnUse" x1="349.1818" y1="1349.374" x2="371.9757" y2="1349.374">
				<stop  offset="0" style="stop-color:#FEBBBA"/>
				<stop  offset="1" style="stop-color:#FF928E"/>
			</linearGradient>
			<path class="st38" d="M354.2,1339.6l-5,17.1c0,0,11.1,5.1,20.9,1l1.9-14.8L354.2,1339.6z"/>
			<g>
				<path class="st2" d="M505.6,1364.4c-16.1,12.9-24.3,17.3-28.5,18.6c2.7,2.1,6.8,2.3,9.7-0.1l57-45.8c1.9-1.5,1.7-4.3-0.1-5.6
					C537.6,1337.2,524.5,1349.2,505.6,1364.4z"/>
				<linearGradient id="SVGID_36_" gradientUnits="userSpaceOnUse" x1="523.8926" y1="1229.2708" x2="500.8748" y2="1388.3033">
					<stop  offset="0" style="stop-color:#4F52FF"/>
					<stop  offset="1" style="stop-color:#4042E2"/>
				</linearGradient>
				<path class="st39" d="M543.7,1331.5c-0.4-0.3-0.8-0.5-1.2-0.6c-8.8-2-24.4-3.7-36.2,6c-17.2,14.2-21.7,20.9-36.8,29.8l5.3,13.1
					c0.5,1.3,1.4,2.4,2.4,3.2c4.2-1.3,12.4-5.7,28.5-18.6C524.5,1349.2,537.6,1337.2,543.7,1331.5z"/>
			</g>
			<linearGradient id="SVGID_37_" gradientUnits="userSpaceOnUse" x1="608.9352" y1="1025.5636" x2="353.2134" y2="1214.7975">
				<stop  offset="0" style="stop-color:#09005D"/>
				<stop  offset="1" style="stop-color:#1A0F91"/>
			</linearGradient>
			<path class="st40" d="M246.9,1145.3c0,0,123.6,10.1,149,22s-20.7,179.3-20.7,179.3s-6.9,3.3-22.3-1.5c0,0,15.8-123.5,4-150.3
				L223.1,1173L246.9,1145.3z"/>
			<linearGradient id="SVGID_38_" gradientUnits="userSpaceOnUse" x1="457.1448" y1="1351.2925" x2="484.3575" y2="1351.2925">
				<stop  offset="0" style="stop-color:#FEBBBA"/>
				<stop  offset="1" style="stop-color:#FF928E"/>
			</linearGradient>
			<path class="st41" d="M457.1,1343.2c1.1,1,12.3,23.5,12.3,23.5s12.4-2.7,14.9-10.5l-11.2-20.3L457.1,1343.2z"/>
			<linearGradient id="SVGID_39_" gradientUnits="userSpaceOnUse" x1="355.4073" y1="1221.0348" x2="679.3378" y2="997.6935">
				<stop  offset="0" style="stop-color:#09005D"/>
				<stop  offset="1" style="stop-color:#1A0F91"/>
			</linearGradient>
			<path class="st42" d="M172.5,1144.3c0,0-4,9.7-3.9,22.6c0.2,17.8,14.6,32.3,32.4,33.2l146.2,6.7c3.1,0.1,5.7,2.3,6.5,5.3
				c3.4,13.3,20.2,54.1,102.3,135.5c2.2,2.2,5.6,2.5,8.2,0.9l11.7-7.4c1.2-0.8,1.6-2.4,0.9-3.6L391.5,1192
				c-4.5-7.4-11.7-12.7-20-14.8l-124.6-31.8L172.5,1144.3z"/>
			<linearGradient id="SVGID_40_" gradientUnits="userSpaceOnUse" x1="305.9872" y1="967.8207" x2="319.4035" y2="933.9883">
				<stop  offset="0" style="stop-color:#FEBBBA"/>
				<stop  offset="1" style="stop-color:#FF928E"/>
			</linearGradient>
			<path class="st43" d="M316.5,917.2c0,0-15.7,27.7-31.6,41.1l33,18.4c0,0,7.4-29.3,24.4-37.9L316.5,917.2z"/>
			<linearGradient id="SVGID_41_" gradientUnits="userSpaceOnUse" x1="396.3316" y1="866.7908" x2="353.7092" y2="975.904">
				<stop  offset="0" style="stop-color:#FF928E"/>
				<stop  offset="1" style="stop-color:#FE7062"/>
			</linearGradient>
			<path class="st44" d="M169.8,1145.3c0,0,39.5,9.6,77.1,0c0,0,52.7-70.9,73.1-90.1c0,0,32.5,51.3,104.9,58.6l4-9
				c0,0-57.6-26.6-75.4-67.4c-17.7-40.8-24.9-58.2-41-68.9c-10.1-6.6-16.1-11.2-19.2-13.6c-1.7-1.4-4.1-1.5-5.9-0.4
				C270.4,964.9,189.8,1020.1,169.8,1145.3z"/>
			<linearGradient id="SVGID_42_" gradientUnits="userSpaceOnUse" x1="317.8856" y1="716.9539" x2="305.0994" y2="1133.7788">
				<stop  offset="0" style="stop-color:#E1473D"/>
				<stop  offset="1" style="stop-color:#E9605A"/>
			</linearGradient>
			<path class="st45" d="M317.9,1054.2c-0.8,0-1.5-0.3-2-1c-12.6-16.4-19.6-34.4-19.9-35.2c-0.5-1.3,0.2-2.8,1.5-3.3
				c1.3-0.5,2.8,0.2,3.3,1.5c0.1,0.2,7,18.2,19.1,33.9c0.9,1.1,0.6,2.7-0.5,3.5C319,1054,318.4,1054.2,317.9,1054.2z"/>
			<linearGradient id="SVGID_43_" gradientUnits="userSpaceOnUse" x1="420.6073" y1="1099.3964" x2="483.4656" y2="1099.3964">
				<stop  offset="0" style="stop-color:#FEBBBA"/>
				<stop  offset="1" style="stop-color:#FF928E"/>
			</linearGradient>
			<path class="st46" d="M420.6,1100l8.1-2.2l24.7-5.7c3-0.7,6.1-0.2,8.7,1.5l21.3,13.4l-58.7-0.1L420.6,1100z"/>
			<g>
				
					<linearGradient id="SVGID_44_" gradientUnits="userSpaceOnUse" x1="2145.5657" y1="1507.9058" x2="2078.2041" y2="1559.4478" gradientTransform="matrix(0.9914 -0.1306 0.1306 0.9914 -1977.0973 -315.7112)">
					<stop  offset="0" style="stop-color:#FEBBBA"/>
					<stop  offset="1" style="stop-color:#FF928E"/>
				</linearGradient>
				<path class="st47" d="M341.4,875.7c0,0,15.2,25.3,17.9,39.3c2.6,14,6.9,22.7-9,27.7c-15.9,5-30.7-1.3-40-14.4
					c0,0-14.5-20.1-13-29.3C298.6,889.8,341.4,875.7,341.4,875.7z"/>
				
					<linearGradient id="SVGID_45_" gradientUnits="userSpaceOnUse" x1="2098.241" y1="1467.2186" x2="2159.239" y2="1545.7534" gradientTransform="matrix(0.9914 -0.1306 0.1306 0.9914 -1977.0973 -315.7112)">
					<stop  offset="0" style="stop-color:#09005D"/>
					<stop  offset="1" style="stop-color:#1A0F91"/>
				</linearGradient>
				<path class="st48" d="M314.5,917.5l2.1-0.3c0,0-10.8-16.3-3.7-20.3c7.1-4,35.8-14,40.8-25.3c4.8-10.9-2.4-23.2-11.1-25.8
					c-0.5-0.2-1.1,0.2-1.3,0.7l-0.5,1.4c-0.3,0.9-1.7,1-2.1,0.1l0,0c-0.4-0.9-1.6-0.9-2,0c-1.5,3.4-6.1,9.2-20,13.7
					c-19.6,6.4-31.8,16.2-30.3,30.2c0.1,0.9-0.8,1.5-1.6,1.1c-1.6-0.7-4-0.8-6.9,2.3c-4.9,5.4-1.1,17.1,12.3,25.4
					c0.6,0.4,0.8,1.3,0.2,1.8c-2,1.7-4.8,5.5,4.2,9c9.3,3.5,14.3,2.3,16.2,1.6c0.5-0.2,0.8-0.7,0.7-1.3l-2.4-12.2
					c-0.1-0.6,0.3-1.2,0.9-1.3L314.5,917.5z"/>
				
					<linearGradient id="SVGID_46_" gradientUnits="userSpaceOnUse" x1="2137.21" y1="1496.9865" x2="2069.8489" y2="1548.528" gradientTransform="matrix(0.9914 -0.1306 0.1306 0.9914 -1977.0973 -315.7112)">
					<stop  offset="0" style="stop-color:#FEBBBA"/>
					<stop  offset="1" style="stop-color:#FF928E"/>
				</linearGradient>
				<path class="st49" d="M315.3,920c0,0-6.7-16.6-13.8-10.7c-7.1,5.8,6.5,18.7,12.8,18.5L315.3,920z"/>
			</g>
		</g>
		<g>
			<g>
				
					<linearGradient id="SVGID_47_" gradientUnits="userSpaceOnUse" x1="3253.9478" y1="-9428.0176" x2="3085.8379" y2="-9265.4873" gradientTransform="matrix(-1.388 -6.860000e-002 -6.850000e-002 1.3855 -9179.0625 5.4044)">
					<stop  offset="0" style="stop-color:#09005D"/>
					<stop  offset="1" style="stop-color:#1A0F91"/>
				</linearGradient>
				<path class="st50" d="M397.9,1118.5c0.1,0,0.2,0,0.3,0l125.5-0.1c3.1,0,5.6-2.5,5.6-5.6c0-3.1-2.5-5.7-5.6-5.6l-125.5,0.1
					c-3.1,0-5.6,2.5-5.6,5.6C392.6,1115.9,394.9,1118.3,397.9,1118.5z"/>
			</g>
			<g>
				
					<linearGradient id="SVGID_48_" gradientUnits="userSpaceOnUse" x1="932.2018" y1="-10421.6563" x2="764.0992" y2="-10259.1338" gradientTransform="matrix(0.6475 -1.2297 -1.2274 -0.6463 5898.5713 -10714.915)">
					<stop  offset="0" style="stop-color:#09005D"/>
					<stop  offset="1" style="stop-color:#1A0F91"/>
				</linearGradient>
				<path class="st51" d="M572.3,995.6c0,0.1-0.1,0.2-0.1,0.3l-52.8,113.9c-1.3,2.8-0.1,6.2,2.7,7.5c2.8,1.3,6.2,0.1,7.5-2.7
					l52.8-113.9c1.3-2.8,0.1-6.2-2.7-7.5C576.9,991.8,573.7,993,572.3,995.6z"/>
			</g>
		</g>
		<g>
			<g>
				<rect x="887.7" y="1232.9" class="st2" width="13.2" height="143.2"/>
				<path class="st2" d="M952.3,1378.9h-116l0,0c0-4.8,3.9-8.6,8.6-8.6h98.8C948.5,1370.3,952.3,1374.2,952.3,1378.9L952.3,1378.9z"
					/>
				<path class="st2" d="M969.5,1227.9c0,7.8-6.4,14.2-14.2,14.2H837.9c-7.8,0-14.2-6.4-14.2-14.2v-12.9c0-7.8,6.4-14.2,14.2-14.2
					h117.4c7.8,0,14.2,6.4,14.2,14.2V1227.9z"/>
			</g>
			<g>
				<linearGradient id="SVGID_49_" gradientUnits="userSpaceOnUse" x1="749.7655" y1="1254.9186" x2="843.9497" y2="1254.9186">
					<stop  offset="0" style="stop-color:#FEBBBA"/>
					<stop  offset="1" style="stop-color:#FF928E"/>
				</linearGradient>
				<path class="st52" d="M796.5,1137.4c0,0-19.7,3.1-41.8,17.8c-3.5,2.3-5.4,6.4-4.9,10.5c2.7,21,13.5,88.9,49.5,155.3
					c1.9,3.5,2.4,7.6,1.6,11.5l-6.2,29l-11.6,10.9h29.8l19.9-53.7l-8.5-2.7c-6.6-2.1-11.1-8.1-11.2-15l-1-57.6
					c0.8-25.7-15.7-43.4-15.7-43.4l47.6-2.3L796.5,1137.4z"/>
				<linearGradient id="SVGID_50_" gradientUnits="userSpaceOnUse" x1="807.3932" y1="1316.2891" x2="793.5402" y2="1528.7015">
					<stop  offset="0" style="stop-color:#4F52FF"/>
					<stop  offset="1" style="stop-color:#4042E2"/>
				</linearGradient>
				<path class="st53" d="M771.5,1377.7c-2.7,3.6,29.2,8.2,45.4,0.5c0,0,22.4-38.9,22.4-59c0,0-1.8-4.1-14.9-3.2
					c0,0-7.5,46.1-15.4,51.2c-7.9,5.2-22.2,0.5-22.2,0.5S775.5,1372.4,771.5,1377.7z"/>
				<linearGradient id="SVGID_51_" gradientUnits="userSpaceOnUse" x1="639.1776" y1="1261.3523" x2="837.9252" y2="1261.3523">
					<stop  offset="0" style="stop-color:#FEBBBA"/>
					<stop  offset="1" style="stop-color:#FF928E"/>
				</linearGradient>
				<path class="st54" d="M837.9,1200.8c-0.3-0.4-51.3-6.1-51.3-6.1s1.7,15.5-3.5,36.9c-5.2,21.4-80.1,113.9-80.1,113.9l7.9,24.9
					c-24.3,8.5-48.2,9.8-71.7,4.3l48.7-29.2c0,0,45.5-155.2,73.5-182.9l51.1-17.7L837.9,1200.8z"/>
				<linearGradient id="SVGID_52_" gradientUnits="userSpaceOnUse" x1="761.8117" y1="1157.6726" x2="984.4659" y2="1157.6726">
					<stop  offset="0" style="stop-color:#09005D"/>
					<stop  offset="1" style="stop-color:#1A0F91"/>
				</linearGradient>
				<path class="st55" d="M952.3,1110.5c0,0,29.4,43.7,31.8,63.7c2.4,19.9-8.1,28-38.9,29.4s-113.2,1.3-113.2,1.3l-70.3-60.1
					c0,0,51.2-18.3,64.5-23.4C839.6,1116.2,952.3,1110.5,952.3,1110.5z"/>
				<linearGradient id="SVGID_53_" gradientUnits="userSpaceOnUse" x1="673.7134" y1="1307.5709" x2="659.8604" y2="1519.9833">
					<stop  offset="0" style="stop-color:#4F52FF"/>
					<stop  offset="1" style="stop-color:#4042E2"/>
				</linearGradient>
				<path class="st56" d="M707.9,1361.9c0,0,8.5,8.2,2.7,17.3c0,0-67,11.9-85.2,6.5c0,0,3.8-8.6,24.3-18.4l-1.5,1.2
					c-1.9,1.5-0.8,4.5,1.6,4.4C663.3,1372.1,691.2,1369.6,707.9,1361.9z"/>
			</g>
			<g>
				<linearGradient id="SVGID_54_" gradientUnits="userSpaceOnUse" x1="918.6484" y1="785.7886" x2="885.8629" y2="958.0284">
					<stop  offset="0" style="stop-color:#09005D"/>
					<stop  offset="1" style="stop-color:#1A0F91"/>
				</linearGradient>
				<path class="st57" d="M825,833.3c60.1-10.2,88.4,38.8,86.3,49.1c-0.3,1.4,1,2.5,2.4,2.2c6.9-1.9,22.1-4.2,31.6,7.6
					c8.3,10.4,2.1,20.3-3,25.7c-1.2,1.3-0.2,3.4,1.6,3.2c12.7-1.6,40.2-2,44.7,23.8c4.2,24.1-12.6,30.9-22.5,32.8
					c-1.7,0.3-2.1,2.5-0.6,3.5c5,3.1,10.7,9.6,8.4,22.5c-3.6,20.1-43,18.5-47.7,18.2c-0.3,0-0.6-0.1-0.8-0.2l-63.1-36
					c-0.5-0.3-0.8-0.8-0.9-1.3l-12.7-73.6c-0.1-0.6,0.1-1.2,0.5-1.6L808,850.9C793,848.7,824.3,833.4,825,833.3z"/>
				<linearGradient id="SVGID_55_" gradientUnits="userSpaceOnUse" x1="1137.6906" y1="459.1679" x2="1011.5286" y2="766.0485">
					<stop  offset="0" style="stop-color:#FF928E"/>
					<stop  offset="1" style="stop-color:#FE7062"/>
				</linearGradient>
				<path class="st58" d="M872.8,1104.7c0,0-34.2-32.6-51.1-54.2c-9.1-11.7-12-27-7.8-41.2c7.7-25.9,21.4-52.8,22.6-56.9
					c1.9-6.4,40.3-6.1,40.3-6.1s75.5,49,105.2,132l-33.3,10.4c0,0-19.7-33.1-39.2-54.1c0,0,33.7,44.5,34.9,62.8L872.8,1104.7z"/>
				<linearGradient id="SVGID_56_" gradientUnits="userSpaceOnUse" x1="864.3929" y1="1001.2811" x2="850.9769" y2="915.1954">
					<stop  offset="0" style="stop-color:#FEBBBA"/>
					<stop  offset="1" style="stop-color:#FF928E"/>
				</linearGradient>
				<path class="st59" d="M832,916.6c0.4,1.3,10.4,34.5,11.2,35.2c0.8,0.7,22,1.8,31.9-5l-24.7-48.4L832,916.6z"/>
				<g>
					
						<linearGradient id="SVGID_57_" gradientUnits="userSpaceOnUse" x1="-2336.4387" y1="4962.5522" x2="-2248.625" y2="5022.1992" gradientTransform="matrix(0.6042 -0.7968 0.7968 0.6042 -1751.0343 -3950.0215)">
						<stop  offset="0" style="stop-color:#FEBBBA"/>
						<stop  offset="1" style="stop-color:#FF928E"/>
					</linearGradient>
					<path class="st60" d="M791.8,873.9c0,0-4.8,19,8.6,44.6c13.4,25.6,28.6,25.6,36.8,17.4c8.3-8.2,18.5-22.1,16.1-46.8
						C850.9,864.4,798.8,849.7,791.8,873.9z"/>
					
						<linearGradient id="SVGID_58_" gradientUnits="userSpaceOnUse" x1="-2277.8606" y1="4891.208" x2="-2310.6465" y2="5063.4497" gradientTransform="matrix(0.6042 -0.7968 0.7968 0.6042 -1751.0343 -3950.0215)">
						<stop  offset="0" style="stop-color:#09005D"/>
						<stop  offset="1" style="stop-color:#1A0F91"/>
					</linearGradient>
					<path class="st61" d="M834.8,890.4c0,0-22.2-34-43.1-7.2l-0.4,9.7c0,0-24.4-2.9-20.1-25.3c4.3-22.4,25.4-36.4,52.5-26.7
						c27.2,9.7,42.7,19.6,44.5,39.1c1.8,19.5-13.7,15.2-13.7,15.2s-5.1-13.7-12.2-15.1c-7.2-1.4-5.3,9.3-5.3,9.3L834.8,890.4z"/>
					
						<linearGradient id="SVGID_59_" gradientUnits="userSpaceOnUse" x1="-2331.1748" y1="4954.8027" x2="-2243.3613" y2="5014.4492" gradientTransform="matrix(0.6042 -0.7968 0.7968 0.6042 -1751.0343 -3950.0215)">
						<stop  offset="0" style="stop-color:#FEBBBA"/>
						<stop  offset="1" style="stop-color:#FF928E"/>
					</linearGradient>
					<path class="st62" d="M840.5,890c0,0-11.5-17.4,0.3-20c11.8-2.6,10,16.9,8.7,24.2L840.5,890z"/>
				</g>
				<linearGradient id="SVGID_60_" gradientUnits="userSpaceOnUse" x1="919.4836" y1="1099.0253" x2="1106.183" y2="1099.0253">
					<stop  offset="0" style="stop-color:#FEBBBA"/>
					<stop  offset="1" style="stop-color:#FF928E"/>
				</linearGradient>
				<path class="st63" d="M803.1,1107.1l25.1-24.2l34.8,14.7c0,0,34.6,5.4,54.4,0c19.8-5.4,19.8-5.4,19.8-5.4l44.8-13.9l7,19.9
					c1.8,5,0,10.6-4.4,13.8c-3.9,2.8-8.4,5.8-11.3,7c-5.9,2.6-145.4-1.8-145.4-1.8L803.1,1107.1z"/>
			</g>
			<g>
				
					<linearGradient id="SVGID_61_" gradientUnits="userSpaceOnUse" x1="815.0967" y1="1269.0858" x2="697.5681" y2="1301.2974" gradientTransform="matrix(0.9988 -4.940000e-002 4.940000e-002 0.9988 46.2181 -147.4985)">
					<stop  offset="0" style="stop-color:#09005D"/>
					<stop  offset="1" style="stop-color:#1A0F91"/>
				</linearGradient>
				<path class="st64" d="M898.3,1118.6c-0.1,0-0.2,0-0.3,0l-145.9-0.2c-3.6,0-6.5-2.9-6.5-6.5c0-3.6,2.9-6.6,6.5-6.5l145.9,0.2
					c3.6,0,6.5,2.9,6.5,6.5C904.5,1115.5,901.7,1118.4,898.3,1118.6z"/>
				<linearGradient id="SVGID_62_" gradientUnits="userSpaceOnUse" x1="763.9601" y1="1003.8741" x2="680.5682" y2="1092.0142">
					<stop  offset="0" style="stop-color:#09005D"/>
					<stop  offset="1" style="stop-color:#1A0F91"/>
				</linearGradient>
				<path class="st65" d="M620.9,986.1h121.5c9,0,17.1,5.2,20.9,13.3l56.2,119.1h-151c-5.8,0-11-3.5-13.1-8.9l-43.6-110.2
					C609.4,993,614.1,986.1,620.9,986.1z"/>
				
					<ellipse transform="matrix(0.9519 -0.3064 0.3064 0.9519 -288.1926 264.1759)" class="st4" cx="697.4" cy="1050.1" rx="9.6" ry="15.6"/>
			</g>
		</g>
		<g>
			<g>
				
					<linearGradient id="SVGID_63_" gradientUnits="userSpaceOnUse" x1="-11399.4189" y1="1514.8068" x2="-11398.1885" y2="1645.333" gradientTransform="matrix(-1 0 0 1 -10374.4365 0)">
					<stop  offset="0" style="stop-color:#09005D"/>
					<stop  offset="1" style="stop-color:#1A0F91"/>
				</linearGradient>
				<path class="st66" d="M1064.6,1360.9c0,0,1.5,8.5,2.1,18.6c0.3,4.3-2.9,8-7.2,8.5c-14.9,1.4-48.9,4.1-70.6,1
					c-3-0.4-4.2-4.2-2-6.3c8.9-8.3,30.6-24.6,66.1-28.1L1064.6,1360.9z"/>
				
					<linearGradient id="SVGID_64_" gradientUnits="userSpaceOnUse" x1="-11430.8828" y1="1369.0419" x2="-11437.6553" y2="1316.0927" gradientTransform="matrix(-1 0 0 1 -10374.4365 0)">
					<stop  offset="0" style="stop-color:#FEBBBA"/>
					<stop  offset="1" style="stop-color:#FF928E"/>
				</linearGradient>
				<path class="st67" d="M1072,1341.7l-7.5,18.5c-1,2.5-3.6,4.1-6.3,3.8c-1.8-0.2-4-0.5-6.2-1.2c-4.3-1.3-6.7-5.8-5.4-10.1
					l5.7-19.1L1072,1341.7z"/>
				
					<linearGradient id="SVGID_65_" gradientUnits="userSpaceOnUse" x1="-11575.7686" y1="1516.4697" x2="-11574.5381" y2="1646.9951" gradientTransform="matrix(-1 0 0 1 -10374.4365 0)">
					<stop  offset="0" style="stop-color:#09005D"/>
					<stop  offset="1" style="stop-color:#1A0F91"/>
				</linearGradient>
				<path class="st68" d="M1201.1,1375.6c0,0-15.1,12.6-21,28.9c-1.6,4.5,1.8,9.2,6.6,9.2h31.1c4.6,0,8-4.1,7.3-8.6
					C1223,1393.9,1217.3,1375.7,1201.1,1375.6z"/>
				
					<linearGradient id="SVGID_66_" gradientUnits="userSpaceOnUse" x1="-11578.9063" y1="1387.1892" x2="-11585.5068" y2="1335.5914" gradientTransform="matrix(-1 0 0 1 -10374.4365 0)">
					<stop  offset="0" style="stop-color:#FEBBBA"/>
					<stop  offset="1" style="stop-color:#FF928E"/>
				</linearGradient>
				<path class="st69" d="M1219.8,1359.1c0,0-3.1,13.5-5.4,22.4c-0.4,1.6-2.2,2.5-3.7,1.9c-4.7-1.7-8.5-2.4-11.3-2.1
					c-1.3,0.2-2.4-0.9-2.4-2.2l-0.3-22.4L1219.8,1359.1z"/>
				
					<linearGradient id="SVGID_67_" gradientUnits="userSpaceOnUse" x1="-11625.0273" y1="1191.127" x2="-11421.8896" y2="1191.127" gradientTransform="matrix(-1 0 0 1 -10374.4365 0)">
					<stop  offset="0" style="stop-color:#09005D"/>
					<stop  offset="1" style="stop-color:#1A0F91"/>
				</linearGradient>
				<path class="st70" d="M1139.4,1055l-91.9,280.5c0,0,17.6,11.5,26,11.1l109.2-225.4c0,0,19.1,138.9,9.9,238.6l31.3,2.4
					c0,0,50.9-254.8,12.3-342.1L1139.4,1055z"/>
				<path class="st4" d="M1182.1,1118.8c0,0,0.1,0,0.1,0c0.5-0.1,0.8-0.5,0.8-1l-3.6-28.3c-0.1-0.5-0.5-0.8-1-0.8
					c-0.5,0.1-0.8,0.5-0.8,1l3.6,28.3C1181.3,1118.4,1181.7,1118.8,1182.1,1118.8z"/>
			</g>
			<linearGradient id="SVGID_68_" gradientUnits="userSpaceOnUse" x1="1331.2755" y1="691.9374" x2="1281.8336" y2="760.1332">
				<stop  offset="0" style="stop-color:#FF928E"/>
				<stop  offset="1" style="stop-color:#FE7062"/>
			</linearGradient>
			<path class="st71" d="M1122.2,808.2c0,0,74.5,6.6,64,59.7c0,0,41.2,77.5,60.4,168.8c0.6,3-1.4,5.9-4.4,6.4l-124.1,21.2
				c-3.4,0.6-6.7-1.5-7.6-4.9l-29.6-114.6l-11.6,53.3l-36.7-9.6l30.9-156.5C1063.5,832,1067.9,809.2,1122.2,808.2z"/>
			<linearGradient id="SVGID_69_" gradientUnits="userSpaceOnUse" x1="1334.6139" y1="601.3988" x2="1056.7158" y2="937.2638">
				<stop  offset="0" style="stop-color:#E1473D"/>
				<stop  offset="1" style="stop-color:#E9605A"/>
			</linearGradient>
			<path class="st72" d="M1080.3,939.7c0.1,0,0.1,0,0.2,0c0.5-0.1,0.8-0.6,0.7-1.1l-10.3-47.5c-0.1-0.5-0.6-0.8-1.1-0.7
				c-0.5,0.1-0.8,0.6-0.7,1.1l10.3,47.5C1079.5,939.4,1079.8,939.7,1080.3,939.7z"/>
			<linearGradient id="SVGID_70_" gradientUnits="userSpaceOnUse" x1="1215.8131" y1="954.5511" x2="1064.9376" y2="1115.6556">
				<stop  offset="0" style="stop-color:#FEBBBA"/>
				<stop  offset="1" style="stop-color:#FF928E"/>
			</linearGradient>
			<path class="st73" d="M1087.8,1081c3.9-2.1,8.5-2.7,12.8-1.7l8.6,2.1c1.8,0.5,3.7-0.8,3.9-2.7l8.9-79.5
				c11.2,5.3,27.3,4.7,32.6,4.3l-20.6,93.7h-71.9L1087.8,1081z"/>
			
				<linearGradient id="SVGID_71_" gradientUnits="userSpaceOnUse" x1="-11443.7861" y1="932.3513" x2="-11271.0508" y2="932.3513" gradientTransform="matrix(-1 0 0 1 -10374.4365 0)">
				<stop  offset="0" style="stop-color:#FEBBBA"/>
				<stop  offset="1" style="stop-color:#FF928E"/>
			</linearGradient>
			<path class="st74" d="M896.6,908.6l2.2-7.2c1.3-4.2,4.3-7.5,8.4-9.1l39.3-15.8c0,0,0.6-5-8.3-8.5c-8.9-3.4-6.8-13.4-6.8-13.4
				s12.2,5.5,30,14.3c10.2,5,15.9,13.9,18.9,20.6l89.1,108.6l-10.5,7.2c-13.8,9.5-32.7,4.8-40.5-9.9l-48.3-92.6
				C945.9,910.1,921.3,911.4,896.6,908.6z"/>
			<g>
				
					<linearGradient id="SVGID_72_" gradientUnits="userSpaceOnUse" x1="-11505.9746" y1="835.4697" x2="-11445.8584" y2="773.7921" gradientTransform="matrix(-1 0 0 1 -10374.4365 0)">
					<stop  offset="0" style="stop-color:#FEBBBA"/>
					<stop  offset="1" style="stop-color:#FF928E"/>
				</linearGradient>
				<path class="st75" d="M1098,757.5l22.9,64.1c0,0-20.3,15.9-35.1,10.5l-11.5-36.8C1074.3,795.4,1083.1,750.5,1098,757.5z"/>
				<g>
					
						<linearGradient id="SVGID_73_" gradientUnits="userSpaceOnUse" x1="-11418.791" y1="734.9316" x2="-11493.7412" y2="834.0842" gradientTransform="matrix(-1 0 0 1 -10374.4365 0)">
						<stop  offset="0" style="stop-color:#FEBBBA"/>
						<stop  offset="1" style="stop-color:#FF928E"/>
					</linearGradient>
					<path class="st76" d="M1029.6,734.5c0,1,22.1,62.5,22.1,62.5l34.8-13.3l-12.3-61.4C1074.3,722.2,1029.6,718,1029.6,734.5z"/>
					
						<linearGradient id="SVGID_74_" gradientUnits="userSpaceOnUse" x1="-11476.0313" y1="758.8497" x2="-11386.502" y2="758.8497" gradientTransform="matrix(-1 0 0 1 -10374.4365 0)">
						<stop  offset="0" style="stop-color:#09005D"/>
						<stop  offset="1" style="stop-color:#1A0F91"/>
					</linearGradient>
					<path class="st77" d="M1068.2,737.2l9,31.8c0.1,0.4,0.2,0.8,0.2,1.2c0,2.6-0.6,11.5-9.7,10.3c-8.3-1.1-15.8-2-20.6,0.3
						c-2.2,1-3.2,3.5-2.4,5.7c2,5.6,6.8,18.1,12.6,28.3c1.2,2.1,3.8,2.9,5.9,1.9c6.5-3,20.2-9.6,29.9-17.6c1.3-1.1,1.9-2.8,1.6-4.4
						c-1.5-8.1-6.1-32.9-6.3-40c-0.2-6.7,7.3-11.7,10.6-13.7c1.1-0.6,1.8-1.7,2.1-2.9c1-4.3,1.9-14-10.5-16.1
						c-2.6-0.4-4.3-2.9-3.8-5.5c1-5.1,0.7-12.7-9-15.4c-9.9-2.8-16.1,3.1-19.3,7.7c-1.3,1.8-3.7,2.4-5.7,1.5
						c-1.2-0.5-2.6-0.5-4.1,0.7c-2,1.7-5.2,1.2-6.7-1c-2.9-4.2-8.1-8.5-17-5.6c-15.7,5.1-15,23.2-9.2,33.1
						c5.8,9.9,22.5,3.4,30.5-3.2c6-5,15.2-2,19.3-0.3C1066.9,734.8,1067.8,735.9,1068.2,737.2z"/>
					
						<linearGradient id="SVGID_75_" gradientUnits="userSpaceOnUse" x1="-11528.5625" y1="813.4526" x2="-11468.4473" y2="751.7754" gradientTransform="matrix(-1 0 0 1 -10374.4365 0)">
						<stop  offset="0" style="stop-color:#FEBBBA"/>
						<stop  offset="1" style="stop-color:#FF928E"/>
					</linearGradient>
					<path class="st78" d="M1091.5,766.4c0,0-9.3-17.6-3.2-23.2c6.2-5.5,16.6-4.6,16.3,9.2C1104.3,769.6,1091.5,766.4,1091.5,766.4z
						"/>
				</g>
			</g>
			<linearGradient id="SVGID_76_" gradientUnits="userSpaceOnUse" x1="1389.5177" y1="646.8286" x2="1111.6205" y2="982.6926">
				<stop  offset="0" style="stop-color:#E1473D"/>
				<stop  offset="1" style="stop-color:#E9605A"/>
			</linearGradient>
			<path class="st79" d="M1147.4,1004.8c5.1,0,8.7-0.4,9.1-0.4l0.7-0.1l27.1-126.5c0.1-0.5-0.2-1-0.7-1.1c-0.5-0.1-1,0.2-1.1,0.7
				l-26.8,125.2c-4,0.4-25.6,1.8-37-6.3l23.5-109.9l-4.9-9.2c-0.2-0.5-0.8-0.6-1.2-0.4c-0.5,0.2-0.6,0.8-0.4,1.2l4.6,8.6
				l-23.6,110.4l0.5,0.4C1125.3,1003.6,1138.5,1004.8,1147.4,1004.8z"/>
		</g>
		<g>
			<path class="st4" d="M334.2,1390.4c-0.6,0-1.3-0.1-1.9-0.4c-2.4-1.1-3.5-4.2-2.5-6.8l99.1-251.5c1-2.6,3.8-3.8,6.2-2.7
				c2.4,1.1,3.5,4.2,2.5,6.8l-99.1,251.5C337.7,1389.2,336,1390.4,334.2,1390.4z"/>
			<path class="st4" d="M445.8,1390.4c-1.8,0-3.6-1.2-4.3-3.1l-99.1-251.5c-1-2.6,0.1-5.7,2.5-6.8c2.4-1.1,5.2,0.1,6.2,2.7
				l99.1,251.5c1,2.6-0.1,5.7-2.5,6.8C447.1,1390.2,446.5,1390.4,445.8,1390.4z"/>
			<path class="st4" d="M1006.9,1390.4c-0.6,0-1.3-0.1-1.9-0.4c-2.4-1.1-3.5-4.2-2.5-6.8l99.1-251.5c1-2.6,3.8-3.8,6.2-2.7
				c2.4,1.1,3.5,4.2,2.5,6.8l-99.1,251.5C1010.4,1389.2,1008.7,1390.4,1006.9,1390.4z"/>
			<path class="st4" d="M1118.5,1390.4c-1.8,0-3.6-1.2-4.3-3.1l-99.1-251.5c-1-2.6,0.1-5.7,2.5-6.8c2.4-1.1,5.2,0.1,6.2,2.7
				l99.1,251.5c1,2.6-0.1,5.7-2.5,6.8C1119.8,1390.2,1119.2,1390.4,1118.5,1390.4z"/>
		</g>
		<g>
			<path class="st80" d="M992.5,1113.9l143.6,0v-14.8H992.5C995.6,1099.1,995.6,1113.9,992.5,1113.9z"/>
			
				<linearGradient id="SVGID_77_" gradientUnits="userSpaceOnUse" x1="-8031.4692" y1="-7191.7998" x2="-8156.8115" y2="-6886.9126" gradientTransform="matrix(-1 0 0 1 -10374.4365 0)">
				<stop  offset="0" style="stop-color:#4F52FF"/>
				<stop  offset="1" style="stop-color:#4042E2"/>
			</linearGradient>
			<path class="st81" d="M1134.3,1113.9c0.9,0,1.7-0.8,1.7-1.7v-11.4c0-0.9-0.8-1.7-1.7-1.7H989.8c-0.9,0-1.7-0.8-1.7-1.7
				c0-0.9,0.8-1.7,1.7-1.7h154.5c3.4,0,6.2,2.8,6.2,6.2v9.5c0,3.2-2.6,5.8-5.8,5.8H989.8c-0.9,0-1.7-0.8-1.7-1.7s0.8-1.7,1.7-1.7
				H1134.3z"/>
		</g>
		<path class="st4" d="M1156.9,1123.9c0.5-1.7-0.2-3.4-1.8-4.7c-1.6-1.3-4-2.1-6.6-2.1H288.3c-3.3,0-6.4,1.1-8.2,3
			c-1.8,1.9-2,4.2-0.6,6.2l9.3,13.4c2.1,3.1,6.8,5,11.8,5h842c4.7,0,8.8-2.2,9.7-5.3L1156.9,1123.9z"/>
	</g>
	<g>
		<g>
			<g class="st82">
				<path class="st80" d="M687.4,246.2c-2.7-0.6-4.5-3.2-3.9-6c1.1-5.3,2-10.7,2.6-16.1c0.3-2.7,2.8-4.7,5.5-4.4c0,0,0.1,0,0.1,0
					c2.8,0.3,4.7,2.8,4.4,5.6c-0.7,5.7-1.6,11.4-2.8,16.9c-0.5,2.5-2.9,4.2-5.4,4C687.7,246.3,687.6,246.3,687.4,246.2z
					 M687.5,197.7c-0.1-5.4-0.4-10.9-1-16.3c-0.3-2.8,1.7-5.2,4.5-5.5c2.8-0.3,5.2,1.7,5.5,4.5c0.6,5.7,0.9,11.4,1,17.1
					c0,2.8-2.2,5.1-5,5.1c-0.2,0-0.4,0-0.6,0C689.5,202.4,687.5,200.3,687.5,197.7z M682,155.3c-1.3-5.3-2.8-10.5-4.6-15.7
					c-0.9-2.6,0.5-5.5,3.1-6.4c2.6-0.9,5.5,0.5,6.4,3.1c1.8,5.4,3.5,10.9,4.8,16.5c0.7,2.7-1,5.4-3.7,6.1c-0.6,0.1-1.2,0.2-1.7,0.1
					C684.3,158.9,682.5,157.5,682,155.3z M667.2,115.3c-2.4-4.8-5.1-9.6-8-14.2c-1.5-2.4-0.7-5.5,1.6-6.9c2.4-1.5,5.5-0.7,6.9,1.6
					c3,4.9,5.8,9.9,8.4,15c1.3,2.5,0.3,5.5-2.2,6.8c-0.9,0.4-1.8,0.6-2.8,0.5C669.5,117.8,668,116.8,667.2,115.3z M643.8,79.5
					c-3.4-4.2-7.1-8.2-10.9-12.1c-1.9-2-1.9-5.2,0.1-7.1c2-1.9,5.2-1.9,7.1,0.1c4,4.1,7.9,8.4,11.5,12.8c1.8,2.1,1.5,5.3-0.7,7.1
					c-1.1,0.9-2.4,1.3-3.7,1.1C645.9,81.1,644.7,80.5,643.8,79.5z M613.1,49.7c-4.3-3.3-8.8-6.5-13.3-9.4c-2.3-1.5-3-4.6-1.5-7
					c1.5-2.3,4.6-3,7-1.5c4.8,3.1,9.5,6.4,14,9.9c2.2,1.7,2.6,4.9,0.9,7.1c-1.1,1.4-2.8,2.1-4.5,1.9
					C614.7,50.7,613.8,50.3,613.1,49.7z M429,16.9c-0.9-2.6,0.5-5.5,3.2-6.4c5.4-1.8,10.9-3.4,16.5-4.8c2.7-0.7,5.4,1,6.1,3.7
					c0.7,2.7-1,5.4-3.7,6.1c-5.3,1.3-10.5,2.8-15.7,4.5c-0.7,0.2-1.4,0.3-2.1,0.2C431.4,20.1,429.6,18.8,429,16.9z M576.5,27.6
					c-4.9-2.3-10-4.4-15.1-6.2c-2.6-0.9-4-3.8-3-6.4c0.9-2.6,3.8-4,6.4-3c5.4,1.9,10.7,4.1,15.9,6.5c2.5,1.2,3.6,4.2,2.5,6.7
					c-0.9,2-3,3.1-5.1,2.9C577.6,28,577.1,27.8,576.5,27.6z M471.6,6.5c-0.3-2.8,1.7-5.2,4.5-5.5c5.7-0.6,11.4-0.9,17.1-1
					c2.8-0.1,5.1,2.2,5.1,5c0,2.8-2.2,5.1-5,5.1c-5.4,0.1-10.9,0.4-16.3,0.9c-0.3,0-0.7,0-1,0C473.8,10.8,471.9,8.9,471.6,6.5z
					 M536,14.2c-5.3-1.1-10.7-2-16.1-2.7c-2.8-0.3-4.7-2.8-4.4-5.6c0.3-2.7,2.8-4.7,5.5-4.4c0,0,0.1,0,0.1,0
					c5.7,0.7,11.4,1.6,16.9,2.8c2.7,0.6,4.5,3.2,3.9,6c-0.5,2.5-2.9,4.2-5.4,4C536.4,14.2,536.2,14.2,536,14.2z"/>
				<path class="st80" d="M400.9,34.6c1,0.1,2-0.1,2.9-0.6c2.3-1.3,4.6-2.5,6.9-3.7c2.5-1.2,3.5-4.3,2.2-6.8
					c-1.2-2.5-4.3-3.5-6.8-2.2c-2.5,1.2-4.9,2.5-7.3,3.9c-2.4,1.3-3.3,4.4-2,6.8C397.9,33.5,399.3,34.4,400.9,34.6z"/>
			</g>
			<g class="st82">
				<path class="st80" d="M306.5,155.6c2.4,0.2,4.7-1.3,5.4-3.7c0.7-2.5,1.4-5,2.2-7.5c0.8-2.7-0.7-5.5-3.3-6.3
					c-2.7-0.8-5.5,0.7-6.3,3.3c-0.8,2.6-1.6,5.3-2.3,7.9c-0.7,2.7,0.9,5.4,3.6,6.2C305.9,155.5,306.2,155.5,306.5,155.6z"/>
				<path class="st80" d="M466.2,399.9c-2.7-0.4-4.6-3-4.2-5.7c0.4-2.7,3-4.6,5.7-4.2c5.2,0.8,10.6,1.4,16,1.7
					c2.8,0.2,4.9,2.6,4.7,5.4c-0.2,2.8-2.6,4.9-5.4,4.7c-2.3-0.2-4.6-0.4-7-0.6C472.7,400.9,469.4,400.4,466.2,399.9z M505,397.1
					c-0.2-2.8,1.9-5.2,4.7-5.4c5.3-0.4,10.7-1,16-1.8c2.7-0.4,5.3,1.5,5.7,4.2c0.4,2.7-1.5,5.3-4.2,5.7c-5.5,0.9-11.2,1.5-16.8,1.9
					c-0.3,0-0.6,0-0.9,0C507.1,401.5,505.2,399.6,505,397.1z M439.4,394c-5.4-1.6-10.8-3.4-16-5.5c-2.6-1-3.9-3.9-2.9-6.5
					c1-2.6,3.9-3.9,6.5-2.9c5,1.9,10.1,3.7,15.2,5.2c2.7,0.8,4.2,3.6,3.4,6.3c-0.7,2.4-3,3.8-5.3,3.6
					C440,394.2,439.7,394.1,439.4,394z M547.7,390.5c-0.8-2.7,0.7-5.5,3.4-6.3c5.1-1.5,10.2-3.3,15.2-5.2c2.6-1,5.5,0.3,6.5,2.8
					c1,2.6-0.3,5.5-2.8,6.5c-5.2,2.1-10.6,3.9-16,5.5c-0.7,0.2-1.3,0.3-1.9,0.2C550.1,393.9,548.3,392.5,547.7,390.5z M398.6,376.9
					c-4.9-2.7-9.7-5.7-14.4-8.8c-2.3-1.6-2.9-4.7-1.4-7c1.6-2.3,4.7-2.9,7-1.4c4.4,3,9,5.8,13.7,8.4c2.4,1.4,3.3,4.4,1.9,6.9
					c-1,1.8-3,2.8-4.9,2.6C399.9,377.4,399.2,377.2,398.6,376.9z M362.5,351.2c-4.2-3.7-8.3-7.7-12.1-11.8c-1.9-2-1.8-5.2,0.2-7.1
					c2-1.9,5.2-1.8,7.1,0.2c3.7,3.9,7.5,7.6,11.5,11.2c2.1,1.9,2.3,5,0.4,7.1c-1.1,1.2-2.7,1.8-4.3,1.7
					C364.4,352.3,363.4,351.9,362.5,351.2z M333,318.2c-3.3-4.6-6.4-9.3-9.3-14.1c-1.4-2.4-0.6-5.5,1.7-6.9c2.4-1.4,5.5-0.6,6.9,1.7
					c2.7,4.6,5.7,9.1,8.8,13.4c1.6,2.3,1.1,5.4-1.2,7c-1,0.7-2.3,1-3.4,0.9C335.2,320.2,333.8,319.5,333,318.2z M311.3,279.6
					c-2.2-5.2-4.2-10.5-5.9-15.8c-0.9-2.6,0.6-5.5,3.2-6.4c2.6-0.9,5.5,0.6,6.4,3.2c1.7,5.1,3.6,10.1,5.6,15
					c1.1,2.6-0.1,5.5-2.7,6.6c-0.8,0.3-1.7,0.5-2.5,0.4C313.6,282.5,312,281.4,311.3,279.6z M298.6,237.2c-1-5.5-1.8-11.1-2.3-16.7
					c-0.3-2.8,1.8-5.2,4.5-5.5c2.8-0.3,5.2,1.8,5.5,4.5c0.5,5.3,1.2,10.7,2.2,15.9c0.5,2.7-1.3,5.4-4.1,5.9
					c-0.5,0.1-0.9,0.1-1.4,0.1C300.8,241.1,299,239.5,298.6,237.2z M295.5,193.1c0.2-4.1,0.5-8.3,0.9-12.4c0.2-1.5,0.3-3,0.5-4.4
					c0.3-2.8,2.8-4.8,5.6-4.4c2.8,0.3,4.7,2.9,4.4,5.6c-0.2,1.4-0.3,2.8-0.5,4.2c-0.4,3.9-0.7,7.9-0.8,11.8
					c-0.1,2.8-2.5,4.9-5.2,4.8c-0.1,0-0.2,0-0.3,0C297.4,198,295.4,195.7,295.5,193.1z"/>
				<path class="st80" d="M591.9,377.2c1,0.1,2-0.1,3-0.6c2.4-1.3,4.8-2.7,7.1-4.2c2.4-1.5,3.1-4.6,1.6-6.9
					c-1.5-2.4-4.6-3.1-6.9-1.6c-2.2,1.4-4.5,2.7-6.8,4c-2.4,1.4-3.3,4.4-1.9,6.9C588.8,376.1,590.3,377,591.9,377.2z"/>
			</g>
			<g>
				<path class="st80" d="M615.3,294.1c0.7-0.7,0.9-1.8,0.5-2.7l-12.5-25.8c7.1-11.4,12.3-23.9,15.5-37.3l27.1-9.3
					c0.9-0.3,1.6-1.2,1.6-2.2l0-34.4c0-1-0.6-1.9-1.6-2.2l-27.1-9.3c-3.1-13.4-8.4-26-15.5-37.3l12.5-25.8c0.4-0.9,0.3-2-0.5-2.7
					L591,80.7c-0.7-0.7-1.8-0.9-2.7-0.5l-25.7,12.5c-11.4-7.1-23.9-12.3-37.3-15.5l-9.3-27.1c-0.3-0.9-1.2-1.6-2.2-1.6l-34.4,0
					c-1,0-1.9,0.6-2.2,1.6l-9.3,27.1c-13.4,3.1-26,8.4-37.3,15.5l-25.8-12.5c-0.9-0.4-2-0.3-2.7,0.5L377.7,105
					c-0.7,0.7-0.9,1.8-0.5,2.7l12.5,25.8c-7.1,11.4-12.3,23.9-15.5,37.3l-27.1,9.3c-0.9,0.3-1.6,1.2-1.6,2.2l0,34.4
					c0,1,0.6,1.9,1.6,2.2l27.1,9.3c3.1,13.4,8.4,26,15.5,37.3l-12.5,25.8c-0.4,0.9-0.3,2,0.5,2.7l24.3,24.3c0.7,0.7,1.8,0.9,2.7,0.5
					l25.8-12.5c11.4,7.1,23.9,12.3,37.3,15.5l9.3,27.1c0.3,0.9,1.2,1.6,2.2,1.6l34.4,0c1,0,1.9-0.6,2.2-1.6l9.3-27.1
					c13.4-3.1,26-8.4,37.3-15.5l25.8,12.5c0.9,0.4,2,0.3,2.7-0.5L615.3,294.1z"/>
				<linearGradient id="SVGID_78_" gradientUnits="userSpaceOnUse" x1="461.9436" y1="199.5433" x2="531.0239" y2="199.5433">
					<stop  offset="0" style="stop-color:#DAE3FE"/>
					<stop  offset="1" style="stop-color:#E9EFFD"/>
				</linearGradient>
				<path class="st83" d="M488,233c-18.5-4.7-29.7-23.5-25-41.9c2.3-8.9,7.9-16.5,15.8-21.2c7.9-4.7,17.2-6.1,26.2-3.8
					c18.5,4.7,29.7,23.5,25,41.9c-4.2,16.8-20.2,27.6-36.9,25.9C491.4,233.7,489.7,233.5,488,233z M482.9,176.8
					c-6.1,3.6-10.4,9.4-12.1,16.3c-3.6,14.2,5,28.6,19.2,32.2c14.2,3.6,28.6-5,32.2-19.2c3.6-14.2-5-28.6-19.2-32.2
					c-1.3-0.3-2.6-0.5-3.9-0.7C493.5,172.6,487.8,173.9,482.9,176.8z"/>
				<linearGradient id="SVGID_79_" gradientUnits="userSpaceOnUse" x1="411.0909" y1="198.9911" x2="580.9318" y2="198.9911">
					<stop  offset="0" style="stop-color:#DAE3FE"/>
					<stop  offset="1" style="stop-color:#E9EFFD"/>
				</linearGradient>
				<path class="st84" d="M487.3,283.5c2.9,0.3,5.8,0.4,8.7,0.4l0,0c0.9,0,1.8,0,2.8,0c4.5-0.1,9.1-0.7,13.5-1.5c0.1,0,0.1,0,0.2,0
					c0.2,0,0.3-0.1,0.5-0.1c0.3-0.1,0.7-0.1,1-0.2c0.9-0.2,1.5-0.9,1.6-1.8c0-0.2,0-0.4,0-0.6c-0.2-1.1-1.3-1.8-2.4-1.5
					c-5.6,1.2-11.4,1.8-17.1,1.8c-28.7,0-53.9-15-68.3-37.5c-8-12.5-12.6-27.4-12.6-43.4c0-2.8,0.1-5.6,0.4-8.3
					c1.9-18.5,10-35.6,23.3-48.9c15.3-15.3,35.6-23.7,57.2-23.7c44.6,0,80.9,36.3,80.9,80.9c0,2.8-0.1,5.5-0.4,8.2
					c-1.2,11.8-5,23.2-11,33.3c-0.2,0.3-0.2,0.5-0.3,0.8c-0.1,0.8,0.3,1.5,1,1.9c1,0.6,2.2,0.3,2.8-0.7c6.4-10.7,10.3-22.6,11.6-35
					c0.3-2.9,0.4-5.7,0.4-8.6c0-46.8-38.1-84.9-84.9-84.9c-22.7,0-44,8.8-60,24.9c-14,14-22.5,31.9-24.4,51.3
					c-0.3,2.9-0.4,5.8-0.4,8.7c0,22.7,8.8,44,24.9,60C449.9,273,467.9,281.5,487.3,283.5z"/>
			</g>
		</g>
		<g>
			<g class="st82">
				<path class="st80" d="M845.5,395.6c1.3,0.1,2.7-0.6,3.2-1.9c1-2.4,1.9-5,2.8-7.5c0.6-1.6-0.3-3.4-1.9-3.9
					c-1.6-0.6-3.4,0.3-3.9,1.9c-0.8,2.4-1.7,4.8-2.6,7.1c-0.6,1.6,0.1,3.4,1.7,4.1C844.9,395.5,845.2,395.6,845.5,395.6z"/>
				<path class="st80" d="M852.1,372.7c-1.7-0.3-2.8-2-2.4-3.7c0.9-4.2,1.5-8.6,2-12.9c0.1-0.9,0.2-1.8,0.2-2.7
					c0.1-1.7,1.6-3,3.3-2.9c1.6,0.2,3,1.6,2.9,3.4c-0.1,1-0.2,1.9-0.3,2.9c-0.5,4.5-1.2,9.1-2.1,13.5c-0.3,1.6-1.8,2.6-3.4,2.5
					C852.4,372.7,852.2,372.7,852.1,372.7z M852.2,337.6c-0.2-5.3-0.8-10.5-1.6-15.7c-0.3-1.7,0.9-3.3,2.6-3.6
					c1.7-0.3,3.3,0.9,3.6,2.6c0.9,5.4,1.5,11,1.7,16.5c0.1,1.7-1.3,3.2-3,3.2c-0.1,0-0.3,0-0.4,0
					C853.5,340.4,852.3,339.2,852.2,337.6z M847,306.5c-1.5-5-3.3-10-5.4-14.8c-0.7-1.6,0-3.4,1.6-4.1c1.6-0.7,3.4,0,4.1,1.6
					c2.2,5,4.1,10.3,5.7,15.6c0.5,1.6-0.4,3.4-2.1,3.9c-0.4,0.1-0.8,0.2-1.2,0.1C848.5,308.6,847.4,307.7,847,306.5z M834.4,277.6
					c-2.7-4.5-5.7-8.9-8.9-13c-1.1-1.4-0.8-3.3,0.5-4.4c1.4-1.1,3.3-0.8,4.4,0.5c3.4,4.3,6.5,8.9,9.3,13.7c0.9,1.5,0.4,3.4-1.1,4.3
					c-0.6,0.4-1.3,0.5-1.9,0.4C835.8,279,834.9,278.5,834.4,277.6z M815,252.7c-3.7-3.7-7.7-7.3-11.8-10.5c-1.4-1.1-1.6-3-0.5-4.4
					c1.1-1.4,3-1.6,4.4-0.5c4.3,3.4,8.5,7.1,12.4,11c1.2,1.2,1.2,3.2,0,4.4c-0.7,0.7-1.6,1-2.5,0.9
					C816.2,253.6,815.6,253.3,815,252.7z M790.2,233.3c-4.5-2.7-9.2-5.2-14-7.3c-1.6-0.7-2.3-2.5-1.6-4.1c0.7-1.6,2.5-2.3,4.1-1.6
					c5,2.2,10,4.8,14.7,7.6c1.5,0.9,1.9,2.8,1.1,4.3c-0.6,1.1-1.8,1.6-3,1.5C791.1,233.7,790.6,233.5,790.2,233.3z M761.5,220.5
					c-5-1.5-10.2-2.7-15.4-3.6c-1.7-0.3-2.8-1.9-2.5-3.6c0.3-1.7,1.9-2.8,3.6-2.5c5.4,0.9,10.9,2.2,16.1,3.8
					c1.6,0.5,2.6,2.2,2.1,3.9c-0.4,1.4-1.8,2.3-3.3,2.2C761.8,220.6,761.7,220.5,761.5,220.5z M711.3,212.5
					c-0.1-1.7,1.2-3.2,2.9-3.3c4.7-0.4,9.6-0.5,14.4-0.3c0.7,0,1.5,0,2.2,0.1c1.7,0,3,1.5,3,3.3c-0.1,1.7-1.5,3-3.3,3
					c-0.7,0-1.4-0.1-2.1-0.1c-4.6-0.1-9.2-0.1-13.7,0.3c-0.2,0-0.4,0-0.5,0C712.6,215.2,711.4,214,711.3,212.5z"/>
			</g>
			<g class="st82">
				<path class="st80" d="M708.9,476.5c-5.4-0.6-10.8-1.6-16-2.8c-1.7-0.4-2.7-2.1-2.3-3.7c0.4-1.7,2.1-2.7,3.7-2.3
					c5,1.2,10.2,2.1,15.3,2.7c1.7,0.2,2.9,1.7,2.7,3.4C712.1,475.5,710.6,476.7,708.9,476.5C708.9,476.6,708.9,476.5,708.9,476.5z
					 M722,474.3c0-1.7,1.4-3.1,3.1-3.1c5.2,0,10.4-0.4,15.5-1c1.7-0.2,3.3,1,3.5,2.7c0.2,1.7-1,3.3-2.7,3.5
					c-5.4,0.7-10.8,1-16.3,1.1c-0.1,0-0.2,0-0.3,0C723.2,477.2,722,475.9,722,474.3z M677.2,469c-5.1-1.9-10.1-4.1-14.9-6.6
					c-1.5-0.8-2.1-2.7-1.3-4.2c0.8-1.5,2.7-2.1,4.2-1.3c4.6,2.4,9.3,4.5,14.2,6.3c1.6,0.6,2.4,2.4,1.8,4c-0.5,1.4-1.9,2.1-3.2,2
					C677.8,469.1,677.5,469.1,677.2,469z M753.6,471.1c-0.4-1.7,0.6-3.4,2.2-3.8c5-1.3,10-2.9,14.8-4.7c1.6-0.6,3.4,0.2,4,1.8
					c0.6,1.6-0.2,3.4-1.8,4c-5,2-10.3,3.6-15.5,5c-0.4,0.1-0.7,0.1-1.1,0.1C755,473.3,753.9,472.4,753.6,471.1z M648.4,454
					c-4.5-3.1-8.8-6.4-12.9-10c-1.3-1.1-1.4-3.1-0.3-4.4c1.1-1.3,3.1-1.4,4.4-0.3c3.9,3.4,8,6.6,12.3,9.5c1.4,1,1.8,2.9,0.8,4.3
					c-0.7,1-1.8,1.4-2.9,1.3C649.3,454.5,648.8,454.3,648.4,454z M624,432.5c-3.6-4-7-8.3-10.1-12.8c-1-1.4-0.6-3.3,0.8-4.3
					c1.4-1,3.3-0.6,4.3,0.8c2.9,4.2,6.2,8.3,9.6,12.2c1.1,1.3,1,3.2-0.3,4.4c-0.7,0.6-1.5,0.9-2.4,0.8
					C625.3,433.5,624.5,433.1,624,432.5z M605.4,405.8c-2.5-4.8-4.8-9.8-6.7-14.8c-0.6-1.6,0.2-3.4,1.8-4c1.6-0.6,3.4,0.2,4,1.8
					c1.8,4.8,4,9.6,6.4,14.1c0.8,1.5,0.2,3.4-1.3,4.2c-0.6,0.3-1.2,0.4-1.8,0.3C606.9,407.3,605.9,406.8,605.4,405.8z"/>
				<path class="st80" d="M786,461.8c0.6,0.1,1.2-0.1,1.8-0.4c2.3-1.3,4.7-2.6,6.9-4c1.5-0.9,1.9-2.8,1-4.3c-0.9-1.5-2.8-1.9-4.3-1
					c-2.1,1.3-4.3,2.6-6.6,3.8c-1.5,0.8-2.1,2.7-1.3,4.2C784.1,461.1,785.1,461.7,786,461.8z"/>
			</g>
			<g>
				<path class="st80" d="M803.8,405.3c0.5-0.5,0.6-1.2,0.3-1.8l-8.4-17.2c4.7-7.6,8.3-16,10.4-25l18.1-6.2c0.6-0.2,1.1-0.8,1.1-1.5
					l0-23c0-0.7-0.4-1.3-1.1-1.5l-18.1-6.2c-2.1-9-5.6-17.4-10.4-25l8.4-17.2c0.3-0.6,0.2-1.3-0.3-1.8l-16.3-16.3
					c-0.5-0.5-1.2-0.6-1.8-0.3l-17.2,8.4c-7.6-4.7-16-8.3-25-10.4l-6.2-18.1c-0.2-0.6-0.8-1.1-1.5-1.1l-23,0c-0.7,0-1.3,0.4-1.5,1.1
					l-6.2,18.1c-9,2.1-17.4,5.6-25,10.4l-17.2-8.4c-0.6-0.3-1.3-0.2-1.8,0.3l-16.3,16.3c-0.5,0.5-0.6,1.2-0.3,1.8l8.4,17.2
					c-4.7,7.6-8.3,16-10.4,25l-18.1,6.2c-0.6,0.2-1.1,0.8-1.1,1.5l0,23c0,0.7,0.4,1.3,1.1,1.5l18.1,6.2c2.1,9,5.6,17.4,10.4,25
					l-8.4,17.2c-0.3,0.6-0.2,1.3,0.3,1.8l16.3,16.3c0.5,0.5,1.2,0.6,1.8,0.3l17.2-8.4c7.6,4.7,16,8.3,25,10.4l6.2,18.1
					c0.2,0.6,0.8,1.1,1.5,1.1l23,0c0.7,0,1.3-0.4,1.5-1.1l6.2-18.1c9-2.1,17.4-5.6,25-10.4l17.2,8.4c0.6,0.3,1.3,0.2,1.8-0.3
					L803.8,405.3z"/>
				<linearGradient id="SVGID_80_" gradientUnits="userSpaceOnUse" x1="700.7297" y1="342.0686" x2="747.7924" y2="342.0686">
					<stop  offset="0" style="stop-color:#DAE3FE"/>
					<stop  offset="1" style="stop-color:#E9EFFD"/>
				</linearGradient>
				<path class="st85" d="M718.5,364.9c-6.1-1.5-11.2-5.4-14.4-10.8c-3.2-5.4-4.1-11.7-2.6-17.8c3.2-12.6,16-20.2,28.6-17.1
					c12.6,3.2,20.2,16,17.1,28.6c-1.5,6.1-5.4,11.2-10.7,14.4c-4.4,2.6-9.4,3.7-14.4,3.2C720.8,365.4,719.6,365.2,718.5,364.9z
					 M707.5,337.8c-1.1,4.5-0.4,9.1,1.9,13.1c2.4,4,6.1,6.8,10.6,7.9l0,0c4.5,1.1,9.1,0.4,13.1-1.9c4-2.4,6.8-6.1,7.9-10.6
					c2.3-9.3-3.3-18.7-12.5-21c-0.8-0.2-1.7-0.4-2.5-0.4C717.6,324,709.6,329.4,707.5,337.8z"/>
				<linearGradient id="SVGID_81_" gradientUnits="userSpaceOnUse" x1="665.3612" y1="341.6902" x2="782.537" y2="341.6902">
					<stop  offset="0" style="stop-color:#DAE3FE"/>
					<stop  offset="1" style="stop-color:#E9EFFD"/>
				</linearGradient>
				<path class="st86" d="M718,400c2,0.2,3.9,0.3,5.9,0.3c4,0,8-0.4,11.9-1.2c0.2,0,0.3-0.1,0.5-0.1c1.4-0.3,2.3-1.4,2.4-2.7
					c0-0.3,0-0.6-0.1-1c-0.4-1.7-2-2.7-3.7-2.4c-3.6,0.8-7.4,1.2-11.1,1.2l0,0c-0.2,0-0.4,0-0.6,0c-8.8-0.1-17.3-2.4-24.8-6.5
					c-4.1-2.3-7.9-5.1-11.3-8.5c0,0-0.1-0.1-0.1-0.1c-0.1-0.1-0.2-0.2-0.3-0.3c-9.9-9.9-15.3-23-15.3-37c0-1.8,0.1-3.6,0.3-5.4
					c1.2-12,6.5-23,15.1-31.6c9.9-9.9,23-15.3,37-15.3c14,0,27.1,5.4,37,15.3c9.9,9.9,15.3,23,15.3,37c0,1.8-0.1,3.6-0.3,5.3
					c-0.8,7.6-3.2,15-7.2,21.6c-0.2,0.4-0.4,0.8-0.4,1.3c-0.1,1.2,0.4,2.3,1.5,3c1.5,0.9,3.4,0.4,4.3-1.1c4.4-7.4,7.1-15.6,8-24.1
					c0.2-2,0.3-4,0.3-5.9c0-15.7-6.1-30.4-17.2-41.4c-11.1-11.1-25.8-17.2-41.4-17.2c-15.6,0-30.4,6.1-41.4,17.2
					c-9.6,9.6-15.5,22-16.9,35.4c-0.2,2-0.3,4-0.3,6C665.4,372,688.5,397,718,400z"/>
			</g>
		</g>
	</g>
</g>
</svg>
