<?xml version="1.0" encoding="utf-8"?>
<!-- Generator: Adobe Illustrator 19.0.0, SVG Export Plug-In . SVG Version: 6.00 Build 0)  -->
<svg version="1.1" id="Illustration" xmlns="http://www.w3.org/2000/svg" xmlns:xlink="http://www.w3.org/1999/xlink" x="0px"
	 y="0px" viewBox="0 0 1218.7 751.9" style="enable-background:new 0 0 1218.7 751.9;" xml:space="preserve">
<style type="text/css">
	.st0{fill:url(#SVGID_1_);}
	.st1{fill:#BDD0FB;}
	.st2{fill:url(#SVGID_2_);}
	.st3{fill:url(#SVGID_3_);}
	.st4{fill:url(#SVGID_4_);}
	.st5{fill:#7D97F4;}
	.st6{fill:url(#SVGID_5_);}
	.st7{fill:url(#SVGID_6_);}
	.st8{fill:url(#SVGID_7_);}
	.st9{opacity:0.75;fill:#FFFFFF;}
	.st10{opacity:0.54;fill:#FFFFFF;}
	.st11{fill:url(#SVGID_8_);}
	.st12{fill:url(#SVGID_9_);}
	.st13{fill:url(#SVGID_10_);}
	.st14{fill:#91B3FA;}
	.st15{fill:url(#SVGID_11_);}
	.st16{fill:url(#SVGID_12_);}
	.st17{fill:url(#SVGID_13_);}
	.st18{fill:url(#SVGID_14_);}
	.st19{fill:url(#SVGID_15_);}
	.st20{fill:url(#SVGID_16_);}
	.st21{fill:url(#SVGID_17_);}
	.st22{fill:url(#SVGID_18_);}
	.st23{fill:url(#SVGID_19_);}
	.st24{fill:url(#SVGID_20_);}
	.st25{fill:url(#SVGID_21_);}
	.st26{fill:url(#SVGID_22_);}
	.st27{opacity:0.64;}
	.st28{fill:url(#SVGID_23_);}
	.st29{fill:url(#SVGID_24_);}
	.st30{fill:url(#SVGID_25_);}
	.st31{fill:url(#SVGID_26_);}
	.st32{fill:url(#SVGID_27_);}
	.st33{fill:url(#SVGID_28_);}
	.st34{fill:url(#SVGID_29_);}
	.st35{fill:url(#SVGID_30_);}
	.st36{fill:url(#SVGID_31_);}
	.st37{fill:url(#SVGID_32_);}
	.st38{fill:url(#SVGID_33_);}
	.st39{fill:url(#SVGID_34_);}
	.st40{fill:url(#SVGID_35_);}
	.st41{fill:url(#SVGID_36_);}
	.st42{fill:url(#SVGID_37_);}
	.st43{fill:url(#SVGID_38_);}
	.st44{fill:url(#SVGID_39_);}
	.st45{fill:url(#SVGID_40_);}
	.st46{fill:url(#SVGID_41_);}
	.st47{fill:url(#SVGID_42_);}
	.st48{fill:url(#SVGID_43_);}
	.st49{fill:url(#SVGID_44_);}
	.st50{fill:url(#SVGID_45_);}
	.st51{fill:url(#SVGID_46_);}
	.st52{fill:url(#SVGID_47_);}
	.st53{fill:url(#SVGID_48_);}
	.st54{fill:url(#SVGID_49_);}
	.st55{fill:url(#SVGID_50_);}
	.st56{fill:url(#SVGID_51_);}
	.st57{fill:url(#SVGID_52_);}
	.st58{fill:url(#SVGID_53_);}
	.st59{fill:url(#SVGID_54_);}
	.st60{fill:url(#SVGID_55_);}
	.st61{fill:url(#SVGID_56_);}
	.st62{fill:url(#SVGID_57_);}
	.st63{fill:url(#SVGID_58_);}
	.st64{fill:url(#SVGID_59_);}
	.st65{fill:url(#SVGID_60_);}
	.st66{fill:url(#SVGID_61_);}
	.st67{fill:url(#SVGID_62_);}
	.st68{fill:url(#SVGID_63_);}
	.st69{fill:url(#SVGID_64_);}
	.st70{fill:url(#SVGID_65_);}
	.st71{fill:url(#SVGID_66_);}
	.st72{fill:url(#SVGID_67_);}
	.st73{fill:url(#SVGID_68_);}
</style>
<g>
	
		<linearGradient id="SVGID_1_" gradientUnits="userSpaceOnUse" x1="-7970.4688" y1="103.8219" x2="-8575.4766" y2="625.7486" gradientTransform="matrix(-1 0 0 1 -7793.1187 0)">
		<stop  offset="0" style="stop-color:#DAE3FE"/>
		<stop  offset="1" style="stop-color:#E9EFFD"/>
	</linearGradient>
	<path class="st0" d="M922,350.7c21,20.3,51.2,27.6,79.6,21c27-6.2,59-4.4,91.8,18.1c63.3,43.6,66.2,121.3,37.8,169.3
		c-14.7,24.9-19.5,54.6-12,82.6c6.5,24.5,1.1,51.9-46.2,64.4c-95.4,25.4-619.2,0.3-686.1-11C320,683.8,70.4,621.2,228.8,537.7
		c0,0-274.5-296.3-100.8-456.1C285.2-63.1,449.2,18.2,524.3,70.7c28.3,19.8,62.1,29.9,96.6,29c87.8-2.4,250.4,16.3,243.8,188.4
		c-0.9,23,13.8,43.7,35.8,50.5C908.3,341.1,916,344.9,922,350.7z"/>
	<g>
		<path class="st1" d="M1132,511.2c15-3.6,43.1,36.2,72.9,22.6l9.8-31.6c0,0-40.9,5.8-56.5-3.9c-15.6-9.6-6.2-16.9,4.9-15.7
			c11.1,1.2,39.2,16.9,51,9.7c0,0,9.3-5.8-0.4-16.1c-9.7-10.3-2.6-34.1,5.1-41.8c0,0-6.3,0.6-21.3-4.9c-15-5.4-29.6-12-35.6,1.1
			c-6,13.1-6.9,32.6-15.7,32.8c-8.8,0.2-14.6-35.6,11.2-48c0,0-23.1-10.5-30.6-7.7c-7.4,2.7-14.7,16.6-8.7,37.5
			c6,20.9,2.5,32.3-4.2,32.4c-6.6,0.1-14.9-63,6.8-71.8c0,0-47.3-1-52.6,1.9c-5.3,2.9-3.6,30.6,3.8,46.7c7.4,16.2,2.2,33.2-3.4,37.2
			c-5.6,3.9-3-18.7-7.2-28.8c-4.2-10.1-2.8-55-2.8-55s-3.2,5.5-19.2,7.5c-16,2-41.2,14.8-38.3,24.4c2.9,9.7,25.4,52.7,27.3,67.9
			c1.9,15.2,0.2,27.7-5.8,21.2c-6-6.6-8.8-26.1-14.9-39.5c-6.1-13.4-26.1-46-20.5-54.5c0,0-40.2,16.2-41.1,56.9
			c0,0,11.9,18.2,30.5,26.9c18.5,8.7,25.9,13.2,25.2,20.3c-0.7,7.1-13.5,1-24.9-4.8c-11.4-5.7-38.2-18.5-40.4-27.9
			c0,0,2.3,61.3,43.7,66.9c38.9,5.3,43.4,1,43.8,0.4c-1.4,2.2-42.3,68.2,42.9,86.2c0,0-18.3-9.6-17.7-23.4
			c0.6-13.8-11.9-34.8-2.1-35.7c9.8-0.8,7.5,49.3,26.9,57.3c19.5,8.1,49.2-4.4,55.6-26.7c0,0-19.3,1.6-32.4-15.1
			c-13.1-16.7-26.3-42.8-10.2-38.2c16.1,4.7,42.1,54.2,56.2,55.4c14.1,1.2,37.7-42.7,37.7-42.7s-7.4-0.1-30.7-9.5
			c-23.3-9.4-47.8-24.9-41.6-28.2c6.2-3.3,21.4,7.9,35.5,17.4c14,9.5,35.7,13.5,41.1,6.3c5.4-7.2,16.5-33.2,16.5-33.2
			s-32.2-6.1-47-7.4C1140.1,534.8,1117,514.8,1132,511.2z M1055.3,570.1c-15.7-12.9,1.5-13.9,13.2-12
			C1077.4,559.5,1071,583,1055.3,570.1z M1085.4,545.8c-10.6-8.3-9.6-15.2-2.1-15C1100.5,531.5,1096,554.1,1085.4,545.8z
			 M1114.3,516.5c-6-4.1-7.3-7.3,0.4-10.6C1122.3,502.5,1120.3,520.6,1114.3,516.5z"/>
	</g>
	<g>
		<path class="st1" d="M125.9,319.7c-10.6-15.8,23.3-65.4-5.2-93.9L80,228.1c0,0,24.2,44.8,19.8,66.9c-4.5,22.1-16.9,14.5-20.3,1.1
			c-3.4-13.3,2.7-52.6-10.6-63c0,0-10.6-8.2-18.4,7.4c-7.8,15.6-38.3,17.6-50.5,12.1c0,0,3.4,7.1,3.5,26.7
			c0.1,19.6-1.1,39.4,16.5,40.6c17.7,1.3,40.6-6.1,44.6,4.1c4,10.1-34.9,32.2-60.2,7.7c0,0-2.2,31.2,4.2,38.6
			c6.4,7.4,25.5,9.8,47.1-6.1c21.6-15.9,36.2-16.7,39.2-9.1c3,7.6-66.4,44.3-85.9,22.9c0,0,19.1,55.1,24.7,60
			c5.6,4.9,36.9-9,52.4-24.5c15.5-15.5,37.4-16.8,44.4-12c7,4.8-20.3,11.5-30.1,20.7C90.5,431.4,38,449,38,449s7.7,1.3,17,18.9
			c9.2,17.6,34.7,41.3,44.7,33.8c9.9-7.5,50-52,66.7-60.7c16.7-8.7,32-12.1,26.9-2.4c-5,9.8-26.4,21.3-39.3,34.1
			c-12.9,12.8-41.9,49.8-54.2,47.1c0,0,36,39.5,83.4,23c0,0,15.9-21.6,18-46.8c2.1-25.2,4.1-35.6,12.6-37.8
			c8.5-2.2,6.9,15.2,5.2,30.8c-1.7,15.6-5,52.1-14.9,58.7c0,0,69.9-28.9,58.6-79.3c-10.6-47.2-17.5-50.6-18.3-50.8
			c3.1,0.7,96.9,19.6,81.2-86.6c0,0-3.2,25.2-19.4,30.4c-16.2,5.2-35.1,28.7-40.3,17.8c-5.2-10.9,53.7-29.8,54.7-55.7
			c1-26-26.2-54.9-54.7-52.8c0,0,10.1,21.6-3.5,43.9c-13.7,22.4-38.2,48.8-39.8,28.1c-1.5-20.6,44.5-71.9,39.8-88.8
			c-4.7-16.9-65.6-25.2-65.6-25.2s3.1,8.6,2.2,39.5c-0.9,30.9-8.2,65.9-14.7,60.2c-6.5-5.7-0.1-28.2,4.9-48.5
			c5-20.3,0.2-47-10.4-50.2c-10.6-3.2-45.4-4.8-45.4-4.8s6.8,39.8,11.6,57.5C149.7,300.3,136.5,335.6,125.9,319.7z M226.9,383.2
			c-8.2,23.7-16.7,4.3-19.5-10.1C205.1,362.2,235.1,359.4,226.9,383.2z M185.9,358.7c-5.1,15.8-13.5,17.7-16.4,8.9
			C162.8,347.5,191,342.9,185.9,358.7z M139.6,338c-2.2,8.8-5.3,11.5-12.4,4.1C120.1,334.7,141.8,329.2,139.6,338z"/>
	</g>
	<g>
		<linearGradient id="SVGID_2_" gradientUnits="userSpaceOnUse" x1="764.2187" y1="-124.0667" x2="962.5536" y2="-822.6448">
			<stop  offset="0" style="stop-color:#4042E2"/>
			<stop  offset="1" style="stop-color:#4F52FF"/>
		</linearGradient>
		<path class="st2" d="M882.5,363.8c-3.6-0.1-6.5-3-6.6-6.6c-0.7-36.9-12.2-219.9-173.3-258.1C523.2,56.5,441.1,239,441.1,239
			s-222-85.2-264.6,142.9C37.3,415.3,1.1,597.1,91.7,685.9c14.4,14.1,33.7,22.1,53.8,22.3l871.8,7.9c25.6,0.2,48.3-16.5,55.5-41
			C1100,583.1,1135.7,369.7,882.5,363.8z"/>
		<linearGradient id="SVGID_3_" gradientUnits="userSpaceOnUse" x1="-48.6649" y1="1460.7402" x2="495.6516" y2="665.1995">
			<stop  offset="0" style="stop-color:#4042E2"/>
			<stop  offset="1" style="stop-color:#4F52FF"/>
		</linearGradient>
		<path class="st3" d="M862.6,367.7c-3.6-0.1-6.5-3-6.5-6.6c-0.7-35.3-12.1-205-163.9-240.6C522.5,80.7,444.8,251.1,444.8,251.1
			s-209.9-79.5-250.2,133.5C64.3,415.5,29.5,582.3,112,666.1c14.5,14.7,34.2,23,54.8,23.2l820.6,7.3c25.6,0.2,48.4-16.6,55.6-41.2
			C1068.6,568.2,1099,373.3,862.6,367.7z"/>
	</g>
	<g>
		<linearGradient id="SVGID_4_" gradientUnits="userSpaceOnUse" x1="606.7822" y1="153.3261" x2="589.1524" y2="334.0309">
			<stop  offset="0" style="stop-color:#09005D"/>
			<stop  offset="1" style="stop-color:#1A0F91"/>
		</linearGradient>
		<path class="st4" d="M606.7,626.4c-0.2-2.1-2.3-3.8-5.8-5.3c3.9-2.1,6-4.4,5.8-6.7c-0.5-6.8-22-10.6-48-8.5
			c-26,2.1-46.5,9.3-46,16.1c0.2,2.1,2.3,3.8,5.8,5.3c-3.9,2.1-6,4.4-5.8,6.7c0.2,2.1,2.3,3.8,5.8,5.3c-3.9,2.1-6,4.4-5.8,6.7
			c0.2,2.1,2.3,3.8,5.8,5.3c-3.9,2.1-6,4.4-5.8,6.7c0.2,3,4.6,5.4,11.6,7c-0.1,2.2,0,4.6,0.2,7.3c1,12.5,15.1,22.3,33.7,22.3
			s34.7-13.4,34.9-25.9c0-3.1-0.1-5.8-0.4-8.2c8.9-3,14.3-6.6,14-10.1c-0.2-2.1-2.3-3.8-5.8-5.3c3.9-2.1,6-4.4,5.8-6.7
			c-0.2-2.1-2.3-3.8-5.8-5.3C604.7,631,606.8,628.7,606.7,626.4z"/>
		<g>
			<path class="st5" d="M546.7,667.6c-7.7,0-14.8-0.6-20.6-1.7c-0.3-0.1-0.6-0.4-0.5-0.7c0.1-0.3,0.4-0.6,0.7-0.5
				c9.1,1.7,21.3,2.1,34.3,1.1c10.6-0.9,20.6-2.6,28.8-5c0.3-0.1,0.7,0.1,0.8,0.4c0.1,0.3-0.1,0.7-0.4,0.8c-8.3,2.4-18.3,4.1-29,5
				C555.9,667.4,551.2,667.6,546.7,667.6z"/>
			<path class="st5" d="M546.8,655.6c-10,0-19-0.9-25.3-2.7c-0.3-0.1-0.5-0.4-0.4-0.8c0.1-0.3,0.4-0.5,0.8-0.4
				c9,2.6,23.5,3.4,38.7,2.1c15.1-1.2,29.2-4.3,37.7-8.2c0.3-0.1,0.7,0,0.8,0.3c0.1,0.3,0,0.7-0.3,0.8c-8.6,4-22.9,7.1-38.1,8.3
				C556,655.4,551.3,655.6,546.8,655.6z"/>
			<path class="st5" d="M546.7,643.7c-10.8,0-20.3-1.1-26.6-3.2c-0.3-0.1-0.5-0.5-0.4-0.8c0.1-0.3,0.5-0.5,0.8-0.4
				c8.9,2.9,23.9,3.9,40.2,2.6c15.1-1.2,29.2-4.3,37.7-8.2c0.3-0.1,0.7,0,0.8,0.3c0.1,0.3,0,0.7-0.3,0.8c-8.6,4-22.9,7.1-38.1,8.3
				C555.9,643.5,551.2,643.7,546.7,643.7z"/>
			<path class="st5" d="M546.8,631.8c-8.6,0-16.4-0.7-22.4-2c-0.3-0.1-0.5-0.4-0.5-0.7c0.1-0.3,0.4-0.5,0.7-0.5
				c9.1,2,22.2,2.6,36,1.4c15-1.2,29-4.2,37.5-8.1c0.3-0.1,0.7,0,0.8,0.3c0.1,0.3,0,0.7-0.3,0.8c-8.6,3.9-22.8,7-37.9,8.2
				C555.9,631.6,551.2,631.8,546.8,631.8z"/>
		</g>
		<linearGradient id="SVGID_5_" gradientUnits="userSpaceOnUse" x1="479.3947" y1="633.6216" x2="560.9321" y2="419.8611">
			<stop  offset="0" style="stop-color:#FE7062"/>
			<stop  offset="1" style="stop-color:#FF928E"/>
		</linearGradient>
		<path class="st6" d="M495.3,566.2c-3.2-11.2-8.5-21.6-15.7-30.7c-15.4-19.5-40.7-59.1-43.8-113.1c-4.5-78.6,65.2-118,128.8-112.6
			c63.6,5.3,126.4,52.7,119.5,125.8c-4.2,45-29.4,79.1-48.2,98.7c-11.9,12.4-20.4,27.7-25,44.3c-5.6,20.3-19,45.6-50.9,47.2
			C518.9,627.9,501.8,589.5,495.3,566.2z"/>
		<linearGradient id="SVGID_6_" gradientUnits="userSpaceOnUse" x1="583.2914" y1="506.9268" x2="592.4324" y2="797.3632">
			<stop  offset="0" style="stop-color:#E1473D"/>
			<stop  offset="1" style="stop-color:#E9605A"/>
		</linearGradient>
		<path class="st7" d="M570.6,610.2l22.3-144.8c0.5-3,1.9-5,3.3-4.5c1.4,0.5,2.1,3.4,1.6,6.3c0,0.1,0,0.2,0,0.3L572.4,611
			c-0.2,1.1-0.7,1.8-1.2,1.5C570.7,612.3,570.5,611.2,570.6,610.2z"/>
		<linearGradient id="SVGID_7_" gradientUnits="userSpaceOnUse" x1="532.9376" y1="508.5117" x2="542.0786" y2="798.9492">
			<stop  offset="0" style="stop-color:#E1473D"/>
			<stop  offset="1" style="stop-color:#E9605A"/>
		</linearGradient>
		<path class="st8" d="M547.5,611.3l-22.3-144.8c-0.5-3-1.9-5-3.3-4.5c-1.4,0.5-2.1,3.4-1.6,6.3c0,0.1,0,0.2,0,0.3l25.4,143.4
			c0.2,1.1,0.7,1.8,1.2,1.5C547.5,613.4,547.7,612.4,547.5,611.3z"/>
		<path class="st9" d="M592.7,453c-0.6-0.9-1.9-1.2-2.9-0.8l-12.4,5.8l-4.3-12.3c-0.2-0.6-0.8-1.2-1.5-1.5c-1.4-0.6-3.1-0.1-3.8,1.2
			l0,0L557.6,464l-9.5-26.5l0,0c-0.2-0.6-0.7-1.2-1.4-1.6c-1.6-0.9-3.7-0.5-4.7,0.9l-14.3,19.6c-0.6,0.8-0.4,1.9,0.5,2.5
			c0.9,0.6,2.3,0.5,3-0.3l12.5-14l11.3,25.2l0,0c0.2,0.4,0.5,0.8,1,1c1.1,0.5,2.4,0.2,3-0.8l10.9-17.5l4.1,8.8l0,0.1
			c0,0.1,0.1,0.1,0.1,0.2c0.6,0.9,1.9,1.2,2.9,0.8l14.7-6.9C592.9,455,593.3,453.9,592.7,453z"/>
		<path class="st10" d="M636.5,514.7c-0.4,0-0.8-0.1-1.1-0.4c-0.8-0.6-1-1.8-0.4-2.6c3.8-5.1,7.3-10.4,10.4-15.8
			c0.5-0.9,1.6-1.2,2.5-0.7c0.9,0.5,1.2,1.6,0.7,2.5c-3.2,5.5-6.7,10.9-10.6,16.1C637.6,514.5,637,514.7,636.5,514.7z"/>
		<path class="st10" d="M654.8,483.3c-0.2,0-0.5,0-0.7-0.2c-0.9-0.4-1.4-1.5-1-2.4c23.7-54.6,3.2-100.4,3-100.9
			c-0.4-0.9,0-2,0.9-2.4c0.9-0.4,2,0,2.4,0.9c0.2,0.5,21.4,47.8-3,103.9C656.2,482.9,655.5,483.3,654.8,483.3z"/>
	</g>
	<g>
		<linearGradient id="SVGID_8_" gradientUnits="userSpaceOnUse" x1="306.0444" y1="479.5919" x2="150.6674" y2="663.069">
			<stop  offset="0" style="stop-color:#09005D"/>
			<stop  offset="1" style="stop-color:#1A0F91"/>
		</linearGradient>
		<path class="st11" d="M83.7,491.9c0,0-30.5,16.9-33,45.5c-2.5,28.6-0.2,147.3,60.9,176.5c61.2,29.2,142.1,22.5,173.1,19.3
			c31-3.2,48.2-24.3,52-38.8c3.8-14.5,10-68.5-22.6-85.9c-32.6-17.4-66.8-44.1-101-70.1C178.9,512.3,120.3,469.9,83.7,491.9z"/>
		<linearGradient id="SVGID_9_" gradientUnits="userSpaceOnUse" x1="313.7077" y1="648.363" x2="285.0594" y2="690.2336">
			<stop  offset="0" style="stop-color:#4042E2"/>
			<stop  offset="1" style="stop-color:#4F52FF"/>
		</linearGradient>
		<path class="st12" d="M304.6,618.3c0,0-8.2,0.4-9.2,17.4c0,0,19.1,17.1,44.9,21.2c1.9,0.3-2.7-13.2-3.4-15
			C333.5,633.1,323,627.5,304.6,618.3z"/>
		<path class="st5" d="M211.9,598.4h17.4c0,0,53.3-58.9,88.3-64.8c0,0,24.3,31.1-1.3,89.1c-2.1,4.7-7.8,6.7-12.1,4
			c-1.3-0.8-2.2-1.9-2.8-3.3l2.1-49.6c0,0-45.5,39.8-53.4,47.4C242.1,628.9,201.9,624.3,211.9,598.4z"/>
		<linearGradient id="SVGID_10_" gradientUnits="userSpaceOnUse" x1="365.0127" y1="646.8812" x2="362.4417" y2="678.4678">
			<stop  offset="0" style="stop-color:#4042E2"/>
			<stop  offset="1" style="stop-color:#4F52FF"/>
		</linearGradient>
		<path class="st13" d="M379.8,722c-7.3-6.4-18.9-13.5-35.6-15.6l-5.7,3.5c0,0,3.6,5.3,10.2,11c6.1,3.5,15.4,8.3,23.2,9.3
			C379.5,731.2,380.6,726.6,379.8,722z"/>
		<path class="st14" d="M336.8,641.8c-4.5,1.5-6.5,7.8-17.8,3.6c-11-4.1-19.2-9.3-23.4-12.3c-0.1,0.8-0.2,1.7-0.2,2.6
			c0,0,20.1,19.1,45.9,23.2c1.9,0.3,3.5-1.6,2.8-3.5C342.8,652.1,340.5,647.2,336.8,641.8z"/>
		<path class="st14" d="M385.3,727.5c-1.4-1.6-3.3-3.5-5.5-5.4c0.8,4.6-0.3,9.2-7.9,8.2c-7.8-1-17.1-5.8-23.2-9.3
			c7.6,6.5,19.2,13.4,33.8,13C385.7,733.7,387.4,729.9,385.3,727.5z"/>
		<path class="st5" d="M212.5,611l81.3,0.9c0,0,46.5,38.4,54.9,97c0,0,1.4,4.3-7,5c0,0-28.1-18.3-46.4-50.8
			c-22.5-39.8-66.9-21.9-66.9-21.9c-14.6-10.5-35.3-12.7-50.8-16.2L212.5,611z"/>
		<linearGradient id="SVGID_11_" gradientUnits="userSpaceOnUse" x1="261.299" y1="559.5219" x2="222.9794" y2="605.091">
			<stop  offset="0" style="stop-color:#FF928E"/>
			<stop  offset="1" style="stop-color:#FEB3B1"/>
		</linearGradient>
		<path class="st15" d="M214.4,545.4c0,0,8.8,43.9,51.7,61.2l15.3-1.8l3.6,5.7l-35.8,1.1c0,0-30.6-12.1-46.8-45.1
			C201.8,565.5,192.9,547.1,214.4,545.4z"/>
		<linearGradient id="SVGID_12_" gradientUnits="userSpaceOnUse" x1="153.5342" y1="475.0814" x2="214.9299" y2="690.4783">
			<stop  offset="0" style="stop-color:#FE7062"/>
			<stop  offset="1" style="stop-color:#FF928E"/>
		</linearGradient>
		<path class="st16" d="M219.1,610.2c0,0-10-27.1-12.1-53.4c0,0,7.3-6.3,11.8-9c1.5-0.9,2-2.7,1.3-4.3c-3.3-6.9-23.6-34.2-25.1-34.5
			c-8.2-2.1-42-18.1-65.9,14.4c-10.2,14,2,57,48.4,101.6l9.6,1.8L219.1,610.2z"/>
		<linearGradient id="SVGID_13_" gradientUnits="userSpaceOnUse" x1="276.1154" y1="543.4422" x2="228.7355" y2="586.4147">
			<stop  offset="0" style="stop-color:#FF928E"/>
			<stop  offset="1" style="stop-color:#FEB3B1"/>
		</linearGradient>
		<path class="st17" d="M180.8,562.8c0,0,27.7,32.8,63,37.5c0,0,9.1-8.3,15.9-5.4c6.8,3,16.1,16.1,16.1,16.1h-45.4
			c0,0-42.9-1.5-64.4-27.6C167.8,574.4,172.9,569,180.8,562.8z"/>
		<linearGradient id="SVGID_14_" gradientUnits="userSpaceOnUse" x1="181.8838" y1="479.9432" x2="130.0963" y2="588.4763">
			<stop  offset="0" style="stop-color:#FF928E"/>
			<stop  offset="1" style="stop-color:#FEB3B1"/>
		</linearGradient>
		<path class="st18" d="M164.6,486.1l-6.1,20.2c-0.3,0.9,0.1,1.9,0.9,2.5c2.9,2,10.5,6,21,2.1c1.2-0.4,2-1.6,2.1-2.8l1.4-17.6
			L164.6,486.1z"/>
		<g>
			<linearGradient id="SVGID_15_" gradientUnits="userSpaceOnUse" x1="174.2424" y1="425.3884" x2="180.8535" y2="483.2358">
				<stop  offset="0" style="stop-color:#FF928E"/>
				<stop  offset="1" style="stop-color:#FEB3B1"/>
			</linearGradient>
			<path class="st19" d="M200.1,469.8c0,0-3,20.9-11,27.4c-8,6.4-23.7,1.6-29-14.2l10.5-27L200.1,469.8z"/>
			<linearGradient id="SVGID_16_" gradientUnits="userSpaceOnUse" x1="173.5879" y1="416.6886" x2="185.1496" y2="482.633">
				<stop  offset="0" style="stop-color:#09005D"/>
				<stop  offset="1" style="stop-color:#1A0F91"/>
			</linearGradient>
			<path class="st20" d="M169.4,473.4c0.6,0.2,1.3-0.2,1.3-0.8c0.3-1.9,1-5.8,2.5-8.4c0,0-0.8-2.7,6.9,1.4
				c7.7,4.1,19.3,10.2,26.1,6.6c6.6-3.5,13.4-21.3-4.2-18c-0.7,0.1-1.3-0.4-1.2-1.1c0.2-2.9-0.1-9.7-6.9-11.8
				c-6.4-2-9.9,0.9-11.3,2.6c-0.4,0.5-1.2,0.5-1.6,0c-1.9-2.5-7.1-7.8-14.7-4.4c-6.3,2.8-7.3,6.6-7.2,9.1c0,0.8-0.8,1.3-1.5,1
				c-1.9-0.9-5-1.3-8,2.4c-4.1,5.1,1.8,9.6,3.5,10.8c0.3,0.2,0.5,0.5,0.5,0.9c0,2.7,0.4,14.3,6.3,20.9c0.5,0.6,1.4,0.4,1.7-0.3
				l4.5-10.7c0.2-0.5,0.8-0.8,1.3-0.6L169.4,473.4z"/>
			<linearGradient id="SVGID_17_" gradientUnits="userSpaceOnUse" x1="159.9519" y1="427.0216" x2="166.563" y2="484.8691">
				<stop  offset="0" style="stop-color:#FF928E"/>
				<stop  offset="1" style="stop-color:#FEB3B1"/>
			</linearGradient>
			<path class="st21" d="M169.5,475.6c0,0-2.7-11.2-6.9-7.6c-4.2,3.6,1.1,11.6,5.9,13.2L169.5,475.6z"/>
		</g>
		<linearGradient id="SVGID_18_" gradientUnits="userSpaceOnUse" x1="323.579" y1="625.4576" x2="295.2979" y2="560.8151">
			<stop  offset="0" style="stop-color:#09005D"/>
			<stop  offset="1" style="stop-color:#1A0F91"/>
		</linearGradient>
		<path class="st22" d="M273.6,613.6l20.4-68c0.8-2.8,3.3-4.7,6.2-4.9l27.5-1.9c2.8-0.2,4.9,2.5,4,5.2l-22.8,64.9
			c-0.7,2.1-2.6,3.6-4.8,3.8l-27.1,3L273.6,613.6z"/>
		
			<ellipse transform="matrix(0.8961 0.4439 -0.4439 0.8961 283.7758 -77.8109)" class="st5" cx="308.1" cy="567.1" rx="3.5" ry="6.2"/>
		<linearGradient id="SVGID_19_" gradientUnits="userSpaceOnUse" x1="270.7871" y1="566.1664" x2="270.0525" y2="567.6356">
			<stop  offset="0" style="stop-color:#09005D"/>
			<stop  offset="1" style="stop-color:#1A0F91"/>
		</linearGradient>
		<path class="st23" d="M276.9,615.8c0,0-0.1,0-0.1,0l-57.8-2.9c-1.4-0.1-2.5-1.3-2.5-2.7c0.1-1.4,1.3-2.6,2.7-2.5l57.8,2.9
			c1.4,0.1,2.5,1.3,2.5,2.7C279.4,614.7,278.3,615.8,276.9,615.8z"/>
		<linearGradient id="SVGID_20_" gradientUnits="userSpaceOnUse" x1="200.6928" y1="332.1853" x2="202.8965" y2="447.8805">
			<stop  offset="0" style="stop-color:#E1473D"/>
			<stop  offset="1" style="stop-color:#E9605A"/>
		</linearGradient>
		<path class="st24" d="M207,557.5C207,557.5,207,557.5,207,557.5c-0.3,0-0.6-0.3-0.6-0.6c0-12-4.6-28-4.7-28.2
			c-0.1-0.3,0.1-0.7,0.4-0.8c0.3-0.1,0.7,0.1,0.8,0.4c0,0.2,4.7,16.3,4.7,28.6C207.6,557.2,207.4,557.5,207,557.5z"/>
		<linearGradient id="SVGID_21_" gradientUnits="userSpaceOnUse" x1="168.1236" y1="332.8057" x2="170.3273" y2="448.5007">
			<stop  offset="0" style="stop-color:#E1473D"/>
			<stop  offset="1" style="stop-color:#E9605A"/>
		</linearGradient>
		<path class="st25" d="M180.8,563.4c-0.2,0-0.4-0.1-0.5-0.2c-0.1-0.2-12.8-16.2-17.1-27.3c-0.1-0.3,0-0.7,0.3-0.8
			c0.3-0.1,0.7,0,0.8,0.3c4.3,10.9,16.8,26.8,17,27c0.2,0.3,0.2,0.7-0.1,0.9C181,563.4,180.9,563.4,180.8,563.4z"/>
		<linearGradient id="SVGID_22_" gradientUnits="userSpaceOnUse" x1="144.6208" y1="333.2534" x2="146.8244" y2="448.9486">
			<stop  offset="0" style="stop-color:#E1473D"/>
			<stop  offset="1" style="stop-color:#E9605A"/>
		</linearGradient>
		<path class="st26" d="M163,588l-0.5-0.2c-18.3-7.8-29.6-29.7-29.8-29.9c-0.2-0.3,0-0.7,0.3-0.8c0.3-0.2,0.7,0,0.8,0.3
			c0.1,0.2,11,21.3,28.7,29.2l1.8-2.6c0.2-0.3,0.6-0.3,0.9-0.1c0.3,0.2,0.3,0.6,0.1,0.9L163,588z"/>
	</g>
	<g>
		<g>
			<path class="st5" d="M343.9,261.2h-49.3l8.7-72.7l-21.9-2.7l36.1-53.1l35.9,55.2h-17.7L343.9,261.2z M298.4,257.8h41.7l-8.1-73.3
				h15.2l-29.8-45.7l-30.1,44.3l19.7,2.4L298.4,257.8z"/>
			<path class="st5" d="M394.3,245.5l-36-54.3H376l-8.1-73.3h49.3l-8.7,71.8l21.9,2.7L394.3,245.5z M364.6,194.6l29.7,44.8
				l30.1-44.3l-19.7-2.4l8.6-71.4h-41.7l8.1,73.3H364.6z"/>
		</g>
		<g>
			<g class="st27">
				<path class="st5" d="M246,231.1c-1.2,0-2.3-0.8-2.7-2c-0.4-1.5-0.8-3-1.2-4.5c-0.4-1.5,0.5-3,2-3.4c1.5-0.4,3,0.5,3.4,2
					c0.4,1.4,0.7,2.8,1.2,4.2c0.4,1.5-0.4,3.1-1.9,3.5C246.5,231.1,246.2,231.1,246,231.1z"/>
				<path class="st5" d="M242,212c-1.4,0-2.6-1.1-2.8-2.5c-0.4-3.1-0.6-6.3-0.8-9.5c-0.1-1.6,1.1-2.9,2.7-2.9
					c1.6-0.1,2.9,1.1,2.9,2.7c0.1,3,0.4,6,0.7,9c0.2,1.5-0.9,2.9-2.5,3.1C242.3,211.9,242.2,212,242,212z M241.6,187.7
					c-0.1,0-0.2,0-0.2,0c-1.6-0.1-2.7-1.5-2.6-3c0.3-3.1,0.7-6.3,1.2-9.4c0.3-1.5,1.7-2.6,3.2-2.3c1.5,0.3,2.6,1.7,2.3,3.2
					c-0.5,3-0.9,6-1.1,9C244.3,186.6,243.1,187.7,241.6,187.7z M246.2,163.8c-0.3,0-0.5,0-0.8-0.1c-1.5-0.4-2.3-2-1.9-3.5
					c0.9-3,1.9-6,3.1-9c0.6-1.5,2.2-2.2,3.6-1.6c1.5,0.6,2.2,2.2,1.6,3.6c-1.1,2.8-2.1,5.7-2.9,8.6
					C248.5,163,247.4,163.8,246.2,163.8z M255.5,141.4c-0.5,0-0.9-0.1-1.3-0.3c-1.4-0.7-1.9-2.5-1.1-3.8c1.5-2.8,3.1-5.5,4.8-8.2
					c0.8-1.3,2.6-1.7,3.9-0.8c1.3,0.8,1.7,2.6,0.8,3.9c-1.6,2.5-3.2,5.1-4.6,7.8C257.4,140.8,256.5,141.4,255.5,141.4z M269.2,121.3
					c-0.6,0-1.3-0.2-1.8-0.7c-1.2-1-1.3-2.8-0.3-4c2-2.4,4.2-4.8,6.4-7c1.1-1.1,2.9-1.1,4,0c1.1,1.1,1.1,2.9,0,4
					c-2.1,2.1-4.2,4.4-6.1,6.7C270.8,121,270,121.3,269.2,121.3z M286.7,104.5c-0.8,0-1.7-0.4-2.2-1.1c-1-1.2-0.7-3,0.5-4
					c2.5-1.9,5.1-3.8,7.7-5.6c1.3-0.9,3-0.5,3.9,0.8c0.9,1.3,0.5,3-0.8,3.9c-2.5,1.7-5,3.4-7.3,5.3
					C287.9,104.3,287.3,104.5,286.7,104.5z M307.2,91.5c-1,0-2-0.6-2.5-1.6c-0.7-1.4-0.1-3.1,1.3-3.8c2.8-1.4,5.7-2.7,8.7-3.9
					c1.4-0.6,3.1,0.1,3.7,1.6c0.6,1.4-0.1,3.1-1.6,3.7c-2.8,1.1-5.6,2.4-8.3,3.7C308,91.4,307.6,91.5,307.2,91.5z M410.2,90.6
					c-0.4,0-0.8-0.1-1.2-0.3c-2.7-1.3-5.5-2.5-8.3-3.5c-1.5-0.6-2.2-2.2-1.6-3.6c0.6-1.5,2.2-2.2,3.6-1.6c2.9,1.1,5.9,2.4,8.7,3.7
					c1.4,0.7,2,2.3,1.3,3.8C412.3,90,411.3,90.6,410.2,90.6z M329.9,83.1c-1.3,0-2.4-0.8-2.7-2.1c-0.4-1.5,0.5-3,2-3.4
					c3.1-0.8,6.2-1.5,9.3-2c1.5-0.3,3,0.8,3.3,2.3c0.3,1.5-0.8,3-2.3,3.3c-3,0.5-5.9,1.2-8.8,1.9C330.4,83,330.2,83.1,329.9,83.1z
					 M387.3,82.6c-0.2,0-0.4,0-0.7-0.1c-2.9-0.7-5.9-1.3-8.9-1.8c-1.5-0.2-2.6-1.7-2.3-3.2c0.2-1.5,1.7-2.6,3.2-2.3
					c3.1,0.5,6.2,1.1,9.3,1.8c1.5,0.4,2.4,1.9,2.1,3.4C389.7,81.7,388.6,82.6,387.3,82.6z M354,79.4c-1.5,0-2.7-1.2-2.8-2.7
					c-0.1-1.6,1.1-2.9,2.7-2.9c3.1-0.1,6.3-0.2,9.5-0.1c1.6,0,2.8,1.3,2.7,2.9c0,1.6-1.3,2.8-2.9,2.7c-3-0.1-6-0.1-9,0.1
					C354,79.4,354,79.4,354,79.4z"/>
				<path class="st5" d="M427.2,100.4c-0.6,0-1.1-0.2-1.6-0.5c-1.2-0.8-2.4-1.7-3.7-2.4c-1.3-0.8-1.7-2.6-0.9-3.9
					c0.8-1.3,2.6-1.7,3.9-0.9c1.3,0.8,2.6,1.7,3.8,2.6c1.3,0.9,1.6,2.6,0.7,3.9C429,100,428.1,100.4,427.2,100.4z"/>
			</g>
			<g class="st27">
				<path class="st5" d="M476.5,178.5c-1.4,0-2.6-1-2.8-2.4c-0.2-1.4-0.5-2.9-0.8-4.3c-0.3-1.5,0.7-3,2.2-3.3c1.5-0.3,3,0.7,3.3,2.2
					c0.3,1.5,0.6,3,0.8,4.5c0.3,1.5-0.8,3-2.3,3.2C476.9,178.5,476.7,178.5,476.5,178.5z"/>
				<path class="st5" d="M358.7,316.2C358.7,316.2,358.7,316.2,358.7,316.2c-2.5,0-5-0.1-7.4-0.3c-0.6,0-1.3-0.1-1.9-0.1
					c-1.6-0.1-2.7-1.5-2.6-3c0.1-1.5,1.5-2.7,3-2.6c0.6,0.1,1.2,0.1,1.9,0.1c2.3,0.2,4.7,0.3,7,0.3c1.6,0,2.8,1.3,2.8,2.8
					C361.5,314.9,360.2,316.2,358.7,316.2z M373.5,315.4c-1.4,0-2.6-1.1-2.8-2.5c-0.2-1.5,0.9-2.9,2.5-3.1c2.9-0.3,5.9-0.8,8.8-1.4
					c1.5-0.3,3,0.7,3.3,2.2c0.3,1.5-0.7,3-2.2,3.3c-3,0.6-6.1,1.1-9.2,1.4C373.7,315.4,373.6,315.4,373.5,315.4z M334.9,313.6
					c-0.2,0-0.4,0-0.6-0.1c-3-0.6-6.1-1.4-9.1-2.3c-1.5-0.4-2.3-2-1.9-3.5c0.4-1.5,2-2.3,3.5-1.9c2.8,0.8,5.7,1.6,8.6,2.2
					c1.5,0.3,2.5,1.8,2.2,3.3C337.4,312.7,336.2,313.6,334.9,313.6z M396.8,310.2c-1.2,0-2.3-0.8-2.7-1.9c-0.5-1.5,0.3-3.1,1.8-3.6
					c2.8-0.9,5.6-2,8.3-3.1c1.4-0.6,3.1,0.1,3.7,1.5c0.6,1.4-0.1,3.1-1.5,3.7c-2.9,1.2-5.8,2.3-8.7,3.3
					C397.4,310.2,397.1,310.2,396.8,310.2z M312.2,306.3c-0.4,0-0.8-0.1-1.1-0.2c-2.8-1.2-5.7-2.6-8.4-4.1c-1.4-0.7-1.9-2.4-1.2-3.8
					c0.7-1.4,2.4-1.9,3.8-1.2c2.6,1.4,5.3,2.7,8,3.9c1.4,0.6,2.1,2.3,1.5,3.7C314.3,305.7,313.3,306.3,312.2,306.3z M418.6,300.5
					c-1,0-1.9-0.5-2.4-1.4c-0.8-1.3-0.3-3.1,1-3.9c2.6-1.5,5.1-3.1,7.5-4.7c1.3-0.9,3-0.5,3.9,0.7c0.9,1.3,0.5,3-0.7,3.9
					c-2.6,1.7-5.2,3.4-7.9,5C419.6,300.4,419.1,300.5,418.6,300.5z M438,286.5c-0.8,0-1.6-0.3-2.1-1c-1-1.2-0.9-2.9,0.2-4
					c2.2-2,4.4-4,6.4-6.1c1.1-1.1,2.9-1.1,4-0.1c1.1,1.1,1.1,2.9,0.1,4c-2.2,2.2-4.4,4.4-6.8,6.4C439.3,286.3,438.7,286.5,438,286.5
					z M454.3,269c-0.6,0-1.2-0.2-1.7-0.6c-1.2-0.9-1.5-2.7-0.6-3.9c1.8-2.4,3.5-4.8,5.1-7.3c0.8-1.3,2.6-1.7,3.9-0.9
					c1.3,0.8,1.7,2.6,0.9,3.9c-1.7,2.6-3.5,5.2-5.3,7.7C456,268.6,455.1,269,454.3,269z M466.7,248.6c-0.4,0-0.8-0.1-1.2-0.3
					c-1.4-0.7-2-2.4-1.3-3.8c1.3-2.7,2.5-5.4,3.5-8.2c0.6-1.5,2.2-2.2,3.6-1.6c1.5,0.6,2.2,2.2,1.6,3.6c-1.1,2.9-2.3,5.8-3.7,8.6
					C468.7,248,467.7,248.6,466.7,248.6z M474.7,226.1c-0.2,0-0.4,0-0.7-0.1c-1.5-0.4-2.4-1.9-2.1-3.4c0.7-2.9,1.3-5.8,1.8-8.7
					c0.3-1.5,1.7-2.6,3.2-2.3c1.5,0.3,2.6,1.7,2.3,3.2c-0.5,3.1-1.1,6.1-1.9,9.1C477.1,225.2,475.9,226.1,474.7,226.1z M478,202.4
					c0,0-0.1,0-0.1,0c-1.6-0.1-2.8-1.4-2.7-2.9c0.1-1.5,0.1-3.1,0.1-4.7c0-1.4,0-2.8-0.1-4.2c-0.1-1.6,1.2-2.9,2.7-2.9
					c1.6-0.1,2.9,1.2,2.9,2.7c0.1,1.5,0.1,3,0.1,4.4c0,1.6,0,3.3-0.1,4.9C480.8,201.2,479.5,202.4,478,202.4z"/>
				<path class="st5" d="M291.3,294.5c-0.6,0-1.1-0.2-1.6-0.5c-1.2-0.9-2.5-1.8-3.7-2.7c-1.2-0.9-1.5-2.7-0.5-4
					c0.9-1.2,2.7-1.5,4-0.5c1.2,0.9,2.4,1.8,3.5,2.6c1.3,0.9,1.6,2.7,0.7,3.9C293.1,294.1,292.2,294.5,291.3,294.5z"/>
			</g>
		</g>
	</g>
	<g>
		<path class="st1" d="M402.5,486.3h-9.8c-1.7,0-3.1-1.4-3.1-3.1c0-1.7,1.4-3.1,3.1-3.1h9.8c1.7,0,3.1,1.4,3.1,3.1
			C405.6,485,404.2,486.3,402.5,486.3z M376.9,486.3h-9.8c-1.7,0-3.1-1.4-3.1-3.1c0-1.7,1.4-3.1,3.1-3.1h9.8c1.7,0,3.1,1.4,3.1,3.1
			C379.9,485,378.5,486.3,376.9,486.3z M351.2,486.3h-9.8c-1.7,0-3.1-1.4-3.1-3.1c0-1.7,1.4-3.1,3.1-3.1h9.8c1.7,0,3.1,1.4,3.1,3.1
			C354.2,485,352.9,486.3,351.2,486.3z M325.5,486.3h-9.8c-1.7,0-3.1-1.4-3.1-3.1c0-1.7,1.4-3.1,3.1-3.1h9.8c1.7,0,3.1,1.4,3.1,3.1
			C328.5,485,327.2,486.3,325.5,486.3z M299.8,486.3H290c-1.7,0-3.1-1.4-3.1-3.1c0-1.7,1.4-3.1,3.1-3.1h9.8c1.7,0,3.1,1.4,3.1,3.1
			C302.8,485,301.5,486.3,299.8,486.3z M274.1,486.3h-9.8c-1.7,0-3.1-1.4-3.1-3.1c0-1.7,1.4-3.1,3.1-3.1h9.8c1.7,0,3.1,1.4,3.1,3.1
			C277.1,485,275.8,486.3,274.1,486.3z"/>
	</g>
	<g>
		<path class="st1" d="M788,398.2h-9.8c-1.7,0-3.1-1.4-3.1-3.1c0-1.7,1.4-3.1,3.1-3.1h3.7c0-1.7,1.4-3.1,3.1-3.1s3.1,1.4,3.1,3.1
			V398.2z M762.3,398.2h-9.8c-1.7,0-3.1-1.4-3.1-3.1c0-1.7,1.4-3.1,3.1-3.1h9.8c1.7,0,3.1,1.4,3.1,3.1
			C765.3,396.9,764,398.2,762.3,398.2z M736.6,398.2h-9.8c-1.7,0-3.1-1.4-3.1-3.1c0-1.7,1.4-3.1,3.1-3.1h9.8c1.7,0,3.1,1.4,3.1,3.1
			C739.6,396.9,738.3,398.2,736.6,398.2z M710.9,398.2h-9.8c-1.7,0-3.1-1.4-3.1-3.1c0-1.7,1.4-3.1,3.1-3.1h9.8
			c1.7,0,3.1,1.4,3.1,3.1C713.9,396.9,712.6,398.2,710.9,398.2z M784.9,379.3c-1.7,0-3.1-1.4-3.1-3.1v-9.8c0-1.7,1.4-3.1,3.1-3.1
			s3.1,1.4,3.1,3.1v9.8C788,377.9,786.6,379.3,784.9,379.3z M784.9,353.6c-1.7,0-3.1-1.4-3.1-3.1v-9.8c0-1.7,1.4-3.1,3.1-3.1
			s3.1,1.4,3.1,3.1v9.8C788,352.2,786.6,353.6,784.9,353.6z M827.1,340.7h-3.7c-1.7,0-3.1-1.4-3.1-3.1c0-1.7,1.4-3.1,3.1-3.1h3.7
			c1.7,0,3.1,1.4,3.1,3.1C830.2,339.4,828.8,340.7,827.1,340.7z M807.5,340.7h-9.8c-1.7,0-3.1-1.4-3.1-3.1c0-1.7,1.4-3.1,3.1-3.1
			h9.8c1.7,0,3.1,1.4,3.1,3.1C810.6,339.4,809.2,340.7,807.5,340.7z"/>
	</g>
	<g>
		<path class="st1" d="M810,469.2h-9.8c-1.7,0-3.1-1.4-3.1-3.1c0-1.7,1.4-3.1,3.1-3.1h9.8c1.7,0,3.1,1.4,3.1,3.1
			C813,467.8,811.7,469.2,810,469.2z M784.3,469.2h-9.8c-1.7,0-3.1-1.4-3.1-3.1c0-1.7,1.4-3.1,3.1-3.1h9.8c1.7,0,3.1,1.4,3.1,3.1
			C787.4,467.8,786,469.2,784.3,469.2z M758.6,469.2h-9.8c-1.7,0-3.1-1.4-3.1-3.1c0-1.7,1.4-3.1,3.1-3.1h9.8c1.7,0,3.1,1.4,3.1,3.1
			C761.7,467.8,760.3,469.2,758.6,469.2z M732.9,469.2h-9.8c-1.7,0-3.1-1.4-3.1-3.1c0-1.7,1.4-3.1,3.1-3.1h9.8
			c1.7,0,3.1,1.4,3.1,3.1C736,467.8,734.6,469.2,732.9,469.2z M707.2,469.2h-9.8c-1.7,0-3.1-1.4-3.1-3.1c0-1.7,1.4-3.1,3.1-3.1h9.8
			c1.7,0,3.1,1.4,3.1,3.1C710.3,467.8,708.9,469.2,707.2,469.2z"/>
	</g>
	<g>
		<g>
			<g>
				<rect x="933.4" y="639.5" class="st5" width="8.5" height="91.9"/>
			</g>
			<g>
				<path class="st5" d="M974.9,733.2h-74.5V729c0-0.7,0.6-1.3,1.3-1.3h71.7c0.8,0,1.4,0.6,1.4,1.4V733.2z"/>
			</g>
			<path class="st5" d="M988.9,636.1c0,5.3-4.4,9.7-9.7,9.7h-80.1c-5.3,0-9.7-4.4-9.7-9.7v-8.8c0-5.3,4.4-9.7,9.7-9.7h80.1
				c5.3,0,9.7,4.4,9.7,9.7V636.1z"/>
		</g>
		<g>
			<linearGradient id="SVGID_23_" gradientUnits="userSpaceOnUse" x1="877.5397" y1="698.9722" x2="894.4349" y2="762.5127">
				<stop  offset="0" style="stop-color:#09005D"/>
				<stop  offset="1" style="stop-color:#1A0F91"/>
			</linearGradient>
			<path class="st28" d="M890.3,715.1c0,0-24.3,17.5-20.1,29.3c0,0,26.6-11.5,29.8-20.5c3.2-9-0.5-13-0.5-13L890.3,715.1z"/>
			
				<linearGradient id="SVGID_24_" gradientUnits="userSpaceOnUse" x1="-1294.323" y1="709.2209" x2="-1279.374" y2="709.2209" gradientTransform="matrix(-1 0 0 1 -396.183 0)">
				<stop  offset="0" style="stop-color:#FF928E"/>
				<stop  offset="1" style="stop-color:#FEB3B1"/>
			</linearGradient>
			<path class="st29" d="M893.9,700.4l4,11.5c0.6,1.7,0,3.7-1.5,4.7c-0.8,0.5-1.8,0.9-3.3,1.3c-2,0.5-4.2-0.5-5.1-2.3l-4.7-8.9
				L893.9,700.4z"/>
			<linearGradient id="SVGID_25_" gradientUnits="userSpaceOnUse" x1="937.6599" y1="674.6489" x2="855.7551" y2="616.6177">
				<stop  offset="0" style="stop-color:#09005D"/>
				<stop  offset="1" style="stop-color:#1A0F91"/>
			</linearGradient>
			<path class="st30" d="M932.6,597.2c0,0-49.9,8.6-71.2,28.4c-21.4,19.8,19.6,82.8,19.6,82.8s6.7,0,14.9-7c0,0-24.3-47.4-3.4-61.2
				c23.6-15.5,50.7-19,50.7-19l-10.1-22.4L932.6,597.2z"/>
			<linearGradient id="SVGID_26_" gradientUnits="userSpaceOnUse" x1="900.1277" y1="675.1321" x2="890.211" y2="717.0025">
				<stop  offset="0" style="stop-color:#09005D"/>
				<stop  offset="1" style="stop-color:#1A0F91"/>
			</linearGradient>
			<path class="st31" d="M874.5,737.9c5.3-2.5,20.5-13.1,23-13.5c2.5-0.5,7,2.5,7,2.5s1.1,1.9-0.1,5.3c-3.5,4.3-11.4,12.5-22,15.5
				c-7.8,2.2-13.2,0.2-16.6-2.3C867.6,742.6,870.9,739.5,874.5,737.9z"/>
			<linearGradient id="SVGID_27_" gradientUnits="userSpaceOnUse" x1="882.9271" y1="772.066" x2="886.2327" y2="693.8341">
				<stop  offset="0" style="stop-color:#4042E2"/>
				<stop  offset="1" style="stop-color:#4F52FF"/>
			</linearGradient>
			<path class="st32" d="M882.3,747.7c10.6-3,18.5-11.2,22-15.5c-0.8,2.3-2.6,5.2-6.4,8.7c-9.5,8.5-27.6,11.6-31.5,11
				c-3.1-0.5-2.8-3.3-0.8-6.4C869.1,747.9,874.5,749.9,882.3,747.7z"/>
			
				<linearGradient id="SVGID_28_" gradientUnits="userSpaceOnUse" x1="-1305.1328" y1="723.0164" x2="-1291.1029" y2="723.0164" gradientTransform="matrix(-1 0 0 1 -396.183 0)">
				<stop  offset="0" style="stop-color:#FF928E"/>
				<stop  offset="1" style="stop-color:#FEB3B1"/>
			</linearGradient>
			<path class="st33" d="M908.9,719.4c-0.1,1.5-3.1,6.5-4.8,9.3c-0.8,1.3-2.3,2.2-3.9,2.2c-1,0-2.2-0.1-3.2-0.4
				c-1.6-0.5-2.5-2.1-2-3.7l3.4-11.7L908.9,719.4z"/>
			
				<linearGradient id="SVGID_29_" gradientUnits="userSpaceOnUse" x1="-1338.3145" y1="727.8934" x2="-1334.8129" y2="608.8445" gradientTransform="matrix(-1 0 0 1 -396.183 0)">
				<stop  offset="0" style="stop-color:#09005D"/>
				<stop  offset="1" style="stop-color:#1A0F91"/>
			</linearGradient>
			<path class="st34" d="M980.6,582.2c0,0,11.1,29.6,0,38.6c-11.1,9-37.5,19.1-43.4,37.1c-5.9,17.9-15.9,52.8-29.3,65.1
				c0,0-9.4-0.9-12.9-4.7c0,0,7.6-52,12.7-65.4c4.4-11.6,10.8-28.2,23.1-37.6c3.5-2.7,2.9-6.9,1.3-11l-3-7.5L980.6,582.2z"/>
			<linearGradient id="SVGID_30_" gradientUnits="userSpaceOnUse" x1="916.2715" y1="475.9044" x2="900.2946" y2="516.6732">
				<stop  offset="0" style="stop-color:#E1473D"/>
				<stop  offset="1" style="stop-color:#E9605A"/>
			</linearGradient>
			<path class="st35" d="M865.1,559c18.6,1.1,12.8-28.5,12.4-29.7l28.2,19.9c0,0-1.5,15.9-24.9,24.2c-5.9,2.1-11.3,2.2-16.1,1.2
				C866.7,568.6,866.3,563.2,865.1,559z"/>
			
				<linearGradient id="SVGID_31_" gradientUnits="userSpaceOnUse" x1="-1262.2633" y1="561.2292" x2="-1213.3224" y2="561.2292" gradientTransform="matrix(-1 0 0 1 -396.183 0)">
				<stop  offset="0" style="stop-color:#FF928E"/>
				<stop  offset="1" style="stop-color:#FEB3B1"/>
			</linearGradient>
			<path class="st36" d="M829.2,550.1c6.9-4.8,14.8,0,14.8,0c9.3,6,16.1,8.6,21.1,8.9c1.2,4.2,1.6,9.6-0.4,15.5
				c-10.4-2.2-17.8-9.7-21-13.6c-1.2-1.4-3.2-1.6-4.6-0.5c-1.4,1.1-2.8,2.7-2.6,4.3c0.5,3.2-3.3,4.3-3.5,3.1
				c-0.3-1.2,1.3-8.1,1.3-8.1s-7.5,7.5-10.4,10.4c-2.9,2.9-6.6,0-6.6,0S822.3,554.9,829.2,550.1z"/>
			
				<linearGradient id="SVGID_32_" gradientUnits="userSpaceOnUse" x1="-1284.8359" y1="502.6183" x2="-1394.881" y2="582.6512" gradientTransform="matrix(-1 0 0 1 -396.183 0)">
				<stop  offset="0" style="stop-color:#FE7062"/>
				<stop  offset="1" style="stop-color:#FF928E"/>
			</linearGradient>
			<path class="st37" d="M951.6,483.5c0,0-27-10.8-77.3,30.7c0,0-4.2,8.7,0.4,16.4c4.6,7.7,48.2,45.4,54.2,66.3
				c0,0,26,8.4,52.9-11.6C981.9,585.3,979.5,527.2,951.6,483.5z"/>
			
				<linearGradient id="SVGID_33_" gradientUnits="userSpaceOnUse" x1="-1308.9602" y1="489.0016" x2="-1276.4884" y2="489.0016" gradientTransform="matrix(-1 0 0 1 -396.183 0)">
				<stop  offset="0" style="stop-color:#FF928E"/>
				<stop  offset="1" style="stop-color:#FEB3B1"/>
			</linearGradient>
			<path class="st38" d="M898.3,473.8l13.3,16.1c1.3,1.6,1.6,3.8,0.7,5.7c-1.8,3.8-6.2,9.2-15.9,8.5c-2.9-0.2-5.4-2-6.7-4.6
				l-9.3-19.2L898.3,473.8z"/>
			
				<linearGradient id="SVGID_34_" gradientUnits="userSpaceOnUse" x1="-1300.6172" y1="480.919" x2="-1410.6625" y2="560.952" gradientTransform="matrix(-1 0 0 1 -396.183 0)">
				<stop  offset="0" style="stop-color:#FE7062"/>
				<stop  offset="1" style="stop-color:#FF928E"/>
			</linearGradient>
			<path class="st39" d="M972.6,552.5c3.1-12.8-28.6-41.2-28.6-41.2l7.7-27.8c0,0,68.6,45.7,51.1,82.4c-2.5,5.3-5.8,8.9-9.7,11.4
				C987.5,562.4,978.7,555.6,972.6,552.5z"/>
			<linearGradient id="SVGID_35_" gradientUnits="userSpaceOnUse" x1="998.0414" y1="392.1671" x2="977.106" y2="464.3389">
				<stop  offset="0" style="stop-color:#E1473D"/>
				<stop  offset="1" style="stop-color:#E9605A"/>
			</linearGradient>
			<path class="st40" d="M972.6,550.6c0.3,0,0.6-0.2,0.7-0.6c3.2-13.1-27.5-40.8-28.9-42c-0.3-0.3-0.8-0.3-1.1,0.1
				c-0.3,0.3-0.3,0.8,0.1,1.1c0.3,0.3,31.4,28.3,28.4,40.5c-0.1,0.4,0.1,0.8,0.6,0.9C972.5,550.6,972.5,550.6,972.6,550.6z"/>
			<linearGradient id="SVGID_36_" gradientUnits="userSpaceOnUse" x1="964.1378" y1="447.3632" x2="957.5266" y2="487.5809">
				<stop  offset="0" style="stop-color:#FF928E"/>
				<stop  offset="1" style="stop-color:#FEB3B1"/>
			</linearGradient>
			<path class="st41" d="M924.5,551.4c0,0,37.7,14.6,46.8,3.6c0.6-0.7,1-1.6,1.3-2.5c6.2,3.1,15,9.9,20.5,24.7
				c-19.8,12.7-53.7-7-62.8-12.8c-1.5-1-3.3-1.3-5.1-0.9c-3.5,0.7-9.6,1.8-12.9,1.3c-4.8-0.7-11.7,16.2-19.5,11
				C892.8,575.8,899.4,546.3,924.5,551.4z"/>
			<g>
				
					<linearGradient id="SVGID_37_" gradientUnits="userSpaceOnUse" x1="-1034.1735" y1="-1158.5433" x2="-1074.767" y2="-1104.8416" gradientTransform="matrix(-0.9683 -0.2499 -0.2499 0.9683 -413.9339 1315.7379)">
					<stop  offset="0" style="stop-color:#FF928E"/>
					<stop  offset="1" style="stop-color:#FEB3B1"/>
				</linearGradient>
				<path class="st42" d="M869.3,450.1c-0.1,0.5,3.1,35.8,3.1,35.8l20.1-2.3l1.9-33.9C894.4,449.8,871.6,441.5,869.3,450.1z"/>
				
					<linearGradient id="SVGID_38_" gradientUnits="userSpaceOnUse" x1="-1065.1758" y1="-1145.589" x2="-1016.6866" y2="-1145.589" gradientTransform="matrix(-0.9683 -0.2499 -0.2499 0.9683 -413.9339 1315.7379)">
					<stop  offset="0" style="stop-color:#09005D"/>
					<stop  offset="1" style="stop-color:#1A0F91"/>
				</linearGradient>
				<path class="st43" d="M889.2,456.8l0.4,17.9c0,0.2,0,0.5-0.1,0.7c-0.3,1.4-1.9,6-6.5,4.1c-4.2-1.7-8-3.2-10.8-2.6
					c-1.3,0.2-2.1,1.4-2,2.7c0.3,3.2,1.1,10.4,2.7,16.6c0.3,1.2,1.6,2,2.8,1.8c3.8-0.7,11.9-2.3,18-5.2c0.8-0.4,1.4-1.2,1.5-2.1
					c0.3-4.5,1.3-18.1,2.1-21.8c0.8-3.5,5.4-5.2,7.4-5.7c0.7-0.2,1.2-0.6,1.5-1.2c1.1-2.1,2.9-7.1-3.3-9.9c-1.3-0.6-1.8-2.1-1.2-3.4
					c1.2-2.5,2.1-6.5-2.6-9.3c-4.8-2.8-8.9-0.5-11.2,1.4c-0.9,0.8-2.3,0.8-3.2,0c-0.5-0.4-1.3-0.6-2.2-0.2c-1.3,0.6-2.9-0.1-3.4-1.4
					c-0.9-2.6-3.1-5.5-8.2-5.2c-8.9,0.5-11,10.2-9.3,16.1c1.7,6,11.4,4.8,16.4,2.5c3.8-1.8,8.2,1,10.1,2.5
					C888.8,455.3,889.2,456,889.2,456.8z"/>
				
					<linearGradient id="SVGID_39_" gradientUnits="userSpaceOnUse" x1="-1093.6265" y1="-1116.0153" x2="-1061.0676" y2="-1149.4198" gradientTransform="matrix(-0.9683 -0.2499 -0.2499 0.9683 -413.9339 1315.7379)">
					<stop  offset="0" style="stop-color:#FF928E"/>
					<stop  offset="1" style="stop-color:#FEB3B1"/>
				</linearGradient>
				<path class="st44" d="M897.4,475.3c0,0-2.5-10.5,1.5-12.6c4-2.1,9.3-0.2,7.3,7C903.7,478.6,897.4,475.3,897.4,475.3z"/>
			</g>
		</g>
		<g>
			
				<linearGradient id="SVGID_40_" gradientUnits="userSpaceOnUse" x1="11312.248" y1="1265.3014" x2="11248.5918" y2="1282.7478" gradientTransform="matrix(0.9988 -4.940000e-002 4.940000e-002 0.9988 -10442.6104 -145.7154)">
				<stop  offset="0" style="stop-color:#09005D"/>
				<stop  offset="1" style="stop-color:#1A0F91"/>
			</linearGradient>
			<path class="st45" d="M905.2,580.2c-0.1,0-0.1,0-0.2,0l-79-0.1c-2,0-3.5-1.6-3.5-3.5c0-2,1.6-3.6,3.5-3.5l79,0.1
				c2,0,3.5,1.6,3.5,3.5C908.5,578.6,907,580.1,905.2,580.2z"/>
			<linearGradient id="SVGID_41_" gradientUnits="userSpaceOnUse" x1="765.7617" y1="595.085" x2="830.4042" y2="516.4856">
				<stop  offset="0" style="stop-color:#09005D"/>
				<stop  offset="1" style="stop-color:#1A0F91"/>
			</linearGradient>
			<path class="st46" d="M755,508.5h65.8c4.9,0,9.3,2.8,11.3,7.2l30.4,64.5h-81.8c-3.1,0-5.9-1.9-7.1-4.8l-23.6-59.7
				C748.7,512.2,751.2,508.5,755,508.5z"/>
			
				<ellipse transform="matrix(0.9519 -0.3064 0.3064 0.9519 -128.1198 270.1287)" class="st5" cx="796.4" cy="543.2" rx="5.2" ry="8.4"/>
		</g>
		<g>
			<g>
				<path class="st14" d="M765.6,749.7c-0.4,0-0.9-0.1-1.3-0.3c-1.7-0.7-2.5-2.6-1.7-4.2l69.6-156.7c0.7-1.6,2.7-2.4,4.4-1.7
					c1.7,0.7,2.5,2.6,1.7,4.2l-69.6,156.7C768.1,749,766.9,749.7,765.6,749.7z"/>
				<path class="st14" d="M844.1,749.7c-1.3,0-2.5-0.7-3.1-1.9L771.4,591c-0.7-1.6,0.1-3.5,1.7-4.2c1.7-0.7,3.6,0.1,4.4,1.7
					l69.6,156.7c0.7,1.6-0.1,3.5-1.7,4.2C844.9,749.6,844.5,749.7,844.1,749.7z"/>
				<path class="st14" d="M981.2,749.7c-0.4,0-0.9-0.1-1.3-0.3c-1.7-0.7-2.5-2.6-1.7-4.2l69.6-156.7c0.7-1.6,2.7-2.4,4.4-1.7
					c1.7,0.7,2.5,2.6,1.7,4.2l-69.6,156.7C983.7,749,982.4,749.7,981.2,749.7z"/>
				<path class="st14" d="M1059.6,749.7c-1.3,0-2.5-0.7-3.1-1.9L986.9,591c-0.7-1.6,0.1-3.5,1.7-4.2c1.7-0.7,3.6,0.1,4.4,1.7
					l69.6,156.7c0.7,1.6-0.1,3.5-1.7,4.2C1060.5,749.6,1060,749.7,1059.6,749.7z"/>
			</g>
			<path class="st1" d="M1067.8,583.7c0.2-1-0.1-2.1-0.7-2.9c-0.6-0.8-1.5-1.3-2.4-1.3H747.9c-1.2,0-2.4,0.7-3,1.9
				c-0.7,1.2-0.8,2.6-0.2,3.9l3.4,8.3c0.8,1.9,2.5,3.1,4.4,3.1h310.1c1.7,0,3.2-1.4,3.6-3.3L1067.8,583.7z"/>
		</g>
	</g>
	<g>
		<g>
			<g>
				<linearGradient id="SVGID_42_" gradientUnits="userSpaceOnUse" x1="559.4994" y1="158.5595" x2="775.5229" y2="158.5595">
					<stop  offset="0" style="stop-color:#09005D"/>
					<stop  offset="1" style="stop-color:#1A0F91"/>
				</linearGradient>
				<path class="st47" d="M770.5,162.1l-8.8-5.1c-2.4-1.4-3.9-3.8-4.2-6.6c-0.6-6.9-2-13.6-4.1-20.1c-0.9-2.6-0.4-5.5,1.2-7.7
					l6.1-8.1c2.6-3.4,2.7-8.1,0.3-11.7l-7.2-10.6c-2.4-3.5-6.8-5.2-10.9-4.1l-9.8,2.7c-2.7,0.7-5.5,0.1-7.6-1.7
					c-5.2-4.3-10.9-8.1-17.1-11.3c-2.5-1.2-4.2-3.6-4.6-6.3l-1.4-10.1c-0.6-4.2-3.8-7.6-8.1-8.4l-12.6-2.4
					c-4.2-0.8-8.5,1.1-10.6,4.9l-5.1,8.8c-1.4,2.4-3.8,3.9-6.6,4.2c-6.9,0.6-13.6,2-20.1,4.1c-2.6,0.9-5.5,0.4-7.7-1.2l-8.1-6.1
					c-3.4-2.6-8.1-2.7-11.7-0.3l-10.6,7.2c-3.5,2.4-5.2,6.8-4.1,10.9l2.7,9.8c0.7,2.7,0.1,5.5-1.7,7.6c-4.3,5.2-8.1,10.9-11.3,17.1
					c-1.2,2.5-3.6,4.2-6.3,4.6l-10.1,1.4c-4.2,0.6-7.6,3.8-8.4,8.1l-2.4,12.6c-0.8,4.2,1.1,8.5,4.9,10.6l8.8,5.1
					c2.4,1.4,3.9,3.8,4.2,6.6c0.6,6.9,2,13.6,4.1,20.1c0.9,2.6,0.4,5.5-1.2,7.7l-6.1,8.1c-2.6,3.4-2.7,8.1-0.3,11.7l7.2,10.6
					c2.4,3.5,6.8,5.2,10.9,4.1l9.8-2.7c2.7-0.7,5.5-0.1,7.6,1.7c5.2,4.3,10.9,8.1,17.1,11.3c2.5,1.2,4.2,3.6,4.6,6.3l1.4,10.1
					c0.6,4.2,3.8,7.6,8.1,8.4l12.6,2.4c4.2,0.8,8.5-1.1,10.6-4.9l5.1-8.8c1.4-2.4,3.8-3.9,6.6-4.2c6.9-0.6,13.6-2,20.1-4.1
					c2.6-0.9,5.5-0.4,7.7,1.2l8.1,6.1c3.4,2.6,8.1,2.7,11.7,0.3l10.6-7.2c3.5-2.4,5.2-6.8,4.1-10.9l-2.7-9.8
					c-0.7-2.7-0.1-5.5,1.7-7.6c4.4-5.2,8.1-10.9,11.3-17.1c1.2-2.5,3.6-4.2,6.3-4.6l10.1-1.4c4.2-0.6,7.6-3.8,8.4-8.1l2.4-12.6
					C776.1,168.5,774.2,164.2,770.5,162.1z M660.9,232.8c-41-3.6-71.3-39.8-67.7-80.8c3.6-41,39.8-71.3,80.8-67.7
					c41,3.6,71.3,39.8,67.7,80.8C738.1,206.1,701.9,236.4,660.9,232.8z"/>
				<g>
					<path class="st1" d="M655.3,268.4c-0.7,0-1.5-0.1-2.2-0.2l-12.6-2.4c-5-1-8.8-5-9.5-10l-1.4-10.1c-0.3-2.1-1.6-3.9-3.6-4.9
						c-6.2-3.1-12.1-7-17.4-11.5c-1.7-1.4-3.9-1.9-5.9-1.3l-9.8,2.7c-4.9,1.3-10.1-0.6-12.9-4.8l-7.2-10.6
						c-2.8-4.2-2.7-9.7,0.3-13.8l6.1-8.1c1.3-1.7,1.6-3.9,0.9-6c-2.2-6.6-3.6-13.5-4.2-20.5c-0.2-2.2-1.4-4.1-3.2-5.1l-8.8-5.1
						c-4.4-2.5-6.7-7.6-5.8-12.5l2.4-12.6c1-5,5-8.8,10-9.5l10.1-1.4c2.1-0.3,3.9-1.6,4.9-3.6c3.1-6.2,7-12.1,11.5-17.4
						c1.4-1.7,1.9-3.9,1.3-5.9l-2.7-9.8c-1.3-4.9,0.6-10.1,4.8-12.9l10.6-7.2c4.2-2.8,9.7-2.7,13.8,0.3l8.1,6.1
						c1.7,1.3,3.9,1.6,6,0.9c6.6-2.2,13.5-3.6,20.5-4.2c2.2-0.2,4.1-1.4,5.1-3.2l5.1-8.8c2.5-4.4,7.6-6.7,12.5-5.8l12.6,2.4
						c5,1,8.8,5,9.5,10l1.4,10.1c0.3,2.1,1.6,3.9,3.6,4.9c6.2,3.1,12.1,7,17.5,11.5c1.7,1.4,3.9,1.9,5.9,1.3l9.8-2.7
						c4.9-1.3,10.1,0.6,12.9,4.8l7.2,10.6c2.8,4.2,2.7,9.7-0.3,13.8l-6.1,8.1c-1.3,1.7-1.6,3.9-0.9,6c2.2,6.6,3.6,13.5,4.2,20.5
						c0.2,2.2,1.4,4.1,3.2,5.1l8.8,5.1c4.4,2.5,6.7,7.6,5.8,12.5l-2.4,12.6c-1,5-5,8.8-10,9.5l-10.1,1.4c-2.1,0.3-3.9,1.6-4.9,3.6
						c-3.1,6.2-7,12.1-11.5,17.4c-1.4,1.7-1.9,3.9-1.3,5.9l2.7,9.8c1.3,4.9-0.6,10.1-4.8,12.9l-10.6,7.2c-4.2,2.8-9.7,2.7-13.8-0.3
						l-8.1-6.1c-1.7-1.3-3.9-1.6-6-0.9c-6.6,2.2-13.5,3.6-20.5,4.2c-2.2,0.2-4.1,1.4-5.1,3.2l-5.1,8.8
						C663.4,266.2,659.5,268.4,655.3,268.4z M604.2,224.1c2.4,0,4.7,0.8,6.6,2.4c5.1,4.3,10.8,8,16.8,11c3,1.5,5.1,4.4,5.6,7.7
						l1.4,10.1c0.5,3.5,3.1,6.2,6.6,6.9l12.6,2.4c3.4,0.7,6.9-0.9,8.7-4l5.1-8.8c1.7-2.9,4.6-4.8,8-5.1c6.7-0.6,13.3-2,19.6-4.1
						c3.2-1.1,6.7-0.5,9.4,1.5l8.1,6.1c2.8,2.1,6.6,2.2,9.5,0.2l10.6-7.2c2.9-2,4.2-5.6,3.3-8.9l-2.7-9.8c-0.9-3.2-0.1-6.7,2.1-9.2
						c4.3-5.1,8-10.8,11-16.8c1.5-3,4.4-5.1,7.7-5.6l10.1-1.4c3.5-0.5,6.2-3.1,6.9-6.6l2.4-12.6c0.7-3.4-0.9-6.9-4-8.7l-8.8-5.1
						c-2.9-1.7-4.8-4.6-5.1-8c-0.6-6.7-2-13.3-4.1-19.6c-1.1-3.2-0.5-6.7,1.5-9.4l6.1-8.1c2.1-2.8,2.2-6.6,0.2-9.5l-7.2-10.6
						c-2-2.9-5.6-4.2-8.9-3.3l-9.8,2.7c-3.2,0.9-6.7,0.1-9.3-2.1c-5.1-4.3-10.8-8-16.8-11c-3-1.5-5.1-4.4-5.6-7.7l-1.4-10.1
						c-0.5-3.5-3.1-6.2-6.6-6.9l-12.6-2.4c-3.4-0.7-6.9,0.9-8.7,4l-5.1,8.8c-1.7,2.9-4.6,4.8-8,5.1c-6.7,0.6-13.3,2-19.6,4.1
						c-3.2,1.1-6.7,0.5-9.4-1.5l-8.1-6.1c-2.8-2.1-6.6-2.2-9.5-0.2l-10.6,7.2c-2.9,2-4.2,5.6-3.3,8.9l2.7,9.8
						c0.9,3.2,0.1,6.7-2.1,9.2c-4.3,5.1-8,10.8-11,16.8c-1.5,3-4.4,5.1-7.7,5.6l-10.1,1.4c-3.5,0.5-6.2,3.1-6.9,6.6l-2.4,12.6
						c-0.7,3.4,0.9,6.9,4,8.7l8.8,5.1c2.9,1.7,4.8,4.6,5.1,8c0.6,6.7,2,13.3,4.1,19.6c1.1,3.2,0.5,6.7-1.5,9.4l-6.1,8.1
						c-2.1,2.8-2.2,6.6-0.2,9.5l7.2,10.6c2,2.9,5.6,4.2,8.9,3.3l9.8-2.7C602.4,224.2,603.3,224.1,604.2,224.1z M667.6,234.9
						c-2.2,0-4.5-0.1-6.8-0.3l0,0c-41.9-3.7-73-40.9-69.3-82.8c3.7-41.9,40.8-73,82.8-69.3c20.3,1.8,38.7,11.4,51.8,27
						c13.1,15.6,19.3,35.4,17.5,55.8C740.1,204.9,706.7,234.9,667.6,234.9z M661.1,231c39.9,3.6,75.3-26.1,78.8-66
						c1.7-19.3-4.2-38.2-16.7-53.1c-12.5-14.9-30-24-49.3-25.7c-39.9-3.5-75.3,26.1-78.8,66C591.6,192.1,621.2,227.4,661.1,231
						L661.1,231z"/>
				</g>
			</g>
			<g>
				<linearGradient id="SVGID_43_" gradientUnits="userSpaceOnUse" x1="662.8849" y1="169.1736" x2="593.468" y2="303.6003">
					<stop  offset="0" style="stop-color:#FE7062"/>
					<stop  offset="1" style="stop-color:#FF928E"/>
				</linearGradient>
				<path class="st48" d="M638.3,107.2c-1.8,0.8,9.1,71.1-2.8,117.2c0,0,21.7,11.1,45.7,6.4c0,0,40.7-62.2,41.8-69.7
					c1.3-8.5-5.3-52-5.3-52S683.4,87.7,638.3,107.2z"/>
				<linearGradient id="SVGID_44_" gradientUnits="userSpaceOnUse" x1="674.1382" y1="141.8119" x2="720.4937" y2="55.7232">
					<stop  offset="0" style="stop-color:#FF928E"/>
					<stop  offset="1" style="stop-color:#FEB3B1"/>
				</linearGradient>
				<path class="st49" d="M693.1,136.8c21,0.7,22.7-17.3,21.5-29.3c-6.9-3.4-24.5-10.4-47.7-7.9
					C666.4,109.8,667.8,135.9,693.1,136.8z"/>
				<linearGradient id="SVGID_45_" gradientUnits="userSpaceOnUse" x1="673.6529" y1="141.5504" x2="720.0082" y2="55.462">
					<stop  offset="0" style="stop-color:#FF928E"/>
					<stop  offset="1" style="stop-color:#FEB3B1"/>
				</linearGradient>
				<path class="st50" d="M699.3,68.1c0,0-10.4,22.1-16.6,31.4c-1.8,2.7-1.2,6.4,1.3,8.5c2.9,2.4,7.6,4.7,14.9,4.8
					c3.1,0,5.8-2,6.6-5l6.9-25.2L699.3,68.1z"/>
				<linearGradient id="SVGID_46_" gradientUnits="userSpaceOnUse" x1="821.4651" y1="75.9376" x2="720.508" y2="157.4687">
					<stop  offset="0" style="stop-color:#FF928E"/>
					<stop  offset="1" style="stop-color:#FEB3B1"/>
				</linearGradient>
				<path class="st51" d="M717.8,109.2c0,0,30.7,56.2,86.3,10.9l6.3,10c0,0-40.7,62.8-90.8,19.2L717.8,109.2z"/>
				<linearGradient id="SVGID_47_" gradientUnits="userSpaceOnUse" x1="847.2204" y1="107.8295" x2="746.2635" y2="189.3604">
					<stop  offset="0" style="stop-color:#FF928E"/>
					<stop  offset="1" style="stop-color:#FEB3B1"/>
				</linearGradient>
				<path class="st52" d="M846.7,128.8c-0.7-2.3-2.4-4.1-4.6-5l-21.5-8.6c0,0-0.3-2.8,4.5-4.6c4.9-1.9,3.7-7.3,3.7-7.3
					s-6.6,3-16.4,7.8c-5.6,2.7-8.7,7.6-10.3,11.3l5.5,7.3c13.2,4,26.6,4.7,40.2,3.2L846.7,128.8z"/>
				<linearGradient id="SVGID_48_" gradientUnits="userSpaceOnUse" x1="591.487" y1="158.0613" x2="676.7263" y2="158.0613">
					<stop  offset="0" style="stop-color:#FF928E"/>
					<stop  offset="1" style="stop-color:#FEB3B1"/>
				</linearGradient>
				<path class="st53" d="M638.3,107.2c0,0-52.2,27-46.4,78c5.8,51,84.8,4.2,84.8,4.2l-1.9-12.3c0,0-48.4,14-56.4,2
					c-5.9-8.9,13.9-29.6,24.9-40c4-3.8,5.2-9.8,2.9-14.8L638.3,107.2z"/>
				<g>
					<path class="st1" d="M669.6,206.6l21.9-76.4c0.2-0.9,1-1.5,1.9-1.6c4-0.5,15.5-1.8,28.7-2.9c16-1.4,34.5-2.4,45.6-1.5
						c1.6,0.1,2.5,1.8,1.8,3.2c-6.3,12.8-32.2,64.6-45.2,81.6c-0.4,0.6-1.1,0.9-1.8,0.9l-50.8-0.5
						C670.3,209.5,669.2,208,669.6,206.6z"/>
					<path class="st5" d="M724.4,119.1l15.9-2.6c0.8-0.1,1.5,0.7,1.3,1.5l-1.6,4.8c-0.1,0.4-0.5,0.7-0.9,0.8l-15.3,2
						c-0.8,0.1-1.4-0.6-1.3-1.4l1-4.2C723.5,119.5,723.9,119.2,724.4,119.1z"/>
					<path class="st5" d="M712.5,132.5l1.3-6.8c0.1-0.7,0.7-1.2,1.4-1.3l32-3.3c1.1-0.1,1.9,0.9,1.7,1.9l-2,8.5
						c-0.2,0.7-0.8,1.2-1.5,1.2l-31.3,1.6C713.1,134.4,712.3,133.5,712.5,132.5z"/>
					<linearGradient id="SVGID_49_" gradientUnits="userSpaceOnUse" x1="714.7601" y1="137.7443" x2="680.6025" y2="179.6148">
						<stop  offset="0" style="stop-color:#FF928E"/>
						<stop  offset="1" style="stop-color:#FEB3B1"/>
					</linearGradient>
					<path class="st54" d="M674.9,188.2c0,0-3-12.5-1.8-17c1.2-4.4,3.6-10.2,11.6-8.9c7.9,1.3,17.3,4.6,17.3,4.6s-0.5,5.8-6.5,3.9
						l3.7,2.9c0,0-0.5,4.6-5.6,2.2l3.5,3.8c0,0-2.2,3.8-5.9,1.4C687.3,178.6,685.5,189.7,674.9,188.2z"/>
				</g>
				<g>
					
						<linearGradient id="SVGID_50_" gradientUnits="userSpaceOnUse" x1="-2244.9727" y1="-2610.9839" x2="-2245.5237" y2="-2677.0952" gradientTransform="matrix(-0.723 -0.6909 -0.6909 0.723 -4102.3994 1840.2671)">
						<stop  offset="0" style="stop-color:#FF928E"/>
						<stop  offset="1" style="stop-color:#FEB3B1"/>
					</linearGradient>
					<path class="st55" d="M735.1,49.9c0,0,4.8,11.2-0.8,28.2c-5.7,17-15,18.5-20.9,14.3c-5.9-4.2-13.5-11.7-14.5-27.1
						C698,49.8,728.4,35.8,735.1,49.9z"/>
					<linearGradient id="SVGID_51_" gradientUnits="userSpaceOnUse" x1="708.5846" y1="38.0205" x2="659.1364" y2="-44.982">
						<stop  offset="0" style="stop-color:#E1473D"/>
						<stop  offset="1" style="stop-color:#E9605A"/>
					</linearGradient>
					<path class="st56" d="M710.4,64.2c0,0,10.3-23,25.7-8.7l1.2,5.9c0,0,14.7-4.2,9.8-17.5c-4.8-13.3-22.3-22.3-38-13.7
						c-15.7,8.6-21,18.8-20.2,30.9c0.8,12.1,9.9,8,9.9,8s1.7-8.9,6-10.5c4.3-1.6,4.2,5.2,4.2,5.2L710.4,64.2z"/>
					
						<linearGradient id="SVGID_52_" gradientUnits="userSpaceOnUse" x1="-2227.5806" y1="-2611.1338" x2="-2228.1316" y2="-2677.2451" gradientTransform="matrix(-0.723 -0.6909 -0.6909 0.723 -4102.3994 1840.2671)">
						<stop  offset="0" style="stop-color:#FF928E"/>
						<stop  offset="1" style="stop-color:#FEB3B1"/>
					</linearGradient>
					<path class="st57" d="M706.9,64.5c0,0,5.3-11.8-2.1-12.2c-7.5-0.4-4.4,11.4-2.9,15.7L706.9,64.5z"/>
					<linearGradient id="SVGID_53_" gradientUnits="userSpaceOnUse" x1="663.7933" y1="64.7047" x2="614.345" y2="-18.298">
						<stop  offset="0" style="stop-color:#E1473D"/>
						<stop  offset="1" style="stop-color:#E9605A"/>
					</linearGradient>
					<path class="st58" d="M702.6,38.8c4.2-0.5,5.9-5.7,3-8.8C696.4,20,679,8.8,654.3,25.9c-27.9,19.3-43,28-49.9,26.2
						c-4.5-1.2-8.4,3.2-6.3,7.4c1.6,3.1,4.8,6.3,10.7,9.2C654.4,91.2,678,41.8,702.6,38.8z"/>
				</g>
			</g>
		</g>
		<g>
			<g>
				<linearGradient id="SVGID_54_" gradientUnits="userSpaceOnUse" x1="1084.8971" y1="111.8944" x2="857.0931" y2="350.2943">
					<stop  offset="0" style="stop-color:#09005D"/>
					<stop  offset="1" style="stop-color:#1A0F91"/>
				</linearGradient>
				<path class="st59" d="M1071.8,310.3l-8.7-10.4c-2.3-2.8-3.1-6.6-2.2-10.1c2.4-8.9,3.7-17.9,4-27c0.1-3.7,2-7,5.1-9l11.4-7.4
					c4.8-3.1,7.1-8.9,5.7-14.5l-4.1-16.5c-1.4-5.5-6.1-9.6-11.8-10.1l-13.5-1.2c-3.7-0.3-6.9-2.4-8.7-5.6
					c-4.5-7.8-9.9-15.2-16.2-21.9c-2.5-2.7-3.6-6.4-2.8-10l2.8-13.2c1.2-5.6-1.3-11.3-6.2-14.3l-14.6-8.8
					c-4.9-2.9-11.1-2.5-15.5,1.2l-10.4,8.7c-2.8,2.3-6.6,3.1-10.1,2.2c-8.9-2.4-17.9-3.7-27-4c-3.7-0.1-7-2-9-5.1l-7.4-11.4
					c-3.1-4.8-8.9-7.1-14.5-5.7l-16.5,4.1c-5.5,1.4-9.6,6.1-10.1,11.8l-1.2,13.5c-0.3,3.7-2.4,6.9-5.6,8.7
					c-7.8,4.5-15.2,9.9-21.9,16.2c-2.7,2.5-6.4,3.6-10,2.8l-13.2-2.8c-5.6-1.2-11.3,1.3-14.3,6.2l-8.8,14.6
					c-2.9,4.9-2.5,11.1,1.2,15.5l8.7,10.4c2.3,2.8,3.1,6.6,2.2,10.1c-2.4,8.9-3.7,17.9-4,27c-0.1,3.7-2,7-5.1,9l-11.4,7.4
					c-4.8,3.1-7.1,8.9-5.7,14.5l4.1,16.5c1.4,5.5,6.1,9.6,11.8,10.1l13.5,1.2c3.7,0.3,6.9,2.4,8.7,5.6c4.5,7.8,9.9,15.2,16.2,21.9
					c2.5,2.7,3.6,6.4,2.8,10l-2.8,13.2c-1.2,5.6,1.3,11.3,6.2,14.3l14.6,8.8c4.9,2.9,11.1,2.5,15.5-1.2l10.4-8.7
					c2.8-2.3,6.6-3.1,10.1-2.2c8.9,2.4,17.9,3.7,27,4c3.7,0.1,7,2,9,5.1l7.4,11.4c3.1,4.8,8.9,7.1,14.5,5.7l16.5-4.1
					c5.5-1.4,9.6-6.1,10.1-11.8l1.2-13.5c0.3-3.7,2.4-6.9,5.6-8.7c7.8-4.5,15.2-9.9,21.9-16.2c2.7-2.5,6.4-3.6,10-2.8l13.2,2.8
					c5.6,1.2,11.3-1.3,14.3-6.2l8.8-14.6C1075.9,320.9,1075.4,314.7,1071.8,310.3z M902.4,348.3c-49.5-23.4-70.8-82.5-47.4-132
					c23.4-49.5,82.5-70.8,132-47.4c49.5,23.4,70.8,82.5,47.4,132C1011.1,350.4,952,371.6,902.4,348.3z"/>
				<g>
					<path class="st1" d="M968.1,403.1c-5.1,0-9.9-2.5-12.8-6.9l-7.4-11.4c-1.6-2.5-4.5-4.1-7.6-4.2c-9.3-0.3-18.5-1.7-27.4-4.1
						c-3-0.8-6.1-0.1-8.5,1.8l-10.4,8.7c-5,4.2-12.1,4.7-17.6,1.4l-14.6-8.8c-5.6-3.3-8.4-9.9-7-16.2l2.8-13.2
						c0.6-3-0.3-6.1-2.4-8.3c-6.3-6.7-11.8-14.2-16.4-22.3c-1.5-2.7-4.3-4.4-7.3-4.7l-13.5-1.2c-6.5-0.6-11.9-5.2-13.4-11.5
						l-4.1-16.5c-1.6-6.3,1-12.9,6.5-16.4l11.4-7.4c2.5-1.6,4.1-4.5,4.2-7.6c0.3-9.2,1.7-18.5,4.1-27.4c0.8-3,0.1-6.1-1.8-8.5
						l-8.7-10.4c-4.2-5-4.7-12.1-1.4-17.6l8.8-14.6c3.3-5.6,9.9-8.4,16.2-7l13.2,2.8c3,0.6,6.1-0.3,8.3-2.4
						c6.7-6.3,14.2-11.8,22.3-16.4c2.7-1.5,4.4-4.3,4.7-7.3l1.2-13.5c0.6-6.5,5.2-11.9,11.5-13.4l16.5-4.1c6.3-1.6,12.9,1,16.4,6.5
						l7.4,11.4c1.6,2.5,4.5,4.1,7.6,4.2c9.2,0.3,18.5,1.7,27.4,4.1c3,0.8,6.1,0.1,8.5-1.8l10.4-8.7c5-4.2,12.1-4.7,17.6-1.4
						l14.6,8.8c5.6,3.3,8.4,9.9,7,16.2l-2.8,13.2c-0.6,3,0.3,6.1,2.4,8.3c6.3,6.8,11.8,14.2,16.4,22.3c1.5,2.7,4.3,4.4,7.3,4.7
						l13.5,1.2c6.5,0.6,11.9,5.2,13.4,11.5l4.1,16.5c1.6,6.3-1,12.9-6.5,16.4l-11.4,7.4c-2.5,1.6-4.1,4.5-4.2,7.6
						c-0.3,9.2-1.7,18.5-4.1,27.4c-0.8,3-0.1,6.1,1.8,8.5l8.7,10.4c4.2,5,4.7,12.1,1.4,17.6l-8.8,14.6c-3.3,5.6-9.9,8.4-16.2,7
						l-13.2-2.8c-3-0.6-6.1,0.2-8.3,2.4c-6.7,6.3-14.2,11.8-22.3,16.4c-2.7,1.5-4.4,4.3-4.7,7.3l-1.2,13.5
						c-0.6,6.5-5.2,11.9-11.5,13.4l-16.5,4.1C970.6,402.9,969.3,403.1,968.1,403.1z M910.6,372.5c1.1,0,2.3,0.1,3.4,0.5
						c8.6,2.3,17.6,3.7,26.5,4c4.3,0.1,8.2,2.4,10.5,5.9l7.4,11.4c2.7,4.1,7.7,6.1,12.5,4.9l16.5-4.1c4.8-1.2,8.3-5.3,8.7-10.2
						l1.2-13.5c0.4-4.2,2.8-8,6.5-10.1c7.8-4.5,15-9.8,21.6-15.9c3.1-2.9,7.5-4.1,11.6-3.3l13.2,2.8c4.8,1,9.8-1.1,12.3-5.3
						l8.8-14.6c2.5-4.2,2.1-9.6-1-13.4l-8.7-10.4c-2.7-3.2-3.7-7.6-2.5-11.8c2.3-8.6,3.7-17.6,4-26.5c0.1-4.3,2.4-8.2,5.9-10.5
						l11.4-7.4c4.1-2.7,6.1-7.7,4.9-12.5l-4.1-16.5c-1.2-4.8-5.3-8.3-10.2-8.7l-13.5-1.2c-4.2-0.4-8-2.8-10.1-6.5
						c-4.5-7.8-9.8-15-15.9-21.6c-2.9-3.1-4.1-7.5-3.3-11.6l2.8-13.2c1-4.8-1.1-9.8-5.3-12.3l-14.6-8.8c-4.2-2.5-9.6-2.1-13.4,1
						l-10.4,8.7c-3.2,2.7-7.6,3.7-11.8,2.5c-8.6-2.3-17.6-3.7-26.5-4c-4.3-0.1-8.2-2.4-10.5-5.9l-7.4-11.4
						c-2.7-4.1-7.7-6.1-12.5-4.9l-16.5,4.1c-4.8,1.2-8.3,5.3-8.7,10.2l-1.2,13.5c-0.4,4.2-2.8,8-6.5,10.1c-7.8,4.5-15,9.8-21.6,15.9
						c-3.1,2.9-7.5,4.1-11.6,3.3l-13.2-2.8c-4.8-1-9.8,1.1-12.3,5.3l-8.8,14.6c-2.5,4.2-2.1,9.6,1,13.4l8.7,10.4
						c2.7,3.2,3.7,7.6,2.5,11.8c-2.3,8.6-3.7,17.6-4,26.5c-0.1,4.3-2.4,8.2-5.9,10.5l-11.4,7.4c-4.1,2.7-6.1,7.7-4.9,12.5l4.1,16.5
						c1.2,4.8,5.3,8.3,10.2,8.7l13.5,1.2c4.2,0.4,8,2.8,10.1,6.5c4.5,7.8,9.8,15,15.9,21.6c2.9,3.1,4.1,7.5,3.3,11.6l-2.8,13.2
						c-1,4.8,1.1,9.8,5.3,12.3l14.6,8.8c4.2,2.5,9.6,2.1,13.4-1l10.4-8.7C904.6,373.5,907.5,372.5,910.6,372.5z M944.6,359.6
						c-14.4,0-29.1-3.1-42.9-9.7l0,0c-50.4-23.8-72-84.1-48.3-134.5c11.5-24.4,31.8-42.9,57.2-52c25.4-9.1,52.8-7.8,77.2,3.7
						c24.4,11.5,42.9,31.8,52,57.2c9.1,25.4,7.8,52.8-3.7,77.2C1018.9,338.2,982.5,359.6,944.6,359.6z M903.2,346.6
						c48.5,22.9,106.7,2,129.6-46.5c11.1-23.5,12.4-49.9,3.6-74.4c-8.8-24.5-26.6-44.1-50.1-55.2c-23.5-11.1-50-12.4-74.4-3.6
						c-24.5,8.8-44.1,26.6-55.2,50.1C833.8,265.6,854.7,323.7,903.2,346.6L903.2,346.6z"/>
				</g>
			</g>
			<g>
				<linearGradient id="SVGID_55_" gradientUnits="userSpaceOnUse" x1="915.1562" y1="258.2654" x2="1023.7609" y2="421.1722">
					<stop  offset="0" style="stop-color:#FE7062"/>
					<stop  offset="1" style="stop-color:#FF928E"/>
				</linearGradient>
				<path class="st60" d="M885.6,231c0,0,42.6-10.7,87.5-4.2c12.7,1.8,23.9,9.2,30.7,20c12.3,19.5,29.7,54.2,26,90.3l-19.3,4.8
					c0,0-13.3-42.9-28.4-60.4c0,0-17.8,40.5-16.9,62.8c0,0.6,0.1,1.2,0.1,1.8c2,21.8-85.4,4.1-85.4,4.1L885.6,231z"/>
				<linearGradient id="SVGID_56_" gradientUnits="userSpaceOnUse" x1="922.2339" y1="167.3893" x2="961.35" y2="299.6123">
					<stop  offset="0" style="stop-color:#FF928E"/>
					<stop  offset="1" style="stop-color:#FEB3B1"/>
				</linearGradient>
				<path class="st61" d="M920,194.4l1.9,30.2c0.2,2.8,2,5.2,4.5,5.9c5.9,1.7,17,3.8,27.8-0.5c2-0.8,3-3.2,2.3-5.3l-14.4-46.2
					L920,194.4z"/>
				<g>
					
						<linearGradient id="SVGID_57_" gradientUnits="userSpaceOnUse" x1="7509.0488" y1="984.5457" x2="7533.8408" y2="915.6797" gradientTransform="matrix(-1 0 0 1 8726.9658 0)">
						<stop  offset="0" style="stop-color:#FF928E"/>
						<stop  offset="1" style="stop-color:#FEB3B1"/>
					</linearGradient>
					<path class="st62" d="M915.1,150.7c0,0-9.2,21.1-9.8,32.2c-0.6,11.1-3,18.2,9.8,20.5c12.8,2.2,23.6-4.1,29.4-15.2
						c0,0,9.2-17,7.1-23.9C949.6,157.3,915.1,150.7,915.1,150.7z"/>
					
						<linearGradient id="SVGID_58_" gradientUnits="userSpaceOnUse" x1="7776.9077" y1="137.5686" x2="7824.4263" y2="198.7485" gradientTransform="matrix(-1 0 0 1 8726.9658 0)">
						<stop  offset="0" style="stop-color:#E1473D"/>
						<stop  offset="1" style="stop-color:#E9605A"/>
					</linearGradient>
					<path class="st63" d="M940.2,180.2h-1.6c0,0,6.7-13.7,0.8-16.1c-5.9-2.4-29.1-7.1-34.1-15.4c-4.8-7.9-0.5-18.2,5.9-21.1
						c0.4-0.2,0.9,0,1.1,0.4l0.5,1c0.4,0.7,1.4,0.6,1.6-0.2l0,0c0.2-0.7,1.2-0.9,1.6-0.2c1.5,2.5,5.7,6.5,16.8,8.5
						c15.8,2.9,26.2,9.3,26.5,20.2c0,0.7,0.8,1.1,1.3,0.7c1.2-0.7,3-1,5.5,1.1c4.3,3.6,2.6,13.1-6.9,20.9c-0.5,0.4-0.4,1.1,0,1.4
						c1.7,1.1,4.3,3.8-2.4,7.3c-6.8,3.6-10.8,3.2-12.4,2.9c-0.4-0.1-0.7-0.5-0.7-0.9l0.6-9.7c0-0.5-0.4-0.9-0.9-0.9H940.2z"/>
					
						<linearGradient id="SVGID_59_" gradientUnits="userSpaceOnUse" x1="7493.6548" y1="979.0014" x2="7518.4468" y2="910.1354" gradientTransform="matrix(-1 0 0 1 8726.9658 0)">
						<stop  offset="0" style="stop-color:#FF928E"/>
						<stop  offset="1" style="stop-color:#FEB3B1"/>
					</linearGradient>
					<path class="st64" d="M939.8,182.3c0,0,3.5-13.5,9.5-9.7c6,3.8-3.1,15.1-8,15.6L939.8,182.3z"/>
				</g>
				<g>
					<linearGradient id="SVGID_60_" gradientUnits="userSpaceOnUse" x1="874.4855" y1="285.3791" x2="983.0897" y2="448.2853">
						<stop  offset="0" style="stop-color:#FE7062"/>
						<stop  offset="1" style="stop-color:#FF928E"/>
					</linearGradient>
					<path class="st65" d="M885.9,317.8c-1.9-13.3,11.9-32.9,17.6-40.3c1.6-2.1,2.5-4.7,2.6-7.4c0.2-18.9-7.7-31-20.4-39.1
						c0,0-46,53.6-34.3,94.9c1.3,4.5,3.2,8.3,5.7,11.6C858.9,321.9,876.8,318.5,885.9,317.8z"/>
					<linearGradient id="SVGID_61_" gradientUnits="userSpaceOnUse" x1="867.1613" y1="130.6085" x2="878.7307" y2="200.0256">
						<stop  offset="0" style="stop-color:#E1473D"/>
						<stop  offset="1" style="stop-color:#E9605A"/>
					</linearGradient>
					<path class="st66" d="M886.8,312.6l-1.8-0.2c1.5-13.1,12.9-29.2,17.8-35.5l1.4,1.1C899.4,284.2,888.2,300,886.8,312.6z"/>
					<linearGradient id="SVGID_62_" gradientUnits="userSpaceOnUse" x1="934.4698" y1="257.6395" x2="921.2475" y2="287.3896">
						<stop  offset="0" style="stop-color:#FF928E"/>
						<stop  offset="1" style="stop-color:#FEB3B1"/>
					</linearGradient>
					<path class="st67" d="M886.3,319.6c-0.2-0.6-0.3-1.2-0.4-1.8c-9.1,0.7-27,4.1-28.9,19.7c20.5,27.2,77.2,17.4,77.2,17.4v-10.6
						C934.2,344.2,890.7,336.2,886.3,319.6z"/>
				</g>
				<linearGradient id="SVGID_63_" gradientUnits="userSpaceOnUse" x1="979.7715" y1="277.7735" x2="966.5492" y2="307.5237">
					<stop  offset="0" style="stop-color:#FF928E"/>
					<stop  offset="1" style="stop-color:#FEB3B1"/>
				</linearGradient>
				<path class="st68" d="M928.8,351.9c0,0,8.4-19.7,23.1-12.7c14.7,7,13.6,11.6,13.6,11.6L928.8,351.9z"/>
				<linearGradient id="SVGID_64_" gradientUnits="userSpaceOnUse" x1="1027.8981" y1="311.0377" x2="932.5875" y2="379.9036">
					<stop  offset="0" style="stop-color:#4042E2"/>
					<stop  offset="1" style="stop-color:#4F52FF"/>
				</linearGradient>
				<path class="st69" d="M926.9,356L926.9,356c0.1,1.5,1.4,2.6,2.9,2.6l76.3-2.7c1.2,0,2.2-0.8,2.6-2l2.2-7.1
					c0.5-1.7-0.7-3.5-2.5-3.6l-27.8-1.5c-0.3,0-0.5,0-0.8,0.1L929.1,353C927.7,353.3,926.8,354.6,926.9,356z"/>
				<linearGradient id="SVGID_65_" gradientUnits="userSpaceOnUse" x1="1008.487" y1="328.8545" x2="991.1212" y2="351.2239">
					<stop  offset="0" style="stop-color:#53D8FF"/>
					<stop  offset="1" style="stop-color:#3840F7"/>
				</linearGradient>
				<polygon class="st70" points="978,353.2 980.1,343.4 1008.7,344.8 1006.9,352.9 				"/>
				<linearGradient id="SVGID_66_" gradientUnits="userSpaceOnUse" x1="1102.124" y1="342.4774" x2="1017.2809" y2="278.0186">
					<stop  offset="0" style="stop-color:#4042E2"/>
					<stop  offset="1" style="stop-color:#4F52FF"/>
				</linearGradient>
				<path class="st71" d="M963.4,247.9c-1.6,13.2-8.9,66.9-11,82.3c-0.3,2.2,1.4,4.1,3.6,4l123.5-3.5c1.6,0,3-1.2,3.3-2.8l19.2-86.5
					c0.5-2.3-1.3-4.4-3.7-4.3l-131.7,7.7C965,244.9,963.6,246.2,963.4,247.9z"/>
				<linearGradient id="SVGID_67_" gradientUnits="userSpaceOnUse" x1="1026.4691" y1="305.3447" x2="1012.6958" y2="369.8036">
					<stop  offset="0" style="stop-color:#4042E2"/>
					<stop  offset="1" style="stop-color:#4F52FF"/>
				</linearGradient>
				<path class="st72" d="M1013,302.1l-18.3,51.8l42.4,0.9l3.5-52.4c0.2-2.5-1.9-4.5-4.3-4.3l-19.8,1.3
					C1015,299.5,1013.6,300.6,1013,302.1z"/>
				<linearGradient id="SVGID_68_" gradientUnits="userSpaceOnUse" x1="981.6385" y1="356.1918" x2="1028.4675" y2="354.539">
					<stop  offset="0" style="stop-color:#4042E2"/>
					<stop  offset="1" style="stop-color:#4F52FF"/>
				</linearGradient>
				<path class="st73" d="M977.6,354.7L977.6,354.7c-0.5,1.4,0.6,2.9,2.1,2.9h66.5c1.2,0,2.2-1,2.2-2.2v-2.9c0-1.3-1-2.3-2.3-2.2
					l-66.5,2.9C978.7,353.2,977.9,353.8,977.6,354.7z"/>
			</g>
			<path class="st1" d="M961.7,302.5l-1.2-0.2l6.1-47.9c0.4-3,2.9-5.4,6-5.6l113.8-6.9l0.1,1.2l-113.8,6.9c-2.5,0.2-4.5,2-4.8,4.5
				L961.7,302.5z"/>
			
				<rect x="958.1" y="316" transform="matrix(0.9922 0.125 -0.125 0.9922 47.6795 -117.3214)" class="st1" width="1.2" height="10.4"/>
		</g>
	</g>
	<g>
		<g>
			<path class="st5" d="M406.2,46.9c-0.6,0-1.1-0.5-1.1-1.1c-0.1-6.4-2.1-38-30-44.7c-31-7.4-45.3,24.2-45.3,24.2
				s-38.4-14.7-45.8,24.7c-24.1,5.8-30.3,37.2-14.7,52.6c2.5,2.4,5.8,3.8,9.3,3.9l150.9,1.4c4.4,0,8.4-2.9,9.6-7.1
				C443.9,84.9,450.1,48,406.2,46.9z"/>
			<path class="st14" d="M402.8,47.6c-0.6,0-1.1-0.5-1.1-1.1c-0.1-6.1-2.1-35.5-28.4-41.6c-29.4-6.9-42.8,22.6-42.8,22.6
				s-36.3-13.8-43.3,23.1c-22.6,5.3-28.6,34.2-14.3,48.7c2.5,2.5,5.9,4,9.5,4l142,1.3c4.4,0,8.4-2.9,9.6-7.1
				C438.4,82.3,443.7,48.6,402.8,47.6z"/>
		</g>
		<g>
			<path class="st5" d="M219.2,129.3c-0.4,0-0.7-0.3-0.7-0.7c-0.1-3.9-1.3-23-18.1-27c-18.7-4.4-27.3,14.6-27.3,14.6
				s-23.2-8.9-27.6,14.9c-14.5,3.5-18.3,22.5-8.9,31.8c1.5,1.5,3.5,2.3,5.6,2.3l91.1,0.8c2.7,0,5-1.7,5.8-4.3
				C242,152.2,245.7,129.9,219.2,129.3z"/>
			<path class="st14" d="M217.2,129.7c-0.4,0-0.7-0.3-0.7-0.7c-0.1-3.7-1.3-21.4-17.1-25.1c-17.7-4.2-25.8,13.6-25.8,13.6
				s-21.9-8.3-26.1,13.9c-13.6,3.2-17.3,20.7-8.6,29.4c1.5,1.5,3.6,2.4,5.7,2.4l85.7,0.8c2.7,0,5.1-1.7,5.8-4.3
				C238.7,150.6,241.9,130.3,217.2,129.7z"/>
		</g>
	</g>
	<g>
		<g>
			<path class="st1" d="M901.9,574.9l-1.9,1.6c-0.3,0.2-0.7,0.2-0.9-0.1c-0.2-0.3-0.2-0.7,0.1-0.9c0,0,0,0,0,0l0,0l1.9-1.5l0,0
				c0.3-0.2,0.6-0.2,0.9,0.1C902.2,574.3,902.2,574.7,901.9,574.9z"/>
			<path class="st1" d="M890.5,584.3l-1.9,1.5c-0.4,0.3-0.9,0.2-1.2-0.2c-0.3-0.4-0.2-0.9,0.2-1.2c0,0,0,0,0,0l0,0l2-1.4l0,0
				c0.4-0.3,0.9-0.2,1.2,0.2C891,583.5,890.9,584,890.5,584.3z"/>
			<path class="st1" d="M878.7,593l-2,1.4c-0.5,0.3-1.2,0.2-1.5-0.3c-0.3-0.5-0.2-1.2,0.3-1.5c0,0,0,0,0,0l0,0l2-1.3l0,0
				c0.5-0.3,1.1-0.2,1.4,0.3C879.3,592.1,879.1,592.7,878.7,593z"/>
			<path class="st1" d="M866.4,601.2l-2.1,1.3c-0.6,0.4-1.4,0.2-1.8-0.4c-0.4-0.6-0.2-1.4,0.4-1.8c0,0,0,0,0,0l0,0l2.1-1.2l0,0
				c0.6-0.4,1.4-0.2,1.7,0.4C867.2,600.1,867,600.8,866.4,601.2z"/>
			<path class="st1" d="M853.9,608.9l-2.1,1.2c-0.7,0.4-1.6,0.2-2-0.5c-0.4-0.7-0.2-1.6,0.5-2c0,0,0,0,0,0l0,0l2.1-1.2l0,0
				c0.7-0.4,1.5-0.1,1.9,0.5C854.8,607.6,854.5,608.5,853.9,608.9z"/>
			<path class="st1" d="M841,616.1l-2.2,1.2c-0.8,0.4-1.7,0.1-2.1-0.6c-0.4-0.8-0.1-1.7,0.6-2.1c0,0,0,0,0,0l0,0l2.2-1.1l0,0
				c0.8-0.4,1.7-0.1,2.1,0.7C842.1,614.8,841.8,615.7,841,616.1z"/>
			<path class="st1" d="M828,623l-2.2,1.1c-0.8,0.4-1.8,0.1-2.3-0.7c-0.4-0.8-0.1-1.8,0.7-2.3c0,0,0,0,0,0l0,0l2.2-1.1l0,0
				c0.8-0.4,1.8-0.1,2.2,0.8C829.2,621.6,828.8,622.6,828,623z"/>
			<path class="st1" d="M814.8,629.5l-2.2,1.1c-0.9,0.4-2,0.1-2.4-0.8c-0.4-0.9-0.1-2,0.8-2.4c0,0,0,0,0,0l0,0l2.2-1l0,0
				c0.9-0.4,2,0,2.4,0.9C816.1,628.1,815.7,629.1,814.8,629.5z"/>
			<path class="st1" d="M801.4,635.7l-2.3,1c-1,0.4-2,0-2.4-1c-0.4-1,0-2,1-2.4l0,0l0,0l2.2-0.9l0,0c1-0.4,2,0.1,2.4,1
				C802.8,634.2,802.4,635.3,801.4,635.7z"/>
			<path class="st1" d="M787.7,641.1l-2.3,0.8c-1,0.4-2.1-0.2-2.4-1.1c-0.4-1,0.2-2.1,1.1-2.4l0,0l0,0l2.3-0.8l0,0
				c1-0.4,2.1,0.2,2.4,1.1C789.1,639.7,788.6,640.7,787.7,641.1z"/>
			<path class="st1" d="M773.7,645.9l-2.3,0.7c-1,0.3-2.1-0.2-2.4-1.2c-0.3-1,0.2-2.1,1.2-2.4l0,0l0,0l2.3-0.7l0,0
				c1-0.3,2.1,0.2,2.4,1.2C775.3,644.5,774.7,645.6,773.7,645.9z"/>
			<path class="st1" d="M759.6,650.2l-2.4,0.7c-1,0.3-2.1-0.3-2.4-1.3c-0.3-1,0.3-2.1,1.3-2.4l0,0l0,0l2.3-0.7l0,0
				c1-0.3,2.1,0.3,2.4,1.3C761.2,648.8,760.6,649.9,759.6,650.2z"/>
			<path class="st1" d="M745.4,654l-2.4,0.6c-1,0.3-2.1-0.4-2.3-1.4c-0.3-1,0.4-2.1,1.4-2.3l0,0l0,0l2.4-0.6l0,0
				c1-0.3,2.1,0.4,2.3,1.4C747,652.7,746.4,653.8,745.4,654z"/>
			<path class="st1" d="M731.1,657.6l-2.4,0.6c-1,0.2-2.1-0.4-2.3-1.5c-0.2-1,0.4-2.1,1.5-2.3l0,0l0,0l2.4-0.5l0,0
				c1-0.2,2.1,0.4,2.3,1.5C732.8,656.3,732.1,657.3,731.1,657.6z"/>
			<path class="st1" d="M716.7,660.8l-2.4,0.5c-1.1,0.2-2.1-0.5-2.3-1.5c-0.2-1.1,0.5-2.1,1.5-2.3l0,0l0,0l2.4-0.5l0,0
				c1.1-0.2,2.1,0.5,2.3,1.5C718.4,659.5,717.8,660.5,716.7,660.8z"/>
			<path class="st1" d="M702.3,663.7l-2.4,0.5c-1.1,0.2-2.1-0.5-2.3-1.6c-0.2-1.1,0.5-2.1,1.6-2.3l0,0l2.4-0.5
				c1.1-0.2,2.1,0.5,2.3,1.6C704.1,662.4,703.4,663.5,702.3,663.7z"/>
			<path class="st1" d="M687.8,666.3l-2.4,0.4c-1.1,0.2-2.1-0.5-2.3-1.6c-0.2-1.1,0.5-2.1,1.6-2.3l0,0l2.4-0.4
				c1.1-0.2,2.1,0.5,2.3,1.6C689.6,665.1,688.9,666.1,687.8,666.3z"/>
			<path class="st1" d="M673.2,668.7l-2.4,0.4c-1.1,0.2-2.1-0.6-2.3-1.7c-0.2-1.1,0.6-2.1,1.7-2.3l0,0l2.4-0.4
				c1.1-0.2,2.1,0.6,2.3,1.7C675,667.5,674.3,668.5,673.2,668.7z"/>
			<path class="st1" d="M658.4,670.9l-2.4,0.3c-1.1,0.2-2.1-0.6-2.3-1.7c-0.2-1.1,0.6-2.1,1.7-2.3l0,0l2.4-0.3
				c1.1-0.2,2.1,0.6,2.3,1.7C660.2,669.7,659.5,670.7,658.4,670.9z"/>
			<path class="st1" d="M643.8,672.8l-2.4,0.3c-1.1,0.1-2.1-0.7-2.3-1.8c-0.1-1.1,0.7-2.1,1.8-2.3l0,0l2.4-0.3
				c1.1-0.1,2.1,0.7,2.3,1.8C645.7,671.7,644.9,672.7,643.8,672.8z"/>
			<path class="st1" d="M629.2,674.5l-2.4,0.3c-1.1,0.1-2.1-0.7-2.2-1.8c-0.1-1.1,0.7-2.1,1.8-2.2l0,0l2.4-0.3
				c1.1-0.1,2.1,0.7,2.2,1.8C631.1,673.4,630.3,674.4,629.2,674.5z"/>
			<path class="st1" d="M614.5,676l-2.4,0.2c-1.1,0.1-2.1-0.7-2.2-1.9c-0.1-1.1,0.7-2.1,1.9-2.2l0,0l2.4-0.2
				c1.1-0.1,2.1,0.7,2.2,1.9C616.5,674.9,615.7,675.9,614.5,676z"/>
			<path class="st1" d="M599.9,677.2l-2.4,0.2c-1.1,0.1-2.1-0.8-2.2-1.9c-0.1-1.1,0.8-2.1,1.9-2.2l0,0l2.4-0.2
				c1.1-0.1,2.1,0.8,2.2,1.9C601.9,676.1,601,677.1,599.9,677.2z"/>
			<path class="st1" d="M585.2,678.3l-2.4,0.2c-1.1,0.1-2.1-0.8-2.2-1.9c-0.1-1.1,0.8-2.1,1.9-2.2l0,0l2.4-0.1
				c1.1-0.1,2.1,0.8,2.2,1.9C587.2,677.2,586.3,678.2,585.2,678.3z"/>
			<path class="st1" d="M570.5,679.1l-2.4,0.1c-1.2,0.1-2.1-0.8-2.2-2c-0.1-1.2,0.8-2.1,2-2.2l0,0l2.4-0.1c1.2-0.1,2.1,0.8,2.2,2
				C572.5,678.1,571.7,679,570.5,679.1z"/>
			<path class="st1" d="M555.8,679.7l-2.5,0.1c-1.2,0-2.1-0.9-2.2-2c0-1.2,0.9-2.1,2-2.2l2.4-0.1c1.2,0,2.1,0.9,2.2,2
				C557.9,678.7,557,679.7,555.8,679.7L555.8,679.7z"/>
			<path class="st1" d="M541.1,680.1l-2.5,0c-1.2,0-2.1-0.9-2.1-2.1c0-1.2,0.9-2.1,2.1-2.1l2.4,0c1.2,0,2.1,0.9,2.1,2
				C543.2,679.1,542.2,680,541.1,680.1L541.1,680.1z"/>
			<path class="st1" d="M526.4,680.2l-2.5,0c-1.1,0-2.1-0.9-2.1-2.1c0-1.1,0.9-2.1,2.1-2.1l2.4,0c1.1,0,2.1,0.9,2.1,2.1
				C528.5,679.2,527.5,680.2,526.4,680.2L526.4,680.2z"/>
			<path class="st1" d="M511.7,680.1l-2.5,0c-1.1,0-2-1-2-2.1c0-1.1,1-2,2.1-2l2.4,0c1.1,0,2.1,0.9,2,2.1
				C513.7,679.2,512.8,680.1,511.7,680.1L511.7,680.1z"/>
			<path class="st1" d="M496.9,679.7l-2.5-0.1c-1.1,0-2-1-2-2.1c0-1.1,1-2,2.1-2l2.4,0.1c1.1,0,2,1,2,2.1
				C499,678.9,498.1,679.8,496.9,679.7L496.9,679.7z"/>
			<path class="st1" d="M482.2,679.1l-2.5-0.1c-1.1-0.1-2-1-1.9-2.1c0.1-1.1,1-2,2.1-1.9l2.4,0.1c1.1,0.1,2,1,1.9,2.1
				C484.3,678.3,483.4,679.2,482.2,679.1L482.2,679.1z"/>
			<path class="st1" d="M467.5,678.3l-2.4-0.2c-1.1-0.1-2-1-1.9-2.2c0.1-1.1,1-2,2.2-1.9h0l2.4,0.2l0,0c1.1,0.1,2,1,1.9,2.2
				C469.6,677.5,468.7,678.4,467.5,678.3L467.5,678.3z"/>
			<path class="st1" d="M452.9,677.2l-2.4-0.2c-1.1-0.1-1.9-1.1-1.8-2.2c0.1-1.1,1.1-1.9,2.2-1.8l0,0l2.4,0.2l0,0
				c1.1,0.1,1.9,1.1,1.8,2.2C454.9,676.4,454,677.3,452.9,677.2L452.9,677.2z"/>
			<path class="st1" d="M438.2,675.7l-2.4-0.3c-1.1-0.1-1.9-1.1-1.8-2.2c0.1-1.1,1.1-1.9,2.2-1.8l0,0l2.4,0.3l0,0
				c1.1,0.1,1.9,1.1,1.8,2.2C440.3,675.1,439.3,675.9,438.2,675.7L438.2,675.7z"/>
			<path class="st1" d="M423.6,674l-2.4-0.3c-1.1-0.1-1.8-1.1-1.7-2.2c0.1-1.1,1.1-1.8,2.2-1.7l0,0l2.4,0.3l0,0
				c1.1,0.1,1.8,1.1,1.7,2.2C425.7,673.4,424.7,674.1,423.6,674L423.6,674z"/>
			<path class="st1" d="M409,671.9l-2.4-0.4c-1.1-0.2-1.8-1.2-1.6-2.2c0.2-1.1,1.2-1.8,2.2-1.6l0,0l2.4,0.4l0,0
				c1.1,0.2,1.8,1.2,1.6,2.2C411.1,671.4,410.1,672.1,409,671.9L409,671.9z"/>
			<path class="st1" d="M394.5,669.5l-2.4-0.4c-1.1-0.2-1.8-1.2-1.6-2.3c0.2-1.1,1.2-1.8,2.3-1.6l0,0l2.4,0.4l0,0
				c1.1,0.2,1.8,1.2,1.6,2.3C396.6,669,395.5,669.7,394.5,669.5L394.5,669.5z"/>
			<path class="st1" d="M380,666.7l-2.4-0.5c-1-0.2-1.7-1.3-1.5-2.3c0.2-1,1.3-1.7,2.3-1.5l0,0l2.4,0.5l0,0c1,0.2,1.7,1.2,1.5,2.3
				C382.1,666.2,381.1,666.9,380,666.7L380,666.7z"/>
			<path class="st1" d="M365.6,663.4l-2.4-0.6c-1-0.3-1.7-1.3-1.4-2.3c0.3-1,1.3-1.7,2.3-1.4l0,0l2.4,0.6l0,0c1,0.3,1.7,1.3,1.4,2.3
				C367.7,663,366.7,663.7,365.6,663.4L365.6,663.4z"/>
			<path class="st1" d="M351.4,659.7l-2.4-0.7c-1-0.3-1.6-1.3-1.3-2.4c0.3-1,1.3-1.6,2.4-1.3l0,0l2.3,0.7l0,0c1,0.3,1.6,1.3,1.3,2.4
				C353.4,659.4,352.4,660,351.4,659.7L351.4,659.7z"/>
			<path class="st1" d="M337.2,655.5l-2.3-0.8c-1-0.3-1.5-1.4-1.2-2.4c0.3-1,1.4-1.5,2.4-1.2l0,0l2.3,0.7l0,0c1,0.3,1.5,1.4,1.2,2.4
				C339.3,655.3,338.2,655.8,337.2,655.5L337.2,655.5z"/>
			<path class="st1" d="M323.3,650.7l-2.3-0.9c-1-0.4-1.5-1.4-1.1-2.4c0.4-1,1.4-1.5,2.4-1.1l0,0l2.3,0.8l0,0c1,0.4,1.5,1.4,1.1,2.4
				C325.3,650.6,324.2,651.1,323.3,650.7L323.3,650.7z"/>
			<path class="st1" d="M309.5,645.3l-2.3-1c-0.9-0.4-1.4-1.5-1-2.5c0.4-0.9,1.5-1.4,2.5-1l0,0l2.2,1l0,0c1,0.4,1.4,1.5,1,2.5
				C311.6,645.2,310.5,645.7,309.5,645.3L309.5,645.3z"/>
			<path class="st1" d="M296.1,639.1l-2.2-1.1c-0.9-0.5-1.3-1.5-0.8-2.4c0.4-0.9,1.5-1.3,2.4-0.8l0,0l2.2,1.1l0,0
				c0.9,0.4,1.3,1.5,0.8,2.5C298.1,639.2,297,639.5,296.1,639.1L296.1,639.1z"/>
			<path class="st1" d="M283,632.1l-2.1-1.2c-0.8-0.5-1.1-1.6-0.6-2.4c0.5-0.8,1.6-1.1,2.4-0.6l0,0l2.1,1.2l0,0
				c0.9,0.5,1.1,1.6,0.7,2.4C285,632.3,283.9,632.6,283,632.1L283,632.1z"/>
			<path class="st1" d="M270.5,624.2l-2-1.4c-0.8-0.5-1-1.6-0.4-2.4c0.5-0.8,1.6-1,2.4-0.4l0,0l2,1.4l0,0c0.8,0.5,1,1.6,0.5,2.4
				C272.4,624.6,271.3,624.8,270.5,624.2L270.5,624.2z"/>
			<path class="st1" d="M258.6,615.4l-1.9-1.6c-0.7-0.6-0.8-1.7-0.2-2.4c0.6-0.7,1.7-0.8,2.4-0.2l0,0l1.9,1.5l0,0
				c0.7,0.6,0.8,1.7,0.2,2.4C260.4,615.9,259.3,616,258.6,615.4L258.6,615.4z"/>
			<path class="st1" d="M247.6,605.5l-1.7-1.8c-0.6-0.7-0.6-1.7,0-2.3c0.7-0.6,1.7-0.6,2.3,0l0,0l1.7,1.7l0,0c0.6,0.7,0.6,1.7,0,2.4
				C249.3,606.1,248.2,606.1,247.6,605.5L247.6,605.5z"/>
			<path class="st1" d="M237.7,594.4l-1.5-2c-0.6-0.7-0.4-1.7,0.3-2.3c0.7-0.5,1.7-0.4,2.3,0.3l0,0l1.5,1.9l0,0
				c0.6,0.7,0.4,1.7-0.3,2.3C239.2,595.2,238.2,595.1,237.7,594.4L237.7,594.4z"/>
			<path class="st1" d="M229.1,582.2l-1.3-2.1c-0.4-0.7-0.2-1.7,0.6-2.2c0.7-0.4,1.7-0.2,2.2,0.5l0,0l1.2,2.1l0,0
				c0.5,0.8,0.2,1.7-0.5,2.2C230.5,583.2,229.6,583,229.1,582.2L229.1,582.2z"/>
			<path class="st1" d="M222.2,569l-1-2.3c-0.3-0.8,0-1.7,0.8-2c0.8-0.3,1.7,0,2,0.8l0,0l1,2.2l0,0c0.3,0.8,0,1.7-0.8,2
				C223.5,570.2,222.6,569.8,222.2,569L222.2,569z"/>
			<path class="st1" d="M217.2,555l-0.7-2.4c-0.2-0.8,0.3-1.6,1.1-1.8c0.8-0.2,1.6,0.3,1.8,1l0,0l0.6,2.3l0,0c0.2,0.8-0.2,1.6-1,1.9
				C218.3,556.3,217.4,555.8,217.2,555L217.2,555z"/>
			<path class="st1" d="M214.1,540.5l-0.3-2.5c-0.1-0.8,0.5-1.5,1.2-1.6c0.8-0.1,1.5,0.4,1.6,1.2l0,0l0.3,2.4l0,0
				c0.1,0.8-0.4,1.5-1.2,1.7C215,541.8,214.2,541.3,214.1,540.5L214.1,540.5z"/>
			<path class="st1" d="M212.9,525.7l0-2.5c0-0.8,0.6-1.4,1.4-1.4c0.8,0,1.4,0.6,1.4,1.4l0,0l0,2.4l0,0c0,0.8-0.6,1.4-1.4,1.4
				C213.5,527.1,212.9,526.5,212.9,525.7L212.9,525.7z"/>
			<path class="st1" d="M213.3,510.9l0.2-2.5c0.1-0.8,0.7-1.3,1.5-1.2c0.8,0.1,1.3,0.7,1.2,1.5l0,0l-0.2,2.4l0,0
				c-0.1,0.8-0.7,1.3-1.5,1.3C213.8,512.3,213.3,511.6,213.3,510.9L213.3,510.9z"/>
			<path class="st1" d="M215.3,496.2l0.5-2.4c0.1-0.7,0.8-1.2,1.5-1c0.7,0.1,1.2,0.8,1,1.5l0,0l-0.4,2.4l0,0
				c-0.1,0.7-0.8,1.2-1.5,1.1C215.6,497.6,215.1,496.9,215.3,496.2L215.3,496.2z"/>
			<path class="st1" d="M218.5,481.8l0.6-2.4c0.2-0.7,0.9-1,1.5-0.9c0.7,0.2,1,0.9,0.9,1.5l0,0l-0.6,2.4l0,0
				c-0.2,0.7-0.9,1.1-1.5,0.9C218.7,483.1,218.3,482.4,218.5,481.8L218.5,481.8z"/>
			<path class="st1" d="M222.8,467.6l0.8-2.3c0.2-0.6,0.9-0.9,1.5-0.7c0.6,0.2,0.9,0.9,0.7,1.5l0,0l-0.8,2.3l0,0
				c-0.2,0.6-0.9,0.9-1.5,0.7C222.9,468.9,222.6,468.3,222.8,467.6L222.8,467.6z"/>
			<path class="st1" d="M228,453.8l0.9-2.3c0.2-0.6,0.9-0.8,1.4-0.6c0.6,0.2,0.8,0.9,0.6,1.4l0,0l-0.9,2.3l0,0
				c-0.2,0.6-0.9,0.8-1.4,0.6C228,455,227.8,454.4,228,453.8L228,453.8z"/>
			<path class="st1" d="M233.9,440.3l1.1-2.2c0.2-0.5,0.9-0.7,1.4-0.5c0.5,0.2,0.7,0.8,0.5,1.3l0,0l-1,2.2l0,0
				c-0.2,0.5-0.9,0.7-1.4,0.5C233.9,441.5,233.7,440.9,233.9,440.3L233.9,440.3z"/>
			<path class="st1" d="M240.5,427.2l1.2-2.2c0.2-0.5,0.8-0.6,1.3-0.4c0.5,0.2,0.6,0.8,0.4,1.3l0,0l-1.1,2.2l0,0
				c-0.2,0.5-0.8,0.7-1.3,0.4C240.4,428.2,240.3,427.6,240.5,427.2L240.5,427.2z"/>
			<path class="st1" d="M247.6,414.3l1.2-2.1c0.2-0.4,0.8-0.6,1.2-0.3c0.4,0.2,0.6,0.8,0.3,1.2l-1.2,2.1c-0.2,0.4-0.8,0.6-1.2,0.3
				C247.5,415.3,247.4,414.7,247.6,414.3L247.6,414.3z"/>
			<path class="st1" d="M255.2,401.7l1.3-2.1c0.2-0.4,0.7-0.5,1.1-0.3c0.4,0.2,0.5,0.7,0.3,1.1l-1.3,2.1c-0.2,0.4-0.7,0.5-1.1,0.3
				C255.1,402.6,255,402.1,255.2,401.7L255.2,401.7z"/>
			<path class="st1" d="M263.2,389.3l1.4-2c0.2-0.3,0.7-0.4,1-0.2c0.3,0.2,0.4,0.7,0.2,1l-1.3,2c-0.2,0.3-0.7,0.4-1,0.2
				C263,390.1,262.9,389.7,263.2,389.3L263.2,389.3z"/>
			<path class="st1" d="M271.5,377.2l1.4-2c0.2-0.3,0.6-0.4,0.9-0.2c0.3,0.2,0.4,0.6,0.2,0.9l-1.4,2c-0.2,0.3-0.6,0.4-0.9,0.2
				C271.4,377.9,271.3,377.5,271.5,377.2L271.5,377.2z"/>
		</g>
		<g>
			<polygon class="st5" points="276.6,349.9 283.2,365.1 290.7,354 			"/>
			<path class="st14" d="M341,311.2l-25.2,54c-0.5,1-1.4,1.8-2.4,2.2c-1.1,0.4-2.3,0.3-3.3-0.2l-53.3-27.3c-0.6-0.3-1-1-0.9-1.6
				c0.1-0.7,0.5-1.3,1.2-1.5L341,311.2z"/>
			<polygon class="st5" points="276.6,349.9 341,311.2 285.2,354.3 286.8,358.6 			"/>
			<polygon class="st5" points="290.3,356.9 283.2,365.1 285.2,354.3 			"/>
		</g>
	</g>
	<g>
		<g>
			<path class="st1" d="M393.6,558.3l-2.3-6.9l0,0c-0.2-0.6,0.1-1.2,0.7-1.3c0.6-0.2,1.2,0.1,1.3,0.7l0,0l2.3,7
				c0.2,0.5-0.1,1.1-0.7,1.3C394.4,559.2,393.8,558.9,393.6,558.3L393.6,558.3z"/>
			<path class="st1" d="M386.3,537.6l-2.5-6.9c-0.2-0.6,0.1-1.2,0.7-1.4c0.6-0.2,1.2,0.1,1.4,0.7l0,0l0,0l2.5,6.9
				c0.2,0.6-0.1,1.2-0.6,1.4C387.1,538.5,386.5,538.2,386.3,537.6z"/>
			<path class="st1" d="M379,516.8l-2.2-7c-0.2-0.6,0.1-1.2,0.7-1.4c0.6-0.2,1.2,0.1,1.4,0.7l0,0l0,0l2.2,7l0,0
				c0.2,0.6-0.1,1.2-0.7,1.4C379.8,517.7,379.1,517.4,379,516.8z"/>
			<path class="st1" d="M372.8,495.6l-1.7-7.2c-0.1-0.6,0.2-1.2,0.9-1.4c0.6-0.1,1.2,0.2,1.4,0.9l0,0l0,0l1.7,7.1l0,0
				c0.1,0.6-0.2,1.2-0.9,1.4C373.5,496.6,372.9,496.2,372.8,495.6z"/>
			<path class="st1" d="M368.2,474l-1.1-7.3c-0.1-0.7,0.3-1.3,1-1.4c0.7-0.1,1.3,0.3,1.4,1l0,0l0,0l1.1,7.2l0,0
				c0.1,0.6-0.3,1.2-1,1.3C368.9,475.1,368.3,474.6,368.2,474z"/>
			<path class="st1" d="M365.4,452l-0.5-7.4c0-0.7,0.5-1.3,1.1-1.3c0.7,0,1.3,0.5,1.3,1.1l0,0l0,0l0.5,7.3l0,0
				c0,0.7-0.5,1.2-1.1,1.3C366,453.2,365.5,452.7,365.4,452z"/>
			<path class="st1" d="M364.5,429.9l0.1-7.4c0-0.7,0.6-1.2,1.3-1.2c0.7,0,1.2,0.6,1.2,1.3l0,0l0,0l-0.1,7.3l0,0
				c0,0.7-0.6,1.2-1.3,1.2C365.1,431.2,364.5,430.6,364.5,429.9z"/>
			<path class="st1" d="M365.5,407.8l0.7-7.3c0.1-0.7,0.7-1.2,1.4-1.2c0.7,0.1,1.2,0.7,1.2,1.4l0,0l0,0L368,408l0,0
				c-0.1,0.7-0.7,1.2-1.4,1.1C365.9,409.2,365.4,408.5,365.5,407.8z"/>
			<path class="st1" d="M368.1,385.9l1.2-7.3c0.1-0.7,0.8-1.2,1.5-1.1c0.7,0.1,1.2,0.8,1.1,1.5l0,0l0,0l-1.2,7.2l0,0
				c-0.1,0.7-0.8,1.2-1.5,1.1C368.5,387.3,368,386.6,368.1,385.9z"/>
			<path class="st1" d="M372.3,364.2l1.7-7.1c0.2-0.7,0.9-1.2,1.6-1c0.7,0.2,1.2,0.9,1,1.6l0,0l0,0l-1.7,7.1l0,0
				c-0.2,0.7-0.9,1.2-1.6,1C372.6,365.6,372.1,364.9,372.3,364.2z"/>
			<path class="st1" d="M377.9,342.8l2.3-7c0.2-0.7,1-1.1,1.8-0.9c0.7,0.2,1.1,1,0.9,1.8l0,0l0,0l-2.3,6.9l0,0
				c-0.2,0.7-1,1.1-1.7,0.9C378.1,344.3,377.7,343.5,377.9,342.8z"/>
			<path class="st1" d="M385.3,321.9l2.8-6.8c0.3-0.7,1.1-1.1,1.9-0.8c0.7,0.3,1.1,1.1,0.8,1.9l0,0l0,0l-2.8,6.7l0,0
				c-0.3,0.7-1.1,1.1-1.8,0.8C385.3,323.5,385,322.7,385.3,321.9z"/>
			<path class="st1" d="M394.2,301.7l3.3-6.6c0.4-0.7,1.2-1,2-0.6c0.7,0.4,1,1.2,0.6,2l0,0l0,0l-3.3,6.5l0,0c-0.4,0.7-1.2,1-1.9,0.6
				C394.2,303.3,393.9,302.4,394.2,301.7z"/>
			<path class="st1" d="M404.8,282.2l3.8-6.3c0.4-0.7,1.3-0.9,2-0.5c0.7,0.4,0.9,1.3,0.5,2l0,0l0,0l-3.8,6.2l0,0
				c-0.4,0.7-1.3,0.9-2,0.5C404.6,283.8,404.4,282.9,404.8,282.2z"/>
			<path class="st1" d="M416.8,263.7l4.3-6c0.5-0.7,1.4-0.8,2.1-0.3c0.7,0.5,0.8,1.4,0.3,2.1l0,0l0,0l-4.3,5.9l0,0
				c-0.5,0.7-1.4,0.8-2.1,0.3C416.5,265.3,416.3,264.3,416.8,263.7z"/>
			<path class="st1" d="M430.2,246l4.7-5.7c0.5-0.6,1.5-0.7,2.2-0.2c0.6,0.5,0.7,1.5,0.2,2.2l0,0l0,0l-4.7,5.6l0,0
				c-0.5,0.6-1.5,0.7-2.2,0.2C429.7,247.6,429.6,246.7,430.2,246z"/>
			<path class="st1" d="M444.8,229.4l5.1-5.3c0.6-0.6,1.6-0.6,2.2,0c0.6,0.6,0.6,1.6,0,2.2l0,0l0,0l-5.1,5.3l0,0
				c-0.6,0.6-1.6,0.6-2.2,0C444.2,231,444.2,230,444.8,229.4z"/>
			<path class="st1" d="M460.5,213.8l5.5-4.9c0.6-0.6,1.6-0.5,2.2,0.1c0.6,0.6,0.5,1.6-0.1,2.2l0,0l0,0l-5.4,4.9l0,0
				c-0.6,0.6-1.6,0.5-2.2-0.1C459.8,215.4,459.9,214.4,460.5,213.8z"/>
			<path class="st1" d="M477.2,199.3l5.8-4.6c0.7-0.5,1.6-0.4,2.2,0.3c0.5,0.7,0.4,1.6-0.3,2.2l0,0l0,0l-5.7,4.5l0,0
				c-0.7,0.5-1.6,0.4-2.2-0.3C476.4,200.8,476.5,199.9,477.2,199.3z"/>
			<path class="st1" d="M494.8,186l6.1-4.2c0.7-0.5,1.7-0.3,2.2,0.4c0.5,0.7,0.3,1.7-0.4,2.2l0,0l0,0l-6,4.2l0,0
				c-0.7,0.5-1.7,0.3-2.2-0.4C493.9,187.4,494.1,186.5,494.8,186z"/>
			<path class="st1" d="M513.2,173.7l6.3-3.8c0.7-0.4,1.7-0.2,2.2,0.5c0.4,0.7,0.2,1.7-0.5,2.2l0,0l0,0l-6.2,3.8l0,0
				c-0.7,0.4-1.7,0.2-2.2-0.5C512.3,175.1,512.5,174.2,513.2,173.7z"/>
			<path class="st1" d="M532.4,162.6l6.5-3.4c0.8-0.4,1.7-0.1,2.1,0.7c0.4,0.8,0.1,1.7-0.7,2.1l0,0l0,0l-6.5,3.4l0,0
				c-0.8,0.4-1.7,0.1-2.1-0.7C531.3,164,531.6,163,532.4,162.6z"/>
			<path class="st1" d="M552.1,152.7l6.7-3c0.8-0.4,1.7,0,2.1,0.8c0.4,0.8,0,1.7-0.8,2.1l0,0l0,0l-6.7,3l0,0c-0.8,0.4-1.7,0-2.1-0.8
				C551,154,551.3,153,552.1,152.7z"/>
			<path class="st1" d="M572.4,143.9l6.9-2.6c0.8-0.3,1.7,0.1,2.1,0.9c0.3,0.8-0.1,1.7-0.9,2.1l0,0l0,0l-6.8,2.6l0,0
				c-0.8,0.3-1.7-0.1-2.1-0.9C571.2,145.2,571.6,144.2,572.4,143.9z"/>
			<path class="st1" d="M593.2,136.4l7-2.2c0.8-0.3,1.7,0.2,2,1c0.3,0.8-0.2,1.7-1,2l0,0l0,0l-7,2.2l0,0c-0.8,0.3-1.7-0.2-2-1
				C591.9,137.6,592.4,136.7,593.2,136.4z"/>
			<path class="st1" d="M614.4,130.1l7.2-1.8c0.9-0.2,1.7,0.3,1.9,1.2c0.2,0.9-0.3,1.7-1.2,1.9l0,0l0,0l-7.1,1.8l0,0
				c-0.9,0.2-1.7-0.3-1.9-1.2C613.1,131.2,613.6,130.3,614.4,130.1z"/>
			<path class="st1" d="M636,125.2l7.3-1.4c0.9-0.2,1.7,0.4,1.9,1.3c0.2,0.9-0.4,1.7-1.3,1.9l0,0l0,0l-7.2,1.3l0,0
				c-0.9,0.2-1.7-0.4-1.9-1.3C634.6,126.2,635.1,125.3,636,125.2z"/>
			<path class="st1" d="M657.8,121.6l7.3-0.9c0.9-0.1,1.7,0.5,1.8,1.4c0.1,0.9-0.5,1.7-1.4,1.8h0l0,0l-7.3,0.9l0,0
				c-0.9,0.1-1.7-0.5-1.8-1.4C656.3,122.5,656.9,121.7,657.8,121.6z"/>
			<path class="st1" d="M679.9,119.4l7.4-0.4c0.9,0,1.7,0.6,1.7,1.5c0,0.9-0.6,1.7-1.5,1.7h0l0,0l-7.3,0.4l0,0
				c-0.9,0-1.7-0.6-1.7-1.5C678.3,120.3,679,119.5,679.9,119.4z"/>
			<path class="st1" d="M702,118.9l7.4,0.2c0.9,0,1.6,0.8,1.6,1.7c0,0.9-0.8,1.6-1.7,1.6h0l0,0l-7.3-0.2l0,0c-0.9,0-1.6-0.8-1.6-1.7
				C700.3,119.6,701.1,118.8,702,118.9z"/>
			<path class="st1" d="M724.1,120c2.5,0.2,4.9,0.5,7.3,0.8c0.9,0.1,1.5,0.9,1.4,1.8c-0.1,0.9-0.9,1.5-1.8,1.4l0,0
				c-2.4-0.3-4.8-0.5-7.3-0.8l0,0c-0.9-0.1-1.6-0.9-1.5-1.8C722.4,120.5,723.2,119.9,724.1,120z"/>
			<path class="st1" d="M746.1,122.7l7.3,1.3c0.9,0.2,1.5,1,1.3,1.9c-0.2,0.9-1,1.5-1.9,1.3l0,0l0,0l-7.2-1.2l0,0
				c-0.9-0.2-1.5-1-1.3-1.9C744.3,123.2,745.2,122.6,746.1,122.7z"/>
			<path class="st1" d="M767.8,127l7.2,1.8c0.9,0.2,1.4,1.1,1.2,2c-0.2,0.9-1.1,1.4-2,1.2l0,0l0,0l-7.1-1.8l0,0
				c-0.9-0.2-1.4-1.1-1.2-2C766,127.3,766.9,126.8,767.8,127z"/>
			<path class="st1" d="M789.2,132.8l7,2.3c0.9,0.3,1.4,1.2,1.1,2.1c-0.3,0.9-1.2,1.4-2.1,1.1l0,0l0,0l-6.9-2.3l0,0
				c-0.9-0.3-1.3-1.2-1.1-2.1C787.3,133,788.3,132.5,789.2,132.8z"/>
			<path class="st1" d="M810,140.2l6.8,2.8c0.9,0.3,1.3,1.3,0.9,2.2c-0.3,0.9-1.3,1.3-2.2,0.9l0,0l0,0l-6.8-2.8l0,0
				c-0.9-0.3-1.3-1.3-0.9-2.2C808.2,140.2,809.2,139.8,810,140.2z"/>
			<path class="st1" d="M830.3,149l6.6,3.3c0.8,0.4,1.2,1.4,0.8,2.2c-0.4,0.8-1.4,1.2-2.2,0.8l0,0l0,0l-6.5-3.2l0,0
				c-0.8-0.4-1.2-1.4-0.8-2.2C828.5,149,829.5,148.6,830.3,149z"/>
			<path class="st1" d="M849.9,159.3l6.4,3.7c0.8,0.5,1.1,1.5,0.6,2.3c-0.5,0.8-1.5,1.1-2.3,0.6l0,0l0,0l-6.3-3.7l0,0
				c-0.8-0.5-1.1-1.5-0.6-2.3C848.1,159.1,849.1,158.8,849.9,159.3z"/>
			<path class="st1" d="M868.8,170.9l6.1,4.1c0.8,0.5,1,1.6,0.5,2.3s-1.6,1-2.3,0.5l0,0l0,0l-6.1-4.1l0,0c-0.8-0.5-1-1.6-0.5-2.3
				C867,170.6,868,170.4,868.8,170.9z"/>
			<path class="st1" d="M886.9,183.6l5.9,4.5c0.7,0.6,0.9,1.6,0.3,2.4c-0.6,0.7-1.6,0.9-2.4,0.3l0,0l0,0l-5.8-4.4l0,0
				c-0.7-0.6-0.9-1.6-0.3-2.4C885.1,183.2,886.1,183.1,886.9,183.6z"/>
			<path class="st1" d="M904.2,197.4l5.6,4.8c0.7,0.6,0.8,1.7,0.2,2.4c-0.6,0.7-1.7,0.8-2.4,0.2l0,0l0,0L902,200l0,0
				c-0.7-0.6-0.8-1.7-0.2-2.4C902.4,196.9,903.5,196.8,904.2,197.4z"/>
			<path class="st1" d="M920.8,212l5.4,5c0.7,0.6,0.7,1.7,0.1,2.4c-0.6,0.7-1.7,0.7-2.4,0.1l0,0l0,0l-5.3-5l0,0
				c-0.7-0.6-0.7-1.7-0.1-2.4C919,211.4,920.1,211.4,920.8,212z"/>
			<path class="st1" d="M936.6,227.4l5.2,5.3c0.7,0.7,0.7,1.8,0,2.4c-0.7,0.7-1.8,0.7-2.4,0l0,0l0,0l-5.1-5.2l0,0
				c-0.7-0.7-0.7-1.8,0-2.4C934.9,226.7,936,226.7,936.6,227.4z"/>
			<path class="st1" d="M951.9,243.3l5,5.4c0.6,0.7,0.6,1.8-0.1,2.4c-0.7,0.6-1.8,0.6-2.4-0.1l0,0l0,0l-4.9-5.4l0,0
				c-0.6-0.7-0.6-1.8,0.1-2.4C950.2,242.6,951.3,242.6,951.9,243.3z"/>
			<path class="st1" d="M966.7,259.7l4.8,5.5c0.6,0.7,0.6,1.8-0.2,2.4c-0.7,0.6-1.8,0.6-2.4-0.2l0,0l0,0l-4.8-5.5l0,0
				c-0.6-0.7-0.6-1.8,0.2-2.4C965,258.9,966.1,259,966.7,259.7z"/>
			<path class="st1" d="M981.1,276.5l4.7,5.6c0.6,0.7,0.5,1.8-0.2,2.5c-0.7,0.6-1.8,0.5-2.5-0.2l0,0l0,0l-4.7-5.6l0,0
				c-0.6-0.7-0.5-1.8,0.2-2.5C979.4,275.6,980.5,275.7,981.1,276.5z"/>
			<path class="st1" d="M995.2,293.4l4.7,5.7c0.6,0.7,0.5,1.8-0.2,2.5c-0.7,0.6-1.8,0.5-2.5-0.2l0,0l-4.7-5.7
				c-0.6-0.7-0.5-1.8,0.2-2.5C993.5,292.5,994.6,292.6,995.2,293.4z"/>
			<path class="st1" d="M1009.2,310.4l4.7,5.7c0.6,0.7,0.5,1.9-0.2,2.5c-0.7,0.6-1.9,0.5-2.5-0.2l0,0l-4.7-5.7
				c-0.6-0.7-0.5-1.9,0.2-2.5C1007.5,309.5,1008.6,309.6,1009.2,310.4z"/>
			<path class="st1" d="M1023.3,327.3l4.7,5.6l0,0c0.6,0.7,0.5,1.9-0.2,2.5c-0.7,0.6-1.9,0.5-2.5-0.2l0,0l-4.7-5.6
				c-0.6-0.7-0.5-1.9,0.2-2.5C1021.5,326.5,1022.6,326.6,1023.3,327.3L1023.3,327.3z"/>
			<path class="st1" d="M1037.6,344l4.9,5.5l0,0c0.7,0.7,0.6,1.8-0.1,2.5c-0.7,0.7-1.8,0.6-2.5-0.1l0,0l-4.9-5.5
				c-0.6-0.7-0.6-1.8,0.1-2.5C1035.8,343.2,1036.9,343.2,1037.6,344L1037.6,344z"/>
			<path class="st1" d="M1052.4,360.2l5.1,5.2l0,0c0.7,0.7,0.7,1.8,0,2.5c-0.7,0.7-1.8,0.7-2.5,0l0,0l-5.1-5.3
				c-0.7-0.7-0.7-1.8,0-2.5C1050.6,359.4,1051.7,359.5,1052.4,360.2L1052.4,360.2z"/>
			<path class="st1" d="M1068,375.5l5.4,4.8l0,0c0.7,0.7,0.8,1.8,0.1,2.5c-0.7,0.7-1.8,0.8-2.5,0.1l0,0l-5.5-4.9
				c-0.7-0.7-0.8-1.8-0.1-2.5C1066.1,374.9,1067.3,374.8,1068,375.5L1068,375.5z"/>
			<path class="st1" d="M1084.8,389.5l5.9,4.2l0.1,0c0.8,0.6,1,1.7,0.4,2.5c-0.6,0.8-1.7,1-2.5,0.4l0,0l-6-4.3
				c-0.8-0.6-1-1.7-0.4-2.5C1082.8,389.1,1083.9,388.9,1084.8,389.5L1084.8,389.5z"/>
			<path class="st1" d="M1103.1,401.3c2.1,1.1,4.3,2.2,6.5,3.3c0.9,0.4,1.3,1.5,0.9,2.4s-1.5,1.3-2.4,0.9l0,0
				c-2.3-1.1-4.5-2.2-6.7-3.4c-0.9-0.5-1.2-1.6-0.7-2.4C1101.1,401.2,1102.2,400.8,1103.1,401.3z"/>
			<path class="st1" d="M1123,409.8c2.3,0.7,4.6,1.3,7,1.9c1,0.2,1.6,1.2,1.4,2.2c-0.2,1-1.2,1.6-2.2,1.4l0,0
				c-2.4-0.6-4.8-1.2-7.2-1.9c-1-0.3-1.5-1.3-1.2-2.3C1121,410,1122,409.5,1123,409.8z"/>
			<path class="st1" d="M1144.2,413.7c2.4,0.2,4.8,0.2,7.2,0.2c1,0,1.8,0.8,1.8,1.8c0,1-0.8,1.8-1.8,1.8h0c-2.5,0-5,0-7.5-0.2
				c-1-0.1-1.8-0.9-1.7-1.9C1142.3,414.4,1143.2,413.6,1144.2,413.7z"/>
			<path class="st1" d="M1165.1,411.2c2.2-0.9,4.3-1.9,6.3-3.1c0.9-0.5,2-0.2,2.5,0.6c0.5,0.9,0.2,2-0.6,2.5l0,0
				c-2.2,1.3-4.5,2.4-6.9,3.3c-0.9,0.4-2-0.1-2.4-1C1163.7,412.6,1164.1,411.6,1165.1,411.2z"/>
			<path class="st1" d="M1182.4,399.3c1.6-1.7,3.2-3.5,4.6-5.4c0.6-0.8,1.8-1,2.6-0.4c0.8,0.6,1,1.8,0.4,2.6l0,0
				c-1.5,2-3.1,3.9-4.9,5.8c-0.7,0.7-1.9,0.8-2.6,0.1C1181.7,401.2,1181.7,400,1182.4,399.3z"/>
			<path class="st1" d="M1194.2,381.5c1-2.2,1.8-4.4,2.5-6.7c0.3-1,1.3-1.5,2.3-1.2c1,0.3,1.5,1.3,1.2,2.3c-0.8,2.4-1.7,4.8-2.7,7
				c-0.4,0.9-1.5,1.3-2.4,0.9C1194.2,383.6,1193.8,382.5,1194.2,381.5L1194.2,381.5z"/>
			<path class="st1" d="M1199.5,361c0.1-2.4,0.1-4.8,0.1-7.2c0-1,0.7-1.8,1.7-1.8c1,0,1.8,0.7,1.8,1.7c0.1,2.5,0.1,5,0,7.5
				c-0.1,1-0.9,1.7-1.9,1.7C1200.2,362.8,1199.4,361.9,1199.5,361L1199.5,361z"/>
			<path class="st1" d="M1198.2,339.3l-1.1-7.2l0-0.1c-0.1-0.9,0.5-1.8,1.4-1.9c0.9-0.1,1.8,0.5,1.9,1.4l1.2,7.3
				c0.2,0.9-0.5,1.8-1.4,2C1199.2,341,1198.4,340.3,1198.2,339.3L1198.2,339.3L1198.2,339.3z"/>
			<path class="st1" d="M1194.2,317.9l-1.7-7.1l0,0c-0.2-0.8,0.3-1.6,1.1-1.8c0.8-0.2,1.6,0.3,1.8,1.1l1.9,7.1
				c0.2,0.8-0.3,1.7-1.1,1.9C1195.3,319.3,1194.4,318.8,1194.2,317.9C1194.2,317.9,1194.2,317.9,1194.2,317.9L1194.2,317.9z"/>
			<path class="st1" d="M1188.6,296.7l-2.2-7l0,0c-0.2-0.7,0.2-1.4,0.8-1.6c0.7-0.2,1.4,0.1,1.6,0.8l2.4,7c0.2,0.7-0.1,1.5-0.8,1.7
				C1189.6,297.8,1188.8,297.4,1188.6,296.7C1188.6,296.7,1188.6,296.7,1188.6,296.7L1188.6,296.7z"/>
			<path class="st1" d="M1181.3,276c-0.9-2.3-1.9-4.5-2.9-6.7c-0.2-0.5,0-1,0.5-1.2c0.5-0.2,1,0,1.2,0.4c1.1,2.2,2.2,4.4,3.2,6.7
				c0.2,0.5,0,1.2-0.5,1.4C1182.2,276.8,1181.6,276.6,1181.3,276C1181.4,276,1181.3,276,1181.3,276z"/>
		</g>
		<g>
			<polygon class="st5" points="1171.5,224.9 1159.2,243.4 1152,227.1 			"/>
			<path class="st14" d="M1095.7,159.1l20.6,76.8c0.4,1.5,1.4,2.7,2.7,3.5c1.3,0.7,2.9,0.9,4.4,0.4l76.4-23.6c0.9-0.3,1.5-1,1.6-2
				s-0.4-1.8-1.2-2.2L1095.7,159.1z"/>
			<polygon class="st5" points="1171.4,224.9 1095.7,159.1 1159.1,228.8 1155.9,234 			"/>
			<polygon class="st5" points="1151.8,231 1159.2,243.4 1159.1,228.8 			"/>
		</g>
	</g>
</g>
</svg>
