<?xml version="1.0" standalone="no"?>
<!DOCTYPE svg PUBLIC "-//W3C//DTD SVG 20010904//EN"
 "http://www.w3.org/TR/2001/REC-SVG-20010904/DTD/svg10.dtd">
<svg version="1.0" xmlns="http://www.w3.org/2000/svg"
 width="743.000000pt" height="743.000000pt" viewBox="0 0 743.000000 743.000000"
 preserveAspectRatio="xMidYMid meet">
<metadata>
Created by potrace 1.14, written by Peter Selinger 2001-2017
</metadata>
<g transform="translate(0.000000,743.000000) scale(0.100000,-0.100000)"
fill="#000000" stroke="none">
<path d="M3469 7206 c-2 -2 -47 -6 -99 -10 -52 -3 -104 -8 -115 -10 -11 -2
-42 -7 -70 -10 -85 -12 -119 -17 -135 -21 -8 -2 -36 -7 -62 -10 -85 -11 -490
-117 -553 -144 -11 -5 -81 -32 -155 -61 -593 -228 -1098 -597 -1537 -1122 -87
-105 -259 -364 -339 -512 -66 -121 -197 -413 -209 -464 -3 -9 -18 -57 -35
-107 -31 -90 -94 -336 -106 -409 -3 -21 -8 -48 -10 -60 -2 -11 -7 -41 -10 -66
-3 -25 -7 -56 -10 -70 -13 -82 -19 -202 -19 -410 0 -233 9 -383 29 -495 2 -11
7 -36 10 -55 3 -19 8 -46 10 -60 37 -209 132 -522 218 -715 46 -104 184 -366
239 -453 65 -105 223 -324 282 -390 18 -20 52 -59 76 -87 74 -83 280 -283 381
-367 293 -245 659 -462 1015 -603 104 -41 269 -99 315 -110 8 -2 40 -11 70
-20 138 -41 392 -93 531 -110 24 -3 53 -7 65 -9 105 -20 645 -28 819 -12 303
28 669 105 905 191 25 9 70 24 100 34 117 40 397 168 525 241 22 13 60 34 85
48 224 124 547 377 758 592 125 126 346 393 381 458 6 11 17 27 23 34 7 8 18
23 25 33 206 333 305 540 407 850 28 88 91 344 101 415 4 24 8 47 10 50 2 3 6
37 10 75 4 39 9 72 10 75 8 14 19 230 19 375 0 143 -9 340 -18 391 -2 10 -7
46 -11 79 -18 154 -87 442 -148 620 -95 275 -245 572 -415 820 -51 74 -134
185 -157 211 -5 6 -26 30 -45 54 -106 133 -343 365 -500 490 -472 377 -1036
642 -1615 759 -55 11 -118 23 -140 26 -22 3 -62 10 -90 15 -27 5 -79 12 -115
15 -36 4 -78 9 -95 12 -36 6 -600 15 -606 9z"/>
</g>
</svg>
