<?xml version="1.0" encoding="utf-8"?>
<!-- Generator: Adobe Illustrator 19.0.0, SVG Export Plug-In . SVG Version: 6.00 Build 0)  -->
<svg version="1.1" id="Layer_1" xmlns="http://www.w3.org/2000/svg" xmlns:xlink="http://www.w3.org/1999/xlink" x="0px" y="0px"
	 viewBox="-192.6 347.8 131.7 98.6" style="enable-background:new -192.6 347.8 131.7 98.6;" xml:space="preserve">
<style type="text/css">
	.st0{fill:#A5BDCE;}
	.st1{fill:#1976D2;}
</style>
<g id="_Bgvc8q4SD8TszRVqpOMgZ" transform="matrix(1, 0, 0, 1, 0, 2.0138187408447266)">
	<path id="_XxxyBKtKLlbxr7oAnxCsM" class="st0" d="M-66.1,396.2c1.3-3.1,2-6.4,2-9.7c0-8.7-4.7-16.7-12.2-21.1
		c-6-3.4-13.3-4.2-19.7-2.1c-8-10.9-20.8-17.5-34.4-17.5c-7.5,0-14.9,2-21.4,5.8c-4.4,2.5-8.2,5.8-11.4,9.6
		c-4.8,0.3-9.5,1.7-13.8,4.2c-9.6,5.6-15.6,16-15.6,27.1s6,21.5,15.6,27.1c1.8,1.1,3.8,1.9,5.9,2.6c2.1,6.7,5.9,12.8,11.1,17.7
		c1.8,1.8,4.8,1.7,6.6-0.1c1.8-1.9,1.7-4.8-0.1-6.6c-4.5-4.4-7.7-9.9-9.2-15.9c-0.4-1.7-1.8-3-3.5-3.4c-2.2-0.5-4.3-1.3-6.1-2.4
		c-6.8-3.9-11-11.2-11-19s4.2-15.1,11-19c3.4-1.9,7.2-3,10.8-3c0.1,0,0.4,0,0.5,0c1.6,0.1,2.9-0.7,3.8-1.9c2.7-3.7,6.1-6.7,10.1-9
		c5.1-2.9,10.9-4.5,16.7-4.5c11.9,0,22.6,6.1,28.7,16.3c1.3,2.1,4,2.9,6.2,1.7c4.5-2.4,10.2-2.3,14.6,0.3c4.7,2.7,7.6,7.7,7.6,13.1
		c0,2.7-0.7,5.4-2.1,7.7c-1,1.7-0.9,3.8,0.4,5.3c3.1,3.9,4.8,8.6,4.8,13.6c0,7.8-4.2,15.1-11,19c-3.4,1.9-7.2,3-11,3
		c-0.9,0-1.9-0.1-2.9-0.2c-2.5-0.3-4.9,1.4-5.2,4c-0.4,2.5,1.4,4.9,4,5.2c1.4,0.2,2.8,0.3,4.2,0.3c5.5,0,10.9-1.5,15.6-4.2
		c9.6-5.6,15.6-16,15.6-27.1C-61.1,407-62.9,401.2-66.1,396.2z"/>
	<path id="_9hw6AzK_ddSf8zx2f9_Qt" class="st1" d="M-123.2,400.6c-0.2-0.2-0.5-0.4-0.7-0.6c-0.1-0.1-0.2-0.1-0.3-0.2
		c-0.2-0.1-0.3-0.2-0.5-0.2c-0.1-0.1-0.3-0.1-0.5-0.1c-0.1,0-0.3-0.1-0.4-0.1c-0.3-0.1-0.6-0.1-0.9-0.1l0,0l0,0
		c-0.3,0-0.6,0-0.9,0.1c-0.1,0-0.3,0.1-0.4,0.1c-0.2,0-0.3,0.1-0.5,0.2c-0.1,0.1-0.3,0.1-0.4,0.2c-0.1,0.1-0.3,0.1-0.4,0.2
		c-0.3,0.2-0.5,0.4-0.7,0.6l-17.3,17.3c-1.8,1.8-1.8,4.8,0,6.6c0.9,0.9,2.1,1.4,3.3,1.4c1.2,0,2.4-0.5,3.3-1.4l9.4-9.4v24.6
		c0,2.6,2.1,4.7,4.7,4.7c2.6,0,4.7-2.1,4.7-4.7v-24.6l9.6,9.6c0.9,0.9,2.1,1.4,3.3,1.4s2.4-0.5,3.3-1.4c1.8-1.8,1.8-4.8,0-6.6
		L-123.2,400.6z"/>
</g>
</svg>
