<?xml version="1.0" encoding="utf-8"?>
<!-- Generator: Adobe Illustrator 19.0.0, SVG Export Plug-In . SVG Version: 6.00 Build 0)  -->
<svg version="1.1" id="Layer_1" xmlns="http://www.w3.org/2000/svg" xmlns:xlink="http://www.w3.org/1999/xlink" x="0px" y="0px"
	 viewBox="-119 347.4 371.1 98.6" style="enable-background:new -119 347.4 371.1 98.6;" xml:space="preserve">
<style type="text/css">
	.st0{fill:#A5BDCE;}
	.st1{fill:#1976D2;}
</style>
<g id="_Bgvc8q4SD8TszRVqpOMgZ" transform="matrix(1, 0, 0, 1, 0, 2.0138187408447266)">
	<path id="_XxxyBKtKLlbxr7oAnxCsM" class="st0" d="M8.6,395.7c1.3-3.1,2-6.4,2-9.7c0-8.7-4.7-16.7-12.2-21.1
		c-6-3.4-13.3-4.2-19.7-2.1c-8-10.9-20.8-17.5-34.4-17.5c-7.5,0-14.9,2-21.4,5.8c-4.4,2.5-8.2,5.8-11.4,9.6
		c-4.8,0.3-9.5,1.7-13.8,4.2c-9.7,5.5-15.7,15.9-15.7,27s6,21.5,15.6,27.1c1.8,1.1,3.8,1.9,5.9,2.6c2.1,6.7,5.9,12.8,11.1,17.7
		c1.8,1.8,4.8,1.7,6.6-0.1c1.8-1.9,1.7-4.8-0.1-6.6c-4.5-4.4-7.7-9.9-9.2-15.9c-0.4-1.7-1.8-3-3.5-3.4c-2.2-0.5-4.3-1.3-6.1-2.4
		c-6.8-3.9-11-11.2-11-19s4.2-15.1,11-19c3.4-1.9,7.2-3,10.8-3c0.1,0,0.4,0,0.5,0c1.6,0.1,2.9-0.7,3.8-1.9c2.7-3.7,6.1-6.7,10.1-9
		c5.1-2.9,10.9-4.5,16.7-4.5c11.9,0,22.6,6.1,28.7,16.3c1.3,2.1,4,2.9,6.2,1.7c4.5-2.4,10.2-2.3,14.6,0.3c4.7,2.7,7.6,7.7,7.6,13.1
		c0,2.7-0.7,5.4-2.1,7.7c-1,1.7-0.9,3.8,0.4,5.3c3.1,3.9,4.8,8.6,4.8,13.6c0,7.8-4.2,15.1-11,19c-3.4,1.9-7.2,3-11,3
		c-0.9,0-1.9-0.1-2.9-0.2c-2.5-0.3-4.9,1.4-5.2,4c-0.4,2.5,1.4,4.9,4,5.2c1.4,0.2,2.8,0.3,4.2,0.3c5.5,0,10.9-1.5,15.6-4.2
		c9.6-5.6,15.6-16,15.6-27.1C13.6,406.5,11.8,400.7,8.6,395.7z"/>
	<path id="_9hw6AzK_ddSf8zx2f9_Qt" class="st1" d="M-48.5,400.1c-0.2-0.2-0.5-0.4-0.7-0.6c-0.1-0.1-0.2-0.1-0.3-0.2
		c-0.2-0.1-0.3-0.2-0.5-0.2c-0.1-0.1-0.3-0.1-0.5-0.1c-0.1,0-0.3-0.1-0.4-0.1c-0.3-0.1-0.6-0.1-0.9-0.1l0,0l0,0
		c-0.3,0-0.6,0-0.9,0.1c-0.1,0-0.3,0.1-0.4,0.1c-0.2,0-0.3,0.1-0.5,0.2c-0.1,0.1-0.3,0.1-0.4,0.2c-0.1,0.1-0.3,0.1-0.4,0.2
		c-0.3,0.2-0.5,0.4-0.7,0.6l-17.3,17.3c-1.8,1.8-1.8,4.8,0,6.6c0.9,0.9,2.1,1.4,3.3,1.4c1.2,0,2.4-0.5,3.3-1.4l9.4-9.4v24.6
		c0,2.6,2.1,4.7,4.7,4.7s4.7-2.1,4.7-4.7v-24.6l9.6,9.6c0.9,0.9,2.1,1.4,3.3,1.4s2.4-0.5,3.3-1.4c1.8-1.8,1.8-4.8,0-6.6L-48.5,400.1
		z"/>
</g>
<path id="_wqSAuYEVEZm1PQGTb8R7u" class="st1" d="M60.9,413.7h8.9c-0.3,4.6-2,8.3-5.1,10.9c-3.1,2.7-7.1,4-12.2,4l0,0
	c-5.5,0-9.8-1.9-13-5.6s-4.7-8.8-4.7-15.3l0,0v-2.6c0-4.1,0.7-7.8,2.2-10.9s3.5-5.6,6.2-7.3c2.7-1.7,5.8-2.5,9.4-2.5l0,0
	c5,0,9,1.3,12,4s4.8,6.4,5.3,11.2l0,0H61c-0.2-2.8-1-4.8-2.3-6s-3.3-1.9-6.1-1.9l0,0c-3,0-5.2,1.1-6.6,3.2c-1.5,2.1-2.2,5.4-2.3,9.8
	l0,0v3.3c0,4.6,0.7,8,2.1,10.2c1.4,2.1,3.6,3.2,6.7,3.2l0,0c2.7,0,4.8-0.6,6.1-1.9C60,418.2,60.7,416.3,60.9,413.7L60.9,413.7z
	 M84,382.6V428h-8.6v-45.4H84z M89.7,412.1v-0.4c0-3.2,0.6-6,1.8-8.5s3-4.4,5.3-5.8s5-2,8-2l0,0c4.3,0,7.8,1.3,10.6,4
	c2.7,2.6,4.2,6.2,4.6,10.8l0,0l0.1,2.2c0,4.9-1.4,8.8-4.1,11.8c-2.7,3-6.4,4.4-11,4.4s-8.3-1.5-11-4.4
	C91.1,421.2,89.7,417.2,89.7,412.1L89.7,412.1z M98.3,412.3L98.3,412.3c0,3,0.6,5.3,1.7,7c1.1,1.6,2.8,2.4,4.9,2.4l0,0
	c2.1,0,3.7-0.8,4.8-2.4s1.7-4.1,1.7-7.6l0,0c0-3-0.6-5.3-1.7-6.9s-2.8-2.4-4.9-2.4l0,0c-2.1,0-3.7,0.8-4.8,2.4
	C98.8,406.4,98.3,408.9,98.3,412.3z M144.6,428l-0.2-3.2c-2.1,2.6-5,3.8-8.7,3.8l0,0c-3.4,0-6-1-7.8-3s-2.7-4.8-2.8-8.6l0,0v-20.9
	h8.5v20.6c0,3.3,1.5,5,4.5,5l0,0c2.9,0,4.9-1,6-3l0,0v-22.6h8.6V428L144.6,428L144.6,428z M157.8,411.8L157.8,411.8
	c0-5,1.1-8.9,3.3-11.9s5.3-4.4,9.2-4.4l0,0c3.1,0,5.7,1.2,7.7,3.5l0,0v-16.3h8.6v45.4h-7.7l-0.4-3.4c-2.1,2.7-4.9,4-8.2,4l0,0
	c-3.8,0-6.8-1.5-9.1-4.4S157.8,417,157.8,411.8z M166.3,412.4L166.3,412.4c0,3,0.5,5.3,1.6,6.9c1,1.6,2.6,2.4,4.5,2.4l0,0
	c2.6,0,4.5-1.1,5.6-3.3l0,0v-12.6c-1.1-2.2-2.9-3.3-5.5-3.3l0,0C168.4,402.4,166.3,405.7,166.3,412.4z M218.1,401.1l-15.1,20h15.6
	v6.9h-26.5v-5.2l15-19.8h-14.6v-6.9h25.6V401.1z M251.1,428h-8.6c-0.4-0.8-0.7-1.7-0.9-2.9l0,0c-2.1,2.3-4.8,3.5-8.1,3.5l0,0
	c-3.1,0-5.7-0.9-7.8-2.7c-2.1-1.8-3.1-4.1-3.1-6.8l0,0c0-3.4,1.3-6,3.8-7.8s6.1-2.7,10.9-2.8l0,0h3.9v-1.8c0-1.5-0.4-2.7-1.1-3.5
	s-2-1.3-3.6-1.3l0,0c-1.4,0-2.6,0.3-3.4,1s-1.2,1.6-1.2,2.8l0,0h-8.5c0-1.9,0.6-3.6,1.7-5.1c1.1-1.6,2.8-2.8,4.8-3.7
	c2.1-0.9,4.4-1.3,7-1.3l0,0c3.9,0,7.1,1,9.4,3s3.5,4.8,3.5,8.3l0,0v13.8c0,3,0.4,5.3,1.3,6.9l0,0L251.1,428L251.1,428z M235.4,422
	L235.4,422c1.3,0,2.4-0.3,3.5-0.8c1.1-0.6,1.8-1.3,2.4-2.3l0,0v-5.5H238c-4.3,0-6.5,1.5-6.8,4.4l0,0v0.5c0,1.1,0.4,1.9,1.1,2.6
	C233.1,421.7,234.1,422,235.4,422z"/>
</svg>
