<?xml version="1.0" encoding="utf-8"?>
<!-- Generator: Adobe Illustrator 19.0.0, SVG Export Plug-In . SVG Version: 6.00 Build 0)  -->
<svg version="1.1" id="Layer_1" xmlns="http://www.w3.org/2000/svg" xmlns:xlink="http://www.w3.org/1999/xlink" x="0px" y="0px"
	 viewBox="-33 306.4 371.1 98.6" style="enable-background:new -33 306.4 371.1 98.6;" xml:space="preserve">
<style type="text/css">
	.st0{fill:#A6B9E0;}
	.st1{fill:#3F70D1;}
</style>
<g id="_Bgvc8q4SD8TszRVqpOMgZ" transform="matrix(1, 0, 0, 1, 0, 2.0138187408447266)">
	<path id="_XxxyBKtKLlbxr7oAnxCsM" class="st0" d="M95.6,354.8c1.3-3.1,2-6.4,2-9.7c0-8.7-4.7-16.7-12.2-21.1
		c-6-3.4-13.3-4.2-19.7-2.1c-8-10.9-20.8-17.5-34.4-17.5c-7.5,0-14.9,2-21.4,5.8c-4.4,2.5-8.2,5.8-11.4,9.6
		c-4.8,0.3-9.5,1.7-13.8,4.2C-25,329.5-31,339.9-31,351c0,11.1,6,21.5,15.6,27.1c1.8,1.1,3.8,1.9,5.9,2.6
		c2.1,6.7,5.9,12.8,11.1,17.7c1.8,1.8,4.8,1.7,6.6-0.1c1.8-1.9,1.7-4.8-0.1-6.6c-4.5-4.4-7.7-9.9-9.2-15.9c-0.4-1.7-1.8-3-3.5-3.4
		c-2.2-0.5-4.3-1.3-6.1-2.4c-6.8-3.9-11-11.2-11-19c0-7.8,4.2-15.1,11-19c3.4-1.9,7.2-3,10.8-3c0.1,0,0.4,0,0.5,0
		c1.6,0.1,2.9-0.7,3.8-1.9c2.7-3.7,6.1-6.7,10.1-9c5.1-2.9,10.9-4.5,16.7-4.5c11.9,0,22.6,6.1,28.7,16.3c1.3,2.1,4,2.9,6.2,1.7
		c4.5-2.4,10.2-2.3,14.6,0.3c4.7,2.7,7.6,7.7,7.6,13.1c0,2.7-0.7,5.4-2.1,7.7c-1,1.7-0.9,3.8,0.4,5.3c3.1,3.9,4.8,8.6,4.8,13.6
		c0,7.8-4.2,15.1-11,19c-3.4,1.9-7.2,3-11,3c-0.9,0-1.9-0.1-2.9-0.2c-2.5-0.3-4.9,1.4-5.2,4c-0.4,2.5,1.4,4.9,4,5.2
		c1.4,0.2,2.8,0.3,4.2,0.3c5.5,0,10.9-1.5,15.6-4.2c9.6-5.6,15.6-16,15.6-27.1C100.6,365.6,98.8,359.8,95.6,354.8z"/>
	<path id="_9hw6AzK_ddSf8zx2f9_Qt" class="st1" d="M38.5,359.2c-0.2-0.2-0.5-0.4-0.7-0.6c-0.1-0.1-0.2-0.1-0.3-0.2
		c-0.2-0.1-0.3-0.2-0.5-0.2c-0.1-0.1-0.3-0.1-0.5-0.1c-0.1,0-0.3-0.1-0.4-0.1c-0.3-0.1-0.6-0.1-0.9-0.1c0,0,0,0,0,0l0,0
		c-0.3,0-0.6,0-0.9,0.1c-0.1,0-0.3,0.1-0.4,0.1c-0.2,0-0.3,0.1-0.5,0.2c-0.1,0.1-0.3,0.1-0.4,0.2c-0.1,0.1-0.3,0.1-0.4,0.2
		c-0.3,0.2-0.5,0.4-0.7,0.6l-17.3,17.3c-1.8,1.8-1.8,4.8,0,6.6c0.9,0.9,2.1,1.4,3.3,1.4s2.4-0.5,3.3-1.4l9.4-9.4v24.6
		c0,2.6,2.1,4.7,4.7,4.7c2.6,0,4.7-2.1,4.7-4.7v-24.6l9.6,9.6c0.9,0.9,2.1,1.4,3.3,1.4s2.4-0.5,3.3-1.4c1.8-1.8,1.8-4.8,0-6.6
		L38.5,359.2z"/>
</g>
<path id="_wqSAuYEVEZm1PQGTb8R7u" class="st1" d="M147.9,372.8h8.9c-0.3,4.6-2,8.3-5.1,10.9c-3.1,2.7-7.1,4-12.2,4l0,0
	c-5.5,0-9.8-1.9-13-5.6c-3.2-3.7-4.7-8.8-4.7-15.3l0,0v-2.6c0-4.1,0.7-7.8,2.2-10.9c1.5-3.1,3.5-5.6,6.2-7.3
	c2.7-1.7,5.8-2.5,9.4-2.5l0,0c5,0,9,1.3,12,4s4.8,6.4,5.3,11.2l0,0H148c-0.2-2.8-1-4.8-2.3-6c-1.3-1.2-3.3-1.9-6.1-1.9l0,0
	c-3,0-5.2,1.1-6.6,3.2c-1.5,2.1-2.2,5.4-2.3,9.8l0,0v3.3c0,4.6,0.7,8,2.1,10.2c1.4,2.1,3.6,3.2,6.7,3.2l0,0c2.7,0,4.8-0.6,6.1-1.9
	C147,377.3,147.7,375.4,147.9,372.8L147.9,372.8z M171,341.7v45.4h-8.6v-45.4H171z M176.7,371.2v-0.4c0-3.2,0.6-6,1.8-8.5
	c1.2-2.5,3-4.4,5.3-5.8c2.3-1.4,5-2,8-2l0,0c4.3,0,7.8,1.3,10.6,4c2.7,2.6,4.2,6.2,4.6,10.8l0,0l0.1,2.2c0,4.9-1.4,8.8-4.1,11.8
	c-2.7,3-6.4,4.4-11,4.4c-4.6,0-8.3-1.5-11-4.4C178.1,380.3,176.7,376.3,176.7,371.2L176.7,371.2z M185.3,371.4L185.3,371.4
	c0,3,0.6,5.3,1.7,7c1.1,1.6,2.8,2.4,4.9,2.4l0,0c2.1,0,3.7-0.8,4.8-2.4s1.7-4.1,1.7-7.6l0,0c0-3-0.6-5.3-1.7-6.9s-2.8-2.4-4.9-2.4
	l0,0c-2.1,0-3.7,0.8-4.8,2.4C185.8,365.5,185.3,368,185.3,371.4z M231.6,387.1l-0.2-3.2c-2.1,2.6-5,3.8-8.7,3.8l0,0
	c-3.4,0-6-1-7.8-3c-1.8-2-2.7-4.8-2.8-8.6l0,0v-20.9h8.5v20.6c0,3.3,1.5,5,4.5,5l0,0c2.9,0,4.9-1,6-3l0,0v-22.6h8.6v31.9H231.6z
	 M244.8,370.9L244.8,370.9c0-5,1.1-8.9,3.3-11.9c2.2-3,5.3-4.4,9.2-4.4l0,0c3.1,0,5.7,1.2,7.7,3.5l0,0v-16.3h8.6v45.4h-7.7l-0.4-3.4
	c-2.1,2.7-4.9,4-8.2,4l0,0c-3.8,0-6.8-1.5-9.1-4.4S244.8,376.1,244.8,370.9z M253.3,371.5L253.3,371.5c0,3,0.5,5.3,1.6,6.9
	c1,1.6,2.6,2.4,4.5,2.4l0,0c2.6,0,4.5-1.1,5.6-3.3l0,0v-12.6c-1.1-2.2-2.9-3.3-5.5-3.3l0,0C255.4,361.5,253.3,364.8,253.3,371.5z
	 M305.1,360.2l-15.1,20h15.6v6.9h-26.5v-5.2l15-19.8h-14.6v-6.9h25.6V360.2z M338.1,387.1h-8.6c-0.4-0.8-0.7-1.7-0.9-2.9l0,0
	c-2.1,2.3-4.8,3.5-8.1,3.5l0,0c-3.1,0-5.7-0.9-7.8-2.7c-2.1-1.8-3.1-4.1-3.1-6.8l0,0c0-3.4,1.3-6,3.8-7.8c2.5-1.8,6.1-2.7,10.9-2.8
	l0,0h3.9v-1.8c0-1.5-0.4-2.7-1.1-3.5s-2-1.3-3.6-1.3l0,0c-1.4,0-2.6,0.3-3.4,1s-1.2,1.6-1.2,2.8l0,0h-8.5c0-1.9,0.6-3.6,1.7-5.1
	c1.1-1.6,2.8-2.8,4.8-3.7c2.1-0.9,4.4-1.3,7-1.3l0,0c3.9,0,7.1,1,9.4,3c2.3,2,3.5,4.8,3.5,8.3l0,0v13.8c0,3,0.4,5.3,1.3,6.9l0,0
	V387.1z M322.4,381.1L322.4,381.1c1.3,0,2.4-0.3,3.5-0.8c1.1-0.6,1.8-1.3,2.4-2.3l0,0v-5.5H325c-4.3,0-6.5,1.5-6.8,4.4l0,0l0,0.5
	c0,1.1,0.4,1.9,1.1,2.6C320.1,380.8,321.1,381.1,322.4,381.1z"/>
</svg>
